<svg width="40" height="40" viewBox="0 0 40 40" fill="none" xmlns="http://www.w3.org/2000/svg">
<rect x="-0.000915527" width="40" height="40" rx="20" fill="#F5F5F5"/>
<path d="M19.9481 22.5399C16.4981 22.5399 13.5872 23.1037 13.5872 25.2794C13.5872 27.4561 16.5169 28 19.9481 28C23.3981 28 26.309 27.4362 26.309 25.2605C26.309 23.0839 23.3793 22.5399 19.9481 22.5399Z" fill="#959895"/>
<path opacity="0.4" d="M19.9481 20.467C22.2842 20.467 24.1574 18.5831 24.1574 16.2335C24.1574 13.8831 22.2842 12 19.9481 12C17.612 12 15.7388 13.8831 15.7388 16.2335C15.7388 18.5831 17.612 20.467 19.9481 20.467Z" fill="#959895"/>
<path opacity="0.4" d="M29.087 17.2193C29.6914 14.8418 27.9194 12.7066 25.663 12.7066C25.4177 12.7066 25.1831 12.7336 24.9538 12.7795C24.9234 12.7867 24.8894 12.802 24.8715 12.829C24.8509 12.8633 24.8661 12.9092 24.8885 12.9389C25.5663 13.8953 25.9558 15.0597 25.9558 16.3097C25.9558 17.5074 25.5985 18.6241 24.9718 19.5508C24.9073 19.6463 24.9646 19.775 25.0783 19.7949C25.2359 19.8228 25.3971 19.8372 25.5618 19.8417C27.2049 19.8849 28.6796 18.8213 29.087 17.2193Z" fill="#959895"/>
<path d="M30.8084 22.8169C30.5075 22.1721 29.7813 21.73 28.6773 21.5129C28.1562 21.385 26.7459 21.2049 25.4342 21.2292C25.4145 21.2319 25.4037 21.2455 25.4019 21.2545C25.3992 21.2671 25.4046 21.2887 25.4306 21.3022C26.0368 21.6039 28.38 22.916 28.0855 25.6834C28.0729 25.8032 28.1687 25.9067 28.2878 25.8887C28.8645 25.8059 30.3481 25.4853 30.8084 24.4866C31.0627 23.9588 31.0627 23.3456 30.8084 22.8169Z" fill="#959895"/>
<path opacity="0.4" d="M15.0439 12.7798C14.8156 12.733 14.5801 12.7068 14.3348 12.7068C12.0783 12.7068 10.3063 14.8421 10.9116 17.2195C11.3181 18.8216 12.7929 19.8852 14.4359 19.842C14.6007 19.8375 14.7628 19.8221 14.9195 19.7951C15.0332 19.7753 15.0905 19.6465 15.026 19.5511C14.3992 18.6235 14.042 17.5077 14.042 16.31C14.042 15.0591 14.4324 13.8947 15.1102 12.9392C15.1317 12.9095 15.1478 12.8635 15.1263 12.8293C15.1084 12.8014 15.0753 12.787 15.0439 12.7798Z" fill="#959895"/>
<path d="M11.3206 21.5127C10.2166 21.7297 9.49133 22.1719 9.19048 22.8167C8.93529 23.3453 8.93529 23.9586 9.19048 24.4872C9.65071 25.485 11.1344 25.8065 11.711 25.8885C11.8301 25.9065 11.925 25.8038 11.9125 25.6831C11.6179 22.9166 13.9612 21.6045 14.5683 21.3028C14.5933 21.2884 14.5987 21.2677 14.596 21.2542C14.5942 21.2452 14.5844 21.2317 14.5647 21.2299C13.252 21.2047 11.8427 21.3848 11.3206 21.5127Z" fill="#959895"/>
</svg>
