<svg width="40" height="40" viewBox="0 0 40 40" fill="none" xmlns="http://www.w3.org/2000/svg">
<rect x="-0.000915527" width="40" height="40" rx="20" fill="#F5F5F5"/>
<path opacity="0.4" d="M19.5856 30C19.4617 30 19.3379 29.9716 19.2262 29.9137L15.6251 28.0496C14.6032 27.5201 13.8039 26.9259 13.1797 26.2336C11.8136 24.7195 11.0535 22.776 11.0414 20.7599L10.9991 14.1243C10.9941 13.3584 11.4884 12.671 12.2273 12.4122L18.8396 10.1068C19.2322 9.96656 19.6701 9.9646 20.0698 10.0999L26.7072 12.3268C27.4502 12.5749 27.9526 13.2574 27.9566 14.0223L27.9989 20.6628C28.012 22.676 27.2781 24.6274 25.9331 26.1581C25.3159 26.8602 24.5236 27.4632 23.5119 28.0025L19.943 29.9088C19.8322 29.9686 19.7094 29.999 19.5856 30Z" fill="#959895"/>
<path d="M18.8183 22.3209C18.625 22.3219 18.4317 22.2523 18.2827 22.1091L16.3659 20.2656C16.0699 19.9793 16.0669 19.5145 16.3598 19.2262C16.6528 18.9369 17.131 18.934 17.428 19.2193L18.8072 20.5451L22.1747 17.2248C22.4687 16.9355 22.9469 16.9326 23.2429 17.2179C23.5399 17.5043 23.5429 17.97 23.2499 18.2574L19.3508 22.1022C19.2038 22.2474 19.0116 22.3199 18.8183 22.3209Z" fill="#959895"/>
</svg>
