<svg width="24" height="25" viewBox="0 0 24 25" fill="none" xmlns="http://www.w3.org/2000/svg">
<path opacity="0.4" fill-rule="evenodd" clip-rule="evenodd" d="M5.91058 21.0885C5.91058 20.2485 6.59058 19.5685 7.43058 19.5685C8.26058 19.5685 8.94058 20.2485 8.94058 21.0885C8.94058 21.9185 8.26058 22.5985 7.43058 22.5985C6.59058 22.5985 5.91058 21.9185 5.91058 21.0885ZM17.1606 21.0885C17.1606 20.2485 17.8406 19.5685 18.6806 19.5685C19.5106 19.5685 20.1906 20.2485 20.1906 21.0885C20.1906 21.9185 19.5106 22.5985 18.6806 22.5985C17.8406 22.5985 17.1606 21.9185 17.1606 21.0885Z" fill="#959895"/>
<path fill-rule="evenodd" clip-rule="evenodd" d="M20.1908 6.84896C20.8008 6.84896 21.2008 7.05896 21.6008 7.51896C22.0008 7.97896 22.0708 8.63896 21.9808 9.23796L21.0308 15.798C20.8508 17.059 19.7708 17.988 18.5008 17.988H7.5908C6.2608 17.988 5.1608 16.968 5.0508 15.649L4.1308 4.74796L2.6208 4.48796C2.2208 4.41796 1.9408 4.02796 2.0108 3.62796C2.0808 3.21796 2.4708 2.94796 2.8808 3.00796L5.2658 3.36796C5.6058 3.42896 5.8558 3.70796 5.8858 4.04796L6.0758 6.28796C6.1058 6.60896 6.3658 6.84896 6.6858 6.84896H20.1908ZM14.1308 12.048H16.9008C17.3208 12.048 17.6508 11.708 17.6508 11.298C17.6508 10.878 17.3208 10.548 16.9008 10.548H14.1308C13.7108 10.548 13.3808 10.878 13.3808 11.298C13.3808 11.708 13.7108 12.048 14.1308 12.048Z" fill="#959895"/>
</svg>
