<svg width="24" height="25" viewBox="0 0 24 25" fill="none" xmlns="http://www.w3.org/2000/svg">
<path fill-rule="evenodd" clip-rule="evenodd" d="M21.9964 8.38831H17.7618C15.7911 8.39178 14.1947 9.94833 14.1911 11.8697C14.1884 13.7955 15.7867 15.359 17.7618 15.3616H22V15.6675C22 19.0268 19.9636 21.0132 16.5173 21.0132H7.48356C4.03644 21.0132 2 19.0268 2 15.6675V8.35104C2 4.99181 4.03644 3.01318 7.48356 3.01318H16.5138C19.96 3.01318 21.9964 4.99181 21.9964 8.35104V8.38831ZM6.73956 8.38051H12.3796H12.3831H12.3902C12.8124 8.37878 13.1538 8.04337 13.152 7.63084C13.1502 7.21916 12.8053 6.88636 12.3831 6.88809H6.73956C6.32 6.88983 5.97956 7.22176 5.97778 7.6317C5.976 8.04337 6.31733 8.37878 6.73956 8.38051Z" fill="#EA6A12"/>
<path opacity="0.4" d="M16.0374 12.3099C16.2465 13.261 17.0805 13.9303 18.0326 13.9129H21.2825C21.6787 13.9129 22 13.5848 22 13.1792V10.6477C21.9991 10.243 21.6787 9.91406 21.2825 9.91319H17.9561C16.8731 9.91667 15.9983 10.8156 16 11.9235C16 12.0531 16.0128 12.1828 16.0374 12.3099Z" fill="#EA6A12"/>
<circle cx="18" cy="11.9132" r="1" fill="#EA6A12"/>
</svg>
