<svg width="40" height="40" viewBox="0 0 40 40" fill="none" xmlns="http://www.w3.org/2000/svg">
<rect x="-0.000915527" width="40" height="40" rx="20" fill="#F5F5F5"/>
<path fill-rule="evenodd" clip-rule="evenodd" d="M32.995 15.9724H28.1251C25.8589 15.9762 24.023 17.7057 24.0189 19.8406C24.0158 21.9804 25.8538 23.7176 28.1251 23.7204H32.9991V24.0604C32.9991 27.7929 30.6572 30 26.694 30H16.3052C12.341 30 9.99908 27.7929 9.99908 24.0604V15.931C9.99908 12.1985 12.341 10 16.3052 10H26.6899C30.6531 10 32.995 12.1985 32.995 15.931V15.9724ZM15.4482 15.9649H21.9342H21.9383H21.9464C22.432 15.963 22.8245 15.5903 22.8225 15.1319C22.8204 14.6745 22.4238 14.3047 21.9383 14.3066H15.4482C14.9657 14.3086 14.5742 14.6774 14.5721 15.1329C14.5701 15.5903 14.9626 15.963 15.4482 15.9649Z" fill="#959895"/>
<path opacity="0.4" d="M26.1421 20.329C26.3826 21.3858 27.3416 22.1294 28.4365 22.1101H32.174C32.6295 22.1101 32.9991 21.7456 32.9991 21.295V18.4821C32.9981 18.0325 32.6295 17.667 32.174 17.666H28.3486C27.1031 17.6699 26.0971 18.6687 26.0991 19.8997C26.0991 20.0437 26.1137 20.1878 26.1421 20.329Z" fill="#959895"/>
<ellipse cx="28.3991" cy="19.8885" rx="1.15" ry="1.11111" fill="#959895"/>
</svg>
