<svg width="52" height="52" viewBox="0 0 52 52" fill="none" xmlns="http://www.w3.org/2000/svg">
<rect width="51.9982" height="52" rx="25.9991" fill="#EA6A12"/>
<path opacity="0.4" d="M30.0737 16H33.4596C34.8619 16 35.9982 17.1459 35.9982 18.56V21.9745C35.9982 23.3886 34.8619 24.5345 33.4596 24.5345H30.0737C28.6714 24.5345 27.5352 23.3886 27.5352 21.9745V18.56C27.5352 17.1459 28.6714 16 30.0737 16Z" fill="white"/>
<path fill-rule="evenodd" clip-rule="evenodd" d="M18.5385 16H21.9245C23.3268 16 24.463 17.1459 24.463 18.56V21.9745C24.463 23.3886 23.3268 24.5345 21.9245 24.5345H18.5385C17.1363 24.5345 16 23.3886 16 21.9745V18.56C16 17.1459 17.1363 16 18.5385 16ZM18.5385 27.4655H21.9245C23.3268 27.4655 24.463 28.6114 24.463 30.0255V33.44C24.463 34.8532 23.3268 36 21.9245 36H18.5385C17.1363 36 16 34.8532 16 33.44V30.0255C16 28.6114 17.1363 27.4655 18.5385 27.4655ZM33.4596 27.4648H30.0737C28.6714 27.4648 27.5352 28.6107 27.5352 30.0248V33.4394C27.5352 34.8525 28.6714 35.9993 30.0737 35.9993H33.4596C34.8619 35.9993 35.9982 34.8525 35.9982 33.4394V30.0248C35.9982 28.6107 34.8619 27.4648 33.4596 27.4648Z" fill="white"/>
</svg>
