<svg width="40" height="40" viewBox="0 0 40 40" fill="none" xmlns="http://www.w3.org/2000/svg">
<rect x="-0.000915527" width="40" height="40" rx="20" fill="#F5F5F5"/>
<path opacity="0.4" d="M21.3042 13.8824V14.0655C20.8135 14.0558 20.3228 14.0558 19.8321 14.0558V13.8921C19.8321 13.2273 19.2728 12.6878 18.6054 12.6878H17.6339C16.525 12.6878 15.6221 11.8015 15.6221 10.7225C15.6221 10.3275 15.9558 10 16.3581 10C16.7703 10 17.0942 10.3275 17.0942 10.7225C17.0942 11.0116 17.3395 11.2428 17.6339 11.2428H18.6054C20.0873 11.2524 21.2944 12.4374 21.3042 13.8824Z" fill="#EA6A12"/>
<path fill-rule="evenodd" clip-rule="evenodd" d="M23.1631 14.0827C23.4782 14.087 23.794 14.0913 24.111 14.0946C27.5163 14.0946 29.9991 16.5223 29.9991 19.8749V24.1812C29.9991 27.5337 27.5163 29.9615 24.111 29.9615C22.7469 29.9904 21.3828 30 20.0089 30C18.635 30 17.2513 29.9904 15.8872 29.9615C12.4819 29.9615 9.99908 27.5337 9.99908 24.1812V19.8749C9.99908 16.5223 12.4819 14.0946 15.897 14.0946C17.1826 14.0753 18.4976 14.056 19.8323 14.056C20.3229 14.056 20.8136 14.056 21.3043 14.0657C21.9229 14.0657 22.5416 14.0741 23.1631 14.0827ZM18.8509 22.7457H17.8205V23.7669C17.8205 24.1619 17.4868 24.4895 17.0845 24.4895C16.6723 24.4895 16.3484 24.1619 16.3484 23.7669V22.7457H15.3082C14.9059 22.7457 14.5722 22.4278 14.5722 22.0232C14.5722 21.6282 14.9059 21.3007 15.3082 21.3007H16.3484V20.2891C16.3484 19.8941 16.6723 19.5666 17.0845 19.5666C17.4868 19.5666 17.8205 19.8941 17.8205 20.2891V21.3007H18.8509C19.2533 21.3007 19.5869 21.6282 19.5869 22.0232C19.5869 22.4278 19.2533 22.7457 18.8509 22.7457ZM23.0217 21.1176H23.1198C23.5221 21.1176 23.8558 20.7997 23.8558 20.3951C23.8558 20.0001 23.5221 19.6725 23.1198 19.6725H23.0217C22.6095 19.6725 22.2856 20.0001 22.2856 20.3951C22.2856 20.7997 22.6095 21.1176 23.0217 21.1176ZM24.6998 24.4317H24.7979C25.2003 24.4317 25.5339 24.1137 25.5339 23.7091C25.5339 23.3141 25.2003 22.9866 24.7979 22.9866H24.6998C24.2876 22.9866 23.9638 23.3141 23.9638 23.7091C23.9638 24.1137 24.2876 24.4317 24.6998 24.4317Z" fill="#EA6A12"/>
</svg>
