<svg width="24" height="25" viewBox="0 0 24 25" fill="none" xmlns="http://www.w3.org/2000/svg">
<path opacity="0.4" d="M13.5645 4.67187V4.89152C12.9757 4.87996 12.3869 4.87996 11.7981 4.87996V4.68343C11.7981 3.88576 11.1268 3.23837 10.326 3.23837H9.1602C7.8295 3.23837 6.74609 2.17481 6.74609 0.880036C6.74609 0.406057 7.14648 0.0130005 7.6293 0.0130005C8.1239 0.0130005 8.51252 0.406057 8.51252 0.880036C8.51252 1.22685 8.80692 1.5043 9.1602 1.5043H10.326C12.1042 1.51586 13.5527 2.9378 13.5645 4.67187Z" fill="#EA6A12"/>
<path fill-rule="evenodd" clip-rule="evenodd" d="M15.7967 4.91277C16.1748 4.91795 16.5538 4.92315 16.9341 4.92704C21.0204 4.92704 23.9998 7.84028 23.9998 11.8633V17.0309C23.9998 21.0539 21.0204 23.9671 16.9341 23.9671C15.2972 24.0018 13.6603 24.0134 12.0117 24.0134C10.363 24.0134 8.70257 24.0018 7.06569 23.9671C2.97936 23.9671 0 21.0539 0 17.0309V11.8633C0 7.84028 2.97936 4.92704 7.07746 4.92704C8.62014 4.90392 10.1981 4.8808 11.7997 4.8808C12.3885 4.8808 12.9773 4.8808 13.5661 4.89236C14.3085 4.89236 15.0508 4.90254 15.7967 4.91277ZM11.1343 15.8122H9.89784V17.0376C9.89784 17.5116 9.49745 17.9046 9.01463 17.9046C8.52003 17.9046 8.13142 17.5116 8.13142 17.0376V15.8122H6.88314C6.40032 15.8122 5.99993 15.4307 5.99993 14.9451C5.99993 14.4712 6.40032 14.0781 6.88314 14.0781H8.13142V12.8643C8.13142 12.3903 8.52003 11.9972 9.01463 11.9972C9.49745 11.9972 9.89784 12.3903 9.89784 12.8643V14.0781H11.1343C11.6172 14.0781 12.0175 14.4712 12.0175 14.9451C12.0175 15.4307 11.6172 15.8122 11.1343 15.8122ZM16.1371 13.8602H16.2548C16.7376 13.8602 17.138 13.4787 17.138 12.9932C17.138 12.5192 16.7376 12.1261 16.2548 12.1261H16.1371C15.6425 12.1261 15.2538 12.5192 15.2538 12.9932C15.2538 13.4787 15.6425 13.8602 16.1371 13.8602ZM18.1527 17.8368H18.2704C18.7533 17.8368 19.1536 17.4553 19.1536 16.9697C19.1536 16.4957 18.7533 16.1027 18.2704 16.1027H18.1527C17.6581 16.1027 17.2695 16.4957 17.2695 16.9697C17.2695 17.4553 17.6581 17.8368 18.1527 17.8368Z" fill="#EA6A12"/>
</svg>
