<svg width="24" height="25" viewBox="0 0 24 25" fill="none" xmlns="http://www.w3.org/2000/svg">
<path d="M11.949 14.5531C8.49903 14.5531 5.58807 15.1168 5.58807 17.2926C5.58807 19.4692 8.51783 20.0132 11.949 20.0132C15.399 20.0132 18.31 19.4494 18.31 17.2737C18.31 15.097 15.3802 14.5531 11.949 14.5531Z" fill="white"/>
<path opacity="0.4" d="M11.949 12.4802C14.2851 12.4802 16.1583 10.5962 16.1583 8.2467C16.1583 5.89625 14.2851 4.01318 11.949 4.01318C9.61293 4.01318 7.73975 5.89625 7.73975 8.2467C7.73975 10.5962 9.61293 12.4802 11.949 12.4802Z" fill="white"/>
<path opacity="0.4" d="M21.0879 9.23244C21.6923 6.85498 19.9203 4.71976 17.6639 4.71976C17.4186 4.71976 17.184 4.74677 16.9548 4.7927C16.9243 4.79991 16.8903 4.81522 16.8724 4.84223C16.8518 4.87645 16.867 4.92238 16.8894 4.9521C17.5672 5.90849 17.9567 7.07291 17.9567 8.32288C17.9567 9.52062 17.5995 10.6373 16.9727 11.564C16.9082 11.6594 16.9655 11.7882 17.0792 11.808C17.2368 11.836 17.398 11.8504 17.5627 11.8549C19.2058 11.8981 20.6805 10.8345 21.0879 9.23244Z" fill="white"/>
<path d="M22.8093 14.8301C22.5084 14.1853 21.7823 13.7431 20.6782 13.5261C20.1571 13.3982 18.7468 13.2181 17.4351 13.2424C17.4154 13.2451 17.4046 13.2586 17.4028 13.2676C17.4002 13.2803 17.4055 13.3019 17.4315 13.3154C18.0377 13.6171 20.381 14.9292 20.0864 17.6966C20.0738 17.8164 20.1696 17.9199 20.2887 17.9019C20.8654 17.8191 22.349 17.4985 22.8093 16.4997C23.0636 15.972 23.0636 15.3587 22.8093 14.8301Z" fill="white"/>
<path opacity="0.4" d="M7.04483 4.79298C6.8165 4.74615 6.58101 4.72003 6.33567 4.72003C4.07926 4.72003 2.30726 6.85525 2.91255 9.23272C3.31906 10.8348 4.79379 11.8984 6.43685 11.8551C6.60161 11.8506 6.76368 11.8353 6.92037 11.8083C7.03409 11.7885 7.09139 11.6597 7.02692 11.5643C6.40014 10.6367 6.04288 9.5209 6.04288 8.32316C6.04288 7.07228 6.43327 5.90787 7.11109 4.95238C7.13258 4.92266 7.1487 4.87673 7.12721 4.84251C7.1093 4.81459 7.07617 4.80018 7.04483 4.79298Z" fill="white"/>
<path d="M3.32156 13.5259C2.21752 13.7429 1.49225 14.1851 1.19139 14.8299C0.936203 15.3585 0.936203 15.9718 1.19139 16.5004C1.65163 17.4982 3.13531 17.8197 3.71195 17.9017C3.83104 17.9197 3.92595 17.817 3.91342 17.6963C3.61883 14.9298 5.9621 13.6177 6.56918 13.316C6.59425 13.3016 6.59962 13.2809 6.59694 13.2674C6.59515 13.2584 6.5853 13.2449 6.5656 13.2431C5.25294 13.2179 3.84358 13.398 3.32156 13.5259Z" fill="white"/>
</svg>
