<svg width="40" height="40" viewBox="0 0 40 40" fill="none" xmlns="http://www.w3.org/2000/svg">
<rect x="-0.000915527" width="40" height="40" rx="20" fill="#F5F5F5"/>
<path opacity="0.4" d="M19.9903 26.6198L13.4985 29.8623C13.0083 30.1284 12.3968 29.9508 12.1226 29.4626C12.0425 29.3091 12.0001 29.1385 11.9991 28.9651V21.707C11.9991 22.4266 12.4048 22.8708 13.4721 23.3683L19.9903 26.6198Z" fill="#959895"/>
<path fill-rule="evenodd" clip-rule="evenodd" d="M16.8943 10H23.0685C25.7764 10 27.9726 11.0661 27.9991 13.7934V28.9668C27.998 29.1374 27.9556 29.3051 27.8756 29.4554C27.747 29.7007 27.525 29.8827 27.2606 29.9598C26.9961 30.0368 26.7119 30.0023 26.4732 29.8641L19.9903 26.6215L13.4721 23.3701C12.4048 22.8726 11.9991 22.4284 11.9991 21.7088V13.7934C11.9991 11.0661 14.1953 10 16.8943 10ZM16.2216 17.6204H23.7453C24.1788 17.6204 24.5303 17.2664 24.5303 16.8297C24.5303 16.3931 24.1788 16.0391 23.7453 16.0391H16.2216C15.788 16.0391 15.4366 16.3931 15.4366 16.8297C15.4366 17.2664 15.788 17.6204 16.2216 17.6204Z" fill="#959895"/>
</svg>
