<svg width="24" height="25" viewBox="0 0 24 25" fill="none" xmlns="http://www.w3.org/2000/svg">
<path opacity="0.4" d="M11.9912 18.6193L5.49945 21.8618C5.00921 22.128 4.39768 21.9503 4.12348 21.4621C4.0434 21.3086 4.00106 21.138 4 20.9646V13.7065C4 14.4261 4.40573 14.8703 5.47299 15.3678L11.9912 18.6193Z" fill="#EA6A12"/>
<path fill-rule="evenodd" clip-rule="evenodd" d="M8.89526 1.99951H15.0695C17.7773 1.99951 19.9735 3.06556 20 5.79288V20.9664C19.9989 21.1369 19.9565 21.3046 19.8765 21.455C19.7479 21.7002 19.5259 21.8822 19.2615 21.9593C18.997 22.0363 18.7128 22.0018 18.4741 21.8636L11.9912 18.621L5.47299 15.3696C4.40573 14.8721 4 14.4279 4 13.7083V5.79288C4 3.06556 6.19625 1.99951 8.89526 1.99951ZM8.22446 9.61988H15.7482C16.1817 9.61988 16.5332 9.2659 16.5332 8.82923C16.5332 8.39256 16.1817 8.03857 15.7482 8.03857H8.22446C7.79091 8.03857 7.43945 8.39256 7.43945 8.82923C7.43945 9.2659 7.79091 9.61988 8.22446 9.61988Z" fill="#EA6A12"/>
</svg>
