<svg width="40" height="40" viewBox="0 0 40 40" fill="none" xmlns="http://www.w3.org/2000/svg">
<rect x="-0.000915527" width="40" height="40" rx="20" fill="#F5F5F5"/>
<path opacity="0.4" d="M29.2491 21.4764C28.4281 21.4764 27.7601 20.8145 27.7601 20.001C27.7601 19.1865 28.4281 18.5246 29.2491 18.5246C29.4481 18.5246 29.6391 18.4463 29.7791 18.3076C29.9201 18.1679 29.9991 17.9786 29.9991 17.7815L29.9981 15.1042C29.9981 12.841 28.1391 11 25.8551 11H14.1431C11.8591 11 10.0001 12.841 10.0001 15.1042L9.99908 17.8677C9.99908 18.0648 10.0781 18.2541 10.2191 18.3938C10.3591 18.5325 10.5501 18.6108 10.7491 18.6108C11.5981 18.6108 12.2381 19.2083 12.2381 20.001C12.2381 20.8145 11.5701 21.4764 10.7491 21.4764C10.3351 21.4764 9.99908 21.8093 9.99908 22.2195V24.8949C9.99908 27.158 11.8571 29 14.1421 29H25.8561C28.1411 29 29.9991 27.158 29.9991 24.8949V22.2195C29.9991 21.8093 29.6631 21.4764 29.2491 21.4764Z" fill="#959895"/>
<path d="M23.4296 19.5886L22.2506 20.7366L22.5296 22.3596C22.5776 22.6406 22.4646 22.9176 22.2336 23.0836C22.0046 23.2516 21.7056 23.2726 21.4536 23.1386L19.9986 22.3736L18.5406 23.1396C18.4326 23.1966 18.3146 23.2266 18.1976 23.2266C18.0446 23.2266 17.8936 23.1786 17.7636 23.0846C17.5336 22.9176 17.4206 22.6406 17.4686 22.3596L17.7466 20.7366L16.5676 19.5886C16.3636 19.3906 16.2926 19.0996 16.3806 18.8286C16.4696 18.5586 16.6996 18.3666 16.9806 18.3266L18.6066 18.0896L19.3356 16.6126C19.4626 16.3586 19.7166 16.2006 19.9986 16.2006H20.0006C20.2836 16.2016 20.5376 16.3596 20.6626 16.6136L21.3916 18.0896L23.0206 18.3276C23.2986 18.3666 23.5286 18.5586 23.6166 18.8286C23.7056 19.0996 23.6346 19.3906 23.4296 19.5886Z" fill="#959895"/>
</svg>
