<svg width="20" height="19" viewBox="0 0 20 19" fill="none" xmlns="http://www.w3.org/2000/svg">
<path opacity="0.4" d="M19.25 10.4896C18.429 10.4896 17.761 9.82767 17.761 9.01417C17.761 8.19969 18.429 7.53779 19.25 7.53779C19.449 7.53779 19.64 7.45951 19.78 7.32079C19.921 7.18108 20 6.99183 20 6.79464L19.999 4.11733C19.999 1.85421 18.14 0.0131836 15.856 0.0131836H4.144C1.86 0.0131836 0.001 1.85421 0.001 4.11733L0 6.88085C0 7.07803 0.079 7.26728 0.22 7.407C0.36 7.54572 0.551 7.62399 0.75 7.62399C1.599 7.62399 2.239 8.22149 2.239 9.01417C2.239 9.82767 1.571 10.4896 0.75 10.4896C0.336 10.4896 0 10.8225 0 11.2327V13.908C0 16.1712 1.858 18.0132 4.143 18.0132H15.857C18.142 18.0132 20 16.1712 20 13.908V11.2327C20 10.8225 19.664 10.4896 19.25 10.4896Z" fill="#EA6A12"/>
<path d="M13.4305 8.60178L12.2515 9.74978L12.5305 11.3728C12.5785 11.6538 12.4655 11.9308 12.2345 12.0968C12.0055 12.2648 11.7065 12.2858 11.4545 12.1518L9.99952 11.3868L8.54152 12.1528C8.43352 12.2098 8.31552 12.2398 8.19852 12.2398C8.04552 12.2398 7.89452 12.1918 7.76452 12.0978C7.53452 11.9308 7.42152 11.6538 7.46952 11.3728L7.74752 9.74978L6.56852 8.60178C6.36452 8.40378 6.29352 8.11278 6.38152 7.84178C6.47052 7.57178 6.70052 7.37978 6.98152 7.33978L8.60752 7.10278L9.33652 5.62578C9.46352 5.37178 9.71752 5.21378 9.99952 5.21378H10.0015C10.2845 5.21478 10.5385 5.37278 10.6635 5.62678L11.3925 7.10278L13.0215 7.34078C13.2995 7.37978 13.5295 7.57178 13.6175 7.84178C13.7065 8.11278 13.6355 8.40378 13.4305 8.60178Z" fill="#EA6A12"/>
</svg>
