<svg width="65" height="64" viewBox="0 0 65 64" fill="none" xmlns="http://www.w3.org/2000/svg">
<g clip-path="url(#clip0_2_2234)">
<path fill-rule="evenodd" clip-rule="evenodd" d="M32.8963 57.5362C47.1141 57.5362 58.7181 50.3495 58.7181 41.5043C58.7181 32.6591 47.1141 25.4724 32.8963 25.4724C18.6785 25.4724 7.07449 32.6591 7.07449 41.5043C7.07449 50.3495 18.6785 57.5362 32.8963 57.5362Z" fill="#CF6030"/>
<path fill-rule="evenodd" clip-rule="evenodd" d="M32.8963 25.4299C46.7577 25.4299 58.0844 32.2339 58.7181 40.7388C58.124 49.2438 46.7973 56.0478 32.8963 56.0478C18.9953 56.0478 7.70816 49.2438 7.07449 40.7388C7.70816 32.2339 19.0349 25.4299 32.8963 25.4299Z" fill="#E47B06"/>
<path fill-rule="evenodd" clip-rule="evenodd" d="M32.8962 53.2412C47.1932 53.2412 58.8368 46.7774 58.8368 38.8252C58.8368 30.8731 47.1932 24.4093 32.8962 24.4093C18.5991 24.4093 6.95557 30.8731 6.95557 38.8252C6.95557 46.7349 18.5991 53.2412 32.8962 53.2412Z" fill="#F6D695"/>
<path fill-rule="evenodd" clip-rule="evenodd" d="M1.60897 36.3588C0.14362 37.2944 0.104017 38.7827 1.60897 39.6758L29.4109 57.0259C30.8763 57.9615 33.2921 57.9615 34.7575 57.0259L63.3911 39.293C64.8565 38.3575 64.8961 36.8691 63.3911 35.9761L35.5892 18.6259C34.1238 17.7329 31.708 17.7329 30.2426 18.6259L1.60897 36.3588Z" fill="#FEBD30"/>
<path fill-rule="evenodd" clip-rule="evenodd" d="M1.60897 34.8279C0.14362 35.7635 0.104017 37.2518 1.60897 38.1448L29.4109 55.495C30.8763 56.4306 33.2921 56.4306 34.7575 55.495L63.3911 37.7621C64.8565 36.8266 64.8961 35.3382 63.3911 34.4452L35.5892 17.095C34.1238 16.202 31.708 16.202 30.2426 17.095L1.60897 34.8279Z" fill="#FCD041"/>
<path fill-rule="evenodd" clip-rule="evenodd" d="M33.0151 22.4531C47.1141 22.4531 58.5201 29.1721 58.5201 37.4219C58.5201 38.8252 58.2032 40.101 57.6884 41.2917L41.3319 51.4126C40.8567 51.4976 40.3418 51.6677 40.223 51.7103C40.1438 51.7528 40.1042 51.7953 39.9854 51.7953C39.6686 51.7953 34.4805 52.0079 34.2824 52.2206C34.2032 52.1355 33.6488 52.2631 33.5696 52.3056H33.6092C32.7775 52.3056 29.8864 51.8378 29.2131 52.2206H29.2527C28.9359 52.2206 28.2626 52.0505 27.9854 52.093C27.3913 51.7528 25.1735 51.8378 24.5003 51.5402C24.421 51.4551 22.9161 51.1149 21.926 50.8598L9.84679 43.3329C9.72798 42.8226 9.25273 42.695 8.89629 42.3973C8.02501 40.9089 7.47055 39.2505 7.47055 37.4644C7.47055 29.1721 18.9161 22.4531 33.0151 22.4531Z" fill="#D69508"/>
<path fill-rule="evenodd" clip-rule="evenodd" d="M61.5297 33.2545C61.807 33.5522 61.9654 33.8499 61.807 34.105C61.6881 34.2751 61.5693 34.3602 61.4505 34.4027H61.4109C61.3713 34.4027 61.3713 34.4027 61.3317 34.4027C60.7376 34.5728 59.906 34.6153 59.1931 34.5728C59.5495 35.0406 59.9852 35.5509 60.302 35.9336C61.0545 36.8266 61.0941 37.0392 60.7773 36.9542C60.7376 37.0818 59.8664 36.9967 58.8763 36.7841C59.2723 37.1668 59.4703 37.507 59.0743 37.507C59.0347 37.5921 57.8466 37.6771 56.6188 37.6346C56.7773 37.6771 56.8961 37.7196 57.0545 37.7622C59.2327 38.3575 59.5099 38.8678 58.9159 38.9954C58.599 39.1655 56.8565 39.2505 55.906 39.0379C55.7079 40.1435 55.4307 42.0146 54.9951 42.1422C54.9555 42.1422 54.9159 42.1422 54.8763 42.1422C54.8367 42.1422 54.8367 42.0997 54.7971 42.0572C54.401 41.7595 53.9654 41.3342 53.4505 40.7814C53.3713 41.4618 53.2921 42.0572 53.0545 41.8445C52.5396 41.6319 52.1832 41.5043 51.8664 41.4193C51.7872 42.1422 51.7475 42.9502 51.3515 42.7376C47.0743 41.4618 41.0545 39.7608 37.0149 38.5276C36.104 38.2299 34.3614 37.7196 34.0842 37.1243C33.8466 36.6565 33.4505 36.2738 33.2525 35.721C33.1337 35.4233 32.8169 34.02 32.7773 34.105C34.2426 32.4465 35.7476 31.6811 37.4505 31.3409C39.4307 30.7881 41.6881 30.9582 44.7376 31.1708C49.1733 31.4685 52.1436 31.0007 56.3812 30.2778H56.5L61.5297 33.2545Z" fill="#D69508"/>
<path fill-rule="evenodd" clip-rule="evenodd" d="M4.10397 33.297C3.82674 33.6372 3.50991 34.02 3.27229 34.2751C2.51981 35.1681 2.48021 35.3808 2.79704 35.2957C2.83664 35.4233 3.70793 35.3382 4.69803 35.1256C4.30199 35.5083 4.10397 35.8485 4.50001 35.8485C4.53961 35.9336 5.72773 36.0186 6.95546 35.9761C6.79704 36.0186 6.67823 36.0612 6.51981 36.1037C4.34159 36.699 4.06437 37.2093 4.65843 37.3369C4.97526 37.507 6.71783 37.5921 7.66833 37.3794C7.86635 38.4851 8.14357 40.3562 8.57922 40.4837C8.61882 40.4837 8.65843 40.4837 8.69803 40.4837C8.73763 40.4837 8.73763 40.4412 8.77724 40.3987C9.17328 40.101 9.60892 39.6758 10.1238 39.1229C10.203 39.7608 10.2822 40.3987 10.5198 40.1861C11.0347 39.9734 11.3911 39.8459 11.7079 39.7608C11.7871 40.4837 11.8267 41.2917 12.2228 41.0791C16.5 39.8033 22.5198 38.1023 26.5594 36.8691C27.4703 36.5715 29.2129 36.0612 29.4901 35.4658C29.7277 34.998 30.1238 34.6153 30.3218 34.0625C30.4406 33.7648 30.7574 32.3615 30.797 32.4465C29.3317 30.7881 27.8267 30.0226 26.1238 29.6824C24.1436 29.1296 21.8861 29.2997 18.8366 29.5123C15.8267 29.7249 13.4901 29.5548 10.9951 29.2146L4.10397 33.297Z" fill="#D69508"/>
<path fill-rule="evenodd" clip-rule="evenodd" d="M32.8959 21.9003C46.9949 21.9003 58.4008 28.6193 58.4008 36.8691C58.4008 42.5674 53.2919 46.5648 48.7375 48.606C48.3018 48.606 47.589 48.8611 47.2721 49.2013L47.3909 49.0738C47.1533 49.0738 46.8761 49.0312 46.6385 49.1588C46.4009 49.2864 46.1236 49.4565 45.9652 49.6691C45.9652 49.6691 44.9751 49.8392 44.9355 49.8392C44.4207 50.0944 43.787 49.9243 43.3117 50.4346C43.3117 50.4346 42.1632 50.7748 42.1236 50.7748C42.0048 50.6472 40.4207 51.0299 40.1434 51.1575C40.0642 51.2 40.0246 51.2425 39.9058 51.2425C39.589 51.2425 34.4009 51.4552 34.2028 51.6678C34.1236 51.5827 33.5692 51.7103 33.49 51.7528H33.5296C32.6979 51.7528 29.8068 51.2851 29.1335 51.6678H29.1731C28.8563 51.6678 28.183 51.4977 27.9058 51.5402C27.3117 51.2 25.0939 51.2851 24.4207 50.9874C24.3414 50.9023 21.49 50.2645 21.1335 50.0944C20.9355 49.8817 19.8266 49.6266 19.4306 49.4565C19.3513 49.414 19.2325 49.3289 19.1137 49.2864C17.7276 48.7761 15.589 48.1382 14.5197 47.0751C14.5197 46.9475 14.1236 46.6073 14.0048 46.5223C13.8068 46.3947 13.4504 46.3522 13.2523 46.4797C12.6187 46.012 12.0642 45.2465 11.3513 44.8213C11.2325 44.6086 11.1929 44.3535 10.9949 44.2259C10.8365 44.0558 10.4801 44.0558 10.4009 43.8857V43.9282C10.4009 43.4179 10.0048 43.2478 9.72758 42.9076L9.8464 43.0352C9.8464 42.3548 9.29194 42.2272 8.8563 41.887C7.98501 40.3987 7.43055 38.7402 7.43055 36.9542C7.39095 28.6193 18.7969 21.9003 32.8959 21.9003Z" fill="#753033"/>
<path fill-rule="evenodd" clip-rule="evenodd" d="M32.8959 18.796C46.9949 18.796 58.4008 25.1323 58.4008 32.9994C58.4008 40.3987 48.183 46.5223 35.1533 47.1176C34.2028 46.7774 32.7375 47.4153 31.8266 47.0326C31.2721 46.6924 30.6385 47.4153 30.1632 46.9901C29.688 46.3097 29.0147 47.2452 28.4207 46.8625C28.1038 46.6924 27.589 46.6073 27.2325 46.7774H27.2721C26.7177 46.7774 25.4108 46.4372 24.8563 46.2246C24.381 45.6718 23.8266 46.0545 23.5494 45.8844L23.589 45.8419C23.1533 45.8419 22.4009 45.119 22.084 45.5867C21.49 45.4166 20.6979 45.4592 20.1038 45.2465C19.7474 44.6087 19.0345 45.1615 18.5989 44.6937C18.4801 44.6937 18.2028 44.4811 18.0048 44.4811C11.589 41.8871 7.43055 37.7196 7.43055 32.9568C7.39095 25.1323 18.7969 18.796 32.8959 18.796Z" fill="#883C3D"/>
<path fill-rule="evenodd" clip-rule="evenodd" d="M28.6982 29.2146C28.6586 29.1721 28.6586 29.1721 28.619 29.1296L28.5794 29.087L28.5398 29.0445C28.5002 29.002 28.4606 28.9169 28.421 28.8319C28.3022 28.6618 28.1833 28.4492 28.0645 28.194V28.1515V28.109V28.0664V28.0239V27.9814V27.9389C26.8764 26.1953 25.0546 23.3462 21.2527 23.3887C11.1933 23.5163 8.22295 29.3422 7.6685 33.8924C7.62889 34.2751 7.62889 34.7003 7.7081 35.1256C7.7081 35.2106 7.7081 35.2531 7.6685 35.3382C7.15365 39.3355 12.6982 43.9282 18.0447 44.5661C24.0645 45.289 32.619 42.4824 34.2824 37.8472C34.6388 36.9116 34.6784 36.1462 34.52 35.5083C35.0744 32.404 32.1041 31.4684 30.0051 30.2777H29.9655L29.9259 30.2352H29.8863H29.8467H29.8071H29.7675L29.6883 30.1927H29.6487H29.6091L29.5299 30.1502L29.4507 30.1076H29.4111H29.3715C29.2923 30.0651 29.213 30.0226 29.1338 29.9801C29.0546 29.9375 28.9754 29.895 28.9358 29.81C28.8962 29.7674 28.8566 29.7674 28.8566 29.7249C28.817 29.6824 28.7774 29.6824 28.7774 29.6399C28.7378 29.5973 28.7378 29.5973 28.6982 29.5548C28.7378 29.2571 28.6982 29.2571 28.6982 29.2146Z" fill="#652D2D"/>
<path fill-rule="evenodd" clip-rule="evenodd" d="M33.7279 32.6591C33.7675 32.6166 33.7675 32.6166 33.8071 32.5741L33.8467 32.5316L33.8863 32.489C33.9259 32.4465 33.9655 32.3615 34.0051 32.2764C34.1239 32.1063 34.2427 31.8937 34.3615 31.6385V31.596V31.5535V31.511V31.4684V31.4259V31.3834C35.3912 29.5973 37.213 26.7907 41.015 26.8332C51.0744 26.9608 54.0447 32.7867 54.5992 37.3369C54.6388 37.7196 54.6388 38.1448 54.5596 38.5701C54.5596 38.6551 54.5596 38.6977 54.5992 38.7827C55.114 42.7801 49.5695 47.3728 44.2229 48.0106C38.2031 48.7336 29.6487 45.9269 27.9853 41.2917C27.6289 40.3561 27.5893 39.5907 27.7477 38.9528C27.1932 35.8485 30.1635 34.913 32.2625 33.7223H32.3021L32.3417 33.6797H32.3813H32.4209H32.4605H32.5002L32.5794 33.6372H32.619H32.6586L32.7378 33.5947L32.817 33.5522H32.8566H32.8962C32.9754 33.5096 33.0546 33.4671 33.1338 33.4246C33.213 33.3821 33.2922 33.3395 33.3318 33.2545C33.3714 33.212 33.411 33.212 33.411 33.1694C33.4506 33.1269 33.4903 33.1269 33.4903 33.0844C33.5299 33.0419 33.5299 33.0419 33.5695 32.9993C33.6883 32.7017 33.7279 32.6591 33.7279 32.6591Z" fill="#652D2D"/>
<path fill-rule="evenodd" clip-rule="evenodd" d="M26.7573 29.5122C25.9652 28.6617 24.381 23.6438 19.3117 23.6863C9.2523 23.8139 6.28201 29.6398 5.72755 34.19C5.2127 38.1873 10.7573 42.78 16.1038 43.4179C22.1236 44.1408 30.678 41.3342 32.3414 36.6989C34.1236 31.9787 28.6186 31.4684 26.7573 29.5122Z" fill="#C4262E"/>
<path fill-rule="evenodd" clip-rule="evenodd" d="M26.7572 28.1089C25.9651 27.2584 24.3809 22.2405 19.3116 22.283C9.2522 22.4106 6.28191 28.2365 5.72745 32.7867C5.2522 36.7415 10.7572 41.3342 16.1433 41.9721C22.1631 42.695 30.7175 39.8883 32.3809 35.2531C34.1235 30.5329 28.6185 30.0651 26.7572 28.1089Z" fill="#E9311A"/>
<path fill-rule="evenodd" clip-rule="evenodd" d="M26.0048 28.4916C25.2919 27.7262 23.8662 23.1335 19.1929 23.176C10.0444 23.2611 7.35132 28.5767 6.83647 32.7441C6.40082 36.4013 11.4305 40.5687 16.3414 41.1641C21.8464 41.802 29.6483 39.2505 31.1929 35.0405C32.7375 30.7029 27.7078 30.2777 26.0048 28.4916Z" fill="#F07464"/>
<path fill-rule="evenodd" clip-rule="evenodd" d="M21.4105 28.9595C20.7769 28.0664 19.7868 27.0458 18.2422 27.0033C13.1333 26.7907 11.9056 29.895 11.8264 32.3615C11.7868 34.5302 14.7967 37.1668 17.5689 37.6771C20.6977 38.2299 25.3709 37.2943 26.0046 34.8279C26.3214 33.5096 25.2521 32.3615 24.46 31.8086C25.4897 30.8731 26.7571 29.895 28.1828 29.1296C27.6284 28.8319 27.1135 28.4917 26.7571 28.109C26.559 27.8963 26.2818 27.4286 25.965 26.7907C24.4204 27.5987 23.0739 28.4066 21.4105 28.9595Z" fill="#FFB596"/>
<path fill-rule="evenodd" clip-rule="evenodd" d="M20.9354 28.4917C22.3611 24.5794 18.8364 22.7933 13.2522 26.1953C9.37101 28.5767 9.13339 30.8306 10.0839 33.9349C10.6383 35.8485 13.9651 33.9349 13.2522 32.5315C11.074 28.3641 18.6383 24.5369 18.5591 29.087C18.4799 29.9375 20.4601 29.7674 20.9354 28.4917Z" fill="#E52614"/>
<path fill-rule="evenodd" clip-rule="evenodd" d="M25.0539 32.5741C30.4004 33.3395 31.0341 36.4864 24.4202 38.6977C19.8262 40.2286 16.9747 39.3781 13.648 37.3794C11.5886 36.1462 15.3509 34.7854 16.7371 35.891C20.8163 39.1654 28.8163 35.8485 23.2321 33.8923C22.242 33.5521 23.3113 32.3189 25.0539 32.5741Z" fill="#E52614"/>
<path fill-rule="evenodd" clip-rule="evenodd" d="M37.1735 34.4451C37.9656 33.5946 39.5497 28.5767 44.619 28.6192C54.6784 28.7468 57.6487 34.5727 58.2032 39.1229C58.718 43.1202 53.1735 47.7129 47.8269 48.3508C41.8071 49.0737 33.2527 46.2671 31.5893 41.6319C29.8071 36.8691 35.3121 36.4013 37.1735 34.4451Z" fill="#C4262E"/>
<path fill-rule="evenodd" clip-rule="evenodd" d="M37.1735 32.9993C37.9656 32.1488 39.5497 27.1309 44.619 27.1734C54.6784 27.301 57.6487 33.1269 58.2032 37.677C58.718 41.6744 53.1735 46.2671 47.8269 46.905C41.8071 47.6279 33.2527 44.8212 31.5893 40.186C29.8071 35.4232 35.3121 34.9555 37.1735 32.9993Z" fill="#E9311A"/>
<path fill-rule="evenodd" clip-rule="evenodd" d="M37.9262 33.382C38.6391 32.6166 40.0648 28.0239 44.7381 28.0664C53.9262 28.1515 56.6193 33.4671 57.1341 37.6345C57.5698 41.2917 52.5401 45.4591 47.6292 46.0544C42.1242 46.6923 34.3222 44.1408 32.7777 39.9309C31.1935 35.5933 36.2232 35.1681 37.9262 33.382Z" fill="#F07464"/>
<path fill-rule="evenodd" clip-rule="evenodd" d="M42.5198 33.8498C43.1535 32.9568 44.1436 31.9362 45.6882 31.8937C50.7971 31.6811 52.0248 34.7854 52.104 37.2518C52.1436 39.4206 49.1337 42.0571 46.3614 42.5674C43.2327 43.1203 38.5594 42.1847 37.9258 39.7183C37.6089 38.4 38.6783 37.2518 39.4703 36.699C38.4406 35.7635 37.1733 34.7854 35.7476 34.0199C36.302 33.7223 36.8169 33.3821 37.1733 32.9993C37.3713 32.7867 37.6089 32.3189 37.9654 31.6811C39.5495 32.489 40.8565 33.297 42.5198 33.8498Z" fill="#FFB596"/>
<path fill-rule="evenodd" clip-rule="evenodd" d="M43.035 33.4246C41.6092 29.5123 45.134 27.7262 50.7181 31.1282C54.5993 33.5096 54.8369 35.7635 53.8864 38.8678C53.332 40.7814 50.0053 38.8678 50.7181 37.4645C52.8963 33.297 45.332 29.4698 45.4112 34.0199C45.4508 34.8279 43.4706 34.7003 43.035 33.4246Z" fill="#E52614"/>
<path fill-rule="evenodd" clip-rule="evenodd" d="M38.8763 37.4644C33.5297 38.2299 32.8961 41.3767 39.5099 43.588C44.104 45.1189 46.9555 44.2684 50.2822 42.2698C52.3416 41.0365 48.5792 39.6757 47.1931 40.7814C43.1139 44.0558 35.1139 40.7389 40.698 38.7827C41.6881 38.4425 40.6188 37.2093 38.8763 37.4644Z" fill="#E52614"/>
<path fill-rule="evenodd" clip-rule="evenodd" d="M38.0443 31.1282C40.1829 31.1282 41.9651 30.1502 41.9651 28.9595C41.9651 27.7688 40.2225 26.7907 38.0443 26.7907C35.9057 26.7907 34.1235 27.7688 34.1235 28.9595C34.1235 30.1502 35.9057 31.1282 38.0443 31.1282Z" fill="#ED1C24"/>
<path fill-rule="evenodd" clip-rule="evenodd" d="M2.55958 23.5588C5.84671 23.1336 8.53978 23.1761 5.25265 23.3036C4.34176 23.3462 1.7675 27.0884 2.67839 27.386C3.7477 27.7262 5.49028 27.4286 6.12394 26.8757C9.37146 23.899 5.7279 27.9814 4.89622 29.6399C4.42097 30.5754 3.66849 30.8306 3.7081 31.0432C3.90612 31.511 8.7378 29.2997 9.37146 28.4492C10.718 26.6206 9.60909 27.386 7.47047 29.5123C6.7576 30.1927 5.45067 31.2558 5.60909 31.6385C5.68829 31.8937 9.49027 31.511 10.6388 30.8306C13.4903 29.087 11.7477 30.2777 8.61899 31.8937C6.79721 32.8292 5.6883 33.5947 6.00513 33.8073C6.51998 34.1475 10.5596 33.6797 9.68829 32.5316C9.49027 32.2339 10.3616 38.4 10.8368 37.8046C11.4705 36.9541 12.1833 35.7209 13.0546 33.8924C13.8467 34.0199 12.2626 37.4644 12.7378 37.1243C16.8962 34.0625 13.6487 38.7402 14.6784 38.1874C19.0744 35.7209 25.3319 32.404 29.4507 30.0651C30.4012 29.5123 32.1437 28.4917 32.3814 27.5987C32.5794 26.9183 32.8962 26.2379 33.015 25.4299C33.0942 24.9621 33.213 22.8784 33.2923 22.9635C29.4903 18.4133 26.322 19.2213 20.6982 20.412C15.9457 21.4326 12.6982 21.1349 8.02493 20.7096C5.29226 20.4545 2.12394 20.6671 2.55958 23.5588Z" fill="#699B42"/>
<path fill-rule="evenodd" clip-rule="evenodd" d="M2.55954 23.5588C3.35162 20.5395 5.76746 21.6877 4.46053 23.1761C3.86647 23.814 1.52984 25.9402 2.2031 26.9608C2.59914 27.5562 2.99518 27.5987 3.58924 27.0459C6.83677 24.0691 4.89617 27.8113 4.06449 29.5123C2.44073 32.8292 4.77736 30.0651 5.64865 28.8744C6.99518 27.0459 8.81696 27.216 6.67835 29.3422C5.52984 30.4904 4.26251 32.7017 7.11399 30.9582C9.96548 29.2146 10.9556 30.1077 7.82687 31.7236C3.62885 33.8924 6.44073 34.7429 8.89617 32.3615C9.1338 32.1063 10.5595 40.6964 11.1536 36.7841C11.312 35.7209 9.92588 33.5522 11.4308 33.8498C12.2229 33.9774 12.4209 39.1655 12.9754 36.4013C13.9259 31.7236 13.8863 39.0804 14.718 38.1874C17.6486 34.998 24.5397 32.2764 28.6585 29.895C29.609 29.3422 31.3516 28.3216 31.5892 27.4286C31.7873 26.7482 32.1041 26.0678 32.2229 25.2598C32.3021 24.792 32.4209 22.7083 32.5001 22.7934C28.6982 18.2432 25.5298 19.0512 19.9061 20.2419C15.1536 21.2625 11.9061 20.9648 7.23281 20.5395C4.50013 20.3269 2.1239 20.6671 2.55954 23.5588Z" fill="#99CC33"/>
<path fill-rule="evenodd" clip-rule="evenodd" d="M4.89607 21.305C8.61884 20.7947 10.7575 21.6878 13.2129 21.9429C14.1238 22.0279 15.1535 21.8153 16.0248 21.8579C16.6584 21.9004 17.4901 21.6452 16.302 21.9429C12.9357 22.7509 9.84657 22.028 6.67825 22.6658C5.37132 22.921 4.02479 24.707 4.57924 23.7289C4.81686 23.0911 5.52974 21.6027 4.89607 21.305Z" fill="#D1DB39"/>
<path fill-rule="evenodd" clip-rule="evenodd" d="M5.60928 25.7701C7.11423 24.9622 8.69839 24.8346 9.7677 24.5794C11.9063 24.0691 14.0845 23.5163 16.1835 22.8784C18.5994 22.113 14.1637 23.6864 13.6093 23.899C11.5499 24.6645 10.4014 25.0047 8.34196 25.9402C7.94592 26.1103 6.04493 27.216 5.7677 27.301C5.53008 26.8333 6.04493 26.0678 5.60928 25.7701Z" fill="#D1DB39"/>
<path fill-rule="evenodd" clip-rule="evenodd" d="M7.78743 27.4711C9.37159 26.7057 10.9161 26.4931 11.9458 26.1529C12.4211 26.0253 12.8567 25.7701 13.332 25.6C13.7676 25.4299 14.2429 25.2598 13.4904 25.6851C12.2627 26.3655 10.9954 27.1309 9.80723 27.8113L7.4706 29.0871C7.31218 29.1721 8.30228 27.8538 7.78743 27.4711Z" fill="#D1DB39"/>
<path fill-rule="evenodd" clip-rule="evenodd" d="M11.0349 33.6372C11.7082 33.0844 12.5003 32.7442 13.1735 32.1914L18.0448 28.3216L19.629 27.0884L18.7181 27.9814L12.5795 33.6372C11.3517 34.7854 12.3814 33.4246 11.0349 33.6372Z" fill="#D1DB39"/>
<path fill-rule="evenodd" clip-rule="evenodd" d="M13.6882 34.5303C14.2426 34.1901 15.3119 33.7223 15.7476 33.297C16.6981 32.404 17.6486 31.8087 18.7971 31.0007C20.5 29.8525 16.8565 32.8718 16.3416 33.4671C15.906 33.9774 15.4703 34.8279 15.1139 35.4233C14.6783 36.2738 14.5991 36.2738 14.3218 35.3807C14.2822 35.0831 13.4505 34.5303 13.6882 34.5303Z" fill="#D1DB39"/>
<path fill-rule="evenodd" clip-rule="evenodd" d="M9.13361 32.2764C10.2425 31.2558 11.9851 30.9581 12.9356 29.8525C13.5693 29.1296 14.7178 28.8744 15.4702 28.5342C16.2227 28.194 14.8762 29.0871 14.7574 29.2146C13.3712 30.1927 11.8267 31.8086 10.6386 33.0419C10.2821 33.4246 10.1237 33.8924 9.84648 32.9568C9.76727 32.6591 9.094 32.2764 9.13361 32.2764Z" fill="#D1DB39"/>
<path fill-rule="evenodd" clip-rule="evenodd" d="M62.2823 22.5807C59.2328 22.5807 56.7774 22.9209 59.7873 22.6658C60.6189 22.6232 63.3516 25.685 62.5199 26.0252C61.5694 26.4505 59.9457 26.3654 59.312 25.9402C56.0249 23.6438 59.7873 26.8757 60.7378 28.2791C61.2526 29.0445 62.0051 29.2146 61.9655 29.3847C61.8467 29.8099 57.1734 28.3641 56.5001 27.6837C55.0744 26.1953 56.1833 26.7482 58.3615 28.4066C59.0744 28.9595 60.3813 29.7674 60.2625 30.1076C60.1833 30.3202 56.6982 30.4478 55.5892 29.9375C52.817 28.7043 54.5199 29.5973 57.5298 30.6604C59.312 31.2983 60.3813 31.8511 60.1041 32.0638C59.6684 32.4465 55.9457 32.4465 56.6189 31.3408C56.7774 31.0432 56.6189 36.699 56.1041 36.1887C55.4308 35.5083 54.6783 34.4452 53.6882 32.9568C52.9754 33.1694 54.7576 36.1036 54.3219 35.8485C50.2427 33.5947 53.6486 37.4219 52.6585 36.9967C48.3813 35.2957 42.3615 33.0418 38.3219 31.3834C37.411 31.0006 35.6684 30.2777 35.3912 29.5123C35.1536 28.9169 34.7576 28.3641 34.5595 27.6412C34.4407 27.2159 34.1239 25.3874 34.0843 25.4724C37.0942 20.9648 40.1041 21.305 45.3318 21.7727C49.7675 22.1555 52.7378 21.5176 56.9754 20.6246C59.4704 20.1568 62.3615 19.9867 62.2823 22.5807Z" fill="#699B42"/>
<path fill-rule="evenodd" clip-rule="evenodd" d="M62.2822 22.5807C61.2525 19.9867 59.1535 21.2625 60.5 22.4532C61.0941 22.9635 63.4703 24.6219 62.9159 25.6C62.599 26.1953 62.2426 26.2804 61.6485 25.8126C58.3614 23.5163 60.5396 26.6631 61.4505 28.0664C63.2723 30.8731 60.8565 28.6618 59.9456 27.6837C58.5198 26.1953 56.8961 26.5355 59.0743 28.194C60.2624 29.087 61.6089 30.9581 58.8367 29.6824C56.0644 28.4492 55.2327 29.3422 58.2426 30.4478C62.2822 31.8937 59.8268 32.9993 57.3317 31.1708C57.0941 31.0007 56.6188 38.8252 55.7079 35.3807C55.4703 34.4452 56.5 32.3615 55.1535 32.7442C54.4406 32.9568 54.7971 37.6346 54.005 35.2106C52.6584 31.1282 53.4505 37.7196 52.5792 36.9967C49.5693 34.4452 42.9951 32.8292 38.9951 31.1708C38.0842 30.788 36.3416 30.0651 36.0644 29.2997C35.8268 28.7043 35.4307 28.1515 35.2327 27.4286C35.1139 27.0033 34.7971 25.1748 34.7574 25.2598C37.7673 20.7522 40.7772 21.0924 46.005 21.5601C50.4406 21.9429 53.4109 21.305 57.6485 20.412C60.1832 19.9017 62.3614 19.9867 62.2822 22.5807Z" fill="#99CC33"/>
<path fill-rule="evenodd" clip-rule="evenodd" d="M59.9063 20.8372C56.4607 20.7947 54.5993 21.8578 52.3419 22.3256C51.5102 22.4957 50.5597 22.4106 49.7677 22.5807C49.1736 22.6658 48.3815 22.5807 49.53 22.7083C52.6984 23.0485 55.431 22.0704 58.4409 22.2405C59.6687 22.3256 61.0548 23.7714 60.4607 22.9209C60.1439 22.4532 59.3518 21.1774 59.9063 20.8372Z" fill="#D1DB39"/>
<path fill-rule="evenodd" clip-rule="evenodd" d="M59.7078 24.9196C58.2425 24.3668 56.7771 24.4518 55.7474 24.3242C53.7276 24.1116 51.7078 23.8565 49.688 23.5163C47.391 23.1335 51.6286 24.0266 52.1435 24.1116C54.1237 24.5794 55.2326 24.7495 57.1732 25.3448C57.5692 25.4724 59.391 26.2378 59.6682 26.2804C59.8662 25.8551 59.3118 25.2173 59.7078 24.9196Z" fill="#D1DB39"/>
<path fill-rule="evenodd" clip-rule="evenodd" d="M57.8466 26.7057C56.3417 26.1954 54.8763 26.1529 53.8862 26.0253C53.4506 25.9402 53.0149 25.7701 52.5397 25.6851C52.104 25.6 51.6684 25.515 52.3813 25.7701C53.609 26.2379 54.7971 26.7907 55.9852 27.2585L58.2427 28.109C58.4803 28.194 57.4506 27.0884 57.8466 26.7057Z" fill="#D1DB39"/>
<path fill-rule="evenodd" clip-rule="evenodd" d="M55.51 32.6166C54.8368 32.1914 54.0843 31.9787 53.411 31.5535L48.5397 28.6193L46.9556 27.6837L47.9061 28.3641L54.0843 32.7442C55.3516 33.6797 54.2427 32.5316 55.51 32.6166Z" fill="#D1DB39"/>
<path fill-rule="evenodd" clip-rule="evenodd" d="M53.1733 33.7223C52.6188 33.4671 51.6287 33.1695 51.1534 32.8293C50.1633 32.1489 49.2921 31.6811 48.1435 31.1283C46.4802 30.3203 50.1237 32.5741 50.6386 33.0419C51.1138 33.4671 51.5891 34.1475 51.9455 34.6578C52.4604 35.3808 52.5 35.3382 52.6584 34.5303C52.698 34.2751 53.4109 33.6798 53.1733 33.7223Z" fill="#D1DB39"/>
<path fill-rule="evenodd" clip-rule="evenodd" d="M57.0943 31.1707C55.9854 30.3628 54.322 30.3202 53.3715 29.4272C52.7379 28.8319 51.629 28.7468 50.9161 28.5342C50.1636 28.279 51.5101 28.9594 51.629 29.0445C53.0151 29.7674 54.5993 31.0432 55.7874 31.9787C56.1834 32.2764 56.3418 32.6591 56.5003 31.8086C56.5795 31.596 57.1735 31.1707 57.0943 31.1707Z" fill="#D1DB39"/>
<path fill-rule="evenodd" clip-rule="evenodd" d="M44.7771 40.9515C43.6682 38.3575 42.2821 36.4439 43.7078 38.9103C44.1039 39.5907 40.9355 43.2479 40.1435 42.7376C39.193 42.0997 38.6781 40.7389 39.0346 40.016C40.9751 36.1887 37.9652 40.8239 36.3811 42.2698C35.5098 43.0352 35.5494 43.7582 35.3118 43.8007C34.6781 43.8857 34.9157 39.293 35.589 38.4425C37.094 36.5714 36.7375 37.7621 35.2722 40.3136C34.7969 41.1641 34.1633 42.61 33.688 42.695C33.3316 42.7376 31.9058 39.8459 32.1435 38.6977C32.8167 35.806 32.2227 37.6346 31.8662 40.6964C31.6682 42.4824 31.2722 43.6306 30.8761 43.503C30.2029 43.2904 28.7771 40.1435 30.5593 40.2286C30.9949 40.2286 23.2326 42.61 23.7474 41.9721C24.4207 41.1216 25.5692 39.9734 27.2722 38.4425C26.7177 37.9322 23.391 40.7389 23.589 40.2711C25.1732 35.806 21.2128 40.4412 21.3712 39.3781C22.1237 34.998 22.9553 28.917 23.7078 24.792C23.8662 23.8565 24.2227 22.0704 25.1732 21.4751C25.9256 21.0073 26.5197 20.4545 27.4306 19.9442C27.9454 19.6465 30.3217 18.5409 30.2029 18.5409C37.49 19.0512 38.1237 21.7302 39.4702 26.3655C40.6187 30.2778 42.5593 32.4891 45.4108 35.6359C47.0346 37.507 48.3811 39.8884 44.7771 40.9515Z" fill="#699B42"/>
<path fill-rule="evenodd" clip-rule="evenodd" d="M44.7773 40.9515C47.9456 38.9103 45.4109 37.7621 44.302 39.4206C43.8268 40.1435 42.4406 42.8651 40.8961 42.8651C39.9852 42.8651 39.7476 42.61 40.104 41.8871C42.0446 38.0598 38.5198 41.3342 36.9753 42.7376C33.8466 45.5442 35.9456 42.4824 36.9357 41.2917C38.4406 39.4206 37.3713 38.1874 35.906 40.7814C35.1139 42.1847 33.0941 44.1409 33.7674 41.2492C34.4406 38.3575 32.8565 38.0598 32.5 41.1216C31.9852 45.204 29.5693 43.5881 31.1931 40.6538C31.3515 40.3562 20.4604 43.503 24.8169 41.1641C26.005 40.5263 29.2525 40.4837 28.1832 39.5482C27.6287 39.0379 21.3713 41.4618 24.3812 39.6758C29.4901 36.7415 20.7377 40.3562 21.4109 39.293C23.7476 35.5934 23.5495 29.3422 24.3416 25.2173C24.5 24.2817 24.8565 22.4957 25.807 21.9003C26.5594 21.4326 27.1535 20.8797 28.0644 20.3694C28.5792 20.0718 30.9555 18.9661 30.8367 18.9661C38.1238 19.4764 38.7575 22.1555 40.104 26.7907C41.2525 30.703 43.1931 32.9143 46.0446 36.0611C47.6287 38.0173 48.3812 39.8884 44.7773 40.9515Z" fill="#99CC33"/>
<path fill-rule="evenodd" clip-rule="evenodd" d="M46.2822 38.1874C45.0544 35.2532 42.9158 34.1475 41.4109 32.489C40.8564 31.8937 40.6188 31.0432 40.1435 30.4479C39.7871 30.0226 39.6287 29.2997 39.9059 30.3203C40.6188 33.1694 42.995 34.998 43.8663 37.592C44.2228 38.6552 42.7574 40.4837 43.6683 39.6332C44.1436 39.0804 45.6089 37.8897 46.2822 38.1874Z" fill="#D1DB39"/>
<path fill-rule="evenodd" clip-rule="evenodd" d="M40.6185 39.8033C40.8561 38.3149 40.1828 37.1242 39.9452 36.2312C39.4699 34.4452 39.0343 32.6166 38.7967 30.788C38.4798 28.7043 38.8363 32.6591 38.8759 33.1269C38.9551 35.0405 39.1531 36.0186 39.0739 37.9322C39.0739 38.3149 38.6779 40.2286 38.7571 40.4412C39.3907 40.3987 40.064 39.6757 40.6185 39.8033Z" fill="#D1DB39"/>
<path fill-rule="evenodd" clip-rule="evenodd" d="M37.4903 39.0804C37.6091 37.592 37.1338 36.3588 36.9754 35.4232C36.8962 34.998 36.9754 34.5727 36.9358 34.1475C36.8962 33.7648 36.8566 33.3395 36.7378 34.0624C36.5398 35.2957 36.2229 36.5714 36.0645 37.7621L35.7477 40.0585C35.7081 40.2711 36.7774 38.9103 37.4903 39.0804Z" fill="#D1DB39"/>
<path fill-rule="evenodd" clip-rule="evenodd" d="M28.5393 39.7608C28.8561 38.9953 28.8957 38.2724 29.2126 37.507L31.3908 32.1063L32.0641 30.3628L31.47 31.4684L27.7868 38.6126C26.9948 40.101 28.1433 38.6551 28.5393 39.7608Z" fill="#D1DB39"/>
<path fill-rule="evenodd" clip-rule="evenodd" d="M26.1635 38.2724C26.2823 37.7196 26.3219 36.7415 26.5991 36.1887C27.1932 35.0405 27.4704 34.105 27.7872 32.8718C28.3021 31.0857 26.5199 35.1681 26.0843 35.806C25.6882 36.3588 24.8962 37.1243 24.3417 37.6346C23.5496 38.3575 23.5892 38.4425 24.7773 38.1874C25.213 38.1023 26.3219 38.4425 26.1635 38.2724Z" fill="#D1DB39"/>
<path fill-rule="evenodd" clip-rule="evenodd" d="M31.1136 40.4412C31.7869 39.1229 31.2324 37.7622 32.1037 36.5289C32.6582 35.721 32.3809 34.7854 32.4205 34.0625C32.4601 33.3396 32.0245 34.7429 31.9849 34.913C31.5097 36.4014 30.3611 38.315 29.4898 39.7183C29.2126 40.1861 28.7374 40.4837 30.0047 40.2286C30.3215 40.1861 31.1532 40.4837 31.1136 40.4412Z" fill="#D1DB39"/>
<path fill-rule="evenodd" clip-rule="evenodd" d="M6.87613 21.9429C6.79692 22.8359 6.24247 23.814 6.24247 24.6645C6.24247 25.1748 7.39098 24.707 7.90584 24.707C8.34148 24.707 7.70782 27.0884 8.14346 27.0459C8.89593 26.9608 9.41079 27.1309 9.48999 27.9814C9.72762 30.9156 10.4801 30.2778 12.0643 30.5754C12.4999 30.6605 12.4207 32.4891 13.1732 32.1914C14.7573 31.596 14.4009 34.1901 14.7177 33.9349C18.4801 31.1708 16.7375 36.614 18.9157 35.3808C20.1831 34.6578 21.7672 34.4452 22.8761 33.4671C24.1039 32.404 19.3514 26.1954 18.6385 25.1323C17.292 23.1336 13.0543 18.3708 10.7177 18.3708C9.48999 18.3708 7.90584 20.2419 6.12366 20.497C7.07415 21.1349 6.87613 21.9429 6.87613 21.9429Z" fill="#699B42"/>
<path fill-rule="evenodd" clip-rule="evenodd" d="M22.322 36.1462C23.1933 36.3163 24.1042 35.8485 24.8566 36.1887C25.2923 36.3588 25.8467 36.0611 26.2824 36.0611C27.1141 36.0611 25.8863 37.7196 26.916 37.3794C27.5497 37.1668 28.5794 36.3588 29.0943 35.9761C29.6091 35.5508 28.8962 35.5933 29.5299 35.9761C29.7675 36.1462 28.9754 37.3369 28.9754 37.6771C28.9754 38.0598 29.9259 37.2518 30.0448 37.1668C30.3616 36.9541 30.916 36.5714 31.2725 36.4864C31.8665 36.4438 31.6685 36.3163 31.6685 36.9541C31.6685 37.1242 31.3517 38.0598 31.4705 38.1874C31.5893 38.3149 32.421 37.507 32.5002 37.3794C32.8566 36.9541 33.2923 36.3588 33.7675 36.8691C34.0448 37.1668 34.322 38.0173 34.4012 38.4C35.3913 37.8046 36.223 36.9116 37.015 36.4864C37.4507 36.2737 37.2923 36.8691 37.2923 37.1668C37.2923 37.4644 37.5299 37.8472 37.4111 37.9322C37.8863 37.592 37.8071 37.8046 38.124 37.3369C38.3616 36.9967 39.2329 35.6359 39.6685 35.891C40.1834 36.1887 40.025 37.507 40.3814 37.9747C40.6982 38.5701 41.6091 36.699 41.8071 36.4438C42.2824 35.8485 42.8764 34.9129 43.7477 34.9129C44.3022 34.9129 44.223 35.1681 44.5794 35.3382C46.6388 36.2312 42.916 32.8292 43.1141 32.7442C42.2428 30.5329 43.1933 29.6398 41.0547 28.7043C36.7774 26.8757 28.421 27.8538 24.2626 29.98C22.322 31.0432 22.2824 33.8498 22.322 36.1462Z" fill="#699B42"/>
<path fill-rule="evenodd" clip-rule="evenodd" d="M58.9552 20.2419C58.678 20.9223 58.2028 21.7728 58.9156 22.6233C59.1928 22.9635 59.5493 23.4738 59.7869 23.899C60.1037 24.4944 60.1433 24.707 59.7077 24.9196C59.5097 24.792 59.5493 24.7495 59.2721 24.707C58.9156 24.707 56.8958 24.1542 57.8463 25.6425C58.0443 25.9402 58.0839 25.9827 58.0839 26.3655C57.5691 27.0459 58.1235 26.5781 57.8067 26.5781C57.5691 26.5781 57.2126 26.408 56.8958 26.408C56.579 26.408 56.2226 26.2379 55.9057 26.2804C55.6285 26.6631 55.1136 27.216 55.5097 27.8538C55.5889 27.9814 56.2622 28.2366 56.183 28.4067C56.0641 28.6618 54.0839 28.5342 54.7176 29.1296C55.1136 29.5123 55.7869 29.81 55.6285 30.5329L55.4305 30.4904C51.7473 29.3422 55.3117 32.6166 53.4503 31.511C52.8562 31.1708 51.7473 30.6605 51.8661 31.7236C52.0641 33.8924 52.381 33.4671 50.282 32.3615C49.2523 31.8087 50.0443 34.02 49.3315 34.5303C48.381 35.2532 43.3909 34.1901 44.3018 32.7017C46.2424 29.5123 49.8859 26.7482 52.7374 24.5369C54.2424 23.3887 55.7077 21.5601 57.1334 20.6671C57.5295 20.6246 57.8067 20.412 58.0839 20.3269C58.4008 20.1568 58.678 20.1143 58.9552 20.2419Z" fill="#699B42"/>
<path fill-rule="evenodd" clip-rule="evenodd" d="M32.8963 0C50.9953 0 58.7181 12.6724 59.3121 21.0924C58.6785 29.5123 47.0745 36.2312 32.8963 36.2312C18.6785 36.2312 7.0745 29.5123 6.48044 21.0924C7.0745 12.6724 14.7973 0 32.8963 0Z" fill="#CF6030"/>
<path fill-rule="evenodd" clip-rule="evenodd" d="M34.1242 0.340165C47.1539 0.170066 57.2134 11.0139 57.7678 17.988C57.2134 24.9621 46.8371 30.5329 34.1242 30.5329C21.4114 30.5329 11.0351 24.9621 10.4807 17.988C11.0351 10.9714 21.0945 0.510265 34.1242 0.340165Z" fill="#FC9E14"/>
<path fill-rule="evenodd" clip-rule="evenodd" d="M36.4209 1.65846C42.9555 1.61593 47.9853 5.3156 48.2625 7.73952C47.9853 10.1209 42.7971 12.0345 36.4209 12.0345C30.0447 12.0345 24.8565 10.1209 24.5793 7.73952C24.8961 5.35813 29.9258 1.74351 36.4209 1.65846Z" fill="#FEBD30"/>
<path fill-rule="evenodd" clip-rule="evenodd" d="M21.6488 20.0718C22.4804 20.0718 23.1537 19.6465 23.1537 19.1787C23.1537 18.6684 22.4804 18.2857 21.6488 18.2857C20.8171 18.2857 20.1438 18.711 20.1438 19.1787C20.1438 19.689 20.8171 20.0718 21.6488 20.0718Z" fill="#E47B06"/>
<path fill-rule="evenodd" clip-rule="evenodd" d="M21.9657 19.604C22.7974 19.604 23.4707 19.1787 23.4707 18.711C23.4707 18.2007 22.7974 17.8179 21.9657 17.8179C21.134 17.8179 20.4608 18.2432 20.4608 18.711C20.4608 19.1787 21.134 19.604 21.9657 19.604Z" fill="#F8DAB0"/>
<path d="M31.7102 15.1414C31.8843 14.685 31.4019 14.0408 30.6328 13.7025C29.8636 13.3643 29.099 13.4601 28.9249 13.9165C28.7508 14.3729 29.2332 15.0171 30.0024 15.3553C30.7715 15.6936 31.5362 15.5978 31.7102 15.1414Z" fill="#E47B06"/>
<path d="M32.1904 14.838C32.3645 14.3816 31.8821 13.7374 31.1129 13.3991C30.3438 13.0609 29.5791 13.1567 29.4051 13.6131C29.231 14.0695 29.7134 14.7137 30.4825 15.0519C31.2517 15.3902 32.0163 15.2944 32.1904 14.838Z" fill="#F8DAB0"/>
<path d="M40.6773 19.2278C40.5082 18.7692 39.7446 18.6638 38.9718 18.9923C38.199 19.3208 37.7096 19.9589 37.8787 20.4175C38.0478 20.8761 38.8113 20.9815 39.5841 20.653C40.3569 20.3245 40.8464 19.6864 40.6773 19.2278Z" fill="#E47B06"/>
<path d="M40.8135 18.691C40.6444 18.2325 39.8809 18.127 39.1081 18.4555C38.3352 18.7841 37.8458 19.4221 38.0149 19.8807C38.184 20.3393 38.9475 20.4447 39.7203 20.1162C40.4932 19.7877 40.9826 19.1496 40.8135 18.691Z" fill="#F8DAB0"/>
<path d="M47.3392 12.4016C47.4112 11.9145 46.8041 11.4063 45.9832 11.2665C45.1624 11.1266 44.4386 11.4081 44.3666 11.8952C44.2946 12.3823 44.9017 12.8905 45.7226 13.0304C46.5434 13.1702 47.2672 12.8887 47.3392 12.4016Z" fill="#E47B06"/>
<path d="M47.7235 11.9871C47.7955 11.5 47.1884 10.9918 46.3676 10.852C45.5467 10.7121 44.8229 10.9936 44.751 11.4807C44.679 11.9678 45.2861 12.476 46.1069 12.6159C46.9278 12.7557 47.6516 12.4742 47.7235 11.9871Z" fill="#F8DAB0"/>
<path d="M23.7161 7.05687C23.5112 6.61545 22.7421 6.58029 21.9982 6.97833C21.2543 7.37636 20.8173 8.05688 21.0222 8.49829C21.2271 8.93971 21.9962 8.97488 22.7401 8.57684C23.4839 8.1788 23.9209 7.49829 23.7161 7.05687Z" fill="#E47B06"/>
<path d="M23.8309 6.43979C23.626 5.99833 22.8569 5.96312 22.1129 6.36116C21.3689 6.7592 20.9319 7.43975 21.1367 7.88122C21.3416 8.32268 22.1108 8.35789 22.8547 7.95985C23.5987 7.56181 24.0358 6.88126 23.8309 6.43979Z" fill="#F8DAB0"/>
<path d="M38.7707 12.0975C39.1402 11.6648 38.8648 10.7479 38.1555 10.0495C37.4462 9.35115 36.5716 9.13581 36.2021 9.56854C35.8326 10.0013 36.108 10.9182 36.8173 11.6165C37.5266 12.3149 38.4011 12.5302 38.7707 12.0975Z" fill="#E47B06"/>
<path d="M39.4061 11.9678C39.7757 11.5351 39.5003 10.6181 38.7911 9.91962C38.0818 9.22116 37.2072 9.00574 36.8376 9.43847C36.468 9.87119 36.7434 10.7882 37.4526 11.4867C38.1619 12.1851 39.0365 12.4005 39.4061 11.9678Z" fill="#F8DAB0"/>
<path fill-rule="evenodd" clip-rule="evenodd" d="M51.0744 6.88905C51.8269 7.22925 52.2625 7.8246 52.0645 8.20732C51.8665 8.59005 51.114 8.6751 50.3616 8.3349C49.6091 7.9947 49.1734 7.39935 49.3715 7.01663C49.5695 6.6339 50.322 6.59138 51.0744 6.88905Z" fill="#E47B06"/>
<path fill-rule="evenodd" clip-rule="evenodd" d="M51.5496 6.67643C52.302 7.01663 52.7377 7.61198 52.5396 7.99471C52.3416 8.37743 51.5892 8.46248 50.8367 8.12228C50.0842 7.78208 49.6486 7.18673 49.8466 6.80401C50.0446 6.37876 50.8367 6.33623 51.5496 6.67643Z" fill="#F8DAB0"/>
<path fill-rule="evenodd" clip-rule="evenodd" d="M14.2826 10.8013C15.0351 11.1415 15.4707 11.7369 15.2727 12.1196C15.0747 12.5023 14.3222 12.5874 13.5697 12.2472C12.8172 11.907 12.3816 11.3116 12.5796 10.9289C12.7776 10.5462 13.5301 10.4611 14.2826 10.8013Z" fill="#E47B06"/>
<path fill-rule="evenodd" clip-rule="evenodd" d="M14.7975 10.5462C15.55 10.8864 15.9857 11.4817 15.7876 11.8645C15.5896 12.2472 14.8371 12.3322 14.0847 11.992C13.3322 11.6518 12.8966 11.0565 13.0946 10.6738C13.253 10.291 14.0451 10.206 14.7975 10.5462Z" fill="#F8DAB0"/>
<path d="M30.7761 1.61981C30.4216 1.30623 29.7058 1.61041 29.1773 2.29921C28.6489 2.98802 28.5079 3.80061 28.8624 4.11418C29.2169 4.42776 29.9327 4.12358 30.4611 3.43478C30.9896 2.74598 31.1306 1.93339 30.7761 1.61981Z" fill="#E47B06"/>
<path d="M30.6809 1.04527C30.3264 0.731692 29.6106 1.03587 29.0822 1.72467C28.5537 2.41347 28.4127 3.22607 28.7672 3.53965C29.1217 3.85322 29.8375 3.54904 30.366 2.86024C30.8944 2.17144 31.0354 1.35885 30.6809 1.04527Z" fill="#F8DAB0"/>
<path d="M42.6334 2.62674C42.7054 2.13965 42.0984 1.63135 41.2775 1.49141C40.4566 1.35147 39.7328 1.63289 39.6608 2.11998C39.5888 2.60706 40.1958 3.11537 41.0167 3.25531C41.8375 3.39525 42.5614 3.11383 42.6334 2.62674Z" fill="#E47B06"/>
<path d="M43.0186 2.2122C43.0907 1.72511 42.4836 1.2168 41.6628 1.07687C40.8419 0.936927 40.1181 1.21835 40.0461 1.70543C39.974 2.19252 40.5811 2.70083 41.4019 2.84076C42.2228 2.9807 42.9466 2.69928 43.0186 2.2122Z" fill="#F8DAB0"/>
<path fill-rule="evenodd" clip-rule="evenodd" d="M29.2526 8.76016C30.0051 8.41996 30.718 8.50501 30.8368 8.93026C30.9556 9.35551 30.4804 9.99338 29.7279 10.3336C28.9754 10.6738 28.2625 10.5887 28.1437 10.1635C28.0249 9.73823 28.5002 9.10036 29.2526 8.76016Z" fill="#E47B06"/>
<path fill-rule="evenodd" clip-rule="evenodd" d="M29.4112 8.20729C30.1637 7.86709 30.8766 7.95214 30.9954 8.37739C31.1142 8.80264 30.639 9.44051 29.8865 9.78071C29.134 10.1209 28.4211 10.0359 28.3023 9.61061C28.1835 9.18536 28.6984 8.54749 29.4112 8.20729Z" fill="#F8DAB0"/>
<path fill-rule="evenodd" clip-rule="evenodd" d="M42.0842 6.29366C42.8763 6.16609 43.5495 6.46376 43.5495 6.88901C43.5495 7.35678 42.9159 7.82456 42.1238 7.90961C41.3317 8.03718 40.6584 7.73951 40.6584 7.31426C40.6188 6.88901 41.2525 6.42123 42.0842 6.29366Z" fill="#E47B06"/>
<path fill-rule="evenodd" clip-rule="evenodd" d="M42.3616 5.82594C43.1537 5.69837 43.827 5.99604 43.827 6.42129C43.827 6.88906 43.1933 7.35684 42.4012 7.44189C41.6092 7.56946 40.9359 7.27179 40.9359 6.84654C40.9359 6.42129 41.5695 5.95351 42.3616 5.82594Z" fill="#F8DAB0"/>
<path fill-rule="evenodd" clip-rule="evenodd" d="M51.9064 12.1621C52.4609 12.8 52.6589 13.5229 52.3024 13.8206C51.9856 14.1183 51.2331 13.8206 50.6787 13.1827C50.1242 12.5449 49.9262 11.8219 50.2826 11.5243C50.6391 11.2266 51.352 11.5243 51.9064 12.1621Z" fill="#E47B06"/>
<path fill-rule="evenodd" clip-rule="evenodd" d="M52.4606 12.1196C53.0151 12.7575 53.2131 13.4804 52.8567 13.7781C52.5398 14.0757 51.7874 13.7781 51.2329 13.1402C50.6785 12.5023 50.4804 11.7794 50.8369 11.4817C51.1537 11.2266 51.9062 11.5242 52.4606 12.1196Z" fill="#F8DAB0"/>
<path fill-rule="evenodd" clip-rule="evenodd" d="M22.0052 1.36077C22.7973 1.06309 23.5498 1.14814 23.6686 1.57339C23.827 1.95611 23.2725 2.50894 22.52 2.76409C21.728 3.06176 20.9755 2.97671 20.8567 2.55146C20.6983 2.21126 21.2527 1.65844 22.0052 1.36077Z" fill="#E47B06"/>
<path fill-rule="evenodd" clip-rule="evenodd" d="M22.2033 0.893045C22.9954 0.595371 23.7479 0.680421 23.8667 1.10567C24.0251 1.48839 23.4706 2.04122 22.7182 2.29637C21.9261 2.59404 21.1736 2.50899 21.0548 2.08374C20.8964 1.74354 21.4112 1.19072 22.2033 0.893045Z" fill="#F8DAB0"/>
<path fill-rule="evenodd" clip-rule="evenodd" d="M16.2232 4.80534C17.1737 4.72029 17.9658 5.01797 18.0054 5.44322C18.0054 5.86847 17.2529 6.29372 16.3024 6.37877C15.3519 6.46382 14.5598 6.16614 14.5202 5.74089C14.4806 5.31564 15.2331 4.89039 16.2232 4.80534Z" fill="#E47B06"/>
<path fill-rule="evenodd" clip-rule="evenodd" d="M16.5795 4.38009C17.53 4.29504 18.3221 4.59272 18.3617 5.01797C18.3617 5.44322 17.6092 5.86847 16.6587 5.95352C15.7082 6.03856 14.9161 5.74089 14.8765 5.31564C14.8369 4.89039 15.629 4.46514 16.5795 4.38009Z" fill="#F8DAB0"/>
<path fill-rule="evenodd" clip-rule="evenodd" d="M32.8962 0C50.4407 0 58.2031 11.8645 59.2328 20.2844C57.213 27.9389 46.2031 33.7648 32.9358 33.7648C19.51 33.7648 8.42093 27.8113 6.55954 20.0718C7.70805 11.6944 15.51 0 32.8962 0Z" fill="#E47B06"/>
<path fill-rule="evenodd" clip-rule="evenodd" d="M34.1237 0.340165C47.1534 0.170066 57.2128 11.0139 57.7672 17.988C57.2128 24.9621 46.8365 30.5329 34.1237 30.5329C21.4108 30.5329 11.0346 24.9621 10.4801 17.988C11.0346 10.9714 21.094 0.510265 34.1237 0.340165Z" fill="#FC9E14"/>
<path fill-rule="evenodd" clip-rule="evenodd" d="M36.4209 1.65846C42.9556 1.61593 47.9853 5.3156 48.2625 7.73952C47.9853 10.1209 42.7972 12.0345 36.4209 12.0345C30.0447 12.0345 24.8566 10.1209 24.5793 7.73952C24.8962 5.35813 29.9259 1.74351 36.4209 1.65846Z" fill="#FEBD30"/>
<path d="M21.6488 20.0718C22.4799 20.0718 23.1537 19.6719 23.1537 19.1787C23.1537 18.6855 22.4799 18.2857 21.6488 18.2857C20.8176 18.2857 20.1438 18.6855 20.1438 19.1787C20.1438 19.6719 20.8176 20.0718 21.6488 20.0718Z" fill="#E47B06"/>
<path d="M21.9651 19.604C22.7963 19.604 23.4701 19.2042 23.4701 18.711C23.4701 18.2177 22.7963 17.8179 21.9651 17.8179C21.134 17.8179 20.4602 18.2177 20.4602 18.711C20.4602 19.2042 21.134 19.604 21.9651 19.604Z" fill="#F8DAB0"/>
<path d="M31.7115 15.1428C31.8856 14.6864 31.4032 14.0422 30.634 13.704C29.8649 13.3657 29.1002 13.4615 28.9261 13.9179C28.7521 14.3744 29.2345 15.0186 30.0036 15.3568C30.7728 15.695 31.5374 15.5992 31.7115 15.1428Z" fill="#E47B06"/>
<path d="M32.1916 14.8406C32.3657 14.3842 31.8835 13.7399 31.1144 13.4015C30.3453 13.0631 29.5807 13.1587 29.4065 13.615C29.2323 14.0714 29.7146 14.7157 30.4837 15.0541C31.2527 15.3925 32.0174 15.2969 32.1916 14.8406Z" fill="#F8DAB0"/>
<path d="M40.6783 19.2303C40.5091 18.7718 39.7456 18.6664 38.9729 18.995C38.2002 19.3236 37.7108 19.9617 37.88 20.4203C38.0491 20.8788 38.8126 20.9841 39.5853 20.6555C40.3581 20.3269 40.8474 19.6888 40.6783 19.2303Z" fill="#E47B06"/>
<path d="M40.8121 18.6935C40.6429 18.235 39.8794 18.1297 39.1067 18.4583C38.3339 18.7869 37.8446 19.425 38.0138 19.8835C38.1829 20.342 38.9464 20.4474 39.7191 20.1188C40.4919 19.7902 40.9812 19.1521 40.8121 18.6935Z" fill="#F8DAB0"/>
<path d="M47.3429 12.4028C47.415 11.9157 46.8079 11.4074 45.9871 11.2675C45.1662 11.1275 44.4424 11.4089 44.3704 11.896C44.2983 12.3831 44.9054 12.8914 45.7262 13.0314C46.5471 13.1713 47.2709 12.8899 47.3429 12.4028Z" fill="#E47B06"/>
<path d="M47.725 11.9834C47.7969 11.4962 47.1896 10.9881 46.3687 10.8484C45.5478 10.7088 44.824 10.9904 44.7521 11.4776C44.6802 11.9647 45.2874 12.4728 46.1084 12.6125C46.9293 12.7522 47.6531 12.4705 47.725 11.9834Z" fill="#F8DAB0"/>
<path d="M23.7151 7.05487C23.5102 6.6134 22.7411 6.5782 21.9971 6.97624C21.2531 7.37427 20.8161 8.05483 21.0209 8.49629C21.2258 8.93776 21.995 8.97296 22.739 8.57493C23.4829 8.17689 23.92 7.49633 23.7151 7.05487Z" fill="#E47B06"/>
<path d="M23.8319 6.44164C23.6271 6.00022 22.858 5.96505 22.1141 6.36309C21.3702 6.76113 20.9332 7.44164 21.1381 7.88306C21.3429 8.32448 22.112 8.35964 22.8559 7.9616C23.5998 7.56357 24.0368 6.88305 23.8319 6.44164Z" fill="#F8DAB0"/>
<path d="M38.7728 12.0966C39.1425 11.6639 38.8672 10.7469 38.1581 10.0483C37.4489 9.34976 36.5743 9.13421 36.2046 9.56688C35.835 9.99955 36.1103 10.9166 36.8194 11.6152C37.5286 12.3137 38.4032 12.5293 38.7728 12.0966Z" fill="#E47B06"/>
<path d="M39.4071 11.9697C39.7767 11.537 39.5013 10.62 38.792 9.92153C38.0827 9.22307 37.2081 9.00765 36.8385 9.44037C36.4689 9.8731 36.7443 10.7901 37.4536 11.4886C38.1629 12.187 39.0375 12.4024 39.4071 11.9697Z" fill="#F8DAB0"/>
<path fill-rule="evenodd" clip-rule="evenodd" d="M51.0744 6.88905C51.8269 7.22925 52.2625 7.8246 52.0645 8.20732C51.8665 8.59005 51.114 8.6751 50.3616 8.3349C49.6091 7.9947 49.1734 7.39935 49.3715 7.01663C49.5695 6.6339 50.322 6.59138 51.0744 6.88905Z" fill="#E47B06"/>
<path fill-rule="evenodd" clip-rule="evenodd" d="M51.5496 6.67643C52.302 7.01663 52.7377 7.61198 52.5396 7.99471C52.3416 8.37743 51.5892 8.46248 50.8367 8.12228C50.0842 7.78208 49.6486 7.18673 49.8466 6.80401C50.0446 6.37876 50.8367 6.33623 51.5496 6.67643Z" fill="#F8DAB0"/>
<path fill-rule="evenodd" clip-rule="evenodd" d="M14.282 10.8013C15.0345 11.1415 15.4701 11.7369 15.2721 12.1196C15.0741 12.5023 14.3216 12.5874 13.5691 12.2472C12.8167 11.907 12.381 11.3116 12.579 10.9289C12.7771 10.5462 13.5295 10.4611 14.282 10.8013Z" fill="#E47B06"/>
<path fill-rule="evenodd" clip-rule="evenodd" d="M14.797 10.5462C15.5494 10.8864 15.9851 11.4817 15.7871 11.8645C15.589 12.2472 14.8366 12.3322 14.0841 11.992C13.3316 11.6518 12.896 11.0565 13.094 10.6738C13.2524 10.291 14.0445 10.206 14.797 10.5462Z" fill="#F8DAB0"/>
<path d="M30.7734 1.61925C30.4189 1.30567 29.7031 1.60992 29.1746 2.29881C28.6462 2.9877 28.5052 3.80037 28.8597 4.11394C29.2143 4.42752 29.9301 4.12327 30.4586 3.43438C30.987 2.74549 31.128 1.93282 30.7734 1.61925Z" fill="#E47B06"/>
<path d="M30.678 1.04464C30.3235 0.731059 29.6077 1.03531 29.0792 1.7242C28.5508 2.41309 28.4098 3.22576 28.7643 3.53934C29.1189 3.85292 29.8347 3.54866 30.3632 2.85977C30.8916 2.17088 31.0326 1.35822 30.678 1.04464Z" fill="#F8DAB0"/>
<path d="M42.6338 2.62699C42.7058 2.1399 42.0988 1.63159 41.2779 1.49166C40.4571 1.35172 39.7333 1.63314 39.6612 2.12023C39.5892 2.60731 40.1963 3.11562 41.0171 3.25555C41.838 3.39549 42.5618 3.11407 42.6338 2.62699Z" fill="#E47B06"/>
<path d="M43.0191 2.21245C43.0911 1.72536 42.484 1.21706 41.6632 1.07712C40.8423 0.937179 40.1185 1.2186 40.0465 1.70569C39.9745 2.19277 40.5815 2.70108 41.4024 2.84102C42.2232 2.98095 42.947 2.69953 43.0191 2.21245Z" fill="#F8DAB0"/>
<path fill-rule="evenodd" clip-rule="evenodd" d="M29.2526 8.76016C30.0051 8.41996 30.718 8.50501 30.8368 8.93026C30.9556 9.35551 30.4804 9.99338 29.7279 10.3336C28.9754 10.6738 28.2625 10.5887 28.1437 10.1635C28.0249 9.73823 28.5002 9.10036 29.2526 8.76016Z" fill="#E47B06"/>
<path fill-rule="evenodd" clip-rule="evenodd" d="M29.4107 8.20729C30.1631 7.86709 30.876 7.95214 30.9948 8.37739C31.1136 8.80264 30.6384 9.44051 29.8859 9.78071C29.1334 10.1209 28.4206 10.0359 28.3018 9.61061C28.1829 9.18536 28.6978 8.54749 29.4107 8.20729Z" fill="#F8DAB0"/>
<path fill-rule="evenodd" clip-rule="evenodd" d="M42.0842 6.29366C42.8763 6.16609 43.5496 6.46376 43.5496 6.88901C43.5496 7.35678 42.9159 7.82456 42.1238 7.90961C41.3317 8.03718 40.6585 7.73951 40.6585 7.31426C40.6189 6.88901 41.2525 6.42123 42.0842 6.29366Z" fill="#E47B06"/>
<path fill-rule="evenodd" clip-rule="evenodd" d="M42.3616 5.82594C43.1537 5.69837 43.827 5.99604 43.827 6.42129C43.827 6.88906 43.1933 7.35684 42.4012 7.44189C41.6092 7.56946 40.9359 7.27179 40.9359 6.84654C40.9359 6.42129 41.5695 5.95351 42.3616 5.82594Z" fill="#F8DAB0"/>
<path fill-rule="evenodd" clip-rule="evenodd" d="M51.9058 12.1621C52.4603 12.8 52.6583 13.5229 52.3019 13.8206C51.985 14.1183 51.2326 13.8206 50.6781 13.1827C50.1237 12.5449 49.9256 11.8219 50.2821 11.5243C50.6385 11.2266 51.3514 11.5243 51.9058 12.1621Z" fill="#E47B06"/>
<path fill-rule="evenodd" clip-rule="evenodd" d="M52.4606 12.1196C53.0151 12.7575 53.2131 13.4804 52.8567 13.7781C52.5398 14.0757 51.7874 13.7781 51.2329 13.1402C50.6785 12.5023 50.4804 11.7794 50.8369 11.4817C51.1537 11.2266 51.9062 11.5242 52.4606 12.1196Z" fill="#F8DAB0"/>
<path fill-rule="evenodd" clip-rule="evenodd" d="M22.0052 1.36077C22.7973 1.06309 23.5498 1.14814 23.6686 1.57339C23.827 1.95611 23.2725 2.50894 22.52 2.76409C21.728 3.06176 20.9755 2.97671 20.8567 2.55146C20.6983 2.21126 21.2527 1.65844 22.0052 1.36077Z" fill="#E47B06"/>
<path fill-rule="evenodd" clip-rule="evenodd" d="M22.2033 0.893045C22.9954 0.595371 23.7479 0.680421 23.8667 1.10567C24.0251 1.48839 23.4706 2.04122 22.7182 2.29637C21.9261 2.59404 21.1736 2.50899 21.0548 2.08374C20.8964 1.74354 21.4112 1.19072 22.2033 0.893045Z" fill="#F8DAB0"/>
<path fill-rule="evenodd" clip-rule="evenodd" d="M16.2226 4.80534C17.1731 4.72029 17.9652 5.01797 18.0048 5.44322C18.0048 5.86847 17.2523 6.29372 16.3018 6.37877C15.3513 6.46382 14.5593 6.16614 14.5197 5.74089C14.48 5.31564 15.2325 4.89039 16.2226 4.80534Z" fill="#E47B06"/>
<path fill-rule="evenodd" clip-rule="evenodd" d="M16.5795 4.38009C17.53 4.29504 18.3221 4.59272 18.3617 5.01797C18.3617 5.44322 17.6092 5.86847 16.6587 5.95352C15.7082 6.03856 14.9161 5.74089 14.8765 5.31564C14.8369 4.89039 15.629 4.46514 16.5795 4.38009Z" fill="#F8DAB0"/>
<path fill-rule="evenodd" clip-rule="evenodd" d="M14.6783 46.0545C14.9159 46.0545 15.0743 45.7143 15.0743 45.2891C15.0743 44.8638 14.8763 44.5236 14.6783 44.5236C14.4406 44.5236 14.2822 44.8638 14.2822 45.2891C14.2426 45.7143 14.4406 46.0545 14.6783 46.0545Z" fill="#883C3D"/>
<path d="M14.6783 45.6293C14.8971 45.6293 15.0744 45.3818 15.0744 45.0764C15.0744 44.7711 14.8971 44.5236 14.6783 44.5236C14.4596 44.5236 14.2823 44.7711 14.2823 45.0764C14.2823 45.3818 14.4596 45.6293 14.6783 45.6293Z" fill="#652D2D"/>
<path d="M15.8664 47.3727C16.0413 47.3727 16.1832 47.0872 16.1832 46.7349C16.1832 46.3826 16.0413 46.097 15.8664 46.097C15.6914 46.097 15.5495 46.3826 15.5495 46.7349C15.5495 47.0872 15.6914 47.3727 15.8664 47.3727Z" fill="#883C3D"/>
<path d="M15.8664 46.99C16.0413 46.99 16.1832 46.7996 16.1832 46.5648C16.1832 46.3299 16.0413 46.1395 15.8664 46.1395C15.6914 46.1395 15.5495 46.3299 15.5495 46.5648C15.5495 46.7996 15.6914 46.99 15.8664 46.99Z" fill="#652D2D"/>
<path d="M26.8765 49.6691C27.0952 49.6691 27.2725 49.3264 27.2725 48.9037C27.2725 48.4809 27.0952 48.1382 26.8765 48.1382C26.6578 48.1382 26.4804 48.4809 26.4804 48.9037C26.4804 49.3264 26.6578 49.6691 26.8765 49.6691Z" fill="#883C3D"/>
<path d="M26.8765 49.2439C27.0952 49.2439 27.2725 48.9964 27.2725 48.6911C27.2725 48.3857 27.0952 48.1382 26.8765 48.1382C26.6578 48.1382 26.4804 48.3857 26.4804 48.6911C26.4804 48.9964 26.6578 49.2439 26.8765 49.2439Z" fill="#652D2D"/>
<path d="M38.5197 51.3276C38.6947 51.3276 38.8365 51.042 38.8365 50.6897C38.8365 50.3374 38.6947 50.0519 38.5197 50.0519C38.3447 50.0519 38.2029 50.3374 38.2029 50.6897C38.2029 51.042 38.3447 51.3276 38.5197 51.3276Z" fill="#883C3D"/>
<path d="M38.5197 50.9449C38.6947 50.9449 38.8365 50.7545 38.8365 50.5196C38.8365 50.2848 38.6947 50.0944 38.5197 50.0944C38.3447 50.0944 38.2029 50.2848 38.2029 50.5196C38.2029 50.7545 38.3447 50.9449 38.5197 50.9449Z" fill="#652D2D"/>
<path d="M25.5693 49.7967C25.7443 49.7967 25.8862 49.5111 25.8862 49.1588C25.8862 48.8065 25.7443 48.5209 25.5693 48.5209C25.3944 48.5209 25.2525 48.8065 25.2525 49.1588C25.2525 49.5111 25.3944 49.7967 25.5693 49.7967Z" fill="#883C3D"/>
<path d="M25.5693 49.414C25.7443 49.414 25.8862 49.2236 25.8862 48.9887C25.8862 48.7539 25.7443 48.5635 25.5693 48.5635C25.3944 48.5635 25.2525 48.7539 25.2525 48.9887C25.2525 49.2236 25.3944 49.414 25.5693 49.414Z" fill="#652D2D"/>
<path d="M36.7774 49.5415C36.9523 49.5415 37.0942 49.2559 37.0942 48.9037C37.0942 48.5514 36.9523 48.2658 36.7774 48.2658C36.6024 48.2658 36.4605 48.5514 36.4605 48.9037C36.4605 49.2559 36.6024 49.5415 36.7774 49.5415Z" fill="#883C3D"/>
<path d="M36.7774 49.1163C36.9523 49.1163 37.0942 48.9259 37.0942 48.691C37.0942 48.4562 36.9523 48.2658 36.7774 48.2658C36.6024 48.2658 36.4605 48.4562 36.4605 48.691C36.4605 48.9259 36.6024 49.1163 36.7774 49.1163Z" fill="#652D2D"/>
<path fill-rule="evenodd" clip-rule="evenodd" d="M23.8666 48.9037C24.1834 48.9037 24.421 48.4359 24.421 47.8405C24.421 47.2452 24.1834 46.7774 23.8666 46.7774C23.5498 46.7774 23.3121 47.2452 23.3121 47.8405C23.3121 48.4359 23.5498 48.9037 23.8666 48.9037Z" fill="#883C3D"/>
<path fill-rule="evenodd" clip-rule="evenodd" d="M23.8666 48.3083C24.1834 48.3083 24.421 47.9681 24.421 47.5429C24.421 47.1176 24.1834 46.7774 23.8666 46.7774C23.5498 46.7774 23.3121 47.1176 23.3121 47.5429C23.3121 47.9681 23.5498 48.3083 23.8666 48.3083Z" fill="#652D2D"/>
<path d="M21.4507 49.0737C21.6257 49.0737 21.7676 48.7882 21.7676 48.4359C21.7676 48.0836 21.6257 47.798 21.4507 47.798C21.2758 47.798 21.1339 48.0836 21.1339 48.4359C21.1339 48.7882 21.2758 49.0737 21.4507 49.0737Z" fill="#883C3D"/>
<path d="M21.4507 48.6485C21.6257 48.6485 21.7676 48.4581 21.7676 48.2232C21.7676 47.9884 21.6257 47.798 21.4507 47.798C21.2758 47.798 21.1339 47.9884 21.1339 48.2232C21.1339 48.4581 21.2758 48.6485 21.4507 48.6485Z" fill="#652D2D"/>
<path fill-rule="evenodd" clip-rule="evenodd" d="M34.7176 49.1163C34.9552 49.1163 35.1136 48.7761 35.1136 48.3508C35.1136 47.9256 34.9156 47.5854 34.7176 47.5854C34.5196 47.5854 34.3216 47.9256 34.3216 48.3508C34.3216 48.7761 34.5196 49.1163 34.7176 49.1163Z" fill="#883C3D"/>
<path d="M34.7176 48.691C34.9363 48.691 35.1136 48.4435 35.1136 48.1382C35.1136 47.8329 34.9363 47.5854 34.7176 47.5854C34.4989 47.5854 34.3216 47.8329 34.3216 48.1382C34.3216 48.4435 34.4989 48.691 34.7176 48.691Z" fill="#652D2D"/>
<path fill-rule="evenodd" clip-rule="evenodd" d="M31.7872 51.4126C32.0248 51.4126 32.1832 51.0724 32.1832 50.6471C32.1832 50.2219 31.9852 49.8817 31.7872 49.8817C31.5495 49.8817 31.3911 50.2219 31.3911 50.6471C31.3911 51.0724 31.5495 51.4126 31.7872 51.4126Z" fill="#883C3D"/>
<path d="M31.7872 50.9874C32.0059 50.9874 32.1832 50.7398 32.1832 50.4345C32.1832 50.1292 32.0059 49.8817 31.7872 49.8817C31.5684 49.8817 31.3911 50.1292 31.3911 50.4345C31.3911 50.7398 31.5684 50.9874 31.7872 50.9874Z" fill="#652D2D"/>
<path fill-rule="evenodd" clip-rule="evenodd" d="M24.4206 52.0079C26.2027 53.1136 27.9453 54.3893 29.8067 55.3249C31.4305 56.1329 32.8562 56.0903 33.8463 55.4525C35.7077 54.3043 36.777 53.3262 38.5988 52.3056C34.0047 53.6239 29.7275 53.5814 24.4206 52.0079Z" fill="#FFF38A"/>
</g>
<defs>
<clipPath id="clip0_2_2234">
<rect width="64" height="64" fill="white" transform="translate(0.5)"/>
</clipPath>
</defs>
</svg>
