<svg width="41" height="63" viewBox="0 0 41 63" fill="none" xmlns="http://www.w3.org/2000/svg">
<path fill-rule="evenodd" clip-rule="evenodd" d="M2.67224 34.2404H38.249L32.3767 56.3052H32.2623C32.2623 59.4777 26.7333 62.05 19.9077 62.05C13.7304 62.05 8.62077 59.935 7.70561 57.1912C7.62935 57.0197 7.51495 56.5338 7.43869 56.2766L2.67224 34.2404Z" fill="#CAD5DD"/>
<path fill-rule="evenodd" clip-rule="evenodd" d="M2.67224 34.2404H38.249L33.1012 53.6185H33.025C33.025 53.7614 33.025 53.9043 32.9868 54.0758L32.8343 54.7046C31.7666 57.5627 26.3519 59.7635 19.9077 59.7635C13.8448 59.7635 8.77329 57.8486 7.24803 55.2762L2.67224 34.2404Z" fill="#CAD5DD"/>
<path fill-rule="evenodd" clip-rule="evenodd" d="M37.7588 36.1267L32.3822 56.3051C32.3059 56.5337 32.3059 56.791 32.2297 57.0482C31.4289 59.8777 26.2049 62.0785 19.9132 62.0785C16.672 62.0785 13.7359 61.5069 11.5242 60.5637C11.3336 60.1064 11.2573 59.6205 11.2954 59.1346H11.181L8.16864 36.1267H37.7588Z" fill="#D7DFE2"/>
<path fill-rule="evenodd" clip-rule="evenodd" d="M37.7577 36.1267L33.1057 53.6184L32.9913 54.0471L32.8388 54.6759C31.7329 57.5341 26.3564 59.7062 19.9122 59.7062C16.5184 59.7062 13.4298 59.106 11.1038 58.1343L8.2439 36.1267H37.7577Z" fill="#D7DFE2"/>
<path fill-rule="evenodd" clip-rule="evenodd" d="M33.6366 36.1267L29.671 59.8777C27.4212 61.2211 23.9131 62.0785 19.9474 62.0785C18.1171 62.0785 16.4012 61.907 14.8378 61.564L13.3125 36.6411L19.1466 36.1553H33.6366V36.1267Z" fill="#CD8C5D"/>
<path fill-rule="evenodd" clip-rule="evenodd" d="M33.6366 36.1267L29.671 59.8777C27.4212 61.2211 23.9131 62.0785 19.9474 62.0785C18.1171 62.0785 16.4012 61.907 14.8378 61.564L13.3125 36.6411L19.1466 36.1553H33.6366V36.1267Z" fill="#F4F4F7"/>
<path fill-rule="evenodd" clip-rule="evenodd" d="M33.6366 36.1267L30.0523 57.5055C27.65 58.8774 23.9893 59.7348 19.9093 59.7348C18.0408 59.7348 16.2868 59.5633 14.6852 59.2204L13.3125 36.6126L19.1466 36.1267H33.6366Z" fill="#EAECED"/>
<path fill-rule="evenodd" clip-rule="evenodd" d="M34.1021 34.2404L30.0983 57.477C27.696 58.8489 23.9972 59.7349 19.879 59.7349C16.3709 59.7349 13.1678 59.1061 10.8037 58.0486L7.86755 34.2404H34.1021Z" fill="#F2AD01"/>
<path fill-rule="evenodd" clip-rule="evenodd" d="M30.0523 57.5055C27.65 58.8774 23.9893 59.7348 19.9093 59.7348C18.0408 59.7348 16.2868 59.5633 14.6852 59.2204L13.3125 36.6126L19.1466 36.1267H33.6366L30.0523 57.5055Z" fill="#FFCB05"/>
<path fill-rule="evenodd" clip-rule="evenodd" d="M34.1021 34.2404L30.5559 54.8189C27.9629 56.248 24.1116 57.134 19.8027 57.134C16.2565 57.134 12.9772 56.5052 10.4986 55.5049L7.86755 34.2404H34.1021Z" fill="#DA242C"/>
<path fill-rule="evenodd" clip-rule="evenodd" d="M30.4717 54.876C27.8788 56.2765 24.0656 57.1625 19.7949 57.1625C17.9264 57.1625 16.1343 56.9911 14.4946 56.6767L13.2744 36.6412L19.1085 36.1553H33.5985L30.4717 54.876Z" fill="#ED1C24"/>
<path fill-rule="evenodd" clip-rule="evenodd" d="M21.0182 43.1577L21.7427 44.8442H24.1068L22.2003 45.9018L22.9248 47.5883L21.0182 46.5307L19.0735 47.5883L19.8361 45.9018L17.8914 44.8442H20.2937L21.0182 43.1577Z" fill="#FFCB05"/>
<path d="M14.1514 53.8477C13.9226 53.7905 13.7319 53.7048 13.5794 53.5905C13.4269 53.4761 13.3125 53.3046 13.2362 53.1331C13.1599 52.933 13.1218 52.7043 13.1218 52.4471C13.1218 52.2756 13.1599 52.0755 13.1981 51.8754C13.2362 51.6753 13.3125 51.4466 13.3887 51.218C13.465 50.9893 13.5794 50.7606 13.6938 50.5319C13.8082 50.3033 13.9607 50.0746 14.1132 49.8745L14.037 48.4739C13.9988 48.5311 13.9226 48.5596 13.8844 48.6168C13.6175 48.8455 13.3887 49.0742 13.1599 49.3314C12.9311 49.5887 12.7405 49.8459 12.5498 50.1032C12.3592 50.3604 12.2066 50.6463 12.0923 50.9035C11.9779 51.1608 11.8635 51.4466 11.8253 51.7039C11.7491 51.9612 11.7109 52.1898 11.7109 52.4185C11.7109 52.7329 11.7872 53.0474 11.9016 53.3618C12.0541 53.6476 12.2448 53.9049 12.4736 54.1336C12.7024 54.3622 13.0074 54.5337 13.3887 54.6481C13.6938 54.7624 14.037 54.791 14.4183 54.791L14.3802 53.9049C14.2658 53.8477 14.1895 53.8477 14.1514 53.8477Z" fill="#EAECED"/>
<path d="M15.2215 48.6744C15.4122 48.5314 15.641 48.3885 15.8697 48.3028C16.0985 48.1884 16.3273 48.1313 16.5561 48.1027C16.7468 48.0741 16.9374 48.0741 17.0518 48.1027C17.2044 48.1313 17.3187 48.1598 17.395 48.2456C17.4713 48.3028 17.5475 48.3885 17.5857 48.4743C17.6238 48.56 17.6619 48.6744 17.6619 48.7887C17.6619 48.9888 17.6238 49.1889 17.5094 49.389C17.395 49.5891 17.2425 49.732 17.09 49.9035C16.9374 50.0464 16.7086 50.1607 16.518 50.2751C16.2892 50.3608 16.0985 50.418 15.8697 50.4466C15.7935 50.4466 15.7172 50.4466 15.6791 50.4466C15.641 50.4466 15.6028 50.4466 15.5647 50.418C15.5266 50.418 15.4884 50.418 15.4503 50.3894C15.4122 50.3894 15.374 50.3894 15.3359 50.3894C15.2596 50.3894 15.2215 50.418 15.1834 50.4466C15.1452 50.4752 15.1071 50.5037 15.1071 50.5609C15.1071 50.5895 15.069 50.6467 15.069 50.7038C15.069 50.761 15.069 50.7896 15.069 50.8468C15.069 50.8753 15.069 50.9039 15.069 50.9325C15.069 50.9611 15.069 50.9897 15.069 50.9897C15.069 51.104 15.1452 51.1898 15.2978 51.2184C15.4503 51.2755 15.6791 51.2755 15.946 51.2469C16.1748 51.2184 16.4036 51.1612 16.6324 51.0754C16.8612 50.9897 17.09 50.8753 17.2806 50.7324C17.4713 50.5895 17.7001 50.4466 17.8526 50.2465C18.0432 50.075 18.1958 49.8749 18.3102 49.7034C18.4246 49.5033 18.539 49.3032 18.6152 49.1031C18.6915 48.903 18.7296 48.7029 18.7296 48.5314C18.7296 48.2742 18.6534 48.0455 18.539 47.874C18.4246 47.7025 18.272 47.5596 18.0814 47.4738C17.8907 47.3881 17.6619 47.3023 17.4331 47.2737C17.2044 47.2451 16.9374 47.2451 16.7086 47.2737C16.3655 47.3309 15.9841 47.4167 15.6791 47.531C15.3359 47.6453 15.0308 47.8168 14.7258 47.9883C14.497 48.1313 14.2682 48.2742 14.0394 48.4457L14.1157 49.8463C14.2682 49.6176 14.4589 49.4175 14.6114 49.2175C14.8021 49.0174 14.9927 48.8459 15.2215 48.6744Z" fill="#F4F4F7"/>
<path d="M30.8919 48.1023C30.7394 48.331 30.5869 48.5596 30.3962 48.7597C30.3199 48.8454 30.2437 48.9312 30.1674 49.0169C30.0912 49.1027 30.0149 49.1884 29.9386 49.2456C29.8624 49.3313 29.7861 49.3885 29.7098 49.4456C29.6336 49.5028 29.5573 49.5314 29.4811 49.56C29.4048 49.5885 29.3285 49.5885 29.2904 49.5314C29.2523 49.4742 29.2523 49.3885 29.2523 49.2741C29.2523 49.1312 29.2904 48.9597 29.3285 48.7597C29.3667 48.5596 29.4429 48.3595 29.4811 48.1881C29.5192 48.0166 29.5573 47.8737 29.5954 47.7022C29.6336 47.5593 29.6336 47.4164 29.6336 47.302C29.6336 47.2163 29.6336 47.1591 29.5954 47.1305C29.5954 47.102 29.5573 47.0734 29.5192 47.0448C29.4811 47.0448 29.4429 47.0448 29.4048 47.0448C29.3667 47.0448 29.3285 47.0734 29.2523 47.102C29.2141 47.1305 29.176 47.1305 29.1379 47.1591C29.0997 47.1877 29.0616 47.1877 29.0235 47.2163C28.9853 47.2449 28.9472 47.2449 28.9091 47.2734C28.8709 47.2734 28.8328 47.302 28.7947 47.302C28.7566 47.302 28.7184 47.302 28.6803 47.2734C28.6422 47.2449 28.6422 47.2449 28.604 47.2163C28.5659 47.1877 28.5278 47.1877 28.4896 47.1877C28.4515 47.1877 28.3752 47.1877 28.299 47.2163C28.0702 47.302 27.8414 47.4164 27.6507 47.5878C27.4219 47.7308 27.2313 47.9022 27.0406 48.1023C27.0025 48.1309 26.9644 48.1881 26.9262 48.2166C26.7737 48.3881 26.6212 48.531 26.5068 48.7311C26.4305 48.8168 26.3924 48.9026 26.3161 49.0169C26.2399 49.1598 26.1255 49.3027 26.0492 49.4742C25.9348 49.7029 25.8586 49.9029 25.7823 50.0744C25.7823 50.1316 25.7442 50.1602 25.7442 50.2173C25.706 50.3888 25.6679 50.5317 25.6679 50.7032C25.6298 50.7318 25.5535 50.7889 25.5154 50.8175C25.401 50.9033 25.3247 50.9604 25.2484 51.0176L25.2103 51.0462C25.1341 51.1033 25.0578 51.1319 24.9815 51.1891C24.9053 51.2463 24.829 51.2748 24.7527 51.2748C24.7146 51.2748 24.7146 51.2748 24.6765 51.2462C24.6383 51.2177 24.6383 51.1891 24.6002 51.1605C24.5621 51.1319 24.5621 51.0748 24.5239 51.0176C24.5239 50.9604 24.4858 50.9033 24.4858 50.8461C24.4858 50.8175 24.4858 50.8175 24.4858 50.7889C24.4858 50.7318 24.5239 50.6746 24.5239 50.6175C24.5239 50.5603 24.5621 50.5031 24.5621 50.446C24.5621 50.3888 24.6002 50.3602 24.6002 50.3031C24.6002 50.2459 24.6383 50.2173 24.6383 50.1887C24.7909 49.9315 24.9434 49.6457 25.1341 49.3599V49.3313C25.2866 49.0455 25.4772 48.7597 25.6298 48.4739L25.7442 48.3024C25.8967 48.0737 26.0111 47.8165 26.1636 47.5878C26.2017 47.5021 26.2399 47.4164 26.3161 47.3306C26.4305 47.1305 26.5068 46.9305 26.6212 46.7304C26.7356 46.4446 26.85 46.1588 26.9262 45.9016C26.9262 45.8444 26.9644 45.7872 26.9644 45.7301C27.0025 45.53 27.0406 45.3299 27.0406 45.1584C27.0406 45.0727 27.0406 44.987 27.0025 44.9012C27.0025 44.8726 26.9644 44.844 26.9644 44.8155C26.9262 44.7869 26.9262 44.7297 26.8881 44.7011C26.85 44.644 26.7356 44.6154 26.6593 44.6154C26.5831 44.6154 26.4687 44.6154 26.3543 44.644C26.3161 44.644 26.3161 44.644 26.278 44.6726C26.1255 44.7297 25.9729 44.8155 25.7823 44.9012C25.7442 44.9298 25.706 44.9584 25.6679 44.9869C25.5154 45.1013 25.3247 45.2728 25.1722 45.4442C25.1341 45.4728 25.0959 45.5014 25.0959 45.5586C24.9053 45.7586 24.7527 46.0159 24.5621 46.2731C24.4096 46.5303 24.257 46.8162 24.1045 47.0734C23.952 47.3592 23.7994 47.7308 23.6851 48.1595L23.6088 48.4167C23.5325 48.6739 23.4944 48.8168 23.4944 48.8168C23.4944 48.8168 23.4563 49.0169 23.3419 49.4456C23.3419 49.5028 23.3037 49.5885 23.3037 49.6457C23.1512 49.56 22.9987 49.5028 22.808 49.4456C22.5792 49.3885 22.3123 49.3599 22.0454 49.3313C21.7785 49.3313 21.4734 49.3599 21.1684 49.417C21.0158 49.4456 20.8633 49.5028 20.7108 49.56C20.5201 49.6171 20.3676 49.7029 20.1769 49.7886C19.8719 49.9601 19.6431 50.1316 19.4524 50.3316C19.4143 50.3888 19.3381 50.446 19.2999 50.5031C19.1855 50.6746 19.0711 50.8461 18.9949 51.0176C18.8805 51.2748 18.8423 51.5321 18.8423 51.8465C18.6136 51.9894 18.3848 52.1323 18.1941 52.3038C17.9272 52.4752 17.6984 52.6467 17.4315 52.8468C17.1646 53.0183 16.9358 53.1898 16.6307 53.3327C16.3638 53.4756 16.0969 53.5899 15.7918 53.7042C15.4868 53.79 15.1817 53.8757 14.8385 53.9043C14.6479 53.9329 14.4572 53.9043 14.3047 53.9043L14.3428 54.7903C14.381 54.7903 14.4572 54.7903 14.4953 54.7903C14.8767 54.7617 15.258 54.7046 15.563 54.6474C15.9062 54.5617 16.1731 54.4759 16.4782 54.3902C16.7451 54.2759 17.012 54.1901 17.2027 54.0472C17.4315 53.9329 17.6221 53.79 17.8128 53.6757C18.0035 53.5613 18.1941 53.4184 18.3466 53.2755C18.4992 53.1326 18.6517 52.9897 18.8042 52.8754C18.8423 52.8182 18.9186 52.7896 18.9567 52.7325C18.9949 52.8182 19.0711 52.904 19.1474 52.9897C19.1855 53.0183 19.2237 53.0469 19.2618 53.0754C19.3762 53.1612 19.5287 53.2184 19.6812 53.2755C19.8719 53.3327 20.1388 53.3327 20.4057 53.2755C20.482 53.2469 20.5964 53.2469 20.6727 53.1898C20.7871 53.1612 20.8633 53.104 20.9777 53.0754C21.1684 52.9897 21.3209 52.8754 21.4734 52.7611C21.6259 52.6467 21.7403 52.5038 21.8547 52.3609C21.9691 52.218 22.0835 52.0751 22.1598 51.9036C22.2361 51.7607 22.3123 51.5892 22.3504 51.4463C22.3886 51.2748 22.4267 51.1319 22.4267 50.989C22.4267 50.7889 22.3886 50.6175 22.3504 50.4746C22.3123 50.3316 22.2361 50.1887 22.1217 50.0744C22.1217 50.0458 22.1598 50.0458 22.1598 50.0173C22.2742 50.0458 22.4267 50.0744 22.5792 50.1316C22.7318 50.1887 22.9224 50.2459 23.0749 50.3316C23.1131 50.3602 23.1512 50.3602 23.1893 50.3888C23.1893 50.446 23.1893 50.5031 23.1893 50.5317C23.1893 50.8175 23.2275 51.0748 23.3037 51.3034C23.38 51.5321 23.4563 51.7321 23.5707 51.9036C23.5707 51.9322 23.6088 51.9608 23.6088 51.9894C23.7232 52.1037 23.8376 52.218 23.952 52.2752C24.1045 52.3609 24.257 52.3609 24.4477 52.3038C24.5621 52.2752 24.6765 52.218 24.829 52.1609C24.9434 52.1037 25.0959 52.0179 25.2103 51.9608C25.3628 51.875 25.4772 51.7893 25.6298 51.7035C25.706 51.6464 25.7823 51.6178 25.8204 51.5606C25.8586 51.5321 25.8967 51.5035 25.9348 51.4749C25.9729 51.5035 26.0111 51.5321 26.0492 51.5321C26.1255 51.5892 26.2399 51.5892 26.3543 51.6178C26.3924 51.6178 26.3924 51.6178 26.4305 51.6178C26.5831 51.6178 26.7356 51.5892 26.8881 51.5321C26.9262 51.5321 26.9644 51.5035 26.9644 51.5035C27.0788 51.4463 27.1932 51.3892 27.3076 51.332C27.4601 51.2463 27.6126 51.1319 27.727 51.0462C27.8795 50.9319 27.9939 50.8175 28.1083 50.7032C28.2227 50.5889 28.3371 50.4746 28.4134 50.3888C28.5278 50.5317 28.6422 50.646 28.7947 50.6746C28.9472 50.7318 29.1379 50.7032 29.3285 50.6175C29.5192 50.5317 29.6717 50.446 29.8624 50.3031C30.053 50.1602 30.2056 49.9887 30.3581 49.8458C30.5106 49.6743 30.6631 49.5028 30.7775 49.3599C30.8919 49.1884 31.0063 49.0455 31.0826 48.9312C31.0826 48.5882 31.0063 48.331 30.8919 48.1023ZM21.4734 51.3606C21.4353 51.5606 21.359 51.7321 21.2828 51.875C21.2065 52.0179 21.1302 52.1609 21.0158 52.2466C20.9396 52.3323 20.8633 52.3895 20.7871 52.4181C20.7489 52.4181 20.7489 52.4467 20.7108 52.4467C20.5964 52.4752 20.482 52.4752 20.3676 52.4467C20.2913 52.4181 20.2151 52.3895 20.1388 52.3323C20.1007 52.2752 20.0244 52.218 20.0244 52.1323C19.9863 52.0465 19.9863 51.9608 19.9863 51.8465C19.9863 51.6464 20.0244 51.4463 20.0626 51.2748C20.1007 51.1033 20.1769 50.9319 20.2913 50.7889C20.3676 50.646 20.482 50.5031 20.5964 50.3888C20.6345 50.3316 20.7108 50.3031 20.7489 50.2745C20.8252 50.2459 20.9014 50.2173 20.9396 50.1887C21.054 50.1602 21.1302 50.1602 21.2065 50.1887C21.2828 50.2173 21.3209 50.2459 21.3972 50.3316C21.4353 50.3888 21.4734 50.4746 21.5116 50.5603C21.5497 50.646 21.5497 50.7604 21.5497 50.8747C21.5497 50.989 21.5116 51.1605 21.4734 51.3606ZM24.6383 48.3881C24.7146 48.0451 24.7527 47.8451 24.7527 47.8451C24.7527 47.8451 24.829 47.645 24.9815 47.2449C25.0578 46.9876 25.1722 46.759 25.2484 46.5875C25.2866 46.5018 25.3247 46.416 25.3628 46.3588C25.4772 46.1588 25.5535 46.0159 25.6679 45.873C25.7442 45.7872 25.7823 45.7301 25.8586 45.7015C25.8967 45.6729 25.9348 45.6729 25.9729 45.6443C26.0111 45.6443 26.0111 45.6443 26.0111 45.7015C26.0111 45.7586 26.0111 45.8158 26.0111 45.873C26.0111 46.073 25.9348 46.2731 25.8586 46.5018C25.8586 46.5589 25.8204 46.6161 25.7823 46.6732C25.6679 46.9591 25.5535 47.2735 25.401 47.5878C25.3628 47.7022 25.2866 47.8165 25.2103 47.9308C25.1341 48.1309 25.0197 48.3024 24.9053 48.4739C24.7527 48.7597 24.6002 49.0455 24.4477 49.2741C24.5239 49.0455 24.5621 48.7311 24.6383 48.3881ZM28.1846 49.2456C28.1464 49.3313 28.1464 49.4456 28.1083 49.56C28.0702 49.7029 27.9939 49.8458 27.9177 49.9601C27.8414 50.103 27.7651 50.2173 27.6507 50.3316C27.5363 50.446 27.4601 50.5317 27.3076 50.5603C27.2313 50.5889 27.155 50.5889 27.1169 50.5889C27.0788 50.5889 27.0406 50.5603 27.0025 50.5031C26.9644 50.4746 26.9644 50.4174 26.9644 50.3888C26.9644 50.3316 26.9644 50.2745 26.9644 50.2173C26.9644 50.103 27.0025 49.9887 27.0406 49.8458V49.8172C27.0788 49.7029 27.155 49.5314 27.2313 49.3599C27.3076 49.1598 27.4219 48.9883 27.4982 48.8454C27.5745 48.7025 27.6889 48.5596 27.8033 48.4453C27.9177 48.331 28.0321 48.2166 28.1464 48.1023C28.2608 48.0166 28.4134 47.9308 28.5278 47.8737C28.4134 48.3595 28.299 48.7883 28.1846 49.2456Z" fill="#F4F4F7"/>
<path fill-rule="evenodd" clip-rule="evenodd" d="M2.67224 34.2404H38.249L37.5245 36.9273C34.0545 39.6428 27.6866 41.4436 20.4416 41.4436C13.1203 41.4436 6.75232 39.6142 3.24421 36.8988L2.67224 34.2404Z" fill="#B6C3CC"/>
<path fill-rule="evenodd" clip-rule="evenodd" d="M34.103 34.3261L33.226 39.3569C29.756 40.7004 25.2946 41.5293 20.4138 41.5293C15.9905 41.5293 11.8723 40.8433 8.55485 39.6999L7.90662 34.3261H34.103Z" fill="#C8252F"/>
<path fill-rule="evenodd" clip-rule="evenodd" d="M39.2373 1.91495C40.9151 0.600208 38.3984 -0.657368 37.1019 0.371558L24.7854 9.97487L26.9208 11.5183L39.2373 1.91495Z" fill="#F8BB33"/>
<path fill-rule="evenodd" clip-rule="evenodd" d="M20.4809 21.0072C29.4418 21.0072 37.0682 23.7796 39.5848 27.5523H40.4237V29.5816C40.4619 29.8103 40.5 30.0675 40.5 30.2961C40.5 35.4408 31.5391 39.5851 20.5191 39.5851C9.49905 39.5851 0.5 35.4122 0.5 30.2961V27.5523H1.37703C3.89371 23.751 11.4819 21.0072 20.4809 21.0072Z" fill="#CAD5DD"/>
<path fill-rule="evenodd" clip-rule="evenodd" d="M40.3856 29.8675V30.1247C40.3856 30.1819 40.3856 30.2105 40.4238 30.2677C39.7755 35.127 31.1197 38.9858 20.481 38.9858C9.46093 39.0144 0.5 34.8411 0.5 29.696C0.5 29.6102 0.5 29.4959 0.5 29.4101C0.805053 34.4124 9.61345 38.4427 20.4428 38.4427C30.9671 38.4427 39.5849 34.6696 40.3856 29.8675Z" fill="#A2B3BC"/>
<path fill-rule="evenodd" clip-rule="evenodd" d="M20.4809 36.1267C31.4628 36.1267 40.4619 31.9538 40.4619 26.8378C40.4619 21.7217 31.501 17.5489 20.4809 17.5489C9.46092 17.5489 0.5 21.7217 0.5 26.8378C0.5 31.9538 9.46092 36.1267 20.4809 36.1267Z" fill="url(#paint0_linear_2_2400)"/>
<path fill-rule="evenodd" clip-rule="evenodd" d="M20.4849 18.1777C30.7423 18.1777 39.0932 22.0648 39.0932 26.8378C39.0932 31.6109 30.7423 35.498 20.4849 35.498V34.9549C30.0941 34.9549 37.9111 31.3251 37.9111 26.8378C37.9111 22.3506 30.0941 18.7208 20.4849 18.7208V18.1777ZM20.4849 35.498C10.2275 35.498 1.87671 31.6109 1.87671 26.8378C1.87671 22.0648 10.2275 18.1777 20.4849 18.1777V18.7208C10.8758 18.7208 3.05879 22.3506 3.05879 26.8378C3.05879 31.3251 10.8758 34.9549 20.4849 34.9549V35.498Z" fill="#CAD5DD"/>
<path fill-rule="evenodd" clip-rule="evenodd" d="M20.4791 33.0685C27.8766 33.0685 33.9014 30.2676 33.9014 26.8378C33.9014 23.4081 27.8766 20.6071 20.4791 20.6071C13.0816 20.6071 7.05679 23.4081 7.05679 26.8378C7.05679 30.2676 13.0816 33.0685 20.4791 33.0685Z" fill="#CAD5DD"/>
<path fill-rule="evenodd" clip-rule="evenodd" d="M20.4781 22.1791C27.3037 22.1791 32.9471 24.5513 33.786 27.6095C32.9471 30.6677 27.3037 33.04 20.4781 33.04C13.6525 33.04 8.00906 30.6677 7.17017 27.6095C8.00906 24.5513 13.6525 22.1791 20.4781 22.1791Z" fill="#EAECED"/>
<path fill-rule="evenodd" clip-rule="evenodd" d="M20.4771 31.7832C25.0529 31.7832 28.7898 30.0395 28.7898 27.9243C28.7898 25.7805 25.0529 24.0654 20.4771 24.0654C15.9013 24.0654 12.1644 25.8091 12.1644 27.9243C12.1644 30.0395 15.9013 31.7832 20.4771 31.7832Z" fill="#CAD5DD"/>
<path fill-rule="evenodd" clip-rule="evenodd" d="M20.4771 30.6971C25.0529 30.6971 28.7898 28.9534 28.7898 26.8382C28.7898 24.6944 25.0529 22.9793 20.4771 22.9793C15.9013 22.9793 12.1644 24.723 12.1644 26.8382C12.1644 28.9534 15.9013 30.6971 20.4771 30.6971Z" fill="url(#paint1_linear_2_2400)"/>
<path fill-rule="evenodd" clip-rule="evenodd" d="M20.6289 27.8955C21.8873 27.8955 22.8787 27.4382 22.8787 26.8379C22.8787 26.2662 21.8492 25.7803 20.6289 25.7803C19.3706 25.7803 18.3792 26.2376 18.3792 26.8379C18.3792 27.4382 19.3706 27.8955 20.6289 27.8955Z" fill="#98ABB6"/>
<path fill-rule="evenodd" clip-rule="evenodd" d="M27.4665 10.9476C27.9241 9.51851 25.0261 9.14695 24.5685 10.3759L19.0394 27.5819C20.0309 28.0106 21.0604 28.0106 22.09 27.6676L27.4665 10.9476Z" fill="url(#paint2_linear_2_2400)"/>
<defs>
<linearGradient id="paint0_linear_2_2400" x1="20.4696" y1="17.5389" x2="20.4696" y2="36.1291" gradientUnits="userSpaceOnUse">
<stop stop-color="#F4F4F7"/>
<stop offset="1" stop-color="white"/>
</linearGradient>
<linearGradient id="paint1_linear_2_2400" x1="20.4658" y1="22.9635" x2="20.4658" y2="30.7058" gradientUnits="userSpaceOnUse">
<stop stop-color="#F4F4F7"/>
<stop offset="1" stop-color="white"/>
</linearGradient>
<linearGradient id="paint2_linear_2_2400" x1="42.9323" y1="-1.27287" x2="16.0962" y2="48.0063" gradientUnits="userSpaceOnUse">
<stop stop-color="#F18C2C"/>
<stop offset="1" stop-color="#E02F2B"/>
</linearGradient>
</defs>
</svg>
