<svg width="65" height="64" viewBox="0 0 65 64" fill="none" xmlns="http://www.w3.org/2000/svg">
<path fill-rule="evenodd" clip-rule="evenodd" d="M7.49344 29.7957L56.5485 28.9413L47.8811 50.0894C46.0205 54.6609 39.622 58.506 31.1361 58.506C22.6955 58.506 15.9794 54.789 14.3911 50.1322L7.49344 29.7957Z" fill="#CAD5DD"/>
<path fill-rule="evenodd" clip-rule="evenodd" d="M43.435 55.1308C41.6199 56.3271 39.3509 57.3097 36.7643 57.8652C34.9037 58.2497 32.907 58.4206 30.8196 58.4206C30.3658 58.4206 29.8666 58.4206 29.4128 58.3778C25.2379 58.1215 21.6076 56.968 18.9302 55.259L14.9368 31.6328L49.6066 31.0774L43.435 55.1308Z" fill="#D7DFE2"/>
<path fill-rule="evenodd" clip-rule="evenodd" d="M41.1198 56.4126C39.8038 57.0107 38.3063 57.5234 36.718 57.8652C34.8574 58.2497 32.8608 58.4206 30.7733 58.4206C30.3195 58.4206 29.8203 58.4206 29.3665 58.3779C27.0976 58.2497 24.9647 57.8224 23.0588 57.1816L22.6958 31.5474L45.1132 31.1629L41.1198 56.4126Z" fill="#F3F6F9"/>
<path fill-rule="evenodd" clip-rule="evenodd" d="M7.49344 29.7957L56.5485 28.9413L48.5164 48.0387C45.8844 52.1829 39.3044 55.1736 31.3176 55.1736C22.7863 55.1736 15.6163 51.7557 13.5743 47.1415L7.49344 29.7957Z" fill="#C8252F"/>
<path fill-rule="evenodd" clip-rule="evenodd" d="M44.208 52.012C40.8953 53.9773 36.4028 55.1736 31.3203 55.1736C26.2378 55.1736 21.6091 53.9773 18.2964 52.012L14.8476 31.6756L49.5174 31.1201L44.208 52.012Z" fill="#DA242C"/>
<path fill-rule="evenodd" clip-rule="evenodd" d="M34.8711 44.8602C34.7349 44.6465 34.5534 44.5184 34.3719 44.3902C34.2811 44.3475 34.1904 44.3047 34.0542 44.262C33.9635 44.2193 33.9181 44.2193 33.8273 44.2193C33.782 44.2193 33.6912 44.1766 33.6458 44.1766H33.6004C33.3282 44.1339 33.0559 44.1339 32.7836 44.1766C32.6928 44.1766 32.6475 44.2193 32.6021 44.2193C32.4206 44.262 32.1937 44.3047 32.0122 44.3475C31.876 44.3902 31.7399 44.4329 31.6037 44.4756C31.4676 44.5184 31.3315 44.6038 31.2407 44.6893C31.0592 44.7747 30.9231 44.9029 30.7869 45.031C30.56 45.2447 30.3785 45.4583 30.2877 45.6719C30.197 45.8855 30.1062 46.1419 30.1062 46.3555C30.1062 46.5691 30.1516 46.74 30.2424 46.9109C30.2424 46.9536 30.2424 46.9963 30.2877 46.9963C30.3331 47.0818 30.3785 47.1245 30.4239 47.21C30.5146 47.3381 30.6054 47.4236 30.6962 47.509C30.8777 47.6372 31.0592 47.8081 31.2861 47.8935C31.513 48.0217 31.7399 48.1072 31.9668 48.1926C32.0122 48.1926 32.0575 48.2353 32.1029 48.2353C32.2844 48.3208 32.466 48.4062 32.6475 48.4489C32.8744 48.5344 33.0559 48.6198 33.2374 48.748C33.3282 48.8335 33.4643 48.8762 33.5097 48.9616C33.5551 49.0043 33.6004 49.0471 33.6458 49.0898C33.6458 49.1325 33.6912 49.1752 33.6912 49.1752C33.7366 49.3034 33.782 49.4316 33.782 49.6025C33.782 49.7734 33.7366 49.9443 33.6458 50.0724C33.6458 50.1152 33.6004 50.1579 33.6004 50.2006C33.5551 50.2433 33.5551 50.2861 33.5097 50.3288C33.4189 50.457 33.2828 50.5851 33.1466 50.7133C33.0105 50.8415 32.829 50.9269 32.6475 51.0124C32.6021 51.0551 32.5567 51.0551 32.5113 51.0978C32.2844 51.1833 32.0575 51.226 31.7853 51.2687C31.6037 51.3114 31.3768 51.2687 31.1953 51.2687C31.15 51.2687 31.1046 51.226 31.0592 51.226C30.9231 51.1833 30.8323 51.1405 30.6962 51.0978C30.6508 51.0551 30.6054 51.0551 30.56 51.0124C30.4693 50.9269 30.3785 50.8842 30.3331 50.756C30.2424 50.6278 30.197 50.4569 30.197 50.2433C30.197 50.1579 30.197 50.0724 30.197 49.987C30.197 49.9443 30.197 49.9015 30.197 49.8588C30.197 49.8161 30.197 49.8161 30.197 49.7734C30.197 49.7306 30.2424 49.6452 30.2424 49.6025C30.2424 49.5598 30.2424 49.517 30.2424 49.517V49.4743C30.2424 49.3889 30.197 49.3034 30.1516 49.2607C30.1062 49.218 30.0155 49.1752 29.9247 49.1752C29.8793 49.1752 29.8793 49.1752 29.8339 49.1752C29.7886 49.1752 29.6978 49.218 29.6524 49.2607C29.5617 49.3034 29.4709 49.3889 29.3802 49.4743C29.2894 49.5598 29.244 49.6879 29.1533 49.8161C29.1079 49.9443 29.0625 50.1152 29.0625 50.2861C29.0625 50.6278 29.1533 50.9269 29.2894 51.1833C29.4255 51.4396 29.6071 51.6105 29.8793 51.7814L29.9247 51.8241C30.197 51.995 30.4693 52.1232 30.7869 52.1659C31.1046 52.2086 31.4676 52.2513 31.7853 52.2086C31.8306 52.2086 31.8306 52.2086 31.876 52.2086C32.0575 52.1659 32.2391 52.1659 32.4206 52.0804C32.466 52.0804 32.5113 52.0805 32.5567 52.0377C32.7836 51.9523 33.0105 51.8668 33.2374 51.7387C33.2828 51.6959 33.3282 51.6959 33.3735 51.6532C33.5551 51.5678 33.6912 51.4396 33.8727 51.3114C34.0542 51.1405 34.2357 50.9696 34.3719 50.756C34.4173 50.7133 34.4626 50.6278 34.508 50.5851C34.5988 50.457 34.6442 50.2861 34.7349 50.1579C34.7803 50.0297 34.8257 49.9443 34.8257 49.8161C34.8257 49.6879 34.8711 49.5598 34.8711 49.4316C34.8711 49.4316 34.8711 49.4316 34.8711 49.3889C34.8711 49.1752 34.8257 49.0471 34.7803 48.8762C34.7803 48.8335 34.7349 48.748 34.7349 48.7053C34.6895 48.6198 34.6442 48.5344 34.5534 48.4489C34.4626 48.3635 34.4173 48.278 34.2811 48.1926C34.0996 48.0644 33.9181 47.9363 33.6912 47.8508C33.6004 47.8081 33.4643 47.7654 33.3735 47.7226C33.2374 47.6799 33.1466 47.6372 33.0105 47.5517C32.829 47.4663 32.6475 47.4236 32.466 47.3381C32.4206 47.3381 32.3752 47.2954 32.3298 47.2954C32.1029 47.21 31.9214 47.1245 31.7399 46.9963C31.5584 46.9109 31.4222 46.7827 31.3315 46.6118C31.2407 46.4836 31.1953 46.3128 31.1953 46.1419C31.1953 46.0991 31.1953 46.0564 31.1953 46.0137V45.971C31.1953 45.9282 31.2407 45.8855 31.2407 45.8428C31.2861 45.8001 31.2861 45.7573 31.3315 45.7146C31.3768 45.6719 31.4222 45.6292 31.4676 45.5865L31.513 45.5437C31.5584 45.501 31.6037 45.4583 31.6491 45.4583L31.6945 45.4156C31.7853 45.3728 31.8306 45.3301 31.9214 45.2874C32.0575 45.2447 32.1937 45.2019 32.3752 45.1592C32.4206 45.1592 32.5113 45.1165 32.5567 45.1165C32.7836 45.0738 32.9651 45.0738 33.192 45.0738C33.3282 45.0738 33.4643 45.1165 33.5551 45.1165C33.6004 45.1165 33.6458 45.1165 33.6912 45.1592C33.782 45.2019 33.8273 45.2447 33.8727 45.2874C33.9181 45.3301 33.9635 45.3728 34.0089 45.4156C34.0089 45.4583 34.0542 45.4583 34.0542 45.501C34.0996 45.5865 34.145 45.6719 34.145 45.7573C34.145 45.8428 34.145 45.971 34.0996 46.0564C34.0996 46.0991 34.0542 46.1419 34.0542 46.1846C34.0542 46.2273 34.0089 46.3128 33.9635 46.3555C33.9635 46.3982 33.9181 46.3982 33.9181 46.4409C33.9181 46.4836 33.8727 46.4837 33.8727 46.5264C33.8273 46.6118 33.782 46.6973 33.7366 46.7827V46.8254C33.7366 46.8682 33.6912 46.9109 33.6912 46.9536V46.9963C33.6912 47.0391 33.6912 47.0818 33.6912 47.1245V47.1672C33.6912 47.2527 33.7366 47.2954 33.782 47.3381C33.8273 47.3381 33.8273 47.3808 33.8727 47.3808C33.9181 47.3808 33.9181 47.3808 33.9635 47.3808C34.0542 47.3808 34.1904 47.2954 34.3265 47.1672C34.3719 47.1245 34.4173 47.0818 34.4173 47.0391C34.508 46.9536 34.5988 46.8254 34.6895 46.6973C34.8257 46.4837 34.8711 46.3128 34.9618 46.0991C34.9618 46.0564 34.9618 46.0137 35.0072 45.971C35.0526 45.8428 35.0526 45.7146 35.0526 45.5865C35.0526 45.2874 35.0072 45.031 34.8711 44.8602Z" fill="#FFF3AD"/>
<path fill-rule="evenodd" clip-rule="evenodd" d="M7.49344 29.7957H56.1855L53.6443 35.8625C48.6525 39.7076 40.7111 42.1856 31.8168 42.1856C22.6048 42.1856 14.4365 39.494 9.44475 35.4352L7.49344 29.7957Z" fill="#C8252F"/>
<path fill-rule="evenodd" clip-rule="evenodd" d="M31.9091 33.0427C46.9751 33.0427 59.3183 25.8651 59.3183 17.0214C59.3183 8.17757 46.9751 1 31.9091 1C16.8432 1 4.5 8.17757 4.5 17.0214C4.5 25.8651 16.7978 33.0427 31.9091 33.0427Z" fill="url(#paint0_linear_2_1644)"/>
<path fill-rule="evenodd" clip-rule="evenodd" d="M31.9092 31.8037C45.7952 31.8037 57.1401 25.1388 57.1401 17.0214C57.1401 8.90387 45.7952 2.23898 31.9092 2.23898C17.9777 2.23898 6.63284 8.86115 6.63284 17.0214C6.63284 25.1816 17.9777 31.8037 31.9092 31.8037Z" fill="#CAD5DD"/>
<path fill-rule="evenodd" clip-rule="evenodd" d="M31.9091 6.93857C44.207 6.93857 52.5568 12.4072 56.0056 18.9439H59.2275V21.7209C59.2729 22.1482 59.3183 22.5327 59.3183 22.9599C59.3183 31.8037 47.0659 38.9813 31.9091 38.9813C16.7524 38.9813 4.5 31.8037 4.5 22.9599V18.9439H8.76566C12.2145 12.4072 19.566 6.93857 31.9091 6.93857Z" fill="#E2E7EB"/>
<path fill-rule="evenodd" clip-rule="evenodd" d="M46.0202 3.1789C46.0202 5.3578 46.3379 7.1522 46.111 4.97329C46.0656 4.37516 49.106 3.05073 49.469 3.73431C49.8775 4.50333 49.8321 5.65687 49.3783 5.99866C47.0639 7.83577 50.2859 5.82776 51.6926 5.48597C52.4641 5.27236 52.6456 4.8024 52.7817 4.84512C53.1902 5.01601 51.7834 8.04939 51.1027 8.34846C49.6052 9.07476 50.1497 8.39118 51.8288 7.19492C52.3733 6.81041 53.1902 6.04138 53.5078 6.16955C53.7347 6.255 53.8255 8.77569 53.3263 9.45927C52.0557 11.1682 52.9633 10.1429 54.0524 8.22029C54.6877 7.10947 55.2776 6.46862 55.4591 6.68224C55.8222 7.06675 55.8675 9.71561 54.7331 9.03204C54.4608 8.86114 60.0424 10.1429 59.5433 10.3992C58.8626 10.741 57.8189 11.04 56.3213 11.4673C56.5482 12.0227 59.4525 11.3391 59.1802 11.6382C56.9113 14.0734 60.7231 12.4499 60.3147 13.0481C58.5903 15.7396 56.3667 19.542 54.6877 22.0627C54.3246 22.6609 53.5986 23.729 52.8271 23.7717C52.2372 23.8144 51.6926 23.9853 50.9666 23.9426C50.5582 23.9426 48.743 23.8144 48.7884 23.8571C44.2958 20.781 44.6588 18.7303 45.1126 15.0988C45.4757 12.0227 44.8857 9.80106 43.9781 6.59679C43.5697 4.67423 43.4336 2.53804 46.0202 3.1789Z" fill="#699B42"/>
<path fill-rule="evenodd" clip-rule="evenodd" d="M46.0223 3.17888C43.4357 3.3925 44.7063 5.10145 45.8862 4.41787C46.3854 4.1188 48.019 2.75165 49.0174 3.34978C49.6073 3.69157 49.6527 3.94791 49.2443 4.2897C46.9299 6.12681 50.1065 5.22962 51.4679 4.88783C54.236 4.16153 52.0578 5.44324 51.1048 5.87047C49.6073 6.59677 49.9703 7.79304 51.6494 6.59677C52.557 5.95592 54.3721 5.35779 53.1469 7.06673C51.8763 8.77568 52.8292 9.5447 53.9184 7.62214C55.3705 5.05872 56.4596 7.02401 54.599 8.43389C54.4175 8.56206 62.2228 10.5273 58.8193 10.4846C57.8664 10.4846 55.7789 9.28836 56.2327 10.3137C56.4596 10.8691 61.0883 11.5954 58.6832 11.6382C54.599 11.7236 61.1791 12.5354 60.453 13.0053C57.9117 14.6288 56.2781 18.9439 54.599 21.4646C54.236 22.0627 53.5099 23.1308 52.7385 23.1735C52.1486 23.2163 51.604 23.3872 50.8779 23.3444C50.4695 23.3444 48.6543 23.2163 48.6997 23.259C44.2072 20.1829 44.5702 18.1322 45.024 14.5006C45.387 11.4245 44.7971 9.20291 43.8895 5.99864C43.345 4.07608 43.4357 2.53803 46.0223 3.17888Z" fill="#99CC33"/>
<path fill-rule="evenodd" clip-rule="evenodd" d="M44.2962 4.50331C44.2508 6.93855 45.2945 8.51933 45.7937 10.1855C45.9752 10.8264 45.8845 11.4673 46.0206 12.0654C46.1114 12.4926 46.0206 13.048 46.1568 12.2363C46.5198 10.0574 45.5214 7.9212 45.703 5.82774C45.7937 4.97327 47.2005 4.28969 46.3836 4.50331C45.8845 4.63148 44.6139 4.93054 44.2962 4.50331Z" fill="#D1DB39"/>
<path fill-rule="evenodd" clip-rule="evenodd" d="M48.3364 5.48596C47.7918 6.38316 47.8372 7.49397 47.7464 8.17755C47.5196 9.54471 47.2927 10.9546 46.9296 12.3217C46.5212 13.8598 47.4288 11.04 47.5649 10.6982C48.0641 9.37381 48.2002 8.64751 48.7902 7.3658C48.9263 7.10946 49.6978 5.95592 49.6978 5.78503C49.2893 5.52869 48.654 5.82775 48.3364 5.48596Z" fill="#D1DB39"/>
<path fill-rule="evenodd" clip-rule="evenodd" d="M50.1071 7.15221C49.6079 8.13485 49.5625 9.11749 49.4264 9.80107C49.3356 10.1001 49.1995 10.3565 49.1087 10.6555C48.9726 10.9973 48.8818 11.2537 49.1541 10.8264C49.6533 10.0574 50.1978 9.33111 50.6516 8.56209L51.5138 7.15221C51.6046 7.02404 50.5155 7.53672 50.1071 7.15221Z" fill="#D1DB39"/>
<path fill-rule="evenodd" clip-rule="evenodd" d="M56.0056 10.0574C55.5971 10.4419 55.3702 10.9119 54.9618 11.3391L52.0576 14.2016L51.15 15.1415L51.8307 14.5861L56.2325 11.1255C57.0493 10.3992 55.9602 10.9546 56.0056 10.0574Z" fill="#D1DB39"/>
<path fill-rule="evenodd" clip-rule="evenodd" d="M57.0968 11.9372C56.8699 12.279 56.5522 12.9199 56.2346 13.1762C55.5539 13.7316 55.1001 14.287 54.5102 14.9706C53.6933 15.996 55.9623 13.8598 56.4161 13.6034C56.8245 13.3471 57.5506 13.1762 58.0498 13.0053C58.7304 12.7917 58.7304 12.749 57.9136 12.4926C57.6413 12.4072 57.0514 11.7663 57.0968 11.9372Z" fill="#D1DB39"/>
<path fill-rule="evenodd" clip-rule="evenodd" d="M54.5553 8.60477C53.7838 9.24562 53.6931 10.3992 52.8309 10.8691C52.2409 11.2109 52.1502 11.9799 51.9233 12.4499C51.6964 12.9199 52.3771 12.1081 52.4678 12.0227C53.1939 11.2109 54.4645 10.3137 55.4175 9.67286C55.7351 9.45924 56.0982 9.41652 55.236 9.11745C54.9637 9.11745 54.5553 8.60477 54.5553 8.60477Z" fill="#D1DB39"/>
<path fill-rule="evenodd" clip-rule="evenodd" d="M20.1567 2.79437C20.1567 4.97327 19.8391 6.72494 20.066 4.58876C20.1114 3.99063 17.0709 2.15351 16.7079 2.70892C16.2995 3.3925 16.3449 4.54603 16.7987 4.97327C19.113 7.23762 15.8911 4.67421 14.4843 4.07607C13.7129 3.73429 13.5313 3.2216 13.3952 3.26433C12.9868 3.34977 14.3935 6.63949 15.0742 7.06673C16.5718 8.04937 16.0272 7.28035 14.3482 5.78502C13.8036 5.31506 12.9868 4.41786 12.6691 4.50331C12.4422 4.54603 12.3515 7.06673 12.8507 7.83575C14.1213 9.75832 13.2137 8.56206 12.1246 6.4686C11.4893 5.22961 10.8993 4.50331 10.7178 4.67421C10.3548 5.01599 10.3094 7.66486 11.4439 7.15218C11.7162 7.02401 6.1345 7.36579 6.63368 7.70758C7.31437 8.17754 8.35809 8.6475 9.85561 9.33108C9.62871 9.84377 6.72443 8.69023 6.99671 8.98929C9.26568 11.8091 5.45381 9.50198 5.86223 10.2283C7.58664 13.2189 9.81023 17.4058 11.4893 20.2256C11.8523 20.8665 12.5784 22.0627 13.3498 22.2336C13.9398 22.3618 14.4843 22.6181 15.2104 22.7463C15.6188 22.789 17.434 23.0026 17.3886 23.0026C21.8811 20.6956 21.5181 18.6021 21.0643 14.8424C20.7013 11.6809 21.2912 9.58742 22.1988 6.51132C22.6072 4.71693 22.7434 2.62347 20.1567 2.79437Z" fill="#699B42"/>
<path fill-rule="evenodd" clip-rule="evenodd" d="M20.1587 2.79439C22.7453 3.43524 21.4747 4.97329 20.2948 4.03337C19.7956 3.64886 18.162 2.02536 17.1636 2.40988C16.5737 2.66622 16.5283 2.87984 16.9367 3.30707C19.2511 5.57142 16.0745 4.11882 14.7132 3.52069C11.945 2.32443 14.1232 3.94793 15.0762 4.58878C16.5737 5.57142 16.2107 6.72496 14.5316 5.22964C13.624 4.41789 11.8089 3.52069 13.0341 5.44325C14.3047 7.36582 13.3518 8.00667 12.2627 5.87049C10.8105 3.05073 9.72142 4.84512 11.582 6.55407C11.7635 6.72496 3.95823 7.32309 7.36169 7.83578C8.31466 7.96395 10.3567 7.1522 9.94831 8.13484C9.72142 8.64753 5.09272 8.56208 7.49783 9.03204C11.582 9.84379 5.00196 9.502 5.72803 10.1001C8.26928 12.1936 9.94832 16.8077 11.582 19.6275C11.945 20.2684 12.6711 21.4646 13.4425 21.6355C14.0325 21.7637 14.577 22.02 15.3031 22.1482C15.7115 22.1909 17.5267 22.4045 17.4813 22.4045C21.9739 20.0975 21.6108 18.004 21.157 14.2443C20.794 11.0828 21.3839 8.98932 22.2915 5.91321C22.8361 4.16155 22.7453 2.62349 20.1587 2.79439Z" fill="#99CC33"/>
<path fill-rule="evenodd" clip-rule="evenodd" d="M21.8802 4.41788C21.9256 6.85313 20.8819 8.22028 20.3827 9.84378C20.2012 10.4419 20.292 11.1255 20.1558 11.6809C20.0651 12.1081 20.1558 12.6635 20.0197 11.8518C19.6567 9.58744 20.655 7.62215 20.4735 5.52869C20.3827 4.67422 18.976 3.7343 19.7928 4.11881C20.292 4.28971 21.5626 4.80239 21.8802 4.41788Z" fill="#D1DB39"/>
<path fill-rule="evenodd" clip-rule="evenodd" d="M17.8415 4.71693C18.3861 5.7423 18.3407 6.76767 18.4314 7.49397C18.6583 8.90385 18.8852 10.3565 19.2483 11.7663C19.6567 13.3898 18.7491 10.3992 18.613 10.0574C18.1138 8.64751 17.9777 7.87848 17.3877 6.51133C17.2516 6.25498 16.4801 4.97328 16.4801 4.75966C16.8885 4.58876 17.5239 4.97328 17.8415 4.71693Z" fill="#D1DB39"/>
<path fill-rule="evenodd" clip-rule="evenodd" d="M16.0723 6.0841C16.5715 7.15219 16.6169 8.17756 16.753 8.86114C16.8438 9.1602 16.9799 9.45927 17.0707 9.80106C17.1614 10.1001 17.2522 10.3992 16.9799 9.92923C16.4807 9.07475 15.9362 8.26301 15.4824 7.40853L14.6202 5.82776C14.5748 5.65686 15.6639 6.38317 16.0723 6.0841Z" fill="#D1DB39"/>
<path fill-rule="evenodd" clip-rule="evenodd" d="M10.1728 7.96396C10.5813 8.43392 10.8082 8.9466 11.2166 9.41656L14.1208 12.749L15.0284 13.8171L14.3477 13.1335L9.94594 8.90388C9.12911 8.09213 10.2182 8.86115 10.1728 7.96396Z" fill="#D1DB39"/>
<path fill-rule="evenodd" clip-rule="evenodd" d="M9.08557 9.63016C9.31247 10.0147 9.63012 10.6983 9.94778 11.04C10.6285 11.7236 11.0823 12.3217 11.6722 13.1335C12.489 14.287 10.2201 11.7663 9.76626 11.4246C9.35785 11.1255 8.63178 10.7837 8.1326 10.5701C7.45191 10.2283 7.45191 10.1856 8.26874 10.0574C8.54102 10.0147 9.13095 9.50199 9.08557 9.63016Z" fill="#D1DB39"/>
<path fill-rule="evenodd" clip-rule="evenodd" d="M11.6243 6.76768C12.3957 7.5367 12.4865 8.69024 13.3487 9.3311C13.9386 9.75833 14.0294 10.5274 14.2563 11.04C14.4832 11.5527 13.8025 10.6555 13.7117 10.5274C12.9857 9.58744 11.715 8.47662 10.7621 7.7076C10.4444 7.45126 10.0814 7.32308 10.9436 7.19491C11.2159 7.15219 11.6243 6.72495 11.6243 6.76768Z" fill="#D1DB39"/>
<path fill-rule="evenodd" clip-rule="evenodd" d="M23.8775 3.60617C24.6036 5.91325 25.602 7.62219 24.6036 5.44329C24.286 4.84516 27.5986 1.8545 28.2793 2.36718C29.0508 2.96532 29.3684 4.2043 28.96 4.80243C26.7364 7.96398 30.0491 4.16158 31.6374 3.05076C32.545 2.40991 32.545 1.81178 32.7719 1.81178C33.3618 1.76905 32.5904 5.69963 31.8643 6.42593C30.276 7.96398 30.7298 6.93861 32.3635 4.80243C32.908 4.11885 33.6341 2.87987 34.0879 2.87987C34.4056 2.83714 35.3585 5.44329 34.9955 6.42593C34.0425 8.9039 34.7686 7.32313 35.4947 4.71698C35.9031 3.22166 36.4022 2.23901 36.7199 2.36718C37.3098 2.5808 38.2174 5.35784 36.6291 5.18694C36.2207 5.14422 43.5268 3.56345 42.9823 4.11885C42.2562 4.84516 41.0763 5.69963 39.3519 6.93861C39.8057 7.40857 43.1184 5.18694 42.9369 5.61418C40.9856 9.37386 45.1151 5.61418 44.8428 6.51138C43.6176 10.2283 42.1654 15.4406 40.9856 18.944C40.7133 19.7557 40.2141 21.251 39.2612 21.721C38.5351 22.0628 37.9451 22.5327 37.0376 22.8745C36.5384 23.0881 34.224 23.8999 34.3602 23.8999C27.8255 23.0027 27.5986 20.6529 26.918 16.5942C26.3734 13.1335 24.8759 11.1255 22.6977 8.22032C21.3817 6.42593 20.4741 4.28975 23.8775 3.60617Z" fill="#699B42"/>
<path fill-rule="evenodd" clip-rule="evenodd" d="M23.8765 3.60616C20.7453 5.18694 22.9235 6.34048 24.1487 4.97332C24.6479 4.37519 26.2362 2.11084 27.643 2.23901C28.4598 2.28173 28.6413 2.53807 28.2329 3.1362C26.0093 6.29775 29.5943 3.69161 31.1826 2.5808C34.3591 0.359167 32.0901 2.83714 31.0464 3.81978C29.4581 5.35783 30.275 6.46865 31.954 4.33246C32.8616 3.17893 34.9037 1.59815 33.9507 4.0334C32.9977 6.51137 34.4045 6.81044 35.0852 4.24702C36.0381 0.786403 38.0348 2.28173 36.2197 4.71698C36.0381 4.97332 46.2485 2.92258 42.0282 4.67425C40.8484 5.14421 37.9441 5.01604 38.7609 5.87052C39.2147 6.34048 45.1594 4.67425 42.2097 5.99869C37.2634 8.22031 45.5678 5.6569 44.8417 6.51137C42.3005 9.54475 41.7106 14.9706 40.5307 18.4313C40.2584 19.243 39.7593 20.7383 38.8063 21.2083C38.0802 21.5501 37.4903 22.02 36.5827 22.3618C36.0835 22.5755 33.7692 23.3872 33.9053 23.3872C27.3707 22.49 27.1438 20.1402 26.4631 16.0815C25.9185 12.6208 24.421 10.6128 22.2428 7.70763C20.9268 5.95596 20.473 4.28974 23.8765 3.60616Z" fill="#99CC33"/>
<path fill-rule="evenodd" clip-rule="evenodd" d="M22.1505 5.91326C22.922 8.5194 24.7371 9.58749 25.8716 11.1255C26.28 11.681 26.4162 12.45 26.7792 12.9627C27.0515 13.3472 27.0969 13.988 27.0061 13.0908C26.6885 10.6129 24.7825 8.86119 24.3287 6.55411C24.1472 5.61419 25.6901 4.11887 24.7371 4.80244C24.1926 5.22968 22.7404 6.21232 22.1505 5.91326Z" fill="#D1DB39"/>
<path fill-rule="evenodd" clip-rule="evenodd" d="M27.4645 4.84515C27.1014 6.08414 27.5552 7.19495 27.646 7.96397C27.8275 9.54475 28.009 11.1255 28.0544 12.7063C28.0998 14.5434 28.2359 11.1255 28.2813 10.6983C28.4175 9.07479 28.3721 8.22032 28.6897 6.5541C28.7351 6.25503 29.325 4.63153 29.2797 4.41791C28.6443 4.37519 27.9637 5.01604 27.4645 4.84515Z" fill="#D1DB39"/>
<path fill-rule="evenodd" clip-rule="evenodd" d="M30.1853 5.65691C29.8676 6.93862 30.1853 8.04944 30.2307 8.81846C30.2307 9.16025 30.1399 9.54476 30.0945 9.92928C30.0945 10.2711 30.0492 10.6129 30.2307 10.0147C30.5483 8.94663 31.0021 7.87854 31.2744 6.85317L31.8643 4.88789C32.0005 4.71699 30.8206 5.87053 30.1853 5.65691Z" fill="#D1DB39"/>
<path fill-rule="evenodd" clip-rule="evenodd" d="M38.3989 5.61417C38.0359 6.25502 37.8997 6.85315 37.5367 7.49401L34.9047 12.0654L34.0879 13.518L34.7232 12.5781L38.9435 6.63953C39.8057 5.44327 38.6258 6.59681 38.3989 5.61417Z" fill="#D1DB39"/>
<path fill-rule="evenodd" clip-rule="evenodd" d="M40.35 7.02405C40.1684 7.49401 40.0323 8.34848 39.7146 8.81844C39.034 9.75836 38.6709 10.5701 38.2171 11.5955C37.5364 13.0908 39.6239 9.67291 40.1231 9.16023C40.5315 8.69027 41.3483 8.09214 41.9382 7.70762C42.7097 7.10949 42.7097 7.06677 41.6206 7.19494C41.1668 7.23766 40.2592 6.89588 40.35 7.02405Z" fill="#D1DB39"/>
<path fill-rule="evenodd" clip-rule="evenodd" d="M36.1766 4.88789C35.4051 5.95598 35.7228 7.19497 34.8152 8.22034C34.1799 8.86119 34.3614 9.71566 34.2253 10.3138C34.0891 10.9546 34.6791 9.75839 34.7244 9.63022C35.3598 8.39123 36.585 6.81046 37.538 5.65692C37.8556 5.27241 38.3094 5.05879 37.1296 5.18696C36.8119 5.14423 36.1312 4.84517 36.1766 4.88789Z" fill="#D1DB39"/>
<path fill-rule="evenodd" clip-rule="evenodd" d="M9.58291 15.8251C9.58291 13.9025 10.672 14.4152 12.3057 14.2016C13.0317 14.1161 12.7141 9.75833 16.5713 12.0654C18.7495 13.3471 20.7009 10.8264 20.7009 8.30573C20.7009 5.22963 30.6389 11.5954 32.1365 9.24565C35.6761 3.56341 36.9921 13.7316 41.2577 8.94658C42.7099 7.32309 46.7032 10.0574 44.8427 11.51C42.8914 12.9626 49.7437 11.3391 50.1067 11.2537C52.8748 10.4419 51.6496 14.7997 52.1034 15.0133C54.1001 15.9533 56.6867 15.1842 56.6867 19.7129C56.6867 34.3671 35.6761 37.6569 21.6538 33.5554C16.3898 32.0173 9.71904 29.4539 6.9509 25.2243C5.1811 22.4473 6.45173 14.7143 9.58291 15.8251Z" fill="#FFF3AD"/>
<path fill-rule="evenodd" clip-rule="evenodd" d="M43.5723 15.6969C43.1185 15.6115 37.5822 18.9866 37.9906 19.6702C38.4898 20.6529 39.5789 20.3538 40.668 20.6529C41.5756 20.9092 41.3941 23.0881 43.2546 23.0881C45.0244 23.0881 44.3891 21.5501 45.1152 21.5501C46.0681 21.5501 47.6564 22.1482 48.6094 22.4045C49.1086 22.5327 52.9658 21.6782 53.2835 21.3792C53.828 20.8238 53.4196 20.1829 52.9204 19.7129C51.7859 18.5167 50.3792 18.7303 52.5574 17.5768C55.0079 16.295 52.0128 15.3551 50.2431 15.4406C48.564 15.526 47.1119 15.1842 45.569 15.1842C45.0244 15.1842 44.5706 14.9706 43.9807 15.0561C43.7992 15.0561 43.3 15.6542 43.5723 15.6969Z" fill="#EABB36"/>
<path fill-rule="evenodd" clip-rule="evenodd" d="M7.13036 16.8932C6.81271 18.2604 6.81271 18.7731 7.85643 19.9693C8.31023 20.5247 9.62623 21.251 10.4431 21.251C11.5775 21.251 13.0751 24.5407 15.7978 24.5407C17.7945 24.5407 20.3358 24.8825 21.1526 22.6182C22.1963 19.5848 16.297 18.5167 14.3911 17.1068C11.1691 14.6289 9.35395 16.5942 7.13036 16.8932Z" fill="#EABB36"/>
<path fill-rule="evenodd" clip-rule="evenodd" d="M18.0664 11.8518C19.337 13.3471 21.2883 15.3124 23.3304 15.9105C27.4599 17.1923 26.1439 11.3391 24.5103 9.63017C23.3304 8.43391 21.1976 9.03204 19.8362 9.71562C19.2917 9.97196 18.4748 10.271 18.2025 10.741C17.7488 11.4673 18.1572 11.4673 18.0664 11.8518Z" fill="#EABB36"/>
<path d="M14.5557 18.504C15.0697 17.1735 13.6343 15.4608 11.3496 14.6785C9.06487 13.8962 6.79609 14.3406 6.28211 15.6711C5.76813 17.0016 7.20359 18.7144 9.48828 19.4967C11.773 20.279 14.0418 19.8345 14.5557 18.504Z" fill="#ED4E28"/>
<path d="M14.7786 17.9133C15.2927 16.5828 13.8574 14.8698 11.5727 14.0873C9.28801 13.3048 7.01911 13.749 6.50498 15.0795C5.99085 16.41 7.42618 18.123 9.71088 18.9055C11.9956 19.688 14.2645 19.2438 14.7786 17.9133Z" fill="#F58220"/>
<path d="M25.7297 13.1938C26.7052 12.1793 26.0954 10.1631 24.3675 8.69042C22.6397 7.21777 20.4482 6.84636 19.4727 7.86086C18.4972 8.87537 19.107 10.8916 20.8349 12.3643C22.5627 13.8369 24.7542 14.2083 25.7297 13.1938Z" fill="#ED4E28"/>
<path d="M26.194 12.7444C27.1696 11.7299 26.5597 9.71365 24.8319 8.24099C23.1041 6.76834 20.9126 6.39693 19.9371 7.41143C18.9615 8.42593 19.5714 10.4422 21.2992 11.9148C23.027 13.3875 25.2185 13.7589 26.194 12.7444Z" fill="#F58220"/>
<path d="M38.7304 27.1935C39.7059 26.179 39.096 24.1628 37.3682 22.6901C35.6404 21.2175 33.4489 20.8461 32.4734 21.8606C31.4978 22.8751 32.1077 24.8913 33.8355 26.364C35.5633 27.8366 37.7548 28.208 38.7304 27.1935Z" fill="#ED4E28"/>
<path d="M39.1947 26.7441C40.1702 25.7296 39.5604 23.7134 37.8326 22.2407C36.1047 20.768 33.9132 20.3966 32.9377 21.4111C31.9622 22.4256 32.5721 24.4419 34.2999 25.9145C36.0277 27.3872 38.2192 27.7586 39.1947 26.7441Z" fill="#F58220"/>
<path fill-rule="evenodd" clip-rule="evenodd" d="M33.6775 10.4846C32.1346 11.5955 34.6305 13.1335 35.5381 13.3471C36.3095 13.518 36.9448 13.3471 36.9448 12.5354C37.081 9.88652 35.4927 9.16022 33.6775 10.4846Z" fill="#FDB913"/>
<path fill-rule="evenodd" clip-rule="evenodd" d="M33.8603 10.9973C33.2704 11.4246 34.2233 11.98 34.541 12.0654C34.8132 12.1509 35.0401 12.0654 35.0855 11.7663C35.1309 10.7837 34.541 10.4846 33.8603 10.9973Z" fill="#FFF6BA"/>
<path fill-rule="evenodd" clip-rule="evenodd" d="M14.9818 23.6008C17.16 23.6008 18.9298 21.9346 18.9298 19.8839C18.9298 17.8331 17.16 16.1669 14.9818 16.1669C12.8036 16.1669 11.0338 17.8331 11.0338 19.8839C11.0338 21.9346 12.8036 23.6008 14.9818 23.6008Z" fill="#D00209"/>
<path fill-rule="evenodd" clip-rule="evenodd" d="M15.3918 22.02C17.0255 22.02 18.3868 20.7383 18.3868 19.2003C18.3868 17.6622 17.0255 16.3805 15.3918 16.3805C13.7581 16.3805 12.3968 17.6622 12.3968 19.2003C12.3968 20.7811 13.7581 22.02 15.3918 22.02Z" fill="#EE6305"/>
<path d="M16.8598 17.1198C16.4049 16.7866 15.8614 16.7277 15.646 16.9884C15.4305 17.2491 15.6246 17.7306 16.0795 18.0639C16.5344 18.3972 17.0779 18.456 17.2934 18.1953C17.5088 17.9346 17.3147 17.4531 16.8598 17.1198Z" fill="#FDF1DE"/>
<path fill-rule="evenodd" clip-rule="evenodd" d="M44.7954 33.2564C46.9737 33.2564 48.7434 31.5901 48.7434 29.5394C48.7434 27.4887 46.9737 25.8224 44.7954 25.8224C42.6172 25.8224 40.8474 27.4887 40.8474 29.5394C40.8474 31.5901 42.6172 33.2564 44.7954 33.2564Z" fill="#D00209"/>
<path fill-rule="evenodd" clip-rule="evenodd" d="M45.2046 31.6756C46.8383 31.6756 48.1997 30.3939 48.1997 28.8558C48.1997 27.3178 46.8383 26.0361 45.2046 26.0361C43.571 26.0361 42.2096 27.3178 42.2096 28.8558C42.2096 30.3939 43.5256 31.6756 45.2046 31.6756Z" fill="#EE6305"/>
<path d="M46.6688 26.7573C46.2139 26.4241 45.6705 26.3652 45.455 26.6259C45.2395 26.8866 45.4336 27.3682 45.8885 27.7014C46.3435 28.0347 46.8869 28.0935 47.1024 27.8328C47.3179 27.5721 47.1237 27.0906 46.6688 26.7573Z" fill="#FDF1DE"/>
<path d="M53.2341 17.7698C52.7322 16.6119 50.7264 16.2875 48.754 17.0452C46.7815 17.803 45.5894 19.3559 46.0912 20.5138C46.593 21.6717 48.5988 21.9961 50.5713 21.2384C52.5437 20.4806 53.7359 18.9277 53.2341 17.7698Z" fill="#ED4E28"/>
<path d="M53.0153 17.2603C52.5135 16.1024 50.5077 15.778 48.5352 16.5357C46.5628 17.2935 45.3706 18.8464 45.8725 20.0043C46.3743 21.1622 48.3801 21.4866 50.3525 20.7289C52.325 19.9712 53.5172 18.4182 53.0153 17.2603Z" fill="#F58220"/>
<path fill-rule="evenodd" clip-rule="evenodd" d="M44.3435 20.7383C46.5217 20.7383 48.2915 19.0721 48.2915 17.0214C48.2915 14.9706 46.5217 13.3044 44.3435 13.3044C42.1653 13.3044 40.3955 14.9706 40.3955 17.0214C40.3955 19.0294 42.1653 20.7383 44.3435 20.7383Z" fill="#D00209"/>
<path fill-rule="evenodd" clip-rule="evenodd" d="M44.753 19.1576C46.3866 19.1576 47.748 17.8758 47.748 16.3378C47.748 14.7997 46.3866 13.518 44.753 13.518C43.1193 13.518 41.7579 14.7997 41.7579 16.3378C41.7579 17.8758 43.074 19.1576 44.753 19.1576Z" fill="#EE6305"/>
<path d="M46.221 14.2264C45.7661 13.8931 45.2226 13.8343 45.0072 14.095C44.7917 14.3557 44.9858 14.8372 45.4407 15.1705C45.8956 15.5038 46.4391 15.5626 46.6546 15.3019C46.87 15.0412 46.6759 14.5597 46.221 14.2264Z" fill="#FDF1DE"/>
<path fill-rule="evenodd" clip-rule="evenodd" d="M34.3445 20.7386C36.5227 20.7386 38.2925 19.0724 38.2925 17.0216C38.2925 14.9709 36.5227 13.3047 34.3445 13.3047C32.1663 13.3047 30.3965 14.9709 30.3965 17.0216C30.3965 19.0297 32.1663 20.7386 34.3445 20.7386Z" fill="#D00209"/>
<path fill-rule="evenodd" clip-rule="evenodd" d="M34.7539 19.1578C36.3876 19.1578 37.749 17.8761 37.749 16.3381C37.749 14.8 36.3876 13.5183 34.7539 13.5183C33.1203 13.5183 31.7589 14.8 31.7589 16.3381C31.7589 17.8761 33.0749 19.1578 34.7539 19.1578Z" fill="#EE6305"/>
<path d="M36.222 14.2267C35.7671 13.8934 35.2236 13.8346 35.0081 14.0953C34.7927 14.356 34.9868 14.8375 35.4417 15.1708C35.8966 15.504 36.4401 15.5629 36.6556 15.3022C36.871 15.0415 36.6769 14.5599 36.222 14.2267Z" fill="#FDF1DE"/>
<path fill-rule="evenodd" clip-rule="evenodd" d="M34.3445 11.7386C36.5227 11.7386 38.2925 10.0724 38.2925 8.02164C38.2925 5.97091 36.5227 4.30469 34.3445 4.30469C32.1663 4.30469 30.3965 5.97091 30.3965 8.02164C30.3965 10.0297 32.1663 11.7386 34.3445 11.7386Z" fill="#D00209"/>
<path fill-rule="evenodd" clip-rule="evenodd" d="M34.7539 10.1578C36.3876 10.1578 37.749 8.87612 37.749 7.33807C37.749 5.80002 36.3876 4.51831 34.7539 4.51831C33.1203 4.51831 31.7589 5.80002 31.7589 7.33807C31.7589 8.87612 33.0749 10.1578 34.7539 10.1578Z" fill="#EE6305"/>
<path d="M36.222 5.22667C35.7671 4.8934 35.2236 4.83457 35.0081 5.09527C34.7927 5.35598 34.9868 5.83749 35.4417 6.17076C35.8966 6.50403 36.4401 6.56286 36.6556 6.30216C36.871 6.04145 36.6769 5.55994 36.222 5.22667Z" fill="#FDF1DE"/>
<path fill-rule="evenodd" clip-rule="evenodd" d="M42.7087 20.2683C41.1658 21.3792 43.6617 22.9172 44.5693 23.1308C45.3407 23.3017 45.9761 23.1308 45.9761 22.3191C46.1122 19.6702 44.5693 18.9439 42.7087 20.2683Z" fill="#FDB913"/>
<path fill-rule="evenodd" clip-rule="evenodd" d="M42.8915 20.781C42.3015 21.2083 43.2545 21.7637 43.5721 21.8491C43.8444 21.9346 44.0713 21.8491 44.1167 21.5501C44.1621 20.5247 43.5721 20.2683 42.8915 20.781Z" fill="#FFF6BA"/>
<path fill-rule="evenodd" clip-rule="evenodd" d="M49.9246 20.9947C50.1969 22.7891 52.8289 21.5074 53.5096 20.8665C54.0541 20.3111 54.1903 19.713 53.4642 19.2857C51.0591 17.9186 49.6523 18.8158 49.9246 20.9947Z" fill="#FDB913"/>
<path fill-rule="evenodd" clip-rule="evenodd" d="M51.104 19.7984C51.1947 20.482 52.1931 20.012 52.42 19.7557C52.6469 19.5421 52.6923 19.3285 52.42 19.1576C51.5124 18.6449 50.9678 18.9867 51.104 19.7984Z" fill="#FFF6BA"/>
<path fill-rule="evenodd" clip-rule="evenodd" d="M14.1205 13.9453C15.6634 15.0561 13.1675 16.5941 12.2599 16.8077C11.4885 16.9786 10.8532 16.8077 10.8532 15.996C10.717 13.3471 12.2599 12.6208 14.1205 13.9453Z" fill="#FDB913"/>
<path fill-rule="evenodd" clip-rule="evenodd" d="M13.9396 14.4579C14.5295 14.8852 13.5766 15.4406 13.2589 15.526C12.9866 15.6115 12.7597 15.526 12.7144 15.227C12.669 14.2016 13.2589 13.9453 13.9396 14.4579Z" fill="#FFFAC0"/>
<path fill-rule="evenodd" clip-rule="evenodd" d="M27.4147 17.534C27.3693 15.6542 27.5055 14.4152 28.05 12.6635C28.4131 11.5955 26.6433 11.5527 26.6433 10.8692C26.6433 10.741 26.1441 10.8692 26.0987 10.8692C25.6449 10.6983 26.4164 10.4419 25.4634 10.3565C24.9188 10.3137 24.5558 9.33111 24.3743 9.67289C24.1474 10.1429 24.3743 10.5701 23.8297 10.6555C23.4667 10.6983 23.8751 11.3818 23.6482 11.5527C23.3759 11.7664 23.6028 11.98 23.7844 12.1509C24.0566 12.4927 23.0583 12.279 23.6936 13.0481C23.8751 13.3044 23.3306 13.1762 23.5121 13.3899L24.0113 13.988C24.6012 14.6716 24.6466 14.4152 25.3273 14.6716C25.6449 14.7997 25.5995 15.1415 25.8264 15.3551C26.008 15.526 26.734 15.7824 26.6886 16.1242C26.6433 16.3805 26.8248 16.8077 26.9155 17.0641C26.3256 16.0387 26.7794 17.1923 26.371 16.7223C25.8718 16.1242 25.8264 15.8251 25.5088 15.3124C25.3726 15.1415 24.4651 14.3298 24.102 14.6288C23.739 14.9279 24.102 14.7143 23.4213 14.4152C23.149 14.287 23.6028 14.8425 22.786 14.4152C22.4684 14.287 22.0146 15.1842 22.5591 15.3124C22.6953 15.3551 23.5121 15.4406 23.0583 15.526C22.6045 15.5688 22.0146 16.0814 22.786 16.2951C23.1944 16.4232 23.5121 16.2951 23.9205 16.3805C24.6466 16.5087 23.6936 16.8077 23.3759 16.8077C23.1037 16.8077 22.6499 16.8505 23.149 17.1068C23.6936 17.4059 23.0129 17.3204 23.2852 17.6622C23.3759 17.7904 23.6482 17.8758 23.7844 18.004C24.3289 18.4312 23.4213 18.773 24.1474 18.8585C25.0096 18.9439 26.1895 17.235 27.1878 17.8331C27.687 18.9439 28.4131 20.012 29.7291 20.9947C29.8198 20.9947 29.956 20.9947 30.0467 20.9947C28.7761 20.012 27.9593 19.0294 27.4601 18.0894V18.1322C28.9122 17.7049 29.1845 18.474 30.2736 18.6021C30.4551 18.6449 30.9089 18.6876 31.0904 18.5594C31.7711 18.1749 30.5459 18.004 30.7274 17.9186C31.0451 17.7904 31.3627 17.9613 31.5896 17.7904C31.8619 17.5768 31.4535 17.3631 31.9073 17.235C32.2249 17.1495 32.1342 17.0641 31.8619 16.765C31.5442 16.466 32.7695 16.3378 32.4518 15.9533C32.3157 15.7824 32.6787 15.4406 32.7241 15.1415C32.7695 14.9279 32.4064 14.9279 32.4972 14.6288C32.7241 13.9025 32.4518 14.1162 31.8165 14.0734C31.4535 14.0307 31.4535 14.0307 31.0451 14.3298C30.7728 14.5434 30.7728 13.9453 30.5459 13.988C29.7744 14.1162 28.64 14.0307 28.64 15.3551C28.5946 15.9105 27.8231 17.2777 27.4147 17.534Z" fill="#A6CE39"/>
<path fill-rule="evenodd" clip-rule="evenodd" d="M24.5115 10.1428C24.7384 11.4673 26.4174 13.1335 26.6897 14.8424C26.7805 15.3551 27.0527 15.996 26.962 16.5514C26.8712 17.1495 27.1435 16.8505 26.8258 16.0814C26.5536 15.4833 26.1452 15.3124 25.8729 14.7143C25.7821 14.5007 25.1468 14.4579 24.9199 14.3725C24.4661 14.2016 25.6006 14.2443 25.7367 14.2443C25.9636 14.2443 24.6476 13.7316 24.4207 13.6462C23.6947 13.4326 24.8291 13.4753 24.9653 13.4753C25.3737 13.4326 24.4661 13.0481 24.2846 12.8344C24.2392 12.749 24.1485 12.279 24.1938 12.1936C24.4207 11.7236 23.8762 11.6382 24.1485 11.1255C24.2392 10.9546 24.5115 10.1001 24.5115 10.1428Z" fill="#82B941"/>
<path fill-rule="evenodd" clip-rule="evenodd" d="M23.0158 14.7997C23.6058 15.0133 23.7419 14.9706 24.3772 15.0561C25.1487 15.1415 25.5117 16.466 26.1016 16.9359C26.6916 17.4486 25.8747 16.9786 25.6478 16.765C25.5571 16.6796 24.6495 16.1242 24.6949 16.1669C25.0579 16.5087 24.831 16.466 24.468 16.2523C24.1957 16.0814 23.9234 16.0814 23.6058 16.0387C23.515 16.0387 22.9251 15.9533 23.1066 15.9533C23.8327 15.996 23.2427 15.3979 23.0158 15.1842C22.9251 15.0988 22.7436 14.9706 22.7889 14.8425C22.7889 14.757 23.152 14.757 23.0158 14.7997Z" fill="#82B941"/>
<path fill-rule="evenodd" clip-rule="evenodd" d="M28.2771 17.5768C28.5947 16.8932 29.4569 16.9359 29.8654 16.4659C30.2284 16.0814 30.5914 15.6542 31.0906 15.4406C31.499 15.2697 31.8167 14.8852 32.0436 14.6715C32.3612 14.4152 31.7713 14.6288 31.6805 14.7143C31.0906 15.0561 31.6352 14.3725 31.5444 14.4152C31.1814 14.6288 30.8637 14.8424 30.5914 15.0561C30.5007 15.1415 29.9561 15.7824 30.0469 15.4406C30.0923 15.2269 30.2284 15.0561 30.2738 14.8424C30.4099 14.1161 30.0469 14.5861 29.82 14.9706C29.7746 15.0561 29.7292 14.6715 29.6838 14.6288C29.6838 14.6288 29.0939 16.5087 29.1393 15.6542C29.1393 15.5687 28.9124 15.0988 29.0032 15.4406C29.1393 16.2096 28.4132 16.6796 28.2771 17.1922C28.2317 17.3631 27.7779 17.7049 27.6418 17.7904C27.5056 17.8758 27.9594 17.7049 28.0048 17.6622C28.0956 17.534 28.3225 17.4913 28.2771 17.5768Z" fill="#82B941"/>
<path d="M35.3259 30.9702C35.4953 29.611 33.7562 28.2998 31.4417 28.0414C29.1271 27.7831 27.1135 28.6756 26.9442 30.0348C26.7749 31.394 28.5139 32.7052 30.8285 32.9636C33.143 33.2219 35.1566 32.3294 35.3259 30.9702Z" fill="#ED4E28"/>
<path d="M35.4077 30.3546C35.5772 28.9954 33.8383 27.6839 31.5237 27.4254C29.2092 27.1669 27.1955 28.0592 27.026 29.4184C26.8565 30.7776 28.5955 32.089 30.91 32.3475C33.2246 32.6061 35.2383 31.7138 35.4077 30.3546Z" fill="#F58220"/>
<path fill-rule="evenodd" clip-rule="evenodd" d="M10.8992 22.2336C12.2152 23.8144 13.5766 25.0107 12.0791 23.5154C11.6707 23.0881 13.3951 20.6529 14.0758 20.9519C14.8926 21.2937 15.5279 22.1909 15.3918 22.6609C14.6203 25.1388 16.0725 22.1055 16.98 21.1656C17.4792 20.6529 17.3431 20.1829 17.5246 20.1829C17.9784 20.0975 18.6591 23.0027 18.296 23.6008C17.5246 24.8398 17.57 24.0708 18.2053 22.4045C18.4322 21.8491 18.6137 20.9092 18.9767 20.8665C19.2036 20.8238 20.8373 22.6182 20.8373 23.3445C20.8373 25.2243 20.9734 24.028 20.7011 22.0627C20.5196 20.9092 20.6104 20.1829 20.928 20.2256C21.4726 20.3538 23.1063 22.2764 21.7449 22.2764C21.4272 22.2764 26.782 20.5247 26.5551 20.9519C26.192 21.5073 25.5567 22.2764 24.5584 23.3017C25.0576 23.6008 27.0543 21.721 27.0089 22.02C26.6458 24.9252 28.7787 21.8491 28.8241 22.5327C29.0509 25.3097 29.5501 29.2403 29.7316 31.8465C29.777 32.4446 29.8224 33.5981 29.2325 33.9826C28.7787 34.2817 28.4156 34.6662 27.8257 35.008C27.5081 35.2216 25.9198 35.9907 26.0105 35.9907C20.4742 35.9052 19.5213 34.239 17.6607 31.3338C16.1178 28.8985 14.2119 27.5314 11.5345 25.6515C9.8101 24.498 8.40334 23.0027 10.8992 22.2336Z" fill="#699B42"/>
<path fill-rule="evenodd" clip-rule="evenodd" d="M10.8954 22.2336C8.89873 23.6435 10.9862 24.2844 11.5307 23.2163C11.7576 22.7463 12.3022 20.9519 13.4367 20.9092C14.1174 20.8665 14.3443 21.0374 14.2081 21.5073C13.4367 23.9853 15.4787 21.8064 16.4317 20.8665C18.2923 18.9866 17.2485 20.9946 16.7494 21.7637C15.9779 23.0026 16.9763 23.7289 17.6116 22.0627C17.9746 21.1655 19.1091 19.8411 19.1091 21.6782C19.1091 23.5581 20.3797 23.6435 20.1074 21.7209C19.7444 19.1148 21.8319 20.0547 21.1512 21.9773C21.1058 22.1482 28.6841 19.7984 25.8252 21.3791C25.0538 21.8064 22.6487 21.9773 23.6017 22.5327C24.1008 22.8317 28.3665 21.1228 26.4152 22.3191C23.1479 24.3698 29.0018 21.7637 28.7295 22.4472C27.6404 24.8398 28.911 28.8131 29.0926 31.4619C29.1379 32.0601 29.1833 33.2136 28.5934 33.5981C28.1396 33.8972 27.7766 34.2817 27.1866 34.6235C26.8236 34.8371 25.2807 35.6061 25.3715 35.6061C19.7898 35.5634 18.8368 33.8972 16.9763 30.992C15.4334 28.5567 13.5274 27.1896 10.85 25.3097C9.30714 24.1989 8.39956 23.0026 10.8954 22.2336Z" fill="#99CC33"/>
<path fill-rule="evenodd" clip-rule="evenodd" d="M10.309 24.028C11.7611 25.8224 13.5763 26.4633 14.983 27.4887C15.5276 27.8732 15.8452 28.3858 16.299 28.7704C16.6621 29.0267 16.889 29.4967 16.5259 28.8558C15.4822 27.0614 13.3948 25.9933 12.2603 24.3698C11.8065 23.6862 12.5779 22.49 12.0334 23.0881C11.7157 23.3872 10.8535 24.1989 10.309 24.028Z" fill="#D1DB39"/>
<path fill-rule="evenodd" clip-rule="evenodd" d="M14.2081 22.789C14.2989 23.7289 15.025 24.498 15.3426 25.0534C16.0233 26.1642 16.6586 27.3177 17.2032 28.4713C17.8385 29.7957 16.8401 27.3177 16.704 26.9759C16.2956 25.7797 15.9779 25.1388 15.7057 23.9426C15.6603 23.7289 15.5695 22.49 15.4788 22.3191C15.025 22.3618 14.6619 22.8745 14.2081 22.789Z" fill="#D1DB39"/>
<path fill-rule="evenodd" clip-rule="evenodd" d="M16.7075 23.1735C16.889 24.1135 17.4789 24.8825 17.7512 25.4806C17.8873 25.737 17.8873 26.036 18.0235 26.2924C18.1142 26.5487 18.205 26.805 18.1596 26.3351C18.0688 25.5661 18.0688 24.7543 18.0235 23.9853L17.8873 22.5327C17.8419 22.3618 17.252 23.259 16.7075 23.1735Z" fill="#D1DB39"/>
<path fill-rule="evenodd" clip-rule="evenodd" d="M23.2853 22.4472C23.1946 22.9172 23.2853 23.3872 23.1946 23.8998L22.5593 27.4032L22.3777 28.514L22.6046 27.7877L24.0568 23.1308C24.3744 22.1909 23.7845 23.1308 23.2853 22.4472Z" fill="#D1DB39"/>
<path fill-rule="evenodd" clip-rule="evenodd" d="M25.3274 23.3017C25.3274 23.6862 25.5089 24.2843 25.3728 24.6261C25.1459 25.3524 25.1005 25.9933 25.0552 26.7623C25.0098 27.9159 25.5997 25.267 25.7812 24.8398C25.9627 24.4552 26.4165 23.9853 26.7342 23.6008C27.188 23.1308 27.1426 23.0881 26.3258 23.259C26.0535 23.3872 25.1913 23.2163 25.3274 23.3017Z" fill="#D1DB39"/>
<path fill-rule="evenodd" clip-rule="evenodd" d="M21.2422 22.0627C20.9699 22.9172 21.6506 23.7717 21.1968 24.5834C20.9245 25.0961 21.333 25.6942 21.4237 26.1642C21.5145 26.6341 21.6052 25.6942 21.6052 25.6088C21.696 24.6689 22.1952 23.4299 22.6036 22.49C22.7397 22.1909 23.012 21.9773 22.1498 22.1909C21.8775 22.2336 21.1968 22.0627 21.2422 22.0627Z" fill="#D1DB39"/>
<path fill-rule="evenodd" clip-rule="evenodd" d="M59.1821 18.5167V21.7637C59.2275 22.1909 59.2729 22.5754 59.2729 23.0027C59.2729 31.8465 47.0205 39.024 31.8638 39.024C16.7524 38.9813 4.5 31.8037 4.5 22.9599V18.5167H6.76897C8.03959 25.9933 18.7945 31.8037 31.9091 31.8037C45.0238 31.8037 55.7787 25.9933 57.0493 18.5167H59.1821Z" fill="#CAD5DD"/>
<path fill-rule="evenodd" clip-rule="evenodd" d="M59.1369 18.5167C57.8662 26.6342 46.1584 33.0427 31.9092 33.0427C17.6601 33.0427 5.90685 26.6342 4.63623 18.5167H6.76906C8.03968 25.9933 18.7946 31.8037 31.9092 31.8037C45.0239 31.8037 55.7788 25.9933 57.0494 18.5167H59.1369Z" fill="#F7F8F9"/>
<path fill-rule="evenodd" clip-rule="evenodd" d="M59.1822 22.2336V22.7036C59.1822 22.7891 59.1822 22.8745 59.2275 22.9599C58.3653 31.3338 46.4305 37.9559 31.9091 37.9559C16.7524 37.9559 4.5 30.8211 4.5 21.9773C4.5 21.8064 4.5 21.6355 4.5 21.5073C4.95379 30.0948 17.0247 37.016 31.9091 37.016C46.2944 37.016 58.1384 30.4793 59.1822 22.2336Z" fill="#A2B3BC"/>
<path fill-rule="evenodd" clip-rule="evenodd" d="M48.8375 23.7717C50.6527 24.5834 51.7872 25.2243 53.1939 26.4633C54.0562 27.2323 54.873 25.737 55.5083 26.0788C55.6444 26.1215 55.7352 25.6515 55.7352 25.6515C56.0982 25.3525 56.0075 26.1215 56.5066 25.3525C56.7789 24.9252 57.9134 25.0534 57.6411 24.7116C57.2781 24.3271 56.7789 24.3271 56.9151 23.8144C57.0058 23.5154 56.189 23.5153 56.1436 23.259C56.0528 22.9599 55.7806 23.0454 55.5083 23.0881C55.0545 23.1736 55.6898 22.4045 54.6915 22.6182C54.3738 22.7036 54.7368 22.2336 54.4192 22.3191L53.6477 22.49C52.7402 22.6609 52.967 22.8318 52.4225 23.3017C52.1956 23.5154 51.8326 23.3017 51.5603 23.3872C51.3334 23.4726 50.7435 23.9853 50.4712 23.7717C50.2443 23.6008 49.7451 23.5581 49.5182 23.5581C50.7435 23.5153 49.4275 23.3872 50.1082 23.259C50.925 23.0881 51.1973 23.2163 51.7872 23.1736C52.0141 23.1736 53.1939 22.7463 53.0578 22.3191C52.967 21.8919 52.967 22.2764 53.557 21.8491C53.8293 21.6782 53.0578 21.8491 53.8293 21.3364C54.1015 21.1655 53.4208 20.3538 53.0578 20.7383C52.967 20.8665 52.5133 21.4646 52.6494 21.0801C52.7855 20.6529 52.5586 19.9693 52.0595 20.5247C51.7872 20.8238 51.7418 21.1228 51.5149 21.4219C51.1065 21.9773 51.1973 21.0374 51.3788 20.781C51.5149 20.5674 51.651 20.1829 51.1973 20.4392C50.6527 20.7383 51.0611 20.2256 50.6073 20.3111C50.4258 20.3538 50.2443 20.5247 50.0628 20.6101C49.4275 20.9092 49.4728 19.9693 49.0644 20.5247C48.5653 21.2083 49.7451 22.9599 48.7014 23.5581C47.4308 23.4726 46.0694 23.6008 44.5719 24.3271C44.5265 24.4125 44.4811 24.498 44.4357 24.5834C45.9786 23.9426 47.2039 23.6862 48.3384 23.6862H48.293C48.0661 25.1388 47.2039 25.0107 46.6139 25.8224C46.5232 25.9933 46.2509 26.3351 46.2963 26.5487C46.387 27.275 47.0677 26.3351 47.0677 26.5487C47.0224 26.8478 46.7501 27.0614 46.7955 27.3178C46.8862 27.6595 47.2493 27.4032 47.1585 27.8304C47.1131 28.1295 47.2493 28.1295 47.6123 28.0013C48.0207 27.8732 47.6123 28.984 48.1115 28.8558C48.3384 28.8131 48.5199 29.283 48.7468 29.4539C48.9283 29.5821 49.1098 29.283 49.3367 29.4967C49.9266 30.0093 49.8359 29.7103 50.1989 29.1976C50.3804 28.8985 50.4258 28.9413 50.2897 28.4713C50.1989 28.1722 50.7435 28.3858 50.8342 28.1722C51.0611 27.4886 51.6057 26.5487 50.3804 25.9506C49.8813 25.4806 48.9283 24.2417 48.8375 23.7717Z" fill="#A6CE39"/>
<path fill-rule="evenodd" clip-rule="evenodd" d="M57.1848 24.6262C55.8234 24.1989 53.5091 24.8825 51.7393 24.4125C51.1947 24.2416 50.514 24.1989 50.0149 23.8998C49.4703 23.5581 49.6518 23.9426 50.514 23.9853C51.1947 24.028 51.5578 23.7717 52.2384 23.7717C52.5107 23.7717 52.8284 23.259 53.0099 23.0881C53.3729 22.7463 52.8284 23.729 52.7376 23.8571C52.6469 24.028 53.736 23.1735 53.8721 23.0027C54.3713 22.49 53.8267 23.4299 53.7813 23.5153C53.6452 23.8999 54.4167 23.259 54.6889 23.259C54.7797 23.259 55.2335 23.3872 55.3242 23.4726C55.6419 23.8998 56.0049 23.4299 56.368 23.8998C56.5041 24.028 57.2302 24.6262 57.1848 24.6262Z" fill="#82B941"/>
<path fill-rule="evenodd" clip-rule="evenodd" d="M53.4199 21.251C52.9207 21.6782 52.9207 21.8064 52.5577 22.2764C52.1039 22.8745 50.7425 22.6182 50.0165 22.8745C49.245 23.1736 50.0618 22.6609 50.3795 22.5754C50.5156 22.5327 51.4232 22.02 51.3779 22.02C50.8787 22.1909 51.0602 21.9773 51.4232 21.8064C51.6955 21.6782 51.8316 21.4219 52.0132 21.1656C52.0585 21.0801 52.3762 20.6101 52.2854 20.781C51.9224 21.3792 52.7846 21.1656 53.0569 21.0374C53.193 20.9947 53.3745 20.9092 53.5107 21.0374C53.5561 21.0801 53.3745 21.4219 53.4199 21.251Z" fill="#82B941"/>
<path fill-rule="evenodd" clip-rule="evenodd" d="M48.4301 24.498C48.9292 25.0534 48.5208 25.7797 48.7931 26.3351C49.02 26.805 49.2469 27.3177 49.2469 27.8304C49.2469 28.2576 49.4738 28.6849 49.5646 28.984C49.7007 29.3685 49.7007 28.7703 49.7007 28.6422C49.6553 28.0013 50.0183 28.7703 50.0183 28.6849C49.973 28.3004 49.9276 27.9159 49.8368 27.5741C49.7914 27.4459 49.4284 26.7196 49.7007 26.9332C49.8822 27.0614 49.973 27.2323 50.1999 27.4032C50.8352 27.8304 50.5629 27.3177 50.2452 26.9759C50.1999 26.8905 50.5629 27.0187 50.6537 27.0187C50.6537 27.0187 49.1561 25.6942 49.9276 26.1215C50.0183 26.1642 50.5629 26.1642 50.1999 26.0787C49.4284 25.8651 49.2923 25.0534 48.8385 24.6689C48.7023 24.5407 48.5662 24.028 48.5662 23.8998C48.5662 23.7717 48.5208 24.1989 48.5662 24.2844C48.5208 24.3698 48.4754 24.5834 48.4301 24.498Z" fill="#82B941"/>
<path fill-rule="evenodd" clip-rule="evenodd" d="M42.3463 12.279C42.6186 12.279 42.8455 11.9373 42.8455 11.51C42.8455 11.0828 42.6186 10.741 42.3463 10.741C42.0741 10.741 41.8472 11.0828 41.8472 11.51C41.8018 11.9373 42.0287 12.279 42.3463 12.279Z" fill="#EABB36"/>
<path d="M29.5942 12.4352C29.3435 12.0821 28.9544 11.9128 28.7252 12.057C28.496 12.2012 28.5134 12.6044 28.7641 12.9575C29.0148 13.3106 29.4039 13.48 29.6331 13.3357C29.8623 13.1915 29.8448 12.7883 29.5942 12.4352Z" fill="#EABB36"/>
<path d="M41.1262 12.5424C40.85 12.2066 40.4494 12.0631 40.2314 12.222C40.0135 12.3809 40.0606 12.782 40.3368 13.1178C40.613 13.4536 41.0136 13.5971 41.2316 13.4382C41.4495 13.2793 41.4024 12.8782 41.1262 12.5424Z" fill="#EABB36"/>
<path d="M26.617 19.1966C26.3663 18.8435 25.9773 18.6741 25.7481 18.8184C25.5189 18.9626 25.5363 19.3658 25.787 19.7189C26.0377 20.072 26.4267 20.2414 26.6559 20.0971C26.8851 19.9529 26.8677 19.5497 26.617 19.1966Z" fill="#EABB36"/>
<path d="M42.6272 24.1548C42.2621 23.9054 41.8348 23.8735 41.6729 24.0836C41.511 24.2936 41.6757 24.6662 42.0409 24.9156C42.406 25.165 42.8333 25.1969 42.9952 24.9869C43.1571 24.7768 42.9924 24.4043 42.6272 24.1548Z" fill="#EABB36"/>
<path d="M42.0307 25.3503C41.928 24.9368 41.6271 24.6494 41.3587 24.7085C41.0903 24.7676 40.9559 25.1508 41.0586 25.5643C41.1614 25.9779 41.4622 26.2652 41.7307 26.2061C41.9991 26.147 42.1334 25.7639 42.0307 25.3503Z" fill="#EABB36"/>
<path d="M29.7 9.38538C29.5973 8.97183 29.2964 8.68449 29.028 8.74359C28.7595 8.80269 28.6252 9.18585 28.7279 9.5994C28.8306 10.013 29.1315 10.3003 29.4 10.2412C29.6684 10.1821 29.8027 9.79894 29.7 9.38538Z" fill="#EABB36"/>
<path d="M36.7104 9.45593C37.1587 9.50329 37.5471 9.33258 37.5778 9.07464C37.6085 8.81669 37.27 8.5692 36.8217 8.52184C36.3734 8.47449 35.985 8.6452 35.9543 8.90314C35.9235 9.16109 36.262 9.40858 36.7104 9.45593Z" fill="#EABB36"/>
<path d="M45.0134 12.103C45.4617 12.1503 45.8501 11.9796 45.8808 11.7217C45.9115 11.4637 45.573 11.2162 45.1247 11.1689C44.6764 11.1215 44.288 11.2922 44.2573 11.5502C44.2265 11.8081 44.5651 12.0556 45.0134 12.103Z" fill="#EABB36"/>
<defs>
<linearGradient id="paint0_linear_2_1644" x1="31.8873" y1="1" x2="31.8873" y2="33.0239" gradientUnits="userSpaceOnUse">
<stop stop-color="#F4F4F7"/>
<stop offset="1" stop-color="white"/>
</linearGradient>
</defs>
</svg>
