<svg width="57" height="55" viewBox="0 0 57 55" fill="none" xmlns="http://www.w3.org/2000/svg">
<path fill-rule="evenodd" clip-rule="evenodd" d="M4.85578 26.6401C13.5347 36.0207 23.8534 44.4816 35.2319 52.5011C44.7685 59.2331 57.585 48.2339 48.7295 41.134L18.3535 15.273C10.0782 9.01924 -2.76347 18.3998 4.85578 26.6401Z" fill="#B96137"/>
<path fill-rule="evenodd" clip-rule="evenodd" d="M4.62493 24.9109C13.5813 34.6961 24.2533 43.525 35.9597 51.618C45.5469 58.2396 58.3129 47.3508 49.4574 40.2509L18.1226 13.5438C9.84739 7.29005 -2.96909 16.5971 4.62493 24.9109Z" fill="#E47B06"/>
<path fill-rule="evenodd" clip-rule="evenodd" d="M4.76912 23.0714C13.8517 32.7096 24.7003 41.5016 36.4067 49.8522C45.9181 56.6577 58.7598 45.5849 49.9044 38.4851L18.292 11.7043C9.99158 5.45059 -2.90059 14.9416 4.76912 23.0714Z" fill="#F6D290"/>
<path fill-rule="evenodd" clip-rule="evenodd" d="M0.719038 14.9784C2.2328 14.7209 3.4438 14.7209 1.95527 14.8312C1.55161 14.868 0.365827 17.1856 0.794726 17.3695C1.29931 17.5903 2.08142 17.4063 2.35894 17.0385C3.84747 15.1991 2.15711 17.7006 1.8039 18.7306C1.60206 19.3192 1.24885 19.4664 1.27408 19.5767C1.34977 19.871 3.56995 18.4731 3.84747 17.9581C4.47821 16.8177 3.94839 17.296 2.98968 18.6203C2.66169 19.0617 2.08142 19.7239 2.13188 19.9446C2.18234 20.0917 3.89793 19.871 4.42775 19.4296C5.71444 18.326 4.93233 19.0985 3.49426 20.0917C2.66169 20.6803 2.15711 21.1586 2.30848 21.2689C2.56078 21.4896 4.37729 21.1953 3.99885 20.4964C3.89793 20.3125 4.3016 24.1383 4.50343 23.7704C4.80619 23.2554 5.10894 22.4829 5.51261 21.3425C5.89105 21.4161 5.1594 23.5497 5.36123 23.3658C7.25343 21.4896 5.7649 24.359 6.24426 24.0279C8.23737 22.4829 11.0883 20.4596 12.9805 18.9881C13.4094 18.6571 14.2167 18.0317 14.3176 17.4799C14.3933 17.0385 14.5699 16.6338 14.6204 16.1556C14.6456 15.8613 14.7213 14.5737 14.7465 14.6473C13.0057 11.778 11.5676 12.293 8.99425 13.0287C6.82453 13.6541 5.336 13.4701 3.21674 13.2126C1.9805 13.0655 0.542433 13.2126 0.719038 14.9784Z" fill="#699B42"/>
<path fill-rule="evenodd" clip-rule="evenodd" d="M0.712271 14.9788C1.09071 13.1027 2.17557 13.8384 1.57007 14.7581C1.31778 15.1627 0.232915 16.487 0.560896 17.1124C0.737501 17.4803 0.914106 17.5171 1.19163 17.1492C2.68016 15.3099 1.7719 17.6274 1.39346 18.6575C0.636583 20.7175 1.72144 18.9885 2.12511 18.2896C2.75585 17.1492 3.56318 17.2596 2.57924 18.5839C2.04942 19.2828 1.49438 20.6807 2.78108 19.5771C4.06777 18.4735 4.5219 19.0621 3.10906 20.0554C1.21686 21.3797 2.47832 21.9315 3.58841 20.46C3.71456 20.3129 4.34529 25.6101 4.62282 23.1822C4.6985 22.5201 4.06777 21.1957 4.74896 21.3429C5.1274 21.4165 5.20309 24.6537 5.45538 22.9247C5.88428 20.0186 5.85905 24.5801 6.23749 24.0283C7.57464 22.0418 10.7031 20.3496 12.5953 18.915C13.0242 18.5839 13.8315 17.9585 13.9324 17.4067C14.0081 16.9653 14.1847 16.5606 14.2352 16.0824C14.2604 15.7881 14.3361 14.5006 14.3613 14.5741C12.6205 11.7783 11.1824 12.2566 8.63428 12.9923C6.46456 13.6177 4.97603 13.4337 2.85676 13.1762C1.5953 12.9923 0.535666 13.213 0.712271 14.9788Z" fill="#99CC33"/>
<path fill-rule="evenodd" clip-rule="evenodd" d="M1.77023 13.5811C3.46059 13.25 4.44454 13.8386 5.55463 13.949C5.9583 13.9858 6.43765 13.8754 6.84132 13.9122C7.11884 13.949 7.52251 13.8018 6.96747 13.9858C5.42848 14.5008 4.04087 14.0593 2.57757 14.4272C1.97207 14.5743 1.36656 15.6779 1.61886 15.0894C1.745 14.7215 2.07298 13.765 1.77023 13.5811Z" fill="#D1DB39"/>
<path fill-rule="evenodd" clip-rule="evenodd" d="M2.12914 16.3397C2.81033 15.8247 3.54198 15.7511 4.02133 15.604C5.00528 15.2729 5.98922 14.9418 6.94794 14.5371C8.05803 14.0589 6.01445 15.0521 5.78739 15.1625C4.82867 15.6407 4.32409 15.8615 3.36537 16.45C3.18877 16.5604 2.33097 17.2594 2.17959 17.2961C2.07868 17.0018 2.30574 16.5236 2.12914 16.3397Z" fill="#D1DB39"/>
<path fill-rule="evenodd" clip-rule="evenodd" d="M3.11074 17.4068C3.81716 16.9286 4.52358 16.7815 5.00294 16.5975C5.23 16.5239 5.43184 16.34 5.63367 16.2664C5.83551 16.1561 6.03734 16.0825 5.70936 16.3032C5.12909 16.7447 4.57404 17.2229 4.019 17.6276L2.9846 18.4001C2.88368 18.4736 3.33781 17.6275 3.11074 17.4068Z" fill="#D1DB39"/>
<path fill-rule="evenodd" clip-rule="evenodd" d="M4.60117 21.2323C4.90392 20.9012 5.25713 20.6805 5.58511 20.3494L7.80529 17.9583L8.53694 17.1858L8.10804 17.7376L5.33282 21.2323C4.72731 21.9313 5.20667 21.0852 4.60117 21.2323Z" fill="#D1DB39"/>
<path fill-rule="evenodd" clip-rule="evenodd" d="M5.78411 21.7842C6.03641 21.5635 6.51576 21.306 6.7176 21.0117C7.17173 20.4599 7.5754 20.092 8.10521 19.577C8.88732 18.8781 7.22219 20.7542 6.99512 21.0853C6.79329 21.4163 6.59145 21.9314 6.44008 22.2992C6.23824 22.8142 6.18778 22.8142 6.08687 22.2624C6.06164 22.1153 5.6832 21.7842 5.78411 21.7842Z" fill="#D1DB39"/>
<path fill-rule="evenodd" clip-rule="evenodd" d="M3.7132 20.3864C4.21779 19.761 5.02513 19.5771 5.45403 18.8781C5.73155 18.4367 6.26136 18.2896 6.61458 18.0688C6.96779 17.8481 6.36228 18.4367 6.28659 18.4735C5.65586 19.0989 4.94944 20.0553 4.41963 20.8278C4.24302 21.0853 4.19256 21.3429 4.06641 20.7543C4.01596 20.6071 3.68797 20.3864 3.7132 20.3864Z" fill="#D1DB39"/>
<path fill-rule="evenodd" clip-rule="evenodd" d="M5.36067 24.2122C6.79874 23.5133 7.98452 23.1822 6.54645 23.6972C6.14278 23.8444 5.33544 26.4562 5.76434 26.493C6.26893 26.5298 7.02581 26.1251 7.25287 25.7205C8.46388 23.4765 7.15196 26.4194 6.95012 27.5598C6.82397 28.1852 6.49599 28.4427 6.54645 28.5531C6.6726 28.8106 8.64048 26.7873 8.84232 26.1987C9.29645 24.9112 8.86755 25.4998 8.08544 27.1184C7.83315 27.6334 7.35379 28.4427 7.42948 28.6634C7.50517 28.8106 9.14507 28.0748 9.5992 27.4863C10.7093 26.0516 10.0533 27.008 8.79186 28.4059C8.06021 29.2152 7.63131 29.8406 7.78269 29.9142C8.06021 30.0613 9.80103 29.2152 9.32168 28.6634C9.19553 28.5163 10.129 32.1214 10.2804 31.6799C10.5075 31.0913 10.6841 30.2453 10.9364 28.9945C11.3148 28.9577 10.8859 31.2753 11.0625 31.0178C12.6519 28.5899 11.5923 31.9007 12.0212 31.3856C13.762 29.2888 16.2597 26.4562 17.8996 24.4697C18.2781 24.0283 18.9845 23.1454 19.0097 22.5936C19.035 22.1522 19.1359 21.7107 19.1106 21.1957C19.1106 20.9014 18.9845 19.6139 19.0097 19.6875C16.9157 17.4435 15.5785 18.3631 13.1818 19.8714C11.1382 21.1222 9.67489 21.4164 7.55562 21.7843C6.31939 21.9682 4.93178 22.5568 5.36067 24.2122Z" fill="#699B42"/>
<path fill-rule="evenodd" clip-rule="evenodd" d="M5.35602 24.2147C5.45694 22.3018 6.61749 22.6329 6.16336 23.7365C5.96153 24.2147 5.10373 25.7965 5.5074 26.3115C5.73446 26.6058 5.91107 26.6058 6.13813 26.1644C7.34914 23.9204 6.79409 26.4587 6.56703 27.5991C6.1129 29.8431 6.92024 27.8566 7.22299 27.0105C7.67712 25.723 8.48446 25.5758 7.70235 27.1576C7.27345 28.0037 6.92024 29.512 8.03033 28.0773C9.14042 26.6426 9.67023 27.0473 8.40877 28.4452C6.74363 30.3213 8.05556 30.4684 8.93858 28.7027C9.0395 28.5188 10.4019 33.5217 10.3262 31.057C10.301 30.3949 9.51886 29.2545 10.2 29.2177C10.5785 29.1809 11.1083 32.3078 11.1083 30.542C11.1335 27.5623 11.739 32.0503 12.0418 31.3881C13.0762 29.0706 15.9019 26.4955 17.5418 24.509C17.9202 24.0676 18.6266 23.1847 18.6519 22.6329C18.6771 22.1914 18.778 21.75 18.7528 21.235C18.7528 20.9407 18.6266 19.6532 18.6519 19.7267C16.5578 17.4827 15.2207 18.3656 12.8239 19.8739C10.7803 21.1246 9.31702 21.4189 7.19776 21.7868C5.9363 22.0075 4.92712 22.5593 5.35602 24.2147Z" fill="#99CC33"/>
<path fill-rule="evenodd" clip-rule="evenodd" d="M6.21434 22.5197C7.82902 21.7104 8.86342 21.9679 9.97351 21.7839C10.3772 21.7104 10.8313 21.4529 11.2097 21.3425C11.4873 21.2689 11.8657 21.0114 11.3359 21.3793C9.89782 22.3357 8.48498 22.299 7.09737 23.1083C6.51709 23.4393 6.08819 24.6901 6.23957 24.0279C6.34049 23.6233 6.51709 22.63 6.21434 22.5197Z" fill="#D1DB39"/>
<path fill-rule="evenodd" clip-rule="evenodd" d="M6.91821 25.1316C7.52372 24.4326 8.23014 24.1383 8.68426 23.844C9.59252 23.2555 10.526 22.6301 11.409 21.9311C12.4182 21.1586 10.5765 22.7037 10.3494 22.8876C9.4916 23.6601 9.01225 23.9912 8.17968 24.8373C8.0283 24.9844 7.27142 25.9409 7.14528 26.0145C6.96867 25.7937 7.14528 25.2787 6.91821 25.1316Z" fill="#D1DB39"/>
<path fill-rule="evenodd" clip-rule="evenodd" d="M8.05892 25.8673C8.68966 25.2052 9.37085 24.8373 9.79975 24.5062C10.0016 24.3591 10.1782 24.1383 10.38 23.9912C10.5566 23.844 10.7585 23.6601 10.4557 24.028C9.95112 24.6166 9.47177 25.2419 8.99241 25.8305L8.05892 26.8973C7.98324 27.0077 8.31122 26.0513 8.05892 25.8673Z" fill="#D1DB39"/>
<path fill-rule="evenodd" clip-rule="evenodd" d="M10.0239 29.1787C10.2762 28.7741 10.6042 28.443 10.8565 28.0015L12.6982 24.985L13.3037 24.0286L12.9505 24.6907L10.7051 28.958C10.2762 29.8409 10.6042 28.8476 10.0239 29.1787Z" fill="#D1DB39"/>
<path fill-rule="evenodd" clip-rule="evenodd" d="M11.2865 29.3621C11.5136 29.0678 11.9425 28.6632 12.0939 28.3321C12.4471 27.6699 12.8003 27.1549 13.2544 26.5295C13.9104 25.6099 12.548 27.9274 12.3714 28.3321C12.22 28.7 12.0939 29.2885 11.9929 29.6932C11.8668 30.2818 11.8416 30.2818 11.6397 29.7668C11.5893 29.6196 11.1856 29.3989 11.2865 29.3621Z" fill="#D1DB39"/>
<path fill-rule="evenodd" clip-rule="evenodd" d="M9.06733 28.6266C9.471 27.8541 10.2279 27.4494 10.5559 26.6401C10.7577 26.0883 11.2623 25.794 11.565 25.4997C11.8678 25.1686 11.3632 25.9412 11.3127 26.0147C10.7829 26.7872 10.2279 27.9644 9.79898 28.8841C9.67283 29.1784 9.6476 29.4727 9.44577 28.9209C9.37008 28.7737 9.0421 28.6266 9.06733 28.6266Z" fill="#D1DB39"/>
<path fill-rule="evenodd" clip-rule="evenodd" d="M12.5081 28.2584C13.9462 27.5595 15.132 27.2284 13.6939 27.7434C13.2902 27.8905 12.4829 30.5024 12.9118 30.5392C13.4164 30.576 14.1733 30.1713 14.4003 29.7667C15.6113 27.5227 14.2994 30.4656 14.0976 31.606C13.9714 32.2314 13.6435 32.4889 13.6939 32.5992C13.8201 32.8567 15.7879 30.8335 15.9898 30.2449C16.4439 28.9573 16.015 29.5459 15.2329 31.1645C14.9806 31.6796 14.5013 32.4889 14.5769 32.7096C14.6526 32.8567 16.2925 32.121 16.7467 31.5324C17.8567 30.0977 17.2008 31.0542 15.9393 32.4521C15.2077 33.2614 14.7788 33.8868 14.9301 33.9603C15.2077 34.1075 16.9485 33.2614 16.4691 32.7096C16.343 32.5624 17.2765 36.1675 17.4278 35.7261C17.6549 35.1375 17.8315 34.2914 18.0838 33.0407C18.4623 33.0039 18.0334 35.3214 18.21 35.0639C19.7994 32.636 18.7398 35.9468 19.1687 35.4318C20.9095 33.335 23.4072 30.5024 25.0471 28.5159C25.4255 28.0745 26.132 27.1916 26.1572 26.6398C26.1824 26.1984 26.2833 25.7569 26.2581 25.2419C26.2581 24.9476 26.132 23.6601 26.1572 23.7336C24.0632 21.4897 22.726 22.4093 20.3292 23.9176C18.2856 25.1683 16.8223 25.4626 14.7031 25.8305C13.4668 26.0144 12.0792 26.5662 12.5081 28.2584Z" fill="#699B42"/>
<path fill-rule="evenodd" clip-rule="evenodd" d="M12.5025 28.2677C12.6035 26.3548 13.764 26.6859 13.3099 27.7895C13.108 28.2677 12.2502 29.8496 12.6539 30.3646C12.881 30.6589 13.0576 30.6589 13.2846 30.2174C14.4957 27.9734 13.9406 30.5117 13.7135 31.6521C13.2594 33.8961 14.0668 31.9096 14.3695 31.0635C14.8236 29.776 15.631 29.6288 14.8489 31.2107C14.42 32.0568 14.0668 33.565 15.1768 32.1303C16.2869 30.6956 16.8167 31.1003 15.5553 32.4982C13.8901 34.3743 15.2021 34.5215 16.0851 32.7557C16.186 32.5718 17.5484 37.5748 17.4727 35.11C17.4475 34.4479 16.6654 33.3075 17.3466 33.2707C17.725 33.2339 18.2548 36.3608 18.2548 34.595C18.28 31.6153 18.8855 36.1033 19.1883 35.4411C20.2227 33.1236 23.0484 30.5485 24.6883 28.562C25.0667 28.1206 25.7731 27.2377 25.7984 26.6859C25.8236 26.2445 25.9245 25.803 25.8993 25.288C25.8993 24.9937 25.7731 23.7062 25.7984 23.7798C23.7043 21.5358 22.3672 22.4554 19.9704 23.9637C17.9268 25.2144 16.4635 25.5087 14.3443 25.8766C13.0828 26.0605 12.0736 26.5755 12.5025 28.2677Z" fill="#99CC33"/>
<path fill-rule="evenodd" clip-rule="evenodd" d="M13.3599 26.5661C14.9746 25.7568 16.009 26.0143 17.1191 25.8304C17.5227 25.7568 17.9769 25.4993 18.3553 25.389C18.6328 25.3154 19.0113 25.0579 18.4814 25.4258C17.0434 26.3822 15.6305 26.3454 14.2429 27.1547C13.6626 27.4858 13.2337 28.7366 13.3851 28.0744C13.486 27.6697 13.6626 26.6765 13.3599 26.5661Z" fill="#D1DB39"/>
<path fill-rule="evenodd" clip-rule="evenodd" d="M14.0558 29.1778C14.6613 28.4788 15.3677 28.1845 15.8219 27.8903C16.7301 27.3017 17.6636 26.6763 18.5466 25.9774C19.5558 25.2048 17.7141 26.7499 17.487 26.9338C16.6292 27.7063 16.1498 28.0374 15.292 28.8835C15.1407 29.0306 14.3838 29.9871 14.2576 30.0607C14.1063 29.8399 14.2576 29.2881 14.0558 29.1778Z" fill="#D1DB39"/>
<path fill-rule="evenodd" clip-rule="evenodd" d="M15.1729 29.9134C15.8037 29.2513 16.4849 28.8834 16.9138 28.5523C17.1156 28.4052 17.2922 28.1844 17.494 28.0373C17.6706 27.8901 17.8725 27.7062 17.5697 28.0741C17.0651 28.6627 16.5858 29.288 16.1064 29.8766L15.1982 30.9067C15.0973 31.017 15.4505 30.0606 15.1729 29.9134Z" fill="#D1DB39"/>
<path fill-rule="evenodd" clip-rule="evenodd" d="M17.1575 33.2244C17.4098 32.8197 17.7378 32.4887 17.9901 32.0472L19.8318 29.0307L20.4373 28.0743L20.0841 28.7364L17.8387 33.0037C17.4098 33.8866 17.7378 32.8933 17.1575 33.2244Z" fill="#D1DB39"/>
<path fill-rule="evenodd" clip-rule="evenodd" d="M18.4261 33.4084C18.6532 33.1141 19.0821 32.7095 19.2335 32.3784C19.5867 31.7162 19.9399 31.2012 20.394 30.5759C21.05 29.6562 19.6876 31.9738 19.511 32.3784C19.3596 32.7463 19.2335 33.3349 19.1325 33.7395C19.0064 34.3281 18.9812 34.3281 18.7793 33.8131C18.7289 33.6292 18.3 33.4084 18.4261 33.4084Z" fill="#D1DB39"/>
<path fill-rule="evenodd" clip-rule="evenodd" d="M16.2109 32.6362C16.6146 31.8636 17.3714 31.459 17.6994 30.6497C17.9012 30.0979 18.4058 29.8036 18.7086 29.5093C19.0113 29.1782 18.5067 29.9507 18.4563 30.0243C17.9265 30.7968 17.3714 31.974 16.9425 32.8937C16.8164 33.188 16.7912 33.4823 16.5893 32.9305C16.5136 32.7833 16.1857 32.6362 16.2109 32.6362Z" fill="#D1DB39"/>
<path fill-rule="evenodd" clip-rule="evenodd" d="M17.9327 37.3082C19.1185 36.2782 20.1529 35.6896 18.9167 36.5357C18.5887 36.7564 18.4878 39.5522 18.9167 39.4786C19.4212 39.405 20.0267 38.8532 20.1277 38.375C20.6827 35.8735 20.2286 39.1107 20.3043 40.2511C20.3547 40.9133 20.1024 41.2444 20.1781 41.3179C20.3547 41.5387 21.7171 39.1107 21.7423 38.4854C21.818 37.0875 21.5657 37.8232 21.263 39.5522C21.1621 40.104 20.9098 41.0236 21.0612 41.2076C21.1621 41.3179 22.5497 40.2143 22.8272 39.5522C23.5084 37.86 23.13 39.0004 22.2974 40.6558C21.818 41.649 21.591 42.348 21.7423 42.3848C22.0199 42.4583 23.4832 41.2444 22.8777 40.8029C22.7263 40.6926 24.568 44.0402 24.5933 43.5987C24.6437 42.9733 24.5933 42.0905 24.5176 40.8029C24.8708 40.6926 25.0726 43.0837 25.1735 42.7526C26.0313 40.0304 25.9052 43.4884 26.1827 42.8998C27.2928 40.4351 28.9075 37.0507 29.9419 34.7331C30.1689 34.1813 30.6231 33.1881 30.4969 32.5995C30.396 32.158 30.3708 31.6798 30.2194 31.2016C30.1437 30.9073 29.6896 29.6933 29.74 29.7301C27.1666 28.0012 26.1322 29.2151 24.24 31.2016C22.6506 32.8938 21.3134 33.5192 19.396 34.3653C18.2607 34.8803 17.0749 35.7631 17.9327 37.3082Z" fill="#699B42"/>
<path fill-rule="evenodd" clip-rule="evenodd" d="M17.9422 37.3084C17.5385 35.3955 18.7243 35.4691 18.5729 36.6462C18.4973 37.1612 18.1188 38.927 18.6234 39.3685C18.9262 39.626 19.0775 39.5524 19.1784 39.0742C19.7335 36.5727 19.8596 39.2213 19.9606 40.3985C20.1372 42.716 20.3642 40.5456 20.4399 39.6627C20.5156 38.2649 21.2472 37.9338 20.9445 39.6995C20.7679 40.656 20.8184 42.201 21.4995 40.5456C22.1807 38.8534 22.7862 39.1477 21.9537 40.8399C20.8436 43.0839 22.1555 42.9 22.5339 40.9503C22.5844 40.7663 25.2082 45.3647 24.4766 42.9735C24.2748 42.3114 23.2151 41.3917 23.8711 41.2078C24.2243 41.0974 25.5362 44.0771 25.0821 42.3114C24.3 39.3685 26.0913 43.6725 26.1922 42.9368C26.5706 40.3985 28.5637 37.198 29.5981 34.8805C29.8252 34.3287 30.2793 33.3354 30.1532 32.7468C30.0523 32.3054 30.027 31.8272 29.8757 31.349C29.8 31.0547 29.3459 29.8407 29.3963 29.8775C26.8229 28.1485 25.7633 29.3625 23.8963 31.349C22.3069 33.0411 20.9697 33.6665 19.0523 34.5126C17.917 34.9908 17.0844 35.7634 17.9422 37.3084Z" fill="#99CC33"/>
<path fill-rule="evenodd" clip-rule="evenodd" d="M18.3028 35.469C19.6147 34.2918 20.6744 34.3286 21.6835 33.8871C22.062 33.7032 22.3899 33.3721 22.7432 33.1882C22.9955 33.0778 23.273 32.71 22.8693 33.1882C21.7592 34.4389 20.3968 34.77 19.2867 35.8368C18.8326 36.2783 18.7569 37.6394 18.7317 36.9404C18.7317 36.5358 18.6308 35.5058 18.3028 35.469Z" fill="#D1DB39"/>
<path fill-rule="evenodd" clip-rule="evenodd" d="M19.6557 37.8595C20.0341 37.0502 20.6396 36.6088 20.9929 36.2041C21.6993 35.3948 22.4057 34.5855 23.0869 33.7027C23.8438 32.7094 22.4814 34.6591 22.33 34.8798C21.6993 35.8363 21.3461 36.2777 20.7658 37.3077C20.6649 37.4917 20.1855 38.5953 20.0846 38.7056C19.8828 38.5217 19.908 37.9699 19.6557 37.8595Z" fill="#D1DB39"/>
<path fill-rule="evenodd" clip-rule="evenodd" d="M20.9241 38.3376C21.353 37.5283 21.8828 37.0133 22.236 36.6087C22.3874 36.4247 22.4883 36.1672 22.6396 35.9465C22.7658 35.7626 22.9172 35.5419 22.7153 35.9465C22.3874 36.6455 22.1098 37.3812 21.7819 38.0434L21.1763 39.3309C21.1511 39.478 21.2268 38.448 20.9241 38.3376Z" fill="#D1DB39"/>
<path fill-rule="evenodd" clip-rule="evenodd" d="M23.6915 41.1706C23.8177 40.6923 24.0447 40.3245 24.1709 39.8095L25.1296 36.4251L25.4576 35.3583L25.3062 36.094L24.297 40.8027C24.0952 41.7592 24.1709 40.7291 23.6915 41.1706Z" fill="#D1DB39"/>
<path fill-rule="evenodd" clip-rule="evenodd" d="M24.931 41.0603C25.0571 40.7292 25.3599 40.2142 25.4356 39.8463C25.5869 39.1106 25.814 38.522 26.0663 37.7863C26.4447 36.7195 25.7635 39.3313 25.7131 39.7727C25.6626 40.1774 25.6879 40.766 25.7131 41.2074C25.7383 41.796 25.7131 41.8328 25.4103 41.3546C25.3094 41.2442 24.8301 41.1339 24.931 41.0603Z" fill="#D1DB39"/>
<path fill-rule="evenodd" clip-rule="evenodd" d="M22.6354 40.8393C22.812 39.9933 23.4427 39.4047 23.5184 38.5586C23.5689 37.97 23.9725 37.5653 24.1744 37.1975C24.3762 36.7928 24.0987 37.6757 24.0482 37.7493C23.7455 38.6321 23.5184 39.9197 23.367 40.9129C23.3166 41.244 23.367 41.5015 23.039 41.0601C22.9633 40.9129 22.6101 40.8393 22.6354 40.8393Z" fill="#D1DB39"/>
<path fill-rule="evenodd" clip-rule="evenodd" d="M26.9862 41.3181C28.4243 40.6191 29.61 40.2881 28.172 40.8031C27.7683 40.9502 26.961 43.5621 27.3899 43.5989C27.8944 43.6356 28.6513 43.231 28.8784 42.8263C30.0894 40.5823 28.7775 43.5253 28.5756 44.6657C28.4495 45.291 28.1215 45.5486 28.172 45.6589C28.2981 45.9164 30.266 43.8932 30.4678 43.3046C30.922 42.017 30.4931 42.6056 29.711 44.2242C29.4587 44.7392 28.9793 45.5486 29.055 45.7693C29.1307 45.9164 30.7706 45.1807 31.2247 44.5921C32.3348 43.1574 31.6788 44.1139 30.4174 45.5118C29.6857 46.3211 29.2568 46.9465 29.4082 47.02C29.6857 47.1672 31.4266 46.3211 30.9472 45.7693C30.8211 45.6221 31.7545 49.2272 31.9059 48.7858C32.133 48.1972 32.3096 47.3511 32.5619 46.1004C32.9403 46.0636 32.5114 48.3811 32.688 48.1236C34.2775 45.6957 33.2178 49.0065 33.6467 48.4915C35.3876 46.3946 37.8853 43.5621 39.5252 41.5756C39.9036 41.1341 40.61 40.2513 40.6353 39.6995C40.6605 39.258 40.7614 38.8166 40.7362 38.3016C40.7362 38.0073 40.61 36.7197 40.6353 36.7933C38.5412 34.5493 37.2041 35.469 34.8073 36.9773C32.7637 38.228 31.3004 38.5223 29.1811 38.8902C27.9449 39.0741 26.5573 39.6259 26.9862 41.3181Z" fill="#699B42"/>
<path fill-rule="evenodd" clip-rule="evenodd" d="M26.983 41.3181C27.0839 39.4052 28.2444 39.7363 27.7903 40.8399C27.5885 41.3181 26.7307 42.8999 27.1343 43.4149C27.3614 43.7092 27.538 43.7092 27.7651 43.2678C28.9761 41.0238 28.421 43.5621 28.194 44.7025C27.7398 46.9464 28.5472 44.96 28.8499 44.1139C29.3041 42.8263 30.1114 42.6792 29.3293 44.261C28.9004 45.1071 28.5472 46.6154 29.6573 45.1807C30.7674 43.746 31.2972 44.1507 30.0357 45.5486C28.3706 47.4247 29.6825 47.5718 30.5655 45.8061C30.6664 45.6221 32.0288 50.6251 31.9531 48.1604C31.9279 47.4982 31.1458 46.3579 31.827 46.3211C32.2054 46.2843 32.7352 49.4112 32.7352 47.6454C32.7605 44.6657 33.366 49.1536 33.6687 48.4915C34.7031 46.1371 37.5288 43.5621 39.1687 41.5756C39.5472 41.1342 40.2536 40.2513 40.2788 39.6995C40.304 39.258 40.405 38.8166 40.3797 38.3016C40.3797 38.0073 40.2536 36.7197 40.2788 36.7933C38.1848 34.5493 36.8476 35.469 34.4508 36.9773C32.4073 38.228 30.944 38.5223 28.8247 38.8902C27.5885 39.1109 26.5541 39.6259 26.983 41.3181Z" fill="#99CC33"/>
<path fill-rule="evenodd" clip-rule="evenodd" d="M27.8405 39.6256C29.4552 38.8163 30.4896 39.0738 31.5997 38.8899C32.0034 38.8163 32.4575 38.5588 32.8359 38.4485C33.1135 38.3749 33.4919 38.1174 32.9621 38.4852C31.524 39.4417 30.1112 39.4049 28.7236 40.2142C28.1433 40.5453 27.7144 41.796 27.8658 41.1339C27.9667 40.7292 28.1433 39.736 27.8405 39.6256Z" fill="#D1DB39"/>
<path fill-rule="evenodd" clip-rule="evenodd" d="M28.5394 42.2375C29.1449 41.5385 29.8514 41.2442 30.3055 40.95C31.2137 40.3614 32.1472 39.736 33.0302 39.0371C34.0394 38.2645 32.1977 39.8096 31.9706 39.9935C31.1128 40.766 30.6335 41.0971 29.7757 41.9432C29.6243 42.0903 28.8674 43.0468 28.7413 43.1204C28.5899 42.8996 28.7665 42.3478 28.5394 42.2375Z" fill="#D1DB39"/>
<path fill-rule="evenodd" clip-rule="evenodd" d="M29.6732 42.9734C30.3039 42.3112 30.9851 41.9433 31.414 41.6123C31.6158 41.4651 31.7924 41.2444 31.9943 41.0972C32.1709 40.9501 32.3727 40.7662 32.07 41.134C31.5654 41.7226 31.086 42.348 30.6067 42.9366L29.6732 44.0034C29.5975 44.077 29.9255 43.1205 29.6732 42.9734Z" fill="#D1DB39"/>
<path fill-rule="evenodd" clip-rule="evenodd" d="M31.6382 46.2842C31.8905 45.8795 32.2184 45.5484 32.4707 45.107L34.3125 42.0905L34.918 41.134L34.5648 41.7962L32.3194 46.0634C31.8905 46.9463 32.2184 45.9531 31.6382 46.2842Z" fill="#D1DB39"/>
<path fill-rule="evenodd" clip-rule="evenodd" d="M32.9 46.4682C33.127 46.1739 33.5559 45.7692 33.7073 45.4381C34.0605 44.776 34.4137 44.261 34.8679 43.6356C35.5238 42.7159 34.1614 45.0335 33.9848 45.4381C33.8335 45.806 33.7073 46.3946 33.6064 46.7993C33.4802 47.3878 33.455 47.3878 33.2532 46.8728C33.228 46.6889 32.7991 46.4682 32.9 46.4682Z" fill="#D1DB39"/>
<path fill-rule="evenodd" clip-rule="evenodd" d="M30.6875 45.6957C31.0911 44.9232 31.848 44.5186 32.176 43.7093C32.3778 43.1575 32.8824 42.8632 33.1852 42.5689C33.4879 42.2378 32.9833 43.0103 32.9329 43.0839C32.4031 43.8564 31.848 45.0336 31.4191 45.9532C31.293 46.2475 31.2677 46.5418 31.0659 45.99C31.0154 45.8429 30.6622 45.6957 30.6875 45.6957Z" fill="#D1DB39"/>
<path fill-rule="evenodd" clip-rule="evenodd" d="M34.4287 49.3744C35.5136 48.0868 36.5228 47.2408 35.3622 48.3811C35.0342 48.6754 35.2613 51.3609 35.6902 51.1769C36.1948 50.993 36.7498 50.294 36.8003 49.8158C37.0778 47.3143 36.9769 50.478 37.204 51.5448C37.3301 52.1334 37.1283 52.538 37.204 52.6116C37.4058 52.7588 38.5159 50.1101 38.4906 49.4847C38.415 48.1604 38.2384 48.8962 38.1122 50.6251C38.0617 51.1769 37.9104 52.1334 38.087 52.2437C38.1879 52.3173 39.4998 50.9194 39.7017 50.2205C40.2062 48.4547 39.9539 49.5951 39.298 51.3976C38.9195 52.4645 38.7429 53.1634 38.9195 53.1634C39.2223 53.1634 40.5594 51.6184 39.8783 51.3609C39.7017 51.2873 41.9723 54.0095 41.9471 53.5313C41.9218 52.9059 41.7957 52.0966 41.5434 50.9194C41.8966 50.7355 42.376 52.9059 42.4516 52.6116C43.0319 49.779 43.2842 53.1266 43.5113 52.5013C44.3691 49.8894 45.6558 46.2475 46.4379 43.746C46.6145 43.1574 46.9425 42.0906 46.7659 41.5756C46.6145 41.171 46.5388 40.7295 46.337 40.3249C46.2108 40.0674 45.6305 39.0373 45.6558 39.0373C42.8301 38.0809 41.8966 39.4788 40.181 41.9067C38.7429 43.9667 37.431 44.8864 35.564 46.1739C34.4792 46.9833 33.3691 48.1236 34.4287 49.3744Z" fill="#699B42"/>
<path fill-rule="evenodd" clip-rule="evenodd" d="M34.4235 49.3747C33.7675 47.6458 35.029 47.425 35.0037 48.5654C35.0037 49.0437 34.8019 50.8462 35.3569 51.1405C35.6849 51.2876 35.8615 51.1773 35.912 50.7358C36.1895 48.2343 36.6436 50.6991 36.8455 51.7659C37.2744 53.8995 37.2744 51.8027 37.2491 50.9566C37.1735 49.6322 37.9051 49.1172 37.779 50.8462C37.7033 51.7659 37.9556 53.2741 38.4349 51.5084C38.9395 49.7426 39.5955 49.853 38.9395 51.6555C38.0565 54.0466 39.3684 53.5684 39.545 51.6187C39.5702 51.4348 42.7744 55.1135 41.7652 53.0166C41.4877 52.428 40.3019 51.8394 40.9326 51.5084C41.2858 51.3244 42.9762 53.7891 42.295 52.2441C41.1849 49.669 43.4808 53.2373 43.506 52.5384C43.5817 50.0369 45.2973 46.4686 46.0794 43.9671C46.256 43.3785 46.584 42.3117 46.4074 41.7967C46.256 41.392 46.1803 40.9506 45.9785 40.5459C45.8523 40.2884 45.2721 39.2584 45.2973 39.2584C42.4716 38.3019 41.5381 39.6998 39.8225 42.1278C38.3845 44.1878 37.0725 45.1075 35.2056 46.395C34.1207 47.1675 33.3638 48.124 34.4235 49.3747Z" fill="#99CC33"/>
<path fill-rule="evenodd" clip-rule="evenodd" d="M34.5736 47.5346C35.7846 46.0631 36.8695 45.8056 37.8535 45.1435C38.2067 44.886 38.5346 44.4445 38.8626 44.187C39.1149 44.0031 39.342 43.5984 38.9888 44.1502C37.9796 45.6585 36.6424 46.2839 35.6333 47.6082C35.2296 48.16 35.2801 49.4475 35.1791 48.8221C35.1287 48.4175 34.9016 47.461 34.5736 47.5346Z" fill="#D1DB39"/>
<path fill-rule="evenodd" clip-rule="evenodd" d="M36.2379 49.4479C36.5407 48.565 37.0957 47.9764 37.4237 47.535C38.0544 46.5785 38.6851 45.6221 39.2654 44.6288C39.9214 43.4885 38.7608 45.6957 38.6347 45.9532C38.1049 47.02 37.7769 47.535 37.3228 48.6754C37.2218 48.8961 36.8686 50.0365 36.7929 50.1836C36.5407 49.9997 36.4902 49.4479 36.2379 49.4479Z" fill="#D1DB39"/>
<path fill-rule="evenodd" clip-rule="evenodd" d="M37.5988 49.5581C37.9267 48.6753 38.4313 48.0499 38.7341 47.5717C38.8602 47.351 38.9611 47.0934 39.0873 46.8359C39.2134 46.6152 39.3144 46.3945 39.1882 46.8359C38.9359 47.5717 38.7341 48.3442 38.4818 49.0799L38.0024 50.441C37.952 50.5514 37.9015 49.5949 37.5988 49.5581Z" fill="#D1DB39"/>
<path fill-rule="evenodd" clip-rule="evenodd" d="M40.7582 51.5081C40.8339 51.0299 41.0105 50.5884 41.1114 50.1102L41.7169 46.6522L41.9187 45.5486L41.8431 46.2844L41.3637 51.0299C41.2123 51.9495 41.1619 50.9563 40.7582 51.5081Z" fill="#D1DB39"/>
<path fill-rule="evenodd" clip-rule="evenodd" d="M41.9878 51.1037C42.0888 50.7726 42.3411 50.184 42.3663 49.8162C42.442 49.0804 42.5933 48.4551 42.77 47.7193C43.0475 46.6157 42.6438 49.2644 42.6438 49.7058C42.6438 50.1105 42.7447 50.6623 42.8204 51.0669C42.9213 51.6187 42.8961 51.6555 42.5177 51.2876C42.3915 51.1405 41.9121 51.1405 41.9878 51.1037Z" fill="#D1DB39"/>
<path fill-rule="evenodd" clip-rule="evenodd" d="M39.6224 51.4714C39.7233 50.6254 40.2783 49.9264 40.2783 49.0435C40.2783 48.4917 40.6315 47.9767 40.8081 47.5721C40.9847 47.1674 40.7829 48.0503 40.7577 48.1239C40.5558 49.0435 40.4801 50.3311 40.4297 51.3243C40.4045 51.6186 40.5054 51.8761 40.1017 51.545C39.9756 51.4347 39.5971 51.4714 39.6224 51.4714Z" fill="#D1DB39"/>
<path fill-rule="evenodd" clip-rule="evenodd" d="M56.2392 47.1302C55.1291 46.2106 54.1199 45.6588 55.3057 46.4313C55.6337 46.652 55.4571 49.3742 55.0282 49.3374C54.5236 49.3006 53.9433 48.7856 53.8929 48.3074C53.5649 45.8795 53.7162 49.0063 53.5144 50.1467C53.4135 50.7721 53.6153 51.1032 53.5396 51.1768C53.3378 51.3975 52.1773 49.1167 52.2025 48.4913C52.2529 47.1302 52.4296 47.8292 52.6062 49.5214C52.6566 50.0732 52.8332 50.956 52.6566 51.14C52.5557 51.2503 51.2185 50.2571 51.0167 49.6317C50.4869 48.0131 50.7644 49.0799 51.4456 50.6617C51.8493 51.5814 52.0259 52.2804 51.8493 52.3171C51.5465 52.3907 50.1841 51.2871 50.8401 50.8089C51.0167 50.6985 48.7965 54.0829 48.7965 53.6415C48.7965 53.0161 48.9227 52.1332 49.1497 50.9193C48.7965 50.8457 48.3424 53.1632 48.2919 52.8689C47.6612 50.2203 47.4594 53.6415 47.2323 53.0529C46.3241 50.6985 44.9869 47.4981 44.1543 45.2541C43.9525 44.7391 43.5993 43.7826 43.8011 43.194C43.9525 42.7526 44.003 42.3112 44.2048 41.7962C44.3309 41.5019 44.886 40.2879 44.8608 40.3247C47.6864 38.4853 48.6199 39.6257 50.3607 41.4651C51.8493 43.0469 53.1612 43.5619 55.0534 44.2976C56.1383 44.7759 57.2736 45.5484 56.2392 47.1302Z" fill="#699B42"/>
<path fill-rule="evenodd" clip-rule="evenodd" d="M56.2408 47.1302C56.8463 45.2173 55.6101 45.3645 55.6353 46.5049C55.6605 46.9831 55.8876 48.7121 55.3073 49.1535C54.9793 49.411 54.828 49.3742 54.7523 48.896C54.4243 46.4681 54.0206 49.0799 53.8188 50.2203C53.4151 52.5011 53.3899 50.4042 53.4151 49.5214C53.4656 48.1603 52.7339 47.9027 52.8853 49.5581C52.961 50.4778 52.7591 52.0229 52.2293 50.4042C51.6995 48.7856 51.0436 49.1167 51.7247 50.6985C52.633 52.8322 51.3211 52.7586 51.1192 50.8457C51.094 50.6617 47.9404 55.3337 48.9243 52.9425C49.2018 52.2804 50.3624 51.3239 49.7316 51.1768C49.3784 51.1032 47.7385 54.0829 48.3692 52.3539C49.4541 49.4478 47.2087 53.715 47.1835 53.0161C47.0573 50.5514 45.2913 47.5349 44.4587 45.2909C44.2569 44.7759 43.9037 43.8194 44.1055 43.2308C44.2569 42.7894 44.3073 42.348 44.5092 41.8329C44.6353 41.5387 45.1904 40.3247 45.1651 40.3615C47.9908 38.5221 48.9243 39.6625 50.6651 41.5019C52.1536 43.0837 53.4656 43.5987 55.3578 44.3344C56.4931 44.8495 57.2752 45.5484 56.2408 47.1302Z" fill="#99CC33"/>
<path fill-rule="evenodd" clip-rule="evenodd" d="M56.0377 45.3276C54.8015 44.2608 53.7166 44.3344 52.7074 43.9665C52.329 43.8194 52.0262 43.4883 51.673 43.3411C51.4207 43.2308 51.1684 42.8997 51.5469 43.3411C52.5813 44.5183 53.9437 44.739 54.9528 45.7691C55.3817 46.1737 55.3313 47.498 55.4322 46.7991C55.5079 46.3944 55.7097 45.4012 56.0377 45.3276Z" fill="#D1DB39"/>
<path fill-rule="evenodd" clip-rule="evenodd" d="M54.4021 47.7556C54.0993 46.9831 53.519 46.5784 53.191 46.2105C52.5351 45.4748 51.8791 44.7023 51.2988 43.893C50.6176 42.9733 51.8287 44.7759 51.9548 44.9966C52.5099 45.8795 52.8378 46.3209 53.3172 47.2774C53.4181 47.4613 53.7966 48.4913 53.8722 48.6017C54.1245 48.4177 54.1498 47.8659 54.4021 47.7556Z" fill="#D1DB39"/>
<path fill-rule="evenodd" clip-rule="evenodd" d="M53.058 48.3073C52.7048 47.5348 52.2002 47.0934 51.8722 46.6887C51.7461 46.5048 51.6452 46.2841 51.519 46.0634C51.3929 45.8794 51.2667 45.6955 51.4181 46.0634C51.6704 46.7255 51.8975 47.4245 52.175 48.0498L52.6543 49.2638C52.73 49.4109 52.7553 48.4177 53.058 48.3073Z" fill="#D1DB39"/>
<path fill-rule="evenodd" clip-rule="evenodd" d="M49.9404 51.2136C49.8395 50.7721 49.6629 50.4043 49.5619 49.926L48.906 46.652L48.6789 45.622L48.7798 46.3209L49.3601 50.8825C49.4863 51.8389 49.5115 50.8089 49.9404 51.2136Z" fill="#D1DB39"/>
<path fill-rule="evenodd" clip-rule="evenodd" d="M48.6725 51.1768C48.5716 50.8825 48.3193 50.3675 48.2688 50.0364C48.1679 49.3006 48.0165 48.7856 47.8147 48.0867C47.5119 47.0934 47.9661 49.5949 47.9913 50.0364C47.9913 50.441 47.9156 51.0296 47.8399 51.4343C47.7642 52.0229 47.7895 52.0229 48.1427 51.5814C48.294 51.3607 48.7734 51.2136 48.6725 51.1768Z" fill="#D1DB39"/>
<path fill-rule="evenodd" clip-rule="evenodd" d="M51.0761 50.8089C50.9752 49.9628 50.3949 49.4478 50.3949 48.6017C50.3949 48.0499 50.0165 47.682 49.8399 47.3142C49.6633 46.9463 49.8903 47.7556 49.9156 47.866C50.1426 48.7488 50.2436 49.9628 50.294 50.9193C50.3192 51.2136 50.2183 51.5078 50.622 51.0296C50.7229 50.9193 51.1014 50.8457 51.0761 50.8089Z" fill="#D1DB39"/>
<path fill-rule="evenodd" clip-rule="evenodd" d="M6.5888 22.6302C6.79063 22.7773 6.94201 22.998 6.94201 23.3291C6.94201 24.0648 7.1943 24.3591 7.49705 24.6167C7.7998 24.3959 8.07733 24.3224 8.35485 24.1384C8.55668 23.9913 9.03604 23.6234 9.23787 23.5866C9.86861 23.4763 9.49017 24.4327 9.81815 24.5431C10.1966 24.3591 10.6759 23.8441 10.9535 23.8073C11.2562 23.7338 11.3571 23.1084 11.3571 22.5934C11.3571 21.5266 8.15301 21.4162 7.49705 21.4162C6.99247 21.3794 6.56357 21.9312 6.5888 22.6302Z" fill="#699B42"/>
<path fill-rule="evenodd" clip-rule="evenodd" d="M16.3824 30.4289C16.7104 30.5761 16.4581 31.4957 16.6851 31.6797C16.887 31.8636 17.5681 31.1646 17.7448 31.0543C17.8709 30.9807 17.8709 31.6797 17.8709 31.8636C17.8709 32.5993 18.7792 30.5025 18.8801 31.6797C18.9305 32.4154 19.7883 32.0475 20.192 31.9739C21.1002 31.7532 21.958 30.7232 21.958 29.2885C21.958 27.5963 18.2241 29.1782 17.5934 29.4725C17.114 29.6564 16.7608 30.3921 16.3824 30.4289Z" fill="#699B42"/>
<path fill-rule="evenodd" clip-rule="evenodd" d="M19.4284 34.9537C19.605 35.3584 19.7311 35.5791 19.7311 36.2045C19.7311 36.3516 19.7059 36.6459 19.7564 36.7563C19.7816 36.8667 19.9582 37.0874 19.933 37.1977C20.0087 37.1609 20.0591 37.1609 20.1096 37.0506C20.1348 36.977 20.261 36.8667 20.3366 36.7931C20.488 36.6459 20.8665 36.0941 21.0178 36.1677C20.9926 36.3884 20.9674 36.7563 20.9169 36.9034C20.816 37.1242 20.7655 37.3817 20.7151 37.6392C20.6394 37.9703 20.8665 38.1542 20.9421 38.3013C21.0683 38.0438 21.3206 37.676 21.5224 37.5288C21.5981 37.4552 21.6738 37.3449 21.7243 37.2713C21.7999 37.1977 21.8504 37.1609 21.8252 37.0506C21.8252 37.1609 22.027 37.3817 22.027 37.676C22.027 37.9703 21.9766 38.191 21.9766 38.5956C21.9766 39.0739 22.5064 38.6324 22.6073 38.5956C23.1371 38.4485 22.9605 39.221 23.1623 39.221C23.4651 39.221 23.6417 38.3013 23.8183 38.191C24.0201 38.5221 23.6417 39.4785 23.9949 39.4785C24.3481 39.4785 24.4238 38.6324 24.6256 38.5956C25.0545 38.5221 24.3229 40.7293 25.0293 40.0303C25.2564 39.8096 25.6348 38.9267 25.8366 38.9635C26.0637 39.0003 25.9376 39.9935 26.2655 39.9935C26.4169 39.9935 27.199 39.2578 27.4261 39.1106C27.7793 38.8899 28.1325 38.6324 28.4605 38.2645C28.9146 37.7495 28.8642 37.2345 29.1164 36.6827C29.0912 36.6827 28.8642 35.9838 28.7885 35.8366C27.9307 34.2916 20.0087 32.4155 19.4284 34.9537Z" fill="#699B42"/>
<path fill-rule="evenodd" clip-rule="evenodd" d="M33.3116 46.3575C33.69 48.0865 34.2955 46.6518 34.9515 47.0565C35.4561 47.3875 35.557 48.0129 35.9606 48.3808C36.6418 49.0062 38.1051 46.7622 37.6762 45.4746C37.323 44.371 34.7496 44.886 34.0684 45.3275C33.8162 45.5114 33.362 46.4311 33.3116 46.3575Z" fill="#699B42"/>
<path fill-rule="evenodd" clip-rule="evenodd" d="M5.13058 14.5376C5.50902 13.9858 6.21544 10.8221 8.58699 10.8589C13.2544 10.9325 14.6168 14.6112 14.8943 17.4805C15.1214 19.982 12.5732 22.8882 10.0755 23.2928C7.27507 23.7343 3.31407 21.9685 2.53196 19.0256C1.72462 16.0459 4.27278 15.7516 5.13058 14.5376Z" fill="#C40202"/>
<path fill-rule="evenodd" clip-rule="evenodd" d="M5.13119 13.6179C5.50963 13.0661 6.21605 9.90247 8.5876 9.93926C13.255 10.0128 14.6174 13.6915 14.8949 16.5609C15.122 19.0624 12.5738 21.9685 10.0761 22.3732C7.27568 22.8146 3.31468 21.0488 2.53257 18.1427C1.72523 15.163 4.27339 14.8687 5.13119 13.6179Z" fill="url(#paint0_linear_2_2020)"/>
<path fill-rule="evenodd" clip-rule="evenodd" d="M5.48562 13.8749C5.8136 13.3967 6.49479 10.4906 8.63928 10.5274C12.903 10.6009 14.1393 13.9485 14.3916 16.5604C14.5934 18.8411 12.2723 21.4898 9.97644 21.8577C7.42828 22.2623 3.79525 20.6437 3.08883 17.9951C2.38241 15.2728 4.70351 15.0153 5.48562 13.8749Z" fill="#F07464"/>
<path fill-rule="evenodd" clip-rule="evenodd" d="M7.61955 14.1695C7.9223 13.5809 8.37642 12.9555 9.08285 12.9188C11.4544 12.7716 12.0347 14.7213 12.0599 16.3031C12.0851 17.6642 10.6723 19.3564 9.3856 19.6507C7.94753 20.0186 5.75258 19.43 5.47505 17.8482C5.32368 17.0021 5.82826 16.3031 6.2067 15.9353C5.72735 15.3467 5.12184 14.7213 4.46588 14.2431C4.71817 14.0591 4.97047 13.8384 5.12184 13.5809C5.22276 13.4338 5.32368 13.1395 5.50028 12.7716C6.23193 13.3234 6.83744 13.8016 7.61955 14.1695Z" fill="#FFB596"/>
<path fill-rule="evenodd" clip-rule="evenodd" d="M7.85367 13.8749C7.19771 11.4102 8.83762 10.2698 11.411 12.4402C13.2023 13.9485 13.3032 15.3831 12.8995 17.3328C12.6472 18.5468 11.083 17.3328 11.4362 16.45C12.4454 13.8381 8.93853 11.4102 8.98899 14.2795C8.98899 14.7946 8.08074 14.6842 7.85367 13.8749Z" fill="#E52614"/>
<path fill-rule="evenodd" clip-rule="evenodd" d="M5.93732 16.4502C3.46485 16.9285 3.1621 18.9149 6.24007 20.3128C8.35933 21.2693 9.69649 20.7543 11.2355 19.5035C12.1942 18.731 10.4534 17.8849 9.79741 18.5471C7.90521 20.6071 4.1965 18.5103 6.76989 17.2595C7.24925 17.0756 6.74466 16.2663 5.93732 16.4502Z" fill="#E52614"/>
<path fill-rule="evenodd" clip-rule="evenodd" d="M20.3609 22.483C19.9825 21.9312 19.2761 18.7675 16.9045 18.8043C12.2371 18.8779 10.8747 22.5565 10.5972 25.4259C10.3701 27.9274 12.9183 30.8335 15.416 31.2382C18.2165 31.6796 22.1775 29.9139 22.9596 27.0077C23.7921 24.028 21.2187 23.7337 20.3609 22.483Z" fill="#C40202"/>
<path fill-rule="evenodd" clip-rule="evenodd" d="M20.3629 21.6C19.9845 21.0482 19.278 17.8846 16.9065 17.9214C12.2391 17.9949 10.8767 21.6736 10.5992 24.543C10.3721 27.0444 12.9203 29.9506 15.418 30.3552C18.2184 30.7967 22.1794 29.0309 22.9615 26.1248C23.7941 23.1083 21.2207 22.814 20.3629 21.6Z" fill="url(#paint1_linear_2_2020)"/>
<path fill-rule="evenodd" clip-rule="evenodd" d="M20.0426 21.8213C19.7146 21.3431 19.0334 18.4369 16.8889 18.4737C12.6251 18.5473 11.3637 21.8949 11.1366 24.5067C10.9348 26.7875 13.2559 29.4361 15.5517 29.804C18.0999 30.2087 21.7329 28.59 22.4393 25.9414C23.1458 23.2192 20.8247 22.9617 20.0426 21.8213Z" fill="#F07464"/>
<path fill-rule="evenodd" clip-rule="evenodd" d="M17.8948 22.1515C17.5921 21.563 17.1379 20.9376 16.4315 20.9008C14.06 20.7536 13.4797 22.7033 13.4544 24.2852C13.4292 25.6463 14.8421 27.3385 16.1288 27.6328C17.5668 28.0006 19.7618 27.412 20.0393 25.8302C20.1907 24.9841 19.6861 24.2852 19.3076 23.9173C19.787 23.3287 20.3925 22.7033 21.0485 22.2251C20.7962 22.0412 20.5439 21.8205 20.3925 21.563C20.2916 21.4158 20.1907 21.1215 20.0141 20.7537C19.2824 21.2687 18.6517 21.7837 17.8948 22.1515Z" fill="#FFB596"/>
<path fill-rule="evenodd" clip-rule="evenodd" d="M17.6655 21.858C18.3214 19.3933 16.6815 18.2529 14.1081 20.4233C12.3168 21.9315 12.2159 23.3662 12.6196 25.3159C12.8719 26.5299 14.4361 25.3159 14.0829 24.433C13.0737 21.8212 16.5806 19.3933 16.5301 22.2626C16.5301 22.7408 17.4384 22.6673 17.6655 21.858Z" fill="#E52614"/>
<path fill-rule="evenodd" clip-rule="evenodd" d="M19.5853 24.3961C22.0578 24.8743 22.3605 26.8608 19.2825 28.2587C17.1633 29.2519 15.8514 28.7001 14.2871 27.4494C13.3284 26.6768 15.0692 25.8308 15.7252 26.4929C17.6174 28.553 21.3261 26.4561 18.7275 25.2422C18.2734 25.0214 18.778 24.2489 19.5853 24.3961Z" fill="#E52614"/>
<path fill-rule="evenodd" clip-rule="evenodd" d="M21.9044 30.0243C22.2828 29.4725 22.9892 26.3088 25.3608 26.3456C30.0282 26.4192 31.3906 30.0979 31.6681 32.9672C31.8952 35.4687 29.347 38.3749 26.8493 38.7795C24.0489 39.221 20.0879 37.4552 19.3057 34.5491C18.4984 31.5693 21.0466 31.2751 21.9044 30.0243Z" fill="#C40202"/>
<path fill-rule="evenodd" clip-rule="evenodd" d="M21.9055 29.1414C22.2839 28.5896 22.9903 25.4259 25.3619 25.4627C30.0293 25.5363 31.3917 29.2149 31.6692 32.0843C31.8963 34.5858 29.3481 37.492 26.8504 37.8966C24.05 38.338 20.089 36.5723 19.3068 33.6661C18.4995 30.6496 21.0477 30.3553 21.9055 29.1414Z" fill="url(#paint2_linear_2_2020)"/>
<path fill-rule="evenodd" clip-rule="evenodd" d="M22.252 29.3626C22.58 28.8843 23.2612 25.9782 25.4057 26.015C29.6695 26.0885 30.9057 29.4361 31.158 32.048C31.3598 34.3288 29.0387 36.9774 26.7429 37.3453C24.1947 37.7499 20.5617 36.1313 19.8553 33.4827C19.1236 30.7604 21.4699 30.5029 22.252 29.3626Z" fill="#F07464"/>
<path fill-rule="evenodd" clip-rule="evenodd" d="M24.4083 29.6564C24.7111 29.0678 25.1652 28.4425 25.8716 28.4057C28.2432 28.2585 28.8235 30.2082 28.8487 31.79C28.8739 33.1512 27.4611 34.8433 26.1744 35.1376C24.7363 35.5055 22.5414 34.9169 22.2638 33.3351C22.1125 32.489 22.6171 31.79 22.9955 31.4222C22.5161 30.8336 21.9106 30.2082 21.2547 29.73C21.507 29.5461 21.7593 29.3253 21.9106 29.0678C22.0115 28.9207 22.1125 28.6264 22.2891 28.2585C22.9955 28.8103 23.6262 29.3253 24.4083 29.6564Z" fill="#FFB596"/>
<path fill-rule="evenodd" clip-rule="evenodd" d="M24.6077 29.3992C23.9517 26.9345 25.5916 25.7941 28.165 27.9646C29.9563 29.4728 30.0572 30.9075 29.6535 32.8572C29.4012 34.0712 27.837 32.8572 28.1902 31.9743C29.1994 29.3625 25.6925 26.9345 25.743 29.8039C25.743 30.2821 24.8347 30.1718 24.6077 29.3992Z" fill="#E52614"/>
<path fill-rule="evenodd" clip-rule="evenodd" d="M22.6853 31.9373C20.2129 32.4155 19.9101 34.402 22.9881 35.7999C25.1074 36.7564 26.4445 36.2413 27.9835 34.9906C28.9422 34.2181 27.2014 33.372 26.5454 34.0341C24.6532 36.0942 20.9445 33.9973 23.5431 32.7834C23.9973 32.5627 23.4927 31.7901 22.6853 31.9373Z" fill="#E52614"/>
<path fill-rule="evenodd" clip-rule="evenodd" d="M37.5015 38.4482C37.1231 37.8964 36.4167 34.7327 34.0451 34.7695C29.3777 34.8431 28.0153 38.5218 27.7378 41.3911C27.5107 43.8926 30.0589 46.7988 32.5566 47.2034C35.357 47.6449 39.318 45.8791 40.1001 42.973C40.9075 39.9932 38.3593 39.6622 37.5015 38.4482Z" fill="#C40202"/>
<path fill-rule="evenodd" clip-rule="evenodd" d="M37.507 37.5287C37.1285 36.9769 36.4221 33.8132 34.0506 33.85C29.3832 33.9236 28.0208 37.6022 27.7432 40.4716C27.5162 42.9731 30.0643 45.8792 32.562 46.2839C35.3625 46.7253 39.3235 44.9596 40.1056 42.0534C40.9129 39.0737 38.3648 38.7794 37.507 37.5287Z" fill="url(#paint3_linear_2_2020)"/>
<path fill-rule="evenodd" clip-rule="evenodd" d="M37.1494 37.7863C36.8214 37.3081 36.1402 34.402 33.9957 34.4388C29.732 34.5123 28.4705 37.8599 28.2434 40.4718C28.0416 42.7526 30.3627 45.4012 32.6586 45.7691C35.2067 46.1737 38.8397 44.5551 39.5462 41.9065C40.2778 39.1842 37.9315 38.9267 37.1494 37.7863Z" fill="#F07464"/>
<path fill-rule="evenodd" clip-rule="evenodd" d="M35.0046 38.0805C34.7019 37.4919 34.2477 36.8665 33.5413 36.8297C31.1698 36.6826 30.5895 38.6323 30.5643 40.2141C30.539 41.5752 31.9519 43.2674 33.2386 43.5617C34.6766 43.9296 36.8716 43.341 37.1491 41.7591C37.3005 40.9131 36.7959 40.2141 36.4175 39.8462C36.8968 39.2577 37.5023 38.6323 38.1583 38.154C37.906 37.9701 37.6537 37.7494 37.5023 37.4919C37.4014 37.3447 37.3005 37.0504 37.1239 36.6826C36.4175 37.2344 35.7867 37.7126 35.0046 38.0805Z" fill="#FFB596"/>
<path fill-rule="evenodd" clip-rule="evenodd" d="M34.7762 37.7864C35.4322 35.3217 33.7923 34.1813 31.2189 36.3517C29.4276 37.86 29.3267 39.2947 29.7304 41.2444C29.9827 42.4583 31.5469 41.2444 31.1937 40.3615C30.1845 37.7496 33.6914 35.3217 33.6409 38.1911C33.6662 38.7061 34.5744 38.5957 34.7762 37.7864Z" fill="#E52614"/>
<path fill-rule="evenodd" clip-rule="evenodd" d="M36.715 40.3612C39.1875 40.8395 39.4902 42.8259 36.4122 44.2238C34.293 45.1803 32.9558 44.6653 31.4168 43.4145C30.4581 42.642 32.1989 41.7959 32.8549 42.4581C34.7471 44.5181 38.4558 42.4213 35.8572 41.2073C35.4031 40.9866 35.9077 40.1773 36.715 40.3612Z" fill="#E52614"/>
<path fill-rule="evenodd" clip-rule="evenodd" d="M39.3135 43.2306C39.692 42.6788 40.3984 39.5151 42.7699 39.5519C47.4374 39.6255 48.7997 43.3042 49.0773 46.1735C49.3043 48.675 46.7562 51.5812 44.2585 51.9858C41.458 52.4273 37.497 50.6615 36.7149 47.7554C35.9076 44.7756 38.4557 44.4813 39.3135 43.2306Z" fill="#C40202"/>
<path fill-rule="evenodd" clip-rule="evenodd" d="M39.3134 42.3478C39.6918 41.796 40.3982 38.6324 42.7698 38.6692C47.4372 38.7427 48.7996 42.4214 49.0771 45.2908C49.3042 47.7923 46.756 50.6984 44.2583 51.1031C41.4579 51.5445 37.4969 49.7788 36.7147 46.8726C35.9074 43.8561 38.4556 43.5618 39.3134 42.3478Z" fill="url(#paint4_linear_2_2020)"/>
<path fill-rule="evenodd" clip-rule="evenodd" d="M39.6639 42.5687C39.9919 42.0905 40.673 39.1844 42.8175 39.2211C47.0813 39.2947 48.3428 42.6423 48.5698 45.2542C48.7716 47.5349 46.4506 50.1836 44.1547 50.5514C41.6065 50.9561 37.9735 49.3375 37.2671 46.6888C36.5607 43.9666 38.8818 43.7091 39.6639 42.5687Z" fill="#F07464"/>
<path fill-rule="evenodd" clip-rule="evenodd" d="M41.8147 42.8629C42.1175 42.2743 42.5716 41.6489 43.278 41.6121C45.6496 41.465 46.2298 43.4147 46.2551 44.9965C46.2803 46.3576 44.8675 48.0498 43.5808 48.3441C42.1427 48.712 39.9477 48.1234 39.6702 46.5416C39.5188 45.6955 40.0234 44.9965 40.4019 44.6287C39.9225 44.0401 39.317 43.4147 38.661 42.9365C38.9133 42.7525 39.1656 42.5318 39.317 42.2743C39.4179 42.1272 39.5188 41.8329 39.6954 41.465C40.4271 42.0168 41.0326 42.495 41.8147 42.8629Z" fill="#FFB596"/>
<path fill-rule="evenodd" clip-rule="evenodd" d="M42.0359 42.6056C41.3799 40.1409 43.0199 39.0005 45.5932 41.1709C47.3845 42.6792 47.4854 44.1138 47.0818 46.0635C46.8295 47.2775 45.2653 46.0635 45.6185 45.1807C46.6276 42.5688 43.1208 40.1409 43.1712 43.0102C43.1712 43.4885 42.2377 43.3781 42.0359 42.6056Z" fill="#E52614"/>
<path fill-rule="evenodd" clip-rule="evenodd" d="M40.1176 45.1437C37.6451 45.6219 37.3423 47.6084 40.4203 49.0063C42.5396 49.9628 43.8767 49.4477 45.4157 48.197C46.3744 47.4245 44.6336 46.5784 43.9777 47.2405C42.0855 49.3006 38.3768 47.2038 40.9754 45.9898C41.4043 45.7691 40.9249 44.9966 40.1176 45.1437Z" fill="#E52614"/>
<path fill-rule="evenodd" clip-rule="evenodd" d="M7.99958 18.6208C18.1165 29.2889 29.5202 39.7732 42.3114 48.3445C52.2013 54.9661 52.933 45.3647 46.4743 40.4353C34.3894 31.1651 22.4055 22.2627 11.8344 10.9692C4.99729 3.61183 0.657845 10.8588 7.99958 18.6208Z" fill="#94230F"/>
<path fill-rule="evenodd" clip-rule="evenodd" d="M7.50177 15.0888C17.4169 26.787 29.8045 38.8898 42.9489 46.2839C48.0705 49.1901 49.7861 45.9161 45.9512 43.2674C33.5889 35.9837 16.9123 22.6301 9.4192 11.7045C5.07976 5.41394 3.1371 10.5641 7.50177 15.0888Z" fill="#C95838"/>
<path fill-rule="evenodd" clip-rule="evenodd" d="M9.92568 14.7728C20.0426 25.4409 28.9486 36.0723 42.0931 43.4664C47.2146 46.3725 45.0449 43.0985 43.3545 41.9214C29.983 33.8283 18.7307 24.4845 9.39586 12.5288C5.8133 7.93046 5.53578 10.2848 9.92568 14.7728Z" fill="#DB8061"/>
<path d="M44.8864 44.7023C44.3818 44.7023 43.4231 44.2977 42.0607 43.5252C30.7075 37.1243 22.5584 28.4058 13.9552 19.1356C12.6433 17.7009 11.2557 16.2662 9.89331 14.7948C7.69836 12.5508 6.51258 10.6379 6.63872 10.1229C6.66395 10.0493 6.68918 9.9757 6.81533 9.9757C7.11808 9.9757 7.97588 10.6379 9.43918 12.4772C14.0309 18.3631 19.0768 23.6236 24.8795 28.5898C30.3795 33.2985 36.4093 37.6393 43.3474 41.8698C44.2052 42.4951 45.4162 43.8195 45.3153 44.4081C45.2648 44.592 45.1387 44.7023 44.8864 44.7023ZM6.81533 10.0493C6.73964 10.0493 6.71441 10.1229 6.71441 10.1229C6.63872 10.4539 7.37037 12.0358 9.94376 14.7212C11.3061 16.1927 12.6685 17.6273 14.0057 19.062C22.6089 28.2955 30.7327 37.0139 42.0859 43.4148C43.4483 44.1873 44.407 44.592 44.8864 44.592C45.0377 44.592 45.1891 44.5552 45.2143 44.4081C45.29 43.9666 44.2809 42.6791 43.2969 41.9801C36.3589 37.7497 30.3038 33.4088 24.8291 28.7001C19.0263 23.6971 13.9552 18.4366 9.36349 12.5508C7.92542 10.7114 7.09285 10.0493 6.81533 10.0493Z" fill="#B96B0B"/>
<path d="M6.56001 16.119C6.43387 16.2294 6.28249 16.303 6.13112 16.3398C5.67699 15.6776 5.32378 15.0154 5.02103 14.3901C5.09671 14.0222 5.24809 13.7279 5.47515 13.5072C6.58524 12.5507 8.65405 11.0057 10.5715 10.5642C10.8238 10.4907 11.1013 10.4539 11.3536 10.4539C11.505 10.601 11.6563 10.7482 11.8077 10.9321C12.7412 11.9254 13.6999 12.9186 14.6586 13.875C14.6082 13.9854 14.5577 14.0958 14.482 14.1693C14.3054 14.4268 14.0027 14.6108 13.5485 14.8683C12.716 15.3465 11.0508 16.2294 10.7229 16.9651C10.7229 17.0019 10.6976 17.0019 10.6976 17.0387C12.1357 16.1558 13.8765 14.9786 15.466 15.0154C15.5921 15.0154 15.693 15.0154 15.8192 15.0154C16.677 15.8615 17.56 16.7076 18.443 17.5537V17.6273C18.4178 19.6138 16.8031 20.3863 16.6265 22.851C16.904 22.7406 17.232 22.5935 17.6105 22.4096C18.9728 21.3795 20.6127 20.7909 22.3536 21.122C23.1861 21.8578 24.0187 22.5935 24.8765 23.3292C24.8513 23.4764 24.826 23.6235 24.8008 23.8074C24.7251 24.065 24.5737 24.4328 24.3214 24.9478C23.6907 26.2722 21.9247 29.583 22.8582 28.8104C24.1701 27.7804 26.0875 26.3089 28.4338 26.3457C29.0646 26.8607 29.7205 27.4125 30.3513 27.9276C30.3513 28.0011 30.3513 28.1115 30.3513 28.1851C30.326 28.3322 30.3008 28.4794 30.2756 28.5897C29.7205 30.5762 29.7205 33.0409 29.9728 34.8435C30.0485 35.3585 30.1494 35.7999 30.2503 36.131C30.5279 35.8735 30.8054 35.5424 31.1334 35.2113C32.5462 33.7031 34.2366 31.9373 35.498 32.1948C36.6334 32.4523 37.2893 33.7399 36.9866 36.7931C36.6081 40.5086 36.6334 41.7226 36.8352 41.7593C37.1632 41.8329 38.021 41.0972 38.9292 40.2879C39.9132 39.4418 40.9223 38.5589 41.9567 38.191C42.4613 38.0071 42.9155 37.9335 43.2939 37.9703L45.0599 39.3314C45.287 39.8097 45.4384 40.3982 45.5393 41.0604C45.7159 42.0904 45.7159 43.3044 45.7159 44.5551C45.7159 45.8795 45.7159 47.3141 45.943 48.2706C46.0943 48.9695 45.9177 49.7053 45.4888 50.0731C45.0347 49.8892 44.5301 49.6685 44.0003 49.3742C44.0003 49.3374 43.9751 49.3006 43.9751 49.2638C43.6219 47.7924 43.6219 46.137 43.6219 44.5551C43.6219 43.4883 43.6219 42.4583 43.4957 41.7226C43.42 41.1708 43.1425 40.8765 42.4109 41.134C41.7044 41.3915 40.8214 42.164 39.9636 42.8629C38.9797 43.709 38.0462 44.5183 37.1632 44.7023C36.4567 44.1873 35.7756 43.6723 35.0944 43.1572C34.6655 41.8697 34.5646 39.7361 34.9178 36.2781C34.9935 35.432 35.2962 35.1377 35.1953 35.1377C34.7664 35.0274 33.4292 36.4253 32.3191 37.6025C31.7893 38.1543 31.2847 38.7061 30.8811 39.0371C30.6792 39.2211 30.4522 39.3314 30.2251 39.3682C29.6953 38.9268 29.1402 38.4853 28.6104 38.0439C28.56 37.9703 28.5347 37.86 28.4843 37.7864C28.232 37.161 28.0554 36.3517 27.904 35.432C27.6517 33.7031 27.6013 31.4591 27.904 29.3622C26.2389 29.5094 24.8008 30.6498 23.7916 31.4223C23.1357 31.9373 22.5806 32.342 22.1013 32.4523C21.5967 32.0109 21.0921 31.5326 20.6127 31.0912C20.0577 29.1783 21.2182 26.1986 22.1013 24.2121C20.7137 24.065 19.5279 24.2857 18.216 25.2789C17.4086 25.6468 16.7527 25.9779 16.1472 25.9779C15.0623 25.9779 14.4568 25.2789 14.4568 23.4028C14.4316 21.122 15.1884 20.0552 15.7939 18.7677C16.0715 18.1791 16.3238 17.6273 16.349 17.5537C16.349 17.2594 12.7917 18.3262 12.3123 18.5837C11.2274 19.1723 10.294 20.0552 9.53707 20.2024C9.03249 19.6873 8.5279 19.1723 8.04854 18.6205C7.79625 16.5973 9.86505 14.0222 10.849 13.1761C9.20909 13.4336 7.36735 15.0522 6.56001 16.119Z" fill="#AC3019"/>
<path d="M5.85612 16.312C5.37677 16.7535 4.72081 16.496 4.44328 15.797C4.14053 15.0981 4.31714 14.1416 4.79649 13.737C5.90658 12.7805 7.97539 11.2355 9.89281 10.794C11.3561 10.4629 12.769 10.7572 13.8034 12.2655C14.3079 13.0012 14.2827 13.7002 13.8034 14.4359C13.6268 14.6934 13.324 14.8773 12.8699 15.1349C12.0373 15.6131 10.3722 16.496 10.0442 17.2317C10.0442 17.2685 10.019 17.2685 10.019 17.3053C11.457 16.4224 13.1979 15.2452 14.7873 15.282C17.0579 15.3556 17.7896 16.312 17.7644 17.8939C17.7391 19.8803 16.1245 20.6529 15.9478 23.1176C16.2254 23.0072 16.5534 22.8601 16.9318 22.6761C18.7735 21.2782 21.0694 20.7264 23.5166 22.0875C23.5419 22.0875 23.5671 22.1243 23.5923 22.1243C24.1978 22.4922 24.3744 23.1544 24.1221 24.074C24.0465 24.3315 23.8951 24.6994 23.6428 25.2144C23.0121 26.5387 21.246 29.8495 22.1795 29.077C23.668 27.9366 25.9639 26.1341 28.8148 26.7594C29.3698 26.8698 29.7735 27.6423 29.6978 28.4884C29.6726 28.6356 29.6474 28.7827 29.6221 28.8931C29.0671 30.8796 29.0671 33.3443 29.3194 35.1468C29.3951 35.6618 29.496 36.1033 29.5969 36.4343C29.8744 36.1768 30.1519 35.8458 30.4799 35.5147C31.8928 34.0064 33.5831 32.2407 34.8446 32.4982C35.9799 32.7557 36.6359 34.0432 36.3331 37.0965C35.9547 40.812 35.9799 42.0259 36.1818 42.0627C36.5097 42.1363 37.3675 41.4005 38.2758 40.5912C39.2597 39.7451 40.2689 38.8623 41.3033 38.4944C43.5992 37.6851 44.5074 39.0462 44.8859 41.327C45.0625 42.357 45.0625 43.571 45.0625 44.8217C45.0625 46.146 45.0625 47.5807 45.2895 48.5372C45.4661 49.3097 45.1886 50.1926 44.6588 50.4501C44.129 50.7076 43.5235 50.3029 43.3469 49.5304C42.9937 48.0589 42.9937 46.4035 42.9937 44.8217C42.9937 43.7549 42.9937 42.7249 42.8675 41.9891C42.7918 41.4373 42.5143 41.143 41.7827 41.4005C41.0762 41.6581 40.1932 42.4306 39.3354 43.1295C38.0992 44.1963 36.9386 45.1896 35.9042 44.9689C34.4409 44.6378 33.6841 42.5409 34.2896 36.5815C34.3652 35.7354 34.668 35.4411 34.5671 35.4411C34.1382 35.3307 32.801 36.7286 31.6909 37.9058C31.1611 38.4576 30.6565 39.0094 30.2529 39.3405C29.9249 39.6348 29.5969 39.7084 29.2689 39.6348C28.6886 39.5244 28.2345 38.9358 27.8813 38.053C27.629 37.4276 27.4524 36.6183 27.301 35.6986C27.0487 33.9696 26.9983 31.7256 27.301 29.6288C25.6359 29.776 24.1978 30.9163 23.1887 31.6889C22.0786 32.535 21.3217 33.1235 20.5648 32.351C18.9501 30.6588 20.4134 26.8698 21.4983 24.4787C20.1107 24.3315 18.9249 24.5522 17.613 25.5455C16.8056 25.9134 16.1497 26.2444 15.5442 26.2444C14.4593 26.2444 13.8538 25.5455 13.8538 23.6694C13.8286 21.3886 14.5855 20.3218 15.191 19.0342C15.4937 18.4457 15.746 17.8939 15.746 17.8203C15.746 17.526 12.1887 18.5928 11.7093 18.8503C10.1703 19.6964 8.9341 21.0575 8.10153 20.2482C6.08319 18.2617 9.00979 14.5095 10.2208 13.4427C8.5052 13.5898 6.66346 15.2084 5.85612 16.312Z" fill="#B96B0B"/>
<path d="M4.5442 14.0218C4.61988 13.9115 4.69557 13.8011 4.79649 13.6907C5.90658 12.7343 7.97538 11.1892 9.89281 10.7478C11.3561 10.4167 12.769 10.711 13.8034 12.2193C14.1061 12.6607 14.207 13.1022 14.1566 13.5436C14.1061 13.6172 14.0809 13.6907 14.0304 13.7643C13.8538 14.0218 13.5511 14.2058 13.0969 14.4633C12.7942 14.6104 8.88364 17.259 10.0694 17.1855C10.0694 17.2223 10.0442 17.2223 10.0442 17.259C11.4823 16.3762 13.2231 15.199 14.8125 15.2358C17.0832 15.3094 17.8148 16.2658 17.7896 17.8476C17.7896 18.1419 17.7391 18.3994 17.6887 18.6202C17.3102 19.503 16.8561 19.9077 16.3263 21.1952C16.1244 21.6735 15.9226 22.4092 15.9731 23.0713C15.9983 23.6231 16.5786 22.8138 16.957 22.6299C18.7988 21.232 21.0946 20.6802 23.5419 22.0413C23.5671 22.0413 23.5923 22.0781 23.6176 22.0781C24.1978 22.446 24.3744 23.0346 24.1726 23.8807C24.0969 24.0646 23.996 24.2485 23.8951 24.506C23.4409 25.4993 22.3309 27.5961 22.1795 28.2951C21.902 28.9572 21.8263 29.3251 22.2047 29.0308C23.6932 27.8904 25.9891 26.0879 28.84 26.7132C29.3951 26.8236 29.7987 27.5961 29.723 28.4422C29.6978 28.5893 29.6726 28.7365 29.6474 28.8469C29.0923 30.8333 29.0923 33.298 29.3446 35.1006C29.4203 35.6156 29.5212 36.057 29.6221 36.3881C29.8997 36.1306 30.1772 35.7995 30.5052 35.4685C31.918 33.9602 33.6084 32.1944 34.8698 32.452C36.0051 32.7095 36.6611 33.997 36.3584 37.0503C35.9799 40.7657 36.0051 41.9797 36.207 42.0165C36.535 42.0901 37.3928 41.3543 38.301 40.545C39.285 39.6989 40.2941 38.816 41.3285 38.4482C43.6244 37.6389 44.5327 39 44.9111 41.2808C45.0877 42.3108 45.0877 43.5247 45.0877 44.7755C45.0877 46.0998 45.0877 47.5345 45.3148 48.491C45.3905 48.7852 45.3904 49.0428 45.34 49.337C45.2138 49.5578 45.0625 49.7049 44.8859 49.7785C44.3561 50.036 43.7505 49.6313 43.5739 48.8588C43.2207 47.3873 43.2207 45.7319 43.2207 44.1501C43.2207 43.0833 43.2207 42.0533 43.0946 41.3175C43.0189 40.7657 42.7414 40.4714 42.0097 40.729C41.3033 40.9865 40.4203 41.759 39.5625 42.4579C38.3262 43.5247 37.1657 44.518 36.1313 44.2973C34.668 43.9662 33.9111 41.8693 34.5166 35.9099C34.5923 35.0638 34.8951 34.7695 34.7941 34.7695C34.3652 34.6592 33.0281 36.057 31.918 37.2342C31.3882 37.786 30.8836 38.3378 30.4799 38.6689C30.1519 38.9632 29.824 39.0368 29.496 38.9632C28.9157 38.8528 28.4616 38.2642 28.1084 37.3814C27.8561 36.756 27.6795 35.9467 27.5281 35.027C27.0992 32.5991 27.9822 29.1044 27.5281 28.9572C25.863 29.1044 24.3997 29.9872 23.3905 30.7966C22.2804 31.6426 21.5487 32.4887 20.7919 31.7162C19.707 30.5758 20.0098 28.5158 20.6405 26.5661C20.9937 25.5728 21.3469 24.69 21.7001 23.8439C19.4799 22.5563 14.0556 28.5158 14.0556 23.0346C14.0556 22.1517 14.1566 21.4159 14.3332 20.8274C14.5855 20.1652 14.9134 19.6502 15.191 19.0248C15.2667 18.8409 15.9478 17.4798 15.9478 17.1855C15.9478 16.8912 14.4593 17.1119 11.7598 18.0684C10.2208 18.9144 9.13593 20.4227 8.30336 19.6502C7.54648 18.9144 7.4708 17.9212 7.74832 16.928C8.35382 15.4565 9.5396 14.0586 10.1956 13.47C10.9777 13.1022 10.8768 12.8814 10.4226 12.8446C8.78272 12.9918 6.94098 14.6104 6.13364 15.714C5.65428 16.1554 4.99832 15.8979 4.7208 15.199C4.51897 14.7943 4.46851 14.3897 4.5442 14.0218Z" fill="#FFCB05"/>
<path fill-rule="evenodd" clip-rule="evenodd" d="M5.20221 13.9122C5.05084 14.1329 5.12653 14.6111 5.40405 14.6111C5.68157 14.6111 5.60588 14.1697 6.1357 13.9857C6.66551 13.765 8.28019 12.5143 8.73432 12.22C9.18845 11.9257 10.2733 11.705 9.44074 11.705C8.60817 11.705 7.19533 12.735 6.61506 13.1028C6.06001 13.4707 5.78249 13.4707 5.58065 13.6179C5.40405 13.765 5.20221 13.9122 5.20221 13.9122Z" fill="#F8E5A8"/>
<path fill-rule="evenodd" clip-rule="evenodd" d="M10.4468 13.9116C10.0936 14.4634 9.71512 15.1255 9.31146 15.567C8.8321 16.0452 7.89862 17.3327 8.17614 18.3628C8.45366 19.4296 9.48806 18.7306 9.96742 18.3628C10.5729 17.8845 10.0936 17.7374 9.63944 17.8477C8.50412 18.1788 9.4376 16.4498 9.6899 15.9348C9.89173 15.4934 10.1188 15.1255 10.3206 14.7209C10.3459 14.6473 10.6234 13.9483 10.4468 13.9116Z" fill="#F8E5A8"/>
<path fill-rule="evenodd" clip-rule="evenodd" d="M15.3942 19.6136C15.3438 20.239 14.8392 21.3426 14.6626 22.0047C14.4103 22.8876 14.486 24.5798 15.3438 24.6166C15.6213 24.6166 15.924 24.7269 16.1511 24.543C16.5548 24.2487 15.596 23.9912 15.4951 23.9912C14.9653 23.8808 15.1167 21.9679 15.2428 21.4529C15.3438 21.0483 15.5456 20.57 15.5456 20.1286C15.5456 19.6136 15.4194 19.6872 15.3942 19.6136Z" fill="#F8E5A8"/>
<path fill-rule="evenodd" clip-rule="evenodd" d="M16.6582 23.5503C16.3807 24.286 17.0367 23.8814 17.3142 23.5871C17.7179 23.1824 18.0711 22.9985 18.5 22.7042C18.8027 22.4835 18.727 22.2627 18.3991 22.2995C17.7431 22.3731 16.8853 22.9249 16.6582 23.5503Z" fill="#F8E5A8"/>
<path fill-rule="evenodd" clip-rule="evenodd" d="M21.376 25.7572C20.9219 26.7504 20.5434 28.4794 20.5434 29.6933C20.5434 30.7234 21.1237 31.0544 21.7544 30.613C21.9311 30.5026 23.0664 29.6198 22.5113 29.583C21.7544 29.5094 20.8462 30.2451 21.0228 28.369C21.0733 27.7436 21.3508 27.2286 21.4265 26.6032C21.4517 26.3825 21.5274 26.1986 21.5274 25.9411C21.5526 25.7939 21.3508 25.6836 21.376 25.7572Z" fill="#F8E5A8"/>
<path fill-rule="evenodd" clip-rule="evenodd" d="M27.8335 32.3789C27.7326 33.0043 27.9849 36.1679 28.4138 36.9037C29.1706 38.228 30.8106 36.5358 31.4665 35.7265C32.4252 34.5493 31.3404 35.0643 30.8862 35.5793C30.4069 36.1311 28.4138 37.4923 28.3381 35.5793C28.3381 35.1011 28.1362 32.2685 27.8335 32.3789Z" fill="#F8E5A8"/>
<path fill-rule="evenodd" clip-rule="evenodd" d="M35.3 41.1339C35.3 42.6789 36.5111 43.3411 37.3436 42.4214C37.5707 42.1639 39.1349 40.8028 39.1601 40.5453C39.1854 40.251 38.6808 40.5453 38.6051 40.5453C38.2519 40.7292 37.7978 41.3178 37.4193 41.5753C37.1166 41.7961 36.3849 42.3846 36.0317 42.0903C35.6785 41.8328 35.628 41.2075 35.3 41.1339Z" fill="#F8E5A8"/>
<path fill-rule="evenodd" clip-rule="evenodd" d="M13.4341 14.2794C13.7116 14.1323 13.9134 13.9851 14.0396 13.7644C14.09 13.6909 14.1405 13.6173 14.1657 13.5437C14.2162 13.1023 14.1153 12.6608 13.8125 12.2194C13.6864 12.0354 13.5602 11.8515 13.4089 11.7044V14.2794H13.4341ZM13.4341 15.8613V15.4198C13.8882 15.2727 14.3423 15.1991 14.7965 15.1991C17.0671 15.2727 17.7988 16.2291 17.7735 17.811C17.7735 18.1053 17.7231 18.3628 17.6726 18.5835C17.3194 19.3928 16.9157 19.7974 16.4364 20.8643C16.4364 20.8643 16.4364 19.7239 16.3859 19.5031C16.2345 18.9881 16.0832 18.6203 15.7047 18.4731C15.5786 18.4363 15.4777 18.4731 15.3515 18.5467C15.5786 18.0685 15.9066 17.3327 15.9066 17.112C15.9066 16.9281 15.2001 16.9649 13.9134 17.2959C13.9134 17.1856 13.9134 17.112 13.9134 17.0752C13.9134 16.5602 13.8378 16.5602 13.6864 16.1923C13.6359 16.0452 13.535 15.9348 13.4341 15.8613ZM18.6818 21.6C18.7575 21.6 18.8332 21.6368 18.9088 21.6736C19.3125 21.8575 19.5648 22.5564 19.7162 23.0715C19.7919 23.329 19.8423 23.5497 19.8423 23.8072C20.5487 23.5865 21.1795 23.5129 21.6588 23.8072C21.3813 24.3958 21.1543 25.0212 20.902 25.6833C21.2299 25.1683 21.7345 25.0579 22.1887 25.3522C22.3653 25.4626 22.5923 25.6833 22.7185 25.904C22.7437 25.9408 22.8698 26.2351 22.8951 26.4558C23.2483 25.7201 23.6267 24.9844 23.8538 24.5061C23.9547 24.2486 24.0556 24.0647 24.1313 23.8808C24.3331 23.0347 24.1565 22.4093 23.5763 22.0782C23.551 22.0782 23.5258 22.0414 23.5006 22.0414C21.785 21.0482 20.1451 21.0482 18.6818 21.6ZM25.0396 27.1548C25.1153 27.1916 25.2162 27.2284 25.3423 27.3019C25.9983 27.6698 26.2001 28.4055 26.0992 29.2884C26.5533 29.1413 27.0075 29.0309 27.4868 28.9941C27.6382 29.0309 27.6382 29.4723 27.5877 30.1345C28.0419 29.9874 28.5212 30.1713 28.8996 30.6495C29.0006 30.7967 29.1267 30.9438 29.2024 31.1645C29.2781 30.3552 29.4042 29.5827 29.6061 28.847C29.6565 28.7366 29.6818 28.5895 29.6818 28.4423C29.7574 27.633 29.379 26.8605 28.7987 26.7133C27.4111 26.3455 26.1497 26.6398 25.0396 27.1548ZM32.0533 33.7764C32.2299 33.6292 32.4065 33.6292 32.6588 33.6292C33.0373 33.6292 33.3652 34.0707 33.5418 34.4018C33.5923 34.5121 33.6428 34.8432 33.6428 34.9903C33.6428 35.1007 33.668 35.3214 33.6428 35.4318C34.1221 34.9903 34.5258 34.7328 34.7276 34.7696C34.8285 34.8064 34.5762 35.0271 34.4753 35.7629C34.5006 35.7997 34.5006 35.7997 34.4753 35.7629C34.7528 35.6157 34.8285 35.4686 35.1565 35.4686C35.5854 35.4686 35.9386 35.6893 36.2414 36.0572C36.2666 36.0939 36.3171 36.1675 36.3423 36.2779C36.4937 33.7396 35.8629 32.636 34.8033 32.4153C33.996 32.2313 33.012 32.8935 32.0533 33.7764ZM40.1015 39.0001C41.1106 38.4115 42.5739 39.368 43.356 40.1405C43.8102 40.5819 44.012 41.1337 44.2895 41.7591C44.4409 42.0902 44.5923 42.4948 44.7689 42.7891C44.8446 42.8995 44.9203 43.0098 44.9959 43.1202C44.9707 42.458 44.9455 41.8327 44.8446 41.2809C44.4661 39.0001 43.5579 37.639 41.262 38.4483C40.8836 38.5219 40.4799 38.7426 40.1015 39.0001ZM8.89281 11.079C9.1451 11.1158 9.3217 11.1894 9.54877 11.5204C9.87675 11.9987 9.82629 12.3665 9.80106 12.9183C10.0029 12.8815 10.1795 12.8448 10.3813 12.808C10.7598 12.8448 10.9112 12.9919 10.5327 13.2494C10.6084 13.2494 10.6841 13.2862 10.7598 13.323C11.0373 13.4701 11.3148 13.9484 11.4662 14.3162C11.5167 14.3898 11.7437 15.1623 11.7185 15.4198C12.3745 14.9416 12.98 14.5369 13.1061 14.4634C13.2322 14.3898 13.3332 14.353 13.4341 14.2794V11.7412C12.4501 10.6743 11.2139 10.4904 9.92721 10.7847C9.574 10.8583 9.24602 10.9686 8.89281 11.079ZM13.4341 15.4198V15.8613C13.207 15.7141 12.9295 15.6773 12.6772 15.7141C12.9043 15.6038 13.1818 15.4934 13.4341 15.4198Z" fill="#B96B0B"/>
<path fill-rule="evenodd" clip-rule="evenodd" d="M8.63031 10.5274C18.2679 21.4163 28.6876 30.5394 41.2518 38.5221C46.4995 41.8329 50.1577 44.739 52.8321 43.3411C55.4307 42.0168 52.5545 33.9237 49.7036 30.6497C40.7472 20.3127 33.3046 11.1896 20.8161 2.76541C11.784 -3.34118 0.481241 1.29394 8.63031 10.5274Z" fill="#E47B06"/>
<path fill-rule="evenodd" clip-rule="evenodd" d="M51.2709 32.8574C50.7915 32.0114 50.2617 31.2388 49.7319 30.6502C40.7503 20.3132 33.3076 11.1901 20.8191 2.76593C13.654 -2.08991 5.0256 -0.140219 5.90862 5.48815C6.21137 5.8928 6.53935 6.33424 6.91779 6.73889C16.5302 17.6278 26.9751 26.7509 39.5393 34.7336C44.787 38.0444 48.4452 40.9505 51.1195 39.5526C52.6333 38.8169 52.3305 35.874 51.2709 32.8574Z" fill="#FC9E14"/>
<path fill-rule="evenodd" clip-rule="evenodd" d="M19.9131 3.2437C15.7503 0.447911 3.99344 0.300764 9.29159 6.29699C13.6563 11.2632 41.2824 32.7834 45.5461 30.9073C49.4062 28.7737 23.9246 5.96591 19.9131 3.2437Z" fill="#FEBD30"/>
<path d="M16.5069 12.6615C16.8831 12.6615 17.188 12.4144 17.188 12.1097C17.188 11.8049 16.8831 11.5579 16.5069 11.5579C16.1306 11.5579 15.8257 11.8049 15.8257 12.1097C15.8257 12.4144 16.1306 12.6615 16.5069 12.6615Z" fill="#E47B06"/>
<path d="M16.662 12.3668C17.0383 12.3668 17.3432 12.1197 17.3432 11.815C17.3432 11.5102 17.0383 11.2632 16.662 11.2632C16.2858 11.2632 15.9809 11.5102 15.9809 11.815C15.9809 12.1197 16.2858 12.3668 16.662 12.3668Z" fill="#F8DAB0"/>
<path d="M21.1113 9.60487C21.1906 9.32285 20.9726 8.92565 20.6244 8.71769C20.2763 8.50974 19.9298 8.56977 19.8506 8.85179C19.7713 9.13381 19.9893 9.53101 20.3375 9.73896C20.6856 9.94692 21.0321 9.88688 21.1113 9.60487Z" fill="#E47B06"/>
<path d="M21.3142 9.39073C21.3934 9.10871 21.1754 8.71155 20.8273 8.50365C20.4791 8.29575 20.1327 8.35583 20.0535 8.63785C19.9743 8.91987 20.1923 9.31702 20.5404 9.52493C20.8886 9.73283 21.235 9.67274 21.3142 9.39073Z" fill="#F8DAB0"/>
<path fill-rule="evenodd" clip-rule="evenodd" d="M13.1578 6.92262C13.511 7.14334 13.7128 7.47442 13.6119 7.73193C13.511 7.98943 13.183 8.02622 12.8298 7.8055C12.4766 7.58478 12.2748 7.2537 12.3757 6.99619C12.4766 6.73869 12.8298 6.7019 13.1578 6.92262Z" fill="#E47B06"/>
<path fill-rule="evenodd" clip-rule="evenodd" d="M13.3856 6.77527C13.7388 6.99599 13.9407 7.32707 13.8397 7.58458C13.7388 7.84208 13.4108 7.87887 13.0576 7.65815C12.7044 7.43743 12.5026 7.10635 12.6035 6.84884C12.7044 6.59134 13.0324 6.55455 13.3856 6.77527Z" fill="#F8DAB0"/>
<path d="M17.132 1.42335C17.0979 1.12268 16.7693 0.951607 16.3981 1.04124C16.0269 1.13087 15.7537 1.44727 15.7879 1.74794C15.822 2.04861 16.1506 2.21968 16.5218 2.13005C16.893 2.04042 17.1662 1.72402 17.132 1.42335Z" fill="#E47B06"/>
<path d="M17.2633 1.07801C17.2292 0.777338 16.9006 0.606261 16.5294 0.695895C16.1583 0.785528 15.885 1.10193 15.9192 1.4026C15.9533 1.70326 16.2819 1.87434 16.6531 1.78471C17.0243 1.69507 17.2975 1.37867 17.2633 1.07801Z" fill="#F8DAB0"/>
<path fill-rule="evenodd" clip-rule="evenodd" d="M19.9674 5.67199C20.2953 5.45127 20.6233 5.48806 20.699 5.78235C20.7495 6.03986 20.5224 6.44451 20.1944 6.66523C19.8664 6.88595 19.5385 6.84916 19.4628 6.55487C19.4123 6.26058 19.6394 5.85592 19.9674 5.67199Z" fill="#E47B06"/>
<path fill-rule="evenodd" clip-rule="evenodd" d="M20.039 5.30364C20.367 5.08292 20.6949 5.11971 20.7706 5.414C20.8211 5.67151 20.594 6.07616 20.266 6.29688C19.9381 6.5176 19.6101 6.48082 19.5344 6.18652C19.4839 5.92902 19.711 5.52436 20.039 5.30364Z" fill="#F8DAB0"/>
<path fill-rule="evenodd" clip-rule="evenodd" d="M10.4338 1.91948C10.787 1.73555 11.1402 1.80912 11.1907 2.02984C11.2664 2.25056 11.0141 2.61843 10.6609 2.76557C10.3076 2.94951 9.95443 2.87593 9.90397 2.65521C9.82829 2.39771 10.0806 2.06663 10.4338 1.91948Z" fill="#E47B06"/>
<path fill-rule="evenodd" clip-rule="evenodd" d="M10.5178 1.62471C10.8711 1.44078 11.2243 1.51435 11.2747 1.73507C11.3504 1.95579 11.0981 2.32366 10.7449 2.47081C10.3917 2.65474 10.0385 2.58117 9.98803 2.36045C9.93757 2.10294 10.1646 1.77186 10.5178 1.62471Z" fill="#F8DAB0"/>
<path d="M14.7341 4.37686C14.641 4.10408 14.2924 4.08123 13.9557 4.32583C13.6189 4.57043 13.4215 4.98985 13.5147 5.26264C13.6079 5.53542 13.9564 5.55827 14.2932 5.31367C14.6299 5.06907 14.8273 4.64965 14.7341 4.37686Z" fill="#E47B06"/>
<path d="M14.7706 4.0135C14.6773 3.74078 14.3288 3.71812 13.9921 3.96288C13.6554 4.20765 13.4581 4.62715 13.5514 4.89987C13.6446 5.17259 13.9932 5.19526 14.3298 4.95049C14.6665 4.70573 14.8638 4.28623 14.7706 4.0135Z" fill="#F8DAB0"/>
<path fill-rule="evenodd" clip-rule="evenodd" d="M17.7411 6.88537C18.17 6.84858 18.5484 6.99573 18.5484 7.29002C18.5484 7.54753 18.1952 7.80504 17.7663 7.87861C17.3374 7.9154 16.959 7.76825 16.959 7.47396C16.959 7.17966 17.3122 6.92216 17.7411 6.88537Z" fill="#E47B06"/>
<path fill-rule="evenodd" clip-rule="evenodd" d="M17.9122 6.62753C18.3411 6.59075 18.7195 6.73789 18.7195 7.03219C18.7195 7.28969 18.3663 7.5472 17.9374 7.62077C17.5085 7.65756 17.1301 7.51041 17.1301 7.21612C17.1301 6.92183 17.4581 6.66432 17.9122 6.62753Z" fill="#F8DAB0"/>
<path d="M29.7672 13.0483C29.8465 12.7663 29.6284 12.3691 29.2803 12.1612C28.9322 11.9533 28.5857 12.0134 28.5065 12.2954C28.4273 12.5774 28.6453 12.9746 28.9934 13.1825C29.3416 13.3904 29.688 13.3303 29.7672 13.0483Z" fill="#E47B06"/>
<path d="M29.9901 12.8443C30.0693 12.5623 29.8513 12.1651 29.5032 11.9571C29.1551 11.7492 28.8086 11.8092 28.7294 12.0912C28.6501 12.3733 28.8681 12.7705 29.2163 12.9784C29.5644 13.1864 29.9109 13.1263 29.9901 12.8443Z" fill="#F8DAB0"/>
<path fill-rule="evenodd" clip-rule="evenodd" d="M28.646 9.09385C28.974 8.87313 29.302 8.90991 29.3777 9.20421C29.4281 9.46171 29.2011 9.86637 28.8731 10.0871C28.5451 10.3078 28.2171 10.271 28.1414 9.97673C28.0657 9.68243 28.2928 9.31457 28.646 9.09385Z" fill="#E47B06"/>
<path fill-rule="evenodd" clip-rule="evenodd" d="M28.7186 8.76215C29.0466 8.54143 29.3746 8.57821 29.4503 8.87251C29.5007 9.13002 29.2737 9.53467 28.9457 9.75539C28.6177 9.97611 28.2897 9.93933 28.214 9.64503C28.1383 9.35074 28.3654 8.98287 28.7186 8.76215Z" fill="#F8DAB0"/>
<path d="M24.12 8.48259C24.1613 8.18388 23.8959 7.85376 23.5271 7.74525C23.1584 7.63675 22.8259 7.79095 22.7846 8.08967C22.7432 8.38838 23.0086 8.7185 23.3774 8.82701C23.7462 8.93551 24.0786 8.78131 24.12 8.48259Z" fill="#E47B06"/>
<path d="M24.2992 8.21273C24.3405 7.91399 24.075 7.58385 23.7062 7.47534C23.3374 7.36684 23.005 7.52106 22.9636 7.81981C22.9223 8.11855 23.1877 8.4487 23.5565 8.5572C23.9253 8.6657 24.2578 8.51148 24.2992 8.21273Z" fill="#F8DAB0"/>
<path fill-rule="evenodd" clip-rule="evenodd" d="M26.4236 10.307C26.8525 10.2702 27.231 10.4174 27.231 10.7117C27.231 10.9692 26.8778 11.2267 26.4489 11.3003C26.02 11.3371 25.6415 11.1899 25.6415 10.8956C25.6163 10.6013 25.9695 10.3806 26.4236 10.307Z" fill="#E47B06"/>
<path fill-rule="evenodd" clip-rule="evenodd" d="M26.5785 10.0492C27.0074 10.0124 27.3859 10.1596 27.3859 10.4538C27.3859 10.7114 27.0327 10.9689 26.6038 11.0424C26.1749 11.0792 25.7964 10.9321 25.7964 10.6378C25.7964 10.3435 26.1496 10.086 26.5785 10.0492Z" fill="#F8DAB0"/>
<path d="M25.6889 19.9449C26.0651 19.9449 26.3701 19.6979 26.3701 19.3931C26.3701 19.0884 26.0651 18.8413 25.6889 18.8413C25.3127 18.8413 25.0077 19.0884 25.0077 19.3931C25.0077 19.6979 25.3127 19.9449 25.6889 19.9449Z" fill="#E47B06"/>
<path d="M25.8441 19.6502C26.2203 19.6502 26.5253 19.4031 26.5253 19.0984C26.5253 18.7936 26.2203 18.5466 25.8441 18.5466C25.4679 18.5466 25.1629 18.7936 25.1629 19.0984C25.1629 19.4031 25.4679 19.6502 25.8441 19.6502Z" fill="#F8DAB0"/>
<path fill-rule="evenodd" clip-rule="evenodd" d="M22.3398 14.2429C22.693 14.4636 22.8949 14.7947 22.794 15.0522C22.693 15.3097 22.3651 15.3465 22.0119 15.1257C21.6586 14.905 21.4568 14.5739 21.5577 14.3164C21.6586 14.0589 22.0119 14.0221 22.3398 14.2429Z" fill="#E47B06"/>
<path fill-rule="evenodd" clip-rule="evenodd" d="M22.5676 14.0958C22.9208 14.3165 23.1227 14.6476 23.0218 14.9051C22.9208 15.1626 22.5929 15.1994 22.2397 14.9787C21.8864 14.7579 21.6846 14.4269 21.7855 14.1694C21.8612 13.9119 22.2144 13.8751 22.5676 14.0958Z" fill="#F8DAB0"/>
<path d="M21.4831 10.9811C21.3899 10.7083 21.0414 10.6855 20.7047 10.9302C20.368 11.1749 20.1706 11.5943 20.2638 11.867C20.357 12.1398 20.7055 12.1626 21.0422 11.9179C21.3789 11.6733 21.5763 11.2538 21.4831 10.9811Z" fill="#E47B06"/>
<path d="M21.5187 10.615C21.4254 10.3423 21.0769 10.3196 20.7402 10.5645C20.4035 10.8093 20.2062 11.2288 20.2995 11.5015C20.3928 11.7743 20.7413 11.7969 21.078 11.5521C21.4147 11.3073 21.612 10.8877 21.5187 10.615Z" fill="#F8DAB0"/>
<path fill-rule="evenodd" clip-rule="evenodd" d="M26.9343 14.2065C27.3632 14.1698 27.7416 14.3169 27.7416 14.6112C27.7416 14.8687 27.3884 15.1262 26.9595 15.1998C26.5306 15.2366 26.1522 15.0894 26.1522 14.7951C26.1522 14.5008 26.5054 14.2433 26.9343 14.2065Z" fill="#E47B06"/>
<path fill-rule="evenodd" clip-rule="evenodd" d="M27.1057 13.9118C27.5346 13.875 27.913 14.0221 27.913 14.3164C27.913 14.5739 27.5598 14.8314 27.1309 14.905C26.702 14.9418 26.3236 14.7947 26.3236 14.5004C26.2983 14.2429 26.6515 13.9854 27.1057 13.9118Z" fill="#F8DAB0"/>
<path fill-rule="evenodd" clip-rule="evenodd" d="M32.3248 22.3365C32.678 22.5572 32.8798 22.8883 32.7789 23.1458C32.678 23.4033 32.35 23.4401 31.9968 23.2194C31.6436 22.9987 31.4417 22.6676 31.5426 22.4101C31.6183 22.1894 31.9715 22.1526 32.3248 22.3365Z" fill="#E47B06"/>
<path fill-rule="evenodd" clip-rule="evenodd" d="M32.5277 22.1889C32.8809 22.4097 33.0827 22.7407 32.9818 22.9982C32.8809 23.2557 32.5529 23.2925 32.1997 23.0718C31.8465 22.8511 31.6447 22.52 31.7456 22.2625C31.8465 22.005 32.1997 21.9682 32.5277 22.1889Z" fill="#F8DAB0"/>
<path d="M34.156 15.8882C34.1218 15.5876 33.7932 15.4165 33.4221 15.5061C33.0509 15.5958 32.7777 15.9122 32.8118 16.2128C32.846 16.5135 33.1746 16.6846 33.5457 16.5949C33.9169 16.5053 34.1901 16.1889 34.156 15.8882Z" fill="#E47B06"/>
<path d="M34.2661 15.5869C34.2319 15.2863 33.9033 15.1154 33.5322 15.2052C33.1611 15.295 32.8879 15.6115 32.9221 15.9121C32.9564 16.2128 33.285 16.3837 33.6561 16.2939C34.0272 16.2041 34.3004 15.8876 34.2661 15.5869Z" fill="#F8DAB0"/>
<path fill-rule="evenodd" clip-rule="evenodd" d="M29.576 17.3335C29.9292 17.1496 30.2824 17.2232 30.3329 17.4439C30.4086 17.6646 30.1563 18.0325 29.803 18.1796C29.4498 18.3636 29.0966 18.29 29.0462 18.0693C28.9957 17.8485 29.2228 17.4807 29.576 17.3335Z" fill="#E47B06"/>
<path fill-rule="evenodd" clip-rule="evenodd" d="M29.679 17.0388C30.0322 16.8548 30.3854 16.9284 30.4359 17.1491C30.5116 17.3698 30.2593 17.7377 29.9061 17.8849C29.5528 18.0688 29.1996 17.9952 29.1492 17.7745C29.0735 17.5538 29.3006 17.1859 29.679 17.0388Z" fill="#F8DAB0"/>
<path d="M33.8839 19.7822C33.7907 19.5094 33.4422 19.4865 33.1054 19.731C32.7687 19.9756 32.5712 20.395 32.6644 20.6677C32.7576 20.9405 33.1061 20.9634 33.4428 20.7189C33.7796 20.4743 33.977 20.0549 33.8839 19.7822Z" fill="#E47B06"/>
<path d="M33.9324 19.4483C33.8391 19.1755 33.4906 19.1528 33.1539 19.3975C32.8172 19.6422 32.6198 20.0617 32.713 20.3344C32.8063 20.6072 33.1548 20.6299 33.4915 20.3852C33.8282 20.1405 34.0256 19.721 33.9324 19.4483Z" fill="#F8DAB0"/>
<path d="M40.4445 26.2007C40.5237 25.9187 40.3057 25.5215 39.9575 25.3136C39.6094 25.1057 39.2629 25.1658 39.1837 25.4478C39.1045 25.7298 39.3225 26.127 39.6707 26.3349C40.0188 26.5428 40.3653 26.4827 40.4445 26.2007Z" fill="#E47B06"/>
<path d="M40.6564 26.0298C40.7356 25.7478 40.5176 25.3506 40.1695 25.1426C39.8213 24.9347 39.4749 24.9947 39.3956 25.2767C39.3164 25.5588 39.5344 25.956 39.8826 26.1639C40.2307 26.3719 40.5772 26.3118 40.6564 26.0298Z" fill="#F8DAB0"/>
<path fill-rule="evenodd" clip-rule="evenodd" d="M39.3171 22.2632C39.6451 22.0424 39.9731 22.0792 40.0488 22.3735C40.0993 22.631 39.8722 23.0357 39.5442 23.2564C39.2162 23.4771 38.8882 23.4403 38.8126 23.146C38.7369 22.8885 38.9639 22.4839 39.3171 22.2632Z" fill="#E47B06"/>
<path fill-rule="evenodd" clip-rule="evenodd" d="M39.4011 21.9315C39.7291 21.7107 40.0571 21.7475 40.1328 22.0418C40.1832 22.2993 39.9562 22.704 39.6282 22.9247C39.3002 23.1454 38.9722 23.1086 38.8965 22.8143C38.8461 22.5568 39.0732 22.1522 39.4011 21.9315Z" fill="#F8DAB0"/>
<path fill-rule="evenodd" clip-rule="evenodd" d="M37.0958 23.5137C37.5247 23.4769 37.9032 23.624 37.9032 23.9183C37.9032 24.1758 37.55 24.4333 37.1211 24.5069C36.6922 24.5437 36.3137 24.3966 36.3137 24.1023C36.2885 23.808 36.6417 23.5505 37.0958 23.5137Z" fill="#E47B06"/>
<path fill-rule="evenodd" clip-rule="evenodd" d="M37.2507 23.2189C37.6796 23.1821 38.0581 23.3293 38.0581 23.6236C38.0581 23.8811 37.7049 24.1386 37.276 24.2122C36.8471 24.2489 36.4686 24.1018 36.4686 23.8075C36.4686 23.55 36.8218 23.2925 37.2507 23.2189Z" fill="#F8DAB0"/>
<path d="M43.4694 25.0818C43.5107 24.783 43.2453 24.4529 42.8765 24.3445C42.5077 24.236 42.1752 24.3903 42.1339 24.6891C42.0925 24.9878 42.358 25.3179 42.7268 25.4263C43.0956 25.5348 43.4281 25.3805 43.4694 25.0818Z" fill="#E47B06"/>
<path d="M43.6424 24.8578C43.6837 24.5591 43.4183 24.2289 43.0496 24.1204C42.6808 24.0119 42.3483 24.1661 42.307 24.4648C42.2657 24.7636 42.5311 25.0937 42.8998 25.2022C43.2686 25.3107 43.6011 25.1565 43.6424 24.8578Z" fill="#F8DAB0"/>
<defs>
<linearGradient id="paint0_linear_2_2020" x1="8.91099" y1="9.68109" x2="7.87211" y2="23.2768" gradientUnits="userSpaceOnUse">
<stop stop-color="#EB262B"/>
<stop offset="0.69" stop-color="#EB262B"/>
<stop offset="1" stop-color="white"/>
</linearGradient>
<linearGradient id="paint1_linear_2_2020" x1="16.4859" y1="17.0211" x2="17.8677" y2="30.5732" gradientUnits="userSpaceOnUse">
<stop stop-color="#EB262B"/>
<stop offset="0.69" stop-color="#EB262B"/>
<stop offset="1" stop-color="white"/>
</linearGradient>
<linearGradient id="paint2_linear_2_2020" x1="25.6698" y1="25.1805" x2="24.6308" y2="38.7762" gradientUnits="userSpaceOnUse">
<stop stop-color="#EB262B"/>
<stop offset="0.69" stop-color="#EB262B"/>
<stop offset="1" stop-color="white"/>
</linearGradient>
<linearGradient id="paint3_linear_2_2020" x1="33.623" y1="32.9737" x2="35.0047" y2="46.5256" gradientUnits="userSpaceOnUse">
<stop stop-color="#EB262B"/>
<stop offset="0.69" stop-color="#EB262B"/>
<stop offset="1" stop-color="white"/>
</linearGradient>
<linearGradient id="paint4_linear_2_2020" x1="43.0902" y1="38.3846" x2="42.0513" y2="51.9803" gradientUnits="userSpaceOnUse">
<stop stop-color="#EB262B"/>
<stop offset="0.69" stop-color="#EB262B"/>
<stop offset="1" stop-color="white"/>
</linearGradient>
</defs>
</svg>
