<svg width="65" height="61" viewBox="0 0 65 61" fill="none" xmlns="http://www.w3.org/2000/svg">
<path fill-rule="evenodd" clip-rule="evenodd" d="M1.46296 56.4493C2.14509 53.4362 11.1733 53.6903 10.7721 56.8123C10.7319 57.1753 10.0498 58.0465 8.88616 58.0465C7.92315 58.0828 7.72252 57.6109 6.96014 57.502C6.03726 57.3931 4.23161 57.865 3.26861 57.8287C2.42597 57.8287 1.22221 57.4294 1.46296 56.4493Z" fill="#A89986"/>
<path fill-rule="evenodd" clip-rule="evenodd" d="M64.4194 16.6263L53.8664 49.4067L32.4395 60.3699V0.254158L64.4194 16.6263Z" fill="#A2B3BC"/>
<path fill-rule="evenodd" clip-rule="evenodd" d="M0.5 16.6263L11.053 49.4067L32.4398 60.3699V0.254158L0.5 16.6263Z" fill="#D7DFE2"/>
<path fill-rule="evenodd" clip-rule="evenodd" d="M0.5 16.6262L11.053 49.4067L32.4398 60.3698V32.9983L0.5 16.6262Z" fill="#A82A30"/>
<path fill-rule="evenodd" clip-rule="evenodd" d="M10.2506 46.9019L11.0531 49.4067L32.4399 60.3699V58.3007L10.2506 46.9019Z" fill="#CAD5DD"/>
<path fill-rule="evenodd" clip-rule="evenodd" d="M9.72884 54.2349C9.08683 50.1691 1.54325 51.367 1.94451 55.6506C1.98463 56.1225 2.58652 57.2479 3.54952 57.1753C4.35203 57.1027 4.51253 56.4493 5.15454 56.2678C5.95705 56.0499 7.44169 56.5219 8.2442 56.3767C8.92633 56.2315 9.92946 55.578 9.72884 54.2349Z" fill="#E3BF52"/>
<path fill-rule="evenodd" clip-rule="evenodd" d="M7.24079 55.2513C6.79941 53.7992 4.59251 53.4362 3.50913 54.126C2.94737 54.489 2.50599 55.3239 2.66649 55.8321C3.06775 57.139 3.91038 55.8684 4.95364 55.7595C5.91665 55.6506 7.60192 56.3767 7.24079 55.2513Z" fill="#DE940C"/>
<path fill-rule="evenodd" clip-rule="evenodd" d="M64.4194 16.6262L53.8664 49.4067L32.4395 60.3698V32.9983L64.4194 16.6262Z" fill="#ED1C24"/>
<path d="M32.4397 32.7442L63.577 16.6262L32.4397 0.508225V0C32.4799 0 32.52 0 32.5601 0.0363018L64.219 16.4084C64.2592 16.4447 64.2993 16.4447 64.3394 16.481C64.4197 16.5899 64.3795 16.7351 64.2592 16.8077L32.6002 33.2161C32.5601 33.2524 32.52 33.2524 32.4397 33.2524V32.7442ZM1.34255 16.6262L32.4799 32.7442V33.2524C32.4397 33.2524 32.3996 33.2524 32.3595 33.2161L0.660418 16.844C0.620293 16.8077 0.580168 16.8077 0.540042 16.7351C0.459791 16.6262 0.499917 16.481 0.620293 16.4084L32.3194 0.0363018C32.3595 0 32.3996 0 32.4397 0V0.508225L1.34255 16.6262Z" fill="white"/>
<path fill-rule="evenodd" clip-rule="evenodd" d="M4.51255 18.2598C4.39217 17.9331 4.31192 17.6427 4.31192 17.316V17.207C4.35205 15.4646 6.19781 14.1577 8.12383 14.7748C8.28433 13.9762 8.76584 13.1413 9.40785 12.4152L13.5006 10.3097C14.5038 10.2371 15.547 10.5638 16.4298 11.3625C16.3094 9.54738 19.1182 6.31652 22.3282 7.9138C22.2881 6.78844 23.0104 5.66309 24.1339 4.79185L26.5815 3.55759C28.9489 2.79525 31.7978 2.94046 33.8843 4.93705C36.2116 4.35622 41.9495 4.46513 41.9495 8.24051C43.6348 8.38572 45.5608 8.71244 46.4436 10.1645C46.7646 10.6727 47.0856 13.0686 47.2862 13.1413C49.0116 13.3228 50.4962 13.6858 51.7803 14.8111C52.342 15.3194 52.984 16.2269 52.984 16.9529C54.4285 17.0981 55.5922 17.5338 56.3545 18.6954C56.5953 19.0947 56.8762 19.5304 57.0768 20.0023L32.4799 32.7079L4.51255 18.2598ZM32.4398 33.2524V37.2093V33.2524Z" fill="#DE940C"/>
<path fill-rule="evenodd" clip-rule="evenodd" d="M31.7578 3.5938C32.5202 3.88421 33.2424 4.31983 33.8844 4.93696C36.2117 4.35614 41.9496 4.46504 41.9496 8.24042C43.6349 8.38563 45.5609 8.71235 46.4437 10.1644C46.7647 10.6726 47.0857 13.0686 47.2863 13.1412C49.0117 13.3227 50.4964 13.6857 51.7804 14.811C52.3421 15.3193 52.9841 16.2268 52.9841 16.9528C54.4286 17.0981 55.5923 17.5337 56.3547 18.6953C56.5954 19.0946 56.8763 19.5303 57.0769 20.0022L32.4801 32.7078L17.8343 25.157C15.6675 23.2694 14.6644 21.6358 14.4638 20.2926V19.3851C14.7045 17.7878 16.3898 16.9891 18.5565 17.3159C19.1183 13.9761 21.9672 10.7089 26.4612 13.0686C24.8161 11.3261 22.2882 7.87741 27.6249 8.02261C27.6249 6.20753 29.7114 4.61025 31.7578 3.5938ZM32.4399 33.2523V35.0311V33.2523Z" fill="#EABB36"/>
<path fill-rule="evenodd" clip-rule="evenodd" d="M30.6742 11.5439C27.7852 14.7385 33.9243 18.9132 37.1344 15.7549C37.4955 15.3919 38.0171 14.2666 37.2949 13.6494C36.693 13.1412 36.051 13.5042 35.4892 13.2138C34.767 12.8508 34.125 11.5439 33.4428 11.072C32.841 10.709 31.6372 10.4912 30.6742 11.5439Z" fill="#DE940C"/>
<path fill-rule="evenodd" clip-rule="evenodd" d="M37.9771 4.79182C39.6223 5.04593 41.1871 5.69936 41.7489 7.07883C40.7859 9.18433 37.8969 10.6001 35.8505 8.74871C34.8072 7.80487 35.1282 6.71581 35.6097 6.24389C36.0912 5.73567 37.3752 5.30005 37.9771 4.79182Z" fill="#DE940C"/>
<path fill-rule="evenodd" clip-rule="evenodd" d="M32.1587 10.8542C29.2697 14.0488 35.4089 18.2235 38.6189 15.0652C38.98 14.7022 39.5017 13.5769 38.7794 12.9597C38.1775 12.4515 37.5355 12.8145 36.9738 12.5241C36.2515 12.1611 35.6095 10.8542 34.9274 10.3823C34.3255 10.0193 33.0816 9.80148 32.1587 10.8542Z" fill="#FFE9AA"/>
<path fill-rule="evenodd" clip-rule="evenodd" d="M34.6866 11.8344C33.8439 13.105 35.0076 14.8111 36.2916 15.0653C36.9336 15.2105 37.9367 14.9201 38.2577 14.4481C39.0201 13.2865 37.4552 13.6132 36.6527 12.9961C35.8903 12.4515 35.3286 10.818 34.6866 11.8344Z" fill="#E3BF52"/>
<path fill-rule="evenodd" clip-rule="evenodd" d="M34.2852 19.7481C34.5661 23.8502 42.2301 23.1605 42.19 18.8769C42.19 18.405 41.7084 17.2433 40.7053 17.2433C39.9028 17.2433 39.7022 17.8967 39.0602 18.0419C38.2577 18.2235 36.8131 17.6426 35.9705 17.7152C35.2081 17.8241 34.1649 18.405 34.2852 19.7481Z" fill="#DE940C"/>
<path fill-rule="evenodd" clip-rule="evenodd" d="M26.9424 22.7612C29.9518 19.6755 24.0533 15.2467 20.7229 18.2961C20.3618 18.6228 19.8001 19.7481 20.4822 20.4016C21.0439 20.9098 21.7261 20.5831 22.2878 20.9098C22.97 21.3091 23.5718 22.6523 24.2138 23.1242C24.7355 23.4872 25.9392 23.7776 26.9424 22.7612Z" fill="#DE940C"/>
<path fill-rule="evenodd" clip-rule="evenodd" d="M12.5375 15.755C12.8184 19.8571 20.4824 19.1674 20.4422 14.8838C20.4422 14.4119 19.9607 13.2502 18.9576 13.2502C18.1551 13.2502 17.9545 13.9036 17.3125 14.0489C16.51 14.2304 15.0654 13.6495 14.2228 13.7221C13.5006 13.831 12.4573 14.4119 12.5375 15.755Z" fill="#DE940C"/>
<path fill-rule="evenodd" clip-rule="evenodd" d="M13.9017 15.3556C14.7844 19.3851 22.2478 17.7879 21.6058 13.5769C21.5255 13.1049 20.8835 12.0159 19.9205 12.1248C19.118 12.2337 18.9976 12.8871 18.3957 13.1049C17.6333 13.359 16.1086 12.9597 15.3061 13.1412C14.5437 13.3227 13.5807 14.0125 13.9017 15.3556Z" fill="#FFF3AD"/>
<path fill-rule="evenodd" clip-rule="evenodd" d="M16.3092 14.194C16.8709 15.6098 19.0377 15.8639 20.081 15.1378C20.6026 14.7748 21.0038 13.9036 20.8032 13.3953C20.3217 12.1248 19.5593 13.4317 18.5161 13.5769C17.6333 13.7584 15.9079 13.1049 16.3092 14.194Z" fill="#E7B831"/>
<path fill-rule="evenodd" clip-rule="evenodd" d="M35.7703 19.0221C36.6531 23.0516 44.1164 21.4543 43.4744 17.2433C43.3941 16.7714 42.7521 15.6824 41.7891 15.7913C40.9866 15.9002 40.8662 16.5536 40.2643 16.7714C39.502 17.0255 37.9772 16.6262 37.1747 16.8077C36.4524 16.9892 35.4894 17.7153 35.7703 19.0221Z" fill="#FFFED9"/>
<path fill-rule="evenodd" clip-rule="evenodd" d="M38.2178 17.8967C38.7796 19.3125 40.9464 19.5666 41.9896 18.8406C42.5113 18.4775 42.9125 17.6063 42.7119 17.0981C42.2304 15.8275 41.468 17.1344 40.4247 17.2796C39.5018 17.4248 37.7765 16.8077 38.2178 17.8967Z" fill="#E7B831"/>
<path fill-rule="evenodd" clip-rule="evenodd" d="M26.501 28.9688C29.1091 32.3449 35.2483 28.0976 32.7204 24.5037C32.4395 24.1044 31.3561 23.342 30.5135 23.814C29.8314 24.2133 30.032 24.8667 29.5505 25.266C28.9486 25.7743 27.3837 25.9921 26.7417 26.464C26.2201 26.8633 25.6583 27.8435 26.501 28.9688Z" fill="#DE940C"/>
<path fill-rule="evenodd" clip-rule="evenodd" d="M29.2296 29.1866C32.4396 32.0907 37.6559 26.9359 34.486 23.7776C34.1249 23.4146 32.9211 22.8338 32.1988 23.4509C31.597 23.9591 31.918 24.54 31.5568 25.0482C31.0753 25.6653 29.5907 26.1009 29.0289 26.6818C28.5073 27.1537 28.1863 28.2427 29.2296 29.1866Z" fill="#FFF3AD"/>
<path fill-rule="evenodd" clip-rule="evenodd" d="M30.5538 27.0085C31.878 27.9161 33.8441 27.0085 34.2855 25.8832C34.4861 25.3024 34.2855 24.3948 33.804 24.0681C32.6002 23.2695 32.8009 24.7215 32.0385 25.375C31.3162 25.9558 29.5106 26.3188 30.5538 27.0085Z" fill="#E6A616"/>
<path fill-rule="evenodd" clip-rule="evenodd" d="M20.1212 23.0516C18.9977 20.329 15.1055 20.8735 13.4203 22.9064L18.5563 25.5564C18.7971 25.5201 18.9576 25.4838 19.1582 25.4112C19.8002 25.1571 20.6428 24.3222 20.1212 23.0516Z" fill="#DE940C"/>
<path fill-rule="evenodd" clip-rule="evenodd" d="M50.1752 21.9263C52.5828 18.4413 45.8818 14.9926 43.1934 18.4776C42.9126 18.8769 42.5514 20.0749 43.3539 20.5831C44.0361 21.0187 44.5978 20.5831 45.2398 20.8009C46.0022 21.0913 46.8448 22.3256 47.5671 22.6886C48.169 23.0153 49.4129 23.0879 50.1752 21.9263Z" fill="#DE940C"/>
<path fill-rule="evenodd" clip-rule="evenodd" d="M51.6195 22.0715C54.669 19.0222 48.8107 14.5207 45.4402 17.5338C45.079 17.8605 44.4772 18.9859 45.1593 19.603C45.721 20.1112 46.4032 19.7845 46.9649 20.1475C47.6471 20.5468 48.2088 21.89 48.8508 22.3619C49.4126 22.7975 50.6163 23.0517 51.6195 22.0715Z" fill="#FFF3AD"/>
<path fill-rule="evenodd" clip-rule="evenodd" d="M49.1717 20.9825C50.0946 19.7482 49.0112 18.0057 47.7673 17.679C47.1253 17.4975 46.1222 17.7516 45.7611 18.1872C44.9184 19.2763 46.5234 19.0585 47.2858 19.7119C47.968 20.2928 48.4093 21.9263 49.1717 20.9825Z" fill="#E6A616"/>
<path fill-rule="evenodd" clip-rule="evenodd" d="M37.3751 8.63985C40.5852 11.544 45.8015 6.38914 42.6316 3.23088C42.2704 2.86787 41.0667 2.28704 40.3444 2.90417C39.7425 3.41239 40.0635 3.99322 39.7024 4.50145C39.2209 5.11858 37.7363 5.5542 37.1745 6.13503C36.6529 6.64325 36.2917 7.696 37.3751 8.63985Z" fill="#FFE9AA"/>
<path fill-rule="evenodd" clip-rule="evenodd" d="M38.6591 6.4617C39.9832 7.36925 41.9493 6.4617 42.3506 5.33635C42.5512 4.75552 42.3506 3.84798 41.8691 3.52126C40.6653 2.72262 40.866 4.17469 40.1036 4.82812C39.4616 5.40895 37.6158 5.77197 38.6591 6.4617Z" fill="#E7B831"/>
<path fill-rule="evenodd" clip-rule="evenodd" d="M7.6422 17.2071C11.8955 18.6591 14.3431 12.0885 10.0497 10.346C9.56822 10.1645 8.20396 10.0556 7.8027 10.8906C7.4817 11.544 8.04345 12.0159 7.92308 12.5967C7.76258 13.3228 6.59894 14.3029 6.31806 14.9927C6.11743 15.6098 6.27794 16.7351 7.6422 17.2071Z" fill="#FFFED9"/>
<path fill-rule="evenodd" clip-rule="evenodd" d="M7.88289 14.7385C9.4879 15.0652 10.8923 13.5043 10.7719 12.3426C10.6917 11.7255 10.0898 10.9631 9.52803 10.8542C8.08351 10.5638 8.92615 11.7981 8.48477 12.7056C8.12364 13.5043 6.639 14.4844 7.88289 14.7385Z" fill="#EABB36"/>
<path fill-rule="evenodd" clip-rule="evenodd" d="M17.9544 10.7816C21.1645 13.6857 26.3808 8.53089 23.2109 5.37263C22.8497 5.00962 21.646 4.42879 20.9237 5.04592C20.3218 5.55414 20.6428 6.13497 20.2817 6.6432C19.8002 7.26033 18.3156 7.69595 17.7538 8.27677C17.2723 8.7487 16.9112 9.83775 17.9544 10.7816Z" fill="#FFFED9"/>
<path fill-rule="evenodd" clip-rule="evenodd" d="M19.2784 8.60345C20.6025 9.511 22.5686 8.60345 23.01 7.4781C23.2107 6.89727 23.01 5.98973 22.5285 5.66301C21.3248 4.86437 21.5254 6.31644 20.763 6.96988C20.0407 7.5507 18.2351 7.91372 19.2784 8.60345Z" fill="#E7B831"/>
<path fill-rule="evenodd" clip-rule="evenodd" d="M20.7231 22.5797C20.1212 18.514 12.5375 19.7119 12.9387 23.9955C12.9789 24.4674 13.5807 25.5928 14.5438 25.5202C15.3463 25.4476 15.5068 24.7942 16.1488 24.6126C16.9513 24.3948 18.4359 24.8668 19.2384 24.7216C19.9206 24.5763 20.9237 23.9229 20.7231 22.5797Z" fill="#FFFED9"/>
<path fill-rule="evenodd" clip-rule="evenodd" d="M18.2355 23.5962C17.7941 22.1441 15.5872 21.7811 14.5038 22.4708C13.9421 22.8338 13.5007 23.6688 13.6612 24.177C14.0624 25.4839 14.9051 24.2133 15.9483 24.1044C16.9113 23.9955 18.5966 24.7215 18.2355 23.5962Z" fill="#E6A616"/>
<path fill-rule="evenodd" clip-rule="evenodd" d="M28.5877 22.253C31.6372 19.2036 25.7789 14.7022 22.4084 17.7153C22.0473 18.042 21.4454 19.1673 22.1275 19.7845C22.6893 20.2927 23.3714 19.966 23.9332 20.329C24.6153 20.7283 25.1771 22.0715 25.8191 22.5434C26.3808 22.9427 27.5445 23.2331 28.5877 22.253Z" fill="#FFFED9"/>
<path fill-rule="evenodd" clip-rule="evenodd" d="M26.1002 21.1276C27.0231 19.8934 25.9397 18.1509 24.6958 17.8242C24.0538 17.6427 23.0507 17.8968 22.6895 18.3324C21.8469 19.4214 23.4519 19.2036 24.2143 19.8571C24.9366 20.4742 25.3779 22.1078 26.1002 21.1276Z" fill="#E7B831"/>
<path fill-rule="evenodd" clip-rule="evenodd" d="M28.5474 14.7386C31.5568 11.6529 25.6584 7.2241 22.3279 10.2734C21.9668 10.6002 21.4051 11.7255 22.0872 12.3789C22.6489 12.8872 23.3311 12.5605 23.8928 12.8872C24.575 13.2865 25.1768 14.6297 25.8189 15.1016C26.3405 15.4646 27.5442 15.755 28.5474 14.7386Z" fill="#DE940C"/>
<path fill-rule="evenodd" clip-rule="evenodd" d="M30.1927 14.7385C33.2423 11.6892 27.384 7.18778 24.0134 10.2008C23.6523 10.5275 23.0504 11.6529 23.7325 12.27C24.2943 12.7782 24.9764 12.4515 25.5382 12.8145C26.2203 13.2139 26.7821 14.557 27.4241 15.029C27.9858 15.4646 29.1896 15.755 30.1927 14.7385Z" fill="#FFFED9"/>
<path fill-rule="evenodd" clip-rule="evenodd" d="M27.745 13.6495C28.6679 12.4153 27.5845 10.6728 26.3406 10.3461C25.6986 10.1646 24.6955 10.4187 24.3343 10.8543C23.4917 11.9433 25.0967 11.7255 25.8591 12.379C26.5412 12.9961 26.9826 14.6297 27.745 13.6495Z" fill="#E6A616"/>
<path fill-rule="evenodd" clip-rule="evenodd" d="M24.7758 4.61026C22.5689 8.20414 29.4304 11.3624 31.9182 7.73221C32.199 7.33289 32.4799 6.09864 31.6774 5.62671C30.9953 5.22739 30.4335 5.69932 29.7915 5.48151C29.0291 5.22739 28.1464 4.02944 27.384 3.70272C26.742 3.44861 25.4981 3.44861 24.7758 4.61026Z" fill="#DE940C"/>
<path fill-rule="evenodd" clip-rule="evenodd" d="M26.1402 2.65009C22.7696 5.40902 28.1464 10.3824 31.7978 7.69603C32.1991 7.40562 32.9213 6.31656 32.2793 5.62683C31.7577 5.046 31.0756 5.33642 30.5539 4.9371C29.9119 4.46517 29.4706 3.08571 28.9088 2.54118C28.3872 2.10556 27.2235 1.74254 26.1402 2.65009Z" fill="#FFF3AD"/>
<path fill-rule="evenodd" clip-rule="evenodd" d="M28.4676 3.95694C27.3843 5.1186 28.3071 6.93369 29.5109 7.36931C30.1529 7.58712 31.156 7.44191 31.5573 7.04259C32.5203 6.02614 30.9153 6.09875 30.193 5.37271C29.551 4.71928 29.2701 3.0494 28.4676 3.95694Z" fill="#EABB36"/>
<path fill-rule="evenodd" clip-rule="evenodd" d="M45.8817 31.5099C50.4159 28.8962 54.0673 30.0941 54.0673 34.1599C54.0673 38.262 50.4159 43.7073 45.8817 46.321C41.3475 48.9347 37.6961 47.7368 37.6961 43.671C37.6961 39.5689 41.3877 34.1599 45.8817 31.5099Z" fill="white"/>
<path fill-rule="evenodd" clip-rule="evenodd" d="M45.8819 33.6154C47.166 32.8531 48.3697 32.5626 49.3327 32.6352L40.3446 40.3312C41.1873 37.7901 43.354 35.1038 45.8819 33.6154Z" fill="#FFCB05"/>
<path fill-rule="evenodd" clip-rule="evenodd" d="M51.8602 34.7044L53.5856 33.3613L53.6658 36.1928L51.499 38.1168L51.8602 34.7044Z" fill="white"/>
<path d="M43.715 43.8525C43.3138 44.1792 43.073 44.1066 43.073 43.6347C43.073 43.1627 43.3539 42.6182 43.715 42.2915C43.9157 42.11 44.0762 42.0737 44.1966 42.0737L44.5978 41.2751C44.3972 41.2751 44.0762 41.384 43.6749 41.7107C42.9125 42.3641 42.2304 43.4532 42.2304 44.3607C42.2304 45.2682 42.8724 45.1593 43.6348 44.5059C44.036 44.1792 44.3571 43.7436 44.5978 43.2717L44.1966 43.1991C44.1163 43.3806 43.9558 43.671 43.715 43.8525Z" fill="#ED1C24"/>
<path d="M46.1227 39.6051C45.3202 40.3312 44.7584 41.275 44.7584 42.1826C44.7584 43.0538 45.3202 43.0901 46.1227 42.4004C46.9252 41.6743 47.487 40.6942 47.487 39.823C47.5271 38.9154 46.9653 38.8791 46.1227 39.6051ZM46.1227 41.7469C45.7616 42.0374 45.5609 41.9285 45.5609 41.4565C45.5609 40.9846 45.7616 40.5127 46.1227 40.186C46.4838 39.8956 46.6844 39.9682 46.6844 40.4401C46.7246 40.9483 46.4838 41.4565 46.1227 41.7469Z" fill="#ED1C24"/>
<path d="M50.3357 36.8825C50.3357 36.2291 49.8141 36.4832 49.2122 36.9914L49.1721 37.0277L48.0486 38.0079V40.6942L48.811 40.0045V39.0969L49.0919 38.8428L49.1721 38.9154L49.6135 39.3148L50.4962 38.5524L49.8542 38.0805C50.1351 37.6812 50.3357 37.2456 50.3357 36.8825ZM49.2122 38.2257C49.1721 38.262 49.132 38.2983 49.132 38.2983L48.8511 38.5524V37.899L49.132 37.6449C49.1721 37.6086 49.2122 37.5723 49.2122 37.5723C49.453 37.3908 49.5734 37.3545 49.5734 37.536C49.5734 37.7175 49.453 37.9716 49.2122 38.2257Z" fill="#ED1C24"/>
<path d="M52.5429 34.0873V34.8496C52.5429 35.1764 52.6231 35.5394 52.6231 35.7935L52.3422 35.4305L51.7002 34.8133L50.8977 35.5031V38.1894L51.6601 37.536V36.7736C51.6601 36.4469 51.5799 36.1202 51.5397 35.8298L51.8206 36.1928L52.4626 36.8099L53.2651 36.1202V33.4339L52.5429 34.0873Z" fill="#ED1C24"/>
<path fill-rule="evenodd" clip-rule="evenodd" d="M45.8817 32.127C42.2303 34.2325 39.1808 38.3709 38.4986 41.8922L39.3413 41.1662C40.1037 38.0805 42.7519 34.5955 45.8817 32.7804C49.6134 30.6023 52.6629 31.6188 52.6629 34.9949C52.6629 38.3709 49.6134 42.8723 45.8817 45.0504C43.0729 46.684 40.6654 46.5388 39.6221 44.9052L38.8999 45.5224C40.0234 47.3738 42.7118 47.5553 45.8817 45.7402C50.0547 43.3443 53.3852 38.3346 53.3852 34.5955C53.4253 30.8202 50.0547 29.7311 45.8817 32.127Z" fill="#ED1C24"/>
<path d="M40.0635 41.8922L39.9833 41.9648L38.8999 42.9087V45.595L39.6623 44.9053V44.0703L39.9833 43.7799L40.0234 43.7436C40.6253 43.1991 41.1469 42.473 41.1469 41.8196C41.187 41.1299 40.7055 41.384 40.0635 41.8922ZM40.0635 43.1628C40.0234 43.1991 40.0234 43.1991 39.9833 43.2354L39.7024 43.4895V42.7998L39.9833 42.582C40.0234 42.5457 40.0635 42.5094 40.1037 42.5094C40.3444 42.3278 40.4648 42.2915 40.4648 42.5094C40.4247 42.6909 40.3444 42.9087 40.0635 43.1628Z" fill="#ED1C24"/>
<path d="M42.9524 39.351C42.1499 40.0771 41.5882 41.0209 41.5882 41.9285C41.5882 42.7997 42.1499 42.836 42.9524 42.1463C43.755 41.4202 44.3167 40.4401 44.3167 39.5688C44.3167 38.6613 43.755 38.6613 42.9524 39.351ZM42.9524 41.5291C42.5913 41.8196 42.3907 41.7106 42.3907 41.2387C42.3907 40.7668 42.5913 40.2949 42.9524 39.9682C43.3136 39.6777 43.5142 39.7504 43.5142 40.2223C43.5142 40.7305 43.2734 41.2387 42.9524 41.5291Z" fill="#ED1C24"/>
<path d="M46.0022 36.7737L45.9219 36.8463L44.8386 37.7901V40.4764L45.6009 39.7867V38.9518L45.9219 38.6613L45.9621 38.625C46.564 38.0805 47.0856 37.3545 47.0856 36.701C47.1257 36.0476 46.6041 36.2654 46.0022 36.7737ZM46.0022 38.0442C45.9621 38.0805 45.9621 38.0805 45.9219 38.1168L45.6411 38.3709V37.6449L45.9219 37.4271C45.9621 37.3908 46.0022 37.3545 46.0423 37.3545C46.2831 37.173 46.4035 37.1367 46.4035 37.3545C46.3633 37.5723 46.243 37.7901 46.0022 38.0442Z" fill="#ED1C24"/>
<path fill-rule="evenodd" clip-rule="evenodd" d="M49.1719 34.3051L49.4929 34.9586L50.5361 34.0873L49.6935 35.3216L50.0145 35.975L49.1719 36.0839L48.3292 37.3182L48.6502 36.1928L47.8076 36.3017L48.8509 35.4668L49.1719 34.3051Z" fill="#ED1C24"/>
<path fill-rule="evenodd" clip-rule="evenodd" d="M19.8406 31.4374C24.3747 34.1237 28.0261 39.6416 28.0261 43.7437C28.0261 47.8458 24.3747 48.9711 19.8406 46.2485C15.3064 43.5622 11.655 38.0443 11.655 33.9422C11.655 29.8764 15.3064 28.751 19.8406 31.4374Z" fill="#E2E7EB"/>
<path fill-rule="evenodd" clip-rule="evenodd" d="M19.8408 33.5429C21.1248 34.3052 22.3286 35.3943 23.2916 36.6285L14.3035 33.7607C15.1461 32.1997 17.2728 32.0182 19.8408 33.5429Z" fill="#EAB329"/>
<path fill-rule="evenodd" clip-rule="evenodd" d="M25.7792 41.6382L27.5046 42.2917L27.5849 45.2321L25.4181 44.615L25.7792 41.6382Z" fill="#E2E7EB"/>
<path d="M17.6739 41.2026C17.2727 41.0937 17.0319 40.7306 17.0319 40.2224C17.0319 39.7505 17.3128 39.5327 17.6739 39.6416C17.8745 39.7142 18.035 39.8231 18.1554 40.0046L18.5567 39.6779C18.356 39.4238 18.035 39.1697 17.6338 39.0245C16.8714 38.8067 16.1893 39.0971 16.1893 40.0046C16.1893 40.9121 16.8313 41.5656 17.5937 41.8197C17.9949 41.9286 18.3159 41.9286 18.5567 41.7108L18.1554 41.13C18.0752 41.2389 17.8745 41.2752 17.6739 41.2026Z" fill="#A82A30"/>
<path d="M20.0816 39.7867C19.279 39.5326 18.7173 39.8593 18.7173 40.7306C18.7173 41.6018 19.279 42.2916 20.0816 42.5457C20.8841 42.7998 21.4458 42.4368 21.4458 41.5655C21.4458 40.7306 20.8841 40.0408 20.0816 39.7867ZM20.0816 41.9648C19.7204 41.8559 19.5198 41.4929 19.5198 40.9847C19.5198 40.4765 19.7204 40.295 20.0816 40.4039C20.4427 40.5128 20.6433 40.8758 20.6433 41.3477C20.6433 41.8559 20.4427 42.0737 20.0816 41.9648Z" fill="#A82A30"/>
<path d="M24.2946 42.0375C24.2946 41.3841 23.773 41.021 23.1711 40.8032H23.131L22.0075 40.4402V43.1265L22.81 43.3807V42.4731L23.0908 42.582L23.1711 42.7272L23.6125 43.6348L24.4952 43.8889L23.8532 42.6546C24.094 42.582 24.2946 42.4005 24.2946 42.0375ZM23.131 42.0012C23.0908 42.0012 23.0507 42.0012 23.0507 41.9649L22.7698 41.8923V41.2389L23.0507 41.3115C23.0908 41.3115 23.131 41.3478 23.131 41.3478C23.3717 41.4567 23.4921 41.5656 23.4921 41.7834C23.5322 42.0012 23.3717 42.0738 23.131 42.0012Z" fill="#A82A30"/>
<path d="M26.5017 41.856V42.6183C26.5017 42.945 26.582 43.3806 26.582 43.6711L26.3011 42.9813L25.6591 41.6018L24.8566 41.3477V44.0341L25.619 44.2519V43.4895C25.619 43.1628 25.5387 42.7635 25.4986 42.4368L25.7795 43.1265L26.4215 44.5423L27.224 44.7964V42.1101L26.5017 41.856Z" fill="#A82A30"/>
<path fill-rule="evenodd" clip-rule="evenodd" d="M19.8406 32.0546C16.1892 29.8765 13.1396 30.421 12.4575 33.1436L13.3001 33.3977C14.0625 31.2196 16.7108 30.8203 19.8406 32.708C23.5722 34.9224 26.6218 39.4964 26.6218 42.8725C26.6218 46.2485 23.5722 47.1924 19.8406 44.9417C17.0318 43.2718 14.6243 40.2588 13.581 37.4635L12.8587 37.2457C13.9823 40.404 16.6707 43.7437 19.8406 45.6314C23.9735 48.0999 27.344 47.0835 27.344 43.3081C27.344 39.569 23.9735 34.5231 19.8406 32.0546Z" fill="#A82A30"/>
<path d="M14.0224 34.9587C13.9823 34.9587 13.9823 34.9587 13.9421 34.9224L12.8587 34.5956V37.282L13.6211 37.5361V36.6648L13.9421 36.7737H13.9823C14.5841 36.9553 15.1058 36.81 15.1058 36.1929C15.1459 35.5395 14.6243 35.1765 14.0224 34.9587ZM14.0224 36.2292C13.9823 36.2292 13.9823 36.2292 13.9421 36.1929L13.6613 36.1203V35.4306L13.9421 35.5032C13.9823 35.5032 14.0224 35.5395 14.0625 35.5395C14.3033 35.6484 14.4236 35.7573 14.4236 35.9751C14.3835 36.1929 14.2631 36.2655 14.0224 36.2292Z" fill="#A82A30"/>
<path d="M16.8715 35.7936C16.069 35.5395 15.5073 35.8662 15.5073 36.7374C15.5073 37.6087 16.069 38.2984 16.8715 38.5525C17.674 38.8066 18.2358 38.4436 18.2358 37.5724C18.2358 36.7374 17.7142 36.0477 16.8715 35.7936ZM16.8715 37.9717C16.5104 37.8628 16.3098 37.4998 16.3098 36.9916C16.3098 36.5196 16.5104 36.3018 16.8715 36.4107C17.2327 36.5196 17.4333 36.8827 17.4333 37.3546C17.4333 37.8265 17.2327 38.0806 16.8715 37.9717Z" fill="#A82A30"/>
<path d="M19.9207 36.8101C19.8806 36.8101 19.8806 36.8101 19.8405 36.7738L18.7571 36.4471V39.1334L19.5194 39.3876V38.5526L19.8405 38.6615H19.8806C20.4825 38.843 21.0041 38.6978 21.0041 38.0807C21.0442 37.391 20.5627 37.0279 19.9207 36.8101ZM19.9207 38.0807C19.8806 38.0807 19.8806 38.0807 19.8405 38.0444L19.5596 37.9718V37.2821L19.8405 37.3547C19.8806 37.3547 19.9207 37.391 19.9608 37.391C20.2016 37.4999 20.322 37.6088 20.322 37.8266C20.2818 38.0081 20.1615 38.117 19.9207 38.0807Z" fill="#A82A30"/>
<path fill-rule="evenodd" clip-rule="evenodd" d="M23.1307 38.0806L23.4517 39.097L24.495 39.4963L23.6524 39.7141L23.9734 40.7306L23.1307 39.8956L22.2881 40.1135L22.6091 39.3511L21.7665 38.4799L22.8097 38.8792L23.1307 38.0806Z" fill="#A82A30"/>
<path fill-rule="evenodd" clip-rule="evenodd" d="M46.7645 11.1446C46.9652 12.0159 47.1658 13.0686 47.2862 13.1049C48.0084 13.1775 48.7307 13.2864 49.3727 13.4679C47.4868 16.6988 40.9062 15.3193 41.8291 11.5803C42.1501 10.2734 43.3539 9.98298 44.0761 10.0919C44.8385 10.2008 45.9219 10.9994 46.7645 11.1446Z" fill="#DE940C"/>
<path fill-rule="evenodd" clip-rule="evenodd" d="M42.9928 11.4351C41.9896 15.4283 49.5332 16.7352 50.8172 12.5968C50.9777 12.1249 50.8573 10.8906 49.9345 10.6728C49.1721 10.4913 48.7708 11.0358 48.0887 10.9995C47.2862 10.9632 46.0423 10.0557 45.2398 9.91047C44.5175 9.80156 43.3138 10.092 42.9928 11.4351Z" fill="#FFFED9"/>
<path fill-rule="evenodd" clip-rule="evenodd" d="M45.7212 11.2899C45.6008 12.7783 47.4867 13.831 48.7707 13.5406C49.4127 13.3954 50.1751 12.742 50.2152 12.1975C50.3356 10.8543 49.0917 11.7618 48.0485 11.544C47.1256 11.3262 45.8416 10.0919 45.7212 11.2899Z" fill="#E6A616"/>
<path fill-rule="evenodd" clip-rule="evenodd" d="M54.6689 46.9019L53.8664 49.4067L32.4395 60.3699V58.3007L54.6689 46.9019Z" fill="white"/>
<path fill-rule="evenodd" clip-rule="evenodd" d="M10.4913 58.228C11.5345 61.1684 20.4825 60.0068 19.7201 56.9211C19.6399 56.5944 18.8374 55.7958 17.7138 55.8684C16.7508 55.941 16.6305 56.4492 15.8681 56.5944C14.9452 56.7759 13.0994 56.4855 12.1364 56.6307C11.2938 56.7759 10.1301 57.2841 10.4913 58.228Z" fill="#A89986"/>
<path fill-rule="evenodd" clip-rule="evenodd" d="M10.9323 56.8123C11.8151 60.8418 19.2784 59.2445 18.6364 55.0335C18.5561 54.5616 17.9141 53.4725 16.9511 53.5814C16.1486 53.6903 16.0282 54.3438 15.4264 54.5616C14.664 54.8157 13.1392 54.4164 12.3367 54.5979C11.6145 54.7794 10.6514 55.5054 10.9323 56.8123Z" fill="#FFFED9"/>
<path fill-rule="evenodd" clip-rule="evenodd" d="M13.3799 55.6869C13.9416 57.1026 16.1084 57.3567 17.1516 56.6307C17.6733 56.2677 18.0745 55.3964 17.8739 54.8882C17.3924 53.6177 16.63 54.9245 15.5868 55.0697C14.6639 55.2149 12.9385 54.5615 13.3799 55.6869Z" fill="#DE940C"/>
</svg>
