<svg width="65" height="64" viewBox="0 0 65 64" fill="none" xmlns="http://www.w3.org/2000/svg">
<path fill-rule="evenodd" clip-rule="evenodd" d="M7.49345 29.7957L56.5486 28.9413L47.8811 50.0894C46.0205 54.6609 39.622 58.506 31.1361 58.506C22.6955 58.506 15.9794 54.789 14.3911 50.1322L7.49345 29.7957Z" fill="#CAD5DD"/>
<path fill-rule="evenodd" clip-rule="evenodd" d="M43.435 55.1308C41.6199 56.3271 39.3509 57.3097 36.7643 57.8652C34.9037 58.2497 32.907 58.4206 30.8196 58.4206C30.3658 58.4206 29.8666 58.4206 29.4128 58.3778C25.2379 58.1215 21.6076 56.968 18.9302 55.259L14.9368 31.6328L49.6066 31.0774L43.435 55.1308Z" fill="#D7DFE2"/>
<path fill-rule="evenodd" clip-rule="evenodd" d="M41.1198 56.4126C39.8038 57.0107 38.3063 57.5234 36.718 57.8652C34.8575 58.2497 32.8608 58.4206 30.7733 58.4206C30.3195 58.4206 29.8203 58.4206 29.3665 58.3779C27.0976 58.2497 24.9647 57.8224 23.0588 57.1816L22.6958 31.5474L45.1132 31.1629L41.1198 56.4126Z" fill="#F3F6F9"/>
<path fill-rule="evenodd" clip-rule="evenodd" d="M7.49345 29.7957L56.5486 28.9413L48.5164 48.0387C45.8844 52.1829 39.3044 55.1736 31.3176 55.1736C22.7863 55.1736 15.6164 51.7557 13.5743 47.1415L7.49345 29.7957Z" fill="#C8252F"/>
<path fill-rule="evenodd" clip-rule="evenodd" d="M44.208 52.012C40.8953 53.9773 36.4028 55.1736 31.3203 55.1736C26.2378 55.1736 21.6091 53.9773 18.2964 52.012L14.8476 31.6756L49.5174 31.1201L44.208 52.012Z" fill="#DA242C"/>
<path fill-rule="evenodd" clip-rule="evenodd" d="M41.3924 53.3792C38.5335 54.49 35.0846 55.1736 31.3635 55.1736C28.3685 55.1736 25.555 54.7463 23.0591 54.02L22.6507 31.5474L35.8107 31.3338L45.1135 31.2056L41.3924 53.3792Z" fill="#ED1C24"/>
<path fill-rule="evenodd" clip-rule="evenodd" d="M7.49345 29.7957H56.1855L53.6443 35.8625C48.6526 39.7076 40.7112 42.1856 31.8168 42.1856C22.6048 42.1856 14.4365 39.494 9.44477 35.4352L7.49345 29.7957Z" fill="#C8252F"/>
<path fill-rule="evenodd" clip-rule="evenodd" d="M31.9091 33.0427C46.9751 33.0427 59.3183 25.8651 59.3183 17.0214C59.3183 8.17757 46.9751 1 31.9091 1C16.8432 1 4.5 8.17757 4.5 17.0214C4.5 25.8651 16.7978 33.0427 31.9091 33.0427Z" fill="url(#paint0_linear_2_1876)"/>
<path fill-rule="evenodd" clip-rule="evenodd" d="M31.9091 31.8037C45.7952 31.8037 57.1401 25.1388 57.1401 17.0214C57.1401 8.90387 45.7952 2.23898 31.9091 2.23898C17.9777 2.23898 6.63284 8.86115 6.63284 17.0214C6.63284 25.1816 17.9777 31.8037 31.9091 31.8037Z" fill="#CAD5DD"/>
<path fill-rule="evenodd" clip-rule="evenodd" d="M31.9091 6.93857C44.207 6.93857 52.5568 12.4072 56.0056 18.9439H59.2275V21.7209C59.2729 22.1482 59.3183 22.5327 59.3183 22.9599C59.3183 31.8037 47.0659 38.9813 31.9091 38.9813C16.7524 38.9813 4.5 31.8037 4.5 22.9599V18.9439H8.76566C12.2145 12.4072 19.566 6.93857 31.9091 6.93857Z" fill="#E2E7EB"/>
<path fill-rule="evenodd" clip-rule="evenodd" d="M46.0202 3.1789C46.0202 5.3578 46.3379 7.1522 46.111 4.97329C46.0656 4.37516 49.106 3.05073 49.469 3.73431C49.8775 4.50333 49.8321 5.65687 49.3783 5.99866C47.0639 7.83577 50.2859 5.82776 51.6926 5.48597C52.4641 5.27236 52.6456 4.8024 52.7817 4.84512C53.1902 5.01601 51.7834 8.04939 51.1027 8.34846C49.6052 9.07476 50.1497 8.39118 51.8288 7.19492C52.3733 6.81041 53.1902 6.04138 53.5078 6.16955C53.7347 6.255 53.8255 8.77569 53.3263 9.45927C52.0557 11.1682 52.9633 10.1429 54.0524 8.22029C54.6877 7.10947 55.2776 6.46862 55.4591 6.68224C55.8222 7.06675 55.8675 9.71561 54.7331 9.03204C54.4608 8.86114 60.0424 10.1429 59.5433 10.3992C58.8626 10.741 57.8189 11.04 56.3213 11.4673C56.5482 12.0227 59.4525 11.3391 59.1802 11.6382C56.9113 14.0734 60.7231 12.4499 60.3147 13.0481C58.5903 15.7396 56.3667 19.542 54.6877 22.0627C54.3246 22.6609 53.5986 23.729 52.8271 23.7717C52.2372 23.8144 51.6926 23.9853 50.9666 23.9426C50.5582 23.9426 48.743 23.8144 48.7884 23.8571C44.2958 20.781 44.6588 18.7303 45.1126 15.0988C45.4757 12.0227 44.8857 9.80106 43.9781 6.59679C43.5697 4.67423 43.4336 2.53804 46.0202 3.1789Z" fill="#699B42"/>
<path fill-rule="evenodd" clip-rule="evenodd" d="M46.0223 3.17888C43.4357 3.3925 44.7063 5.10145 45.8862 4.41787C46.3854 4.1188 48.019 2.75165 49.0174 3.34978C49.6073 3.69157 49.6527 3.94791 49.2443 4.2897C46.9299 6.12681 50.1065 5.22962 51.4679 4.88783C54.236 4.16153 52.0578 5.44324 51.1048 5.87047C49.6073 6.59677 49.9703 7.79304 51.6494 6.59677C52.557 5.95592 54.3721 5.35779 53.1469 7.06673C51.8763 8.77568 52.8292 9.5447 53.9184 7.62214C55.3705 5.05872 56.4596 7.02401 54.599 8.43389C54.4175 8.56206 62.2228 10.5273 58.8193 10.4846C57.8664 10.4846 55.7789 9.28836 56.2327 10.3137C56.4596 10.8691 61.0883 11.5954 58.6832 11.6382C54.599 11.7236 61.1791 12.5354 60.453 13.0053C57.9117 14.6288 56.2781 18.9439 54.599 21.4646C54.236 22.0627 53.5099 23.1308 52.7385 23.1735C52.1486 23.2163 51.604 23.3872 50.8779 23.3444C50.4695 23.3444 48.6543 23.2163 48.6997 23.259C44.2072 20.1829 44.5702 18.1322 45.024 14.5006C45.387 11.4245 44.7971 9.20291 43.8895 5.99864C43.345 4.07608 43.4357 2.53803 46.0223 3.17888Z" fill="#99CC33"/>
<path fill-rule="evenodd" clip-rule="evenodd" d="M44.2962 4.50331C44.2508 6.93855 45.2945 8.51933 45.7937 10.1855C45.9752 10.8264 45.8845 11.4673 46.0206 12.0654C46.1114 12.4926 46.0206 13.048 46.1567 12.2363C46.5198 10.0574 45.5214 7.9212 45.703 5.82774C45.7937 4.97327 47.2005 4.28969 46.3836 4.50331C45.8845 4.63148 44.6139 4.93054 44.2962 4.50331Z" fill="#D1DB39"/>
<path fill-rule="evenodd" clip-rule="evenodd" d="M48.3364 5.48596C47.7918 6.38316 47.8372 7.49397 47.7464 8.17755C47.5195 9.54471 47.2926 10.9546 46.9296 12.3217C46.5212 13.8598 47.4288 11.04 47.5649 10.6982C48.0641 9.37381 48.2002 8.64751 48.7902 7.3658C48.9263 7.10946 49.6978 5.95592 49.6978 5.78503C49.2893 5.52869 48.654 5.82775 48.3364 5.48596Z" fill="#D1DB39"/>
<path fill-rule="evenodd" clip-rule="evenodd" d="M50.1071 7.15221C49.6079 8.13485 49.5625 9.11749 49.4264 9.80107C49.3356 10.1001 49.1995 10.3565 49.1087 10.6555C48.9726 10.9973 48.8818 11.2537 49.1541 10.8264C49.6533 10.0574 50.1978 9.33111 50.6516 8.56209L51.5138 7.15221C51.6046 7.02404 50.5155 7.53672 50.1071 7.15221Z" fill="#D1DB39"/>
<path fill-rule="evenodd" clip-rule="evenodd" d="M56.0056 10.0574C55.5971 10.4419 55.3702 10.9119 54.9618 11.3391L52.0576 14.2016L51.15 15.1415L51.8307 14.5861L56.2325 11.1255C57.0493 10.3992 55.9602 10.9546 56.0056 10.0574Z" fill="#D1DB39"/>
<path fill-rule="evenodd" clip-rule="evenodd" d="M57.0968 11.9372C56.8699 12.279 56.5522 12.9199 56.2346 13.1762C55.5539 13.7316 55.1001 14.287 54.5102 14.9706C53.6933 15.996 55.9623 13.8598 56.4161 13.6034C56.8245 13.3471 57.5506 13.1762 58.0498 13.0053C58.7304 12.7917 58.7304 12.749 57.9136 12.4926C57.6413 12.4072 57.0514 11.7663 57.0968 11.9372Z" fill="#D1DB39"/>
<path fill-rule="evenodd" clip-rule="evenodd" d="M54.5553 8.60477C53.7838 9.24562 53.6931 10.3992 52.8309 10.8691C52.2409 11.2109 52.1502 11.9799 51.9233 12.4499C51.6964 12.9199 52.3771 12.1081 52.4678 12.0227C53.1939 11.2109 54.4645 10.3137 55.4175 9.67286C55.7351 9.45924 56.0982 9.41652 55.236 9.11745C54.9637 9.11745 54.5553 8.60477 54.5553 8.60477Z" fill="#D1DB39"/>
<path fill-rule="evenodd" clip-rule="evenodd" d="M20.1567 2.79437C20.1567 4.97327 19.8391 6.72494 20.066 4.58876C20.1114 3.99063 17.0709 2.15351 16.7079 2.70892C16.2995 3.3925 16.3449 4.54603 16.7987 4.97327C19.113 7.23762 15.8911 4.67421 14.4843 4.07607C13.7129 3.73429 13.5313 3.2216 13.3952 3.26433C12.9868 3.34977 14.3936 6.63949 15.0742 7.06673C16.5718 8.04937 16.0272 7.28035 14.3482 5.78502C13.8036 5.31506 12.9868 4.41786 12.6691 4.50331C12.4422 4.54603 12.3515 7.06673 12.8507 7.83575C14.1213 9.75832 13.2137 8.56206 12.1246 6.4686C11.4893 5.22961 10.8993 4.50331 10.7178 4.67421C10.3548 5.01599 10.3094 7.66486 11.4439 7.15218C11.7162 7.02401 6.13451 7.36579 6.63368 7.70758C7.31437 8.17754 8.3581 8.6475 9.85562 9.33108C9.62872 9.84377 6.72444 8.69023 6.99672 8.98929C9.26569 11.8091 5.45382 9.50198 5.86223 10.2283C7.58665 13.2189 9.81024 17.4058 11.4893 20.2256C11.8523 20.8665 12.5784 22.0627 13.3498 22.2336C13.9398 22.3618 14.4843 22.6181 15.2104 22.7463C15.6188 22.789 17.434 23.0026 17.3886 23.0026C21.8812 20.6956 21.5181 18.6021 21.0643 14.8424C20.7013 11.6809 21.2912 9.58742 22.1988 6.51132C22.6072 4.71693 22.7434 2.62347 20.1567 2.79437Z" fill="#699B42"/>
<path fill-rule="evenodd" clip-rule="evenodd" d="M20.1587 2.79439C22.7453 3.43524 21.4747 4.97329 20.2948 4.03337C19.7956 3.64886 18.162 2.02536 17.1636 2.40988C16.5737 2.66622 16.5283 2.87984 16.9367 3.30707C19.2511 5.57142 16.0745 4.11882 14.7131 3.52069C11.945 2.32443 14.1232 3.94793 15.0762 4.58878C16.5737 5.57142 16.2107 6.72496 14.5316 5.22964C13.624 4.41789 11.8089 3.52069 13.0341 5.44325C14.3047 7.36582 13.3518 8.00667 12.2627 5.87049C10.8105 3.05073 9.72142 4.84512 11.582 6.55407C11.7635 6.72496 3.95823 7.32309 7.36169 7.83578C8.31465 7.96395 10.3567 7.1522 9.94831 8.13484C9.72142 8.64753 5.09272 8.56208 7.49783 9.03204C11.582 9.84379 5.00196 9.502 5.72803 10.1001C8.26928 12.1936 9.94831 16.8077 11.582 19.6275C11.945 20.2684 12.6711 21.4646 13.4425 21.6355C14.0325 21.7637 14.577 22.02 15.3031 22.1482C15.7115 22.1909 17.5267 22.4045 17.4813 22.4045C21.9739 20.0975 21.6108 18.004 21.157 14.2443C20.794 11.0828 21.3839 8.98932 22.2915 5.91321C22.8361 4.16155 22.7453 2.62349 20.1587 2.79439Z" fill="#99CC33"/>
<path fill-rule="evenodd" clip-rule="evenodd" d="M21.8803 4.41788C21.9256 6.85313 20.8819 8.22028 20.3827 9.84378C20.2012 10.4419 20.292 11.1255 20.1558 11.6809C20.0651 12.1081 20.1558 12.6635 20.0197 11.8518C19.6567 9.58744 20.655 7.62215 20.4735 5.52869C20.3827 4.67422 18.976 3.7343 19.7928 4.11881C20.292 4.28971 21.5626 4.80239 21.8803 4.41788Z" fill="#D1DB39"/>
<path fill-rule="evenodd" clip-rule="evenodd" d="M17.8415 4.71693C18.3861 5.7423 18.3407 6.76767 18.4314 7.49397C18.6583 8.90385 18.8852 10.3565 19.2483 11.7663C19.6567 13.3898 18.7491 10.3992 18.613 10.0574C18.1138 8.64751 17.9776 7.87848 17.3877 6.51133C17.2516 6.25498 16.4801 4.97328 16.4801 4.75966C16.8885 4.58876 17.5239 4.97328 17.8415 4.71693Z" fill="#D1DB39"/>
<path fill-rule="evenodd" clip-rule="evenodd" d="M16.0723 6.0841C16.5715 7.15219 16.6169 8.17756 16.753 8.86114C16.8438 9.1602 16.9799 9.45927 17.0707 9.80106C17.1614 10.1001 17.2522 10.3992 16.9799 9.92923C16.4807 9.07475 15.9362 8.26301 15.4824 7.40853L14.6202 5.82776C14.5748 5.65686 15.6639 6.38317 16.0723 6.0841Z" fill="#D1DB39"/>
<path fill-rule="evenodd" clip-rule="evenodd" d="M10.1728 7.96396C10.5813 8.43392 10.8082 8.9466 11.2166 9.41656L14.1208 12.749L15.0284 13.8171L14.3477 13.1335L9.94595 8.90388C9.12912 8.09213 10.2182 8.86115 10.1728 7.96396Z" fill="#D1DB39"/>
<path fill-rule="evenodd" clip-rule="evenodd" d="M9.08556 9.63016C9.31246 10.0147 9.63011 10.6983 9.94777 11.04C10.6285 11.7236 11.0823 12.3217 11.6722 13.1335C12.489 14.287 10.22 11.7663 9.76625 11.4246C9.35784 11.1255 8.63177 10.7837 8.13259 10.5701C7.4519 10.2283 7.4519 10.1856 8.26873 10.0574C8.54101 10.0147 9.13094 9.50199 9.08556 9.63016Z" fill="#D1DB39"/>
<path fill-rule="evenodd" clip-rule="evenodd" d="M11.6243 6.76768C12.3957 7.5367 12.4865 8.69024 13.3487 9.3311C13.9386 9.75833 14.0294 10.5274 14.2563 11.04C14.4832 11.5527 13.8025 10.6555 13.7117 10.5274C12.9857 9.58744 11.715 8.47662 10.7621 7.7076C10.4444 7.45126 10.0814 7.32308 10.9436 7.19491C11.2159 7.15219 11.6243 6.72495 11.6243 6.76768Z" fill="#D1DB39"/>
<path fill-rule="evenodd" clip-rule="evenodd" d="M23.8775 3.60617C24.6036 5.91325 25.602 7.62219 24.6036 5.44329C24.286 4.84516 27.5986 1.8545 28.2793 2.36718C29.0508 2.96532 29.3684 4.2043 28.96 4.80243C26.7364 7.96398 30.0491 4.16158 31.6374 3.05076C32.545 2.40991 32.545 1.81178 32.7719 1.81178C33.3618 1.76905 32.5904 5.69963 31.8643 6.42593C30.276 7.96398 30.7298 6.93861 32.3635 4.80243C32.908 4.11885 33.6341 2.87987 34.0879 2.87987C34.4056 2.83714 35.3585 5.44329 34.9955 6.42593C34.0425 8.9039 34.7686 7.32313 35.4947 4.71698C35.9031 3.22166 36.4022 2.23901 36.7199 2.36718C37.3098 2.5808 38.2174 5.35784 36.6291 5.18694C36.2207 5.14422 43.5268 3.56345 42.9823 4.11885C42.2562 4.84516 41.0763 5.69963 39.3519 6.93861C39.8057 7.40857 43.1184 5.18694 42.9369 5.61418C40.9856 9.37386 45.1151 5.61418 44.8428 6.51138C43.6176 10.2283 42.1654 15.4406 40.9856 18.944C40.7133 19.7557 40.2141 21.251 39.2612 21.721C38.5351 22.0628 37.9451 22.5327 37.0376 22.8745C36.5384 23.0881 34.224 23.8999 34.3602 23.8999C27.8255 23.0027 27.5986 20.6529 26.918 16.5942C26.3734 13.1335 24.8759 11.1255 22.6977 8.22032C21.3817 6.42593 20.4741 4.28975 23.8775 3.60617Z" fill="#699B42"/>
<path fill-rule="evenodd" clip-rule="evenodd" d="M23.8765 3.60616C20.7453 5.18694 22.9235 6.34048 24.1488 4.97332C24.6479 4.37519 26.2362 2.11084 27.643 2.23901C28.4598 2.28173 28.6413 2.53807 28.2329 3.1362C26.0093 6.29775 29.5943 3.69161 31.1826 2.5808C34.3591 0.359167 32.0901 2.83714 31.0464 3.81978C29.4581 5.35783 30.275 6.46865 31.954 4.33246C32.8616 3.17893 34.9037 1.59815 33.9507 4.0334C32.9977 6.51137 34.4045 6.81044 35.0852 4.24702C36.0382 0.786403 38.0348 2.28173 36.2197 4.71698C36.0381 4.97332 46.2485 2.92258 42.0282 4.67425C40.8484 5.14421 37.9441 5.01604 38.7609 5.87052C39.2147 6.34048 45.1594 4.67425 42.2097 5.99869C37.2634 8.22031 45.5678 5.6569 44.8418 6.51137C42.3005 9.54475 41.7106 14.9706 40.5307 18.4313C40.2584 19.243 39.7593 20.7383 38.8063 21.2083C38.0802 21.5501 37.4903 22.02 36.5827 22.3618C36.0835 22.5755 33.7692 23.3872 33.9053 23.3872C27.3707 22.49 27.1438 20.1402 26.4631 16.0815C25.9185 12.6208 24.421 10.6128 22.2428 7.70763C20.9268 5.95596 20.473 4.28974 23.8765 3.60616Z" fill="#99CC33"/>
<path fill-rule="evenodd" clip-rule="evenodd" d="M22.1505 5.91326C22.922 8.5194 24.7371 9.58749 25.8716 11.1255C26.28 11.681 26.4162 12.45 26.7792 12.9627C27.0515 13.3472 27.0969 13.988 27.0061 13.0908C26.6885 10.6129 24.7825 8.86119 24.3287 6.55411C24.1472 5.61419 25.6901 4.11887 24.7371 4.80244C24.1926 5.22968 22.7404 6.21232 22.1505 5.91326Z" fill="#D1DB39"/>
<path fill-rule="evenodd" clip-rule="evenodd" d="M27.4645 4.84515C27.1014 6.08414 27.5552 7.19495 27.646 7.96397C27.8275 9.54475 28.009 11.1255 28.0544 12.7063C28.0998 14.5434 28.2359 11.1255 28.2813 10.6983C28.4174 9.07479 28.3721 8.22032 28.6897 6.5541C28.7351 6.25503 29.325 4.63153 29.2796 4.41791C28.6443 4.37519 27.9636 5.01604 27.4645 4.84515Z" fill="#D1DB39"/>
<path fill-rule="evenodd" clip-rule="evenodd" d="M30.1853 5.65691C29.8676 6.93862 30.1853 8.04944 30.2307 8.81846C30.2307 9.16025 30.1399 9.54476 30.0945 9.92928C30.0945 10.2711 30.0492 10.6129 30.2307 10.0147C30.5483 8.94663 31.0021 7.87854 31.2744 6.85317L31.8643 4.88789C32.0005 4.71699 30.8206 5.87053 30.1853 5.65691Z" fill="#D1DB39"/>
<path fill-rule="evenodd" clip-rule="evenodd" d="M38.3989 5.61417C38.0359 6.25502 37.8997 6.85315 37.5367 7.49401L34.9047 12.0654L34.0879 13.518L34.7232 12.5781L38.9435 6.63953C39.8057 5.44327 38.6258 6.59681 38.3989 5.61417Z" fill="#D1DB39"/>
<path fill-rule="evenodd" clip-rule="evenodd" d="M40.35 7.02405C40.1684 7.49401 40.0323 8.34848 39.7146 8.81844C39.034 9.75836 38.6709 10.5701 38.2171 11.5955C37.5364 13.0908 39.6239 9.67291 40.1231 9.16023C40.5315 8.69027 41.3483 8.09214 41.9382 7.70762C42.7097 7.10949 42.7097 7.06677 41.6206 7.19494C41.1668 7.23766 40.2592 6.89588 40.35 7.02405Z" fill="#D1DB39"/>
<path fill-rule="evenodd" clip-rule="evenodd" d="M36.1766 4.88789C35.4051 5.95598 35.7228 7.19497 34.8152 8.22034C34.1799 8.86119 34.3614 9.71566 34.2253 10.3138C34.0891 10.9546 34.6791 9.75839 34.7244 9.63022C35.3597 8.39123 36.585 6.81046 37.538 5.65692C37.8556 5.27241 38.3094 5.05879 37.1295 5.18696C36.8119 5.14423 36.1312 4.84517 36.1766 4.88789Z" fill="#D1DB39"/>
<path fill-rule="evenodd" clip-rule="evenodd" d="M9.58291 15.8251C9.58291 13.9025 10.672 14.4152 12.3057 14.2016C13.0317 14.1161 12.7141 9.75833 16.5713 12.0654C18.7495 13.3471 20.7009 10.8264 20.7009 8.30573C20.7009 5.22963 30.6389 11.5954 32.1365 9.24565C35.6761 3.56341 36.9921 13.7316 41.2577 8.94658C42.7099 7.32309 46.7032 10.0574 44.8427 11.51C42.8914 12.9626 49.7437 11.3391 50.1067 11.2537C52.8748 10.4419 51.6496 14.7997 52.1034 15.0133C54.1001 15.9533 56.6867 15.1842 56.6867 19.7129C56.6867 34.3671 35.6761 37.6569 21.6538 33.5554C16.3898 32.0173 9.71905 29.4539 6.95091 25.2243C5.18111 22.4473 6.45173 14.7143 9.58291 15.8251Z" fill="#FFF3AD"/>
<path fill-rule="evenodd" clip-rule="evenodd" d="M43.5723 15.6969C43.1185 15.6115 37.5822 18.9866 37.9906 19.6702C38.4898 20.6529 39.5789 20.3538 40.668 20.6529C41.5756 20.9092 41.3941 23.0881 43.2546 23.0881C45.0244 23.0881 44.3891 21.5501 45.1152 21.5501C46.0681 21.5501 47.6564 22.1482 48.6094 22.4045C49.1086 22.5327 52.9658 21.6782 53.2835 21.3792C53.828 20.8238 53.4196 20.1829 52.9204 19.7129C51.786 18.5167 50.3792 18.7303 52.5574 17.5768C55.0079 16.295 52.0129 15.3551 50.2431 15.4406C48.564 15.526 47.1119 15.1842 45.569 15.1842C45.0244 15.1842 44.5706 14.9706 43.9807 15.0561C43.7992 15.0561 43.3 15.6542 43.5723 15.6969Z" fill="#EABB36"/>
<path fill-rule="evenodd" clip-rule="evenodd" d="M7.13038 16.8932C6.81272 18.2604 6.81272 18.7731 7.85645 19.9693C8.31024 20.5247 9.62624 21.251 10.4431 21.251C11.5776 21.251 13.0751 24.5407 15.7978 24.5407C17.7945 24.5407 20.3358 24.8825 21.1526 22.6182C22.1963 19.5848 16.297 18.5167 14.3911 17.1068C11.1691 14.6289 9.35396 16.5942 7.13038 16.8932Z" fill="#EABB36"/>
<path fill-rule="evenodd" clip-rule="evenodd" d="M18.0664 11.8518C19.337 13.3471 21.2883 15.3124 23.3304 15.9105C27.4599 17.1923 26.1439 11.3391 24.5103 9.63017C23.3304 8.43391 21.1976 9.03204 19.8362 9.71562C19.2916 9.97196 18.4748 10.271 18.2025 10.741C17.7487 11.4673 18.1572 11.4673 18.0664 11.8518Z" fill="#EABB36"/>
<path d="M14.5557 18.504C15.0697 17.1735 13.6343 15.4608 11.3496 14.6785C9.06486 13.8962 6.79608 14.3406 6.2821 15.6711C5.76812 17.0016 7.20358 18.7144 9.48827 19.4967C11.773 20.279 14.0417 19.8345 14.5557 18.504Z" fill="#ED4E28"/>
<path d="M14.7786 17.9133C15.2927 16.5828 13.8574 14.8698 11.5727 14.0873C9.28799 13.3048 7.01909 13.749 6.50496 15.0795C5.99083 16.41 7.42616 18.123 9.71086 18.9055C11.9956 19.688 14.2645 19.2438 14.7786 17.9133Z" fill="#F58220"/>
<path d="M25.7297 13.1938C26.7052 12.1793 26.0953 10.1631 24.3675 8.69042C22.6397 7.21777 20.4482 6.84636 19.4727 7.86086C18.4972 8.87537 19.107 10.8916 20.8348 12.3643C22.5627 13.8369 24.7542 14.2083 25.7297 13.1938Z" fill="#ED4E28"/>
<path d="M26.194 12.7444C27.1696 11.7299 26.5597 9.71365 24.8319 8.24099C23.1041 6.76834 20.9126 6.39693 19.9371 7.41143C18.9615 8.42593 19.5714 10.4422 21.2992 11.9148C23.027 13.3875 25.2185 13.7589 26.194 12.7444Z" fill="#F58220"/>
<path fill-rule="evenodd" clip-rule="evenodd" d="M33.6775 10.4846C32.1346 11.5955 34.6305 13.1335 35.5381 13.3471C36.3095 13.518 36.9448 13.3471 36.9448 12.5354C37.081 9.88652 35.4927 9.16022 33.6775 10.4846Z" fill="#FDB913"/>
<path fill-rule="evenodd" clip-rule="evenodd" d="M33.8603 10.9973C33.2703 11.4246 34.2233 11.98 34.541 12.0654C34.8132 12.1509 35.0401 12.0654 35.0855 11.7663C35.1309 10.7837 34.541 10.4846 33.8603 10.9973Z" fill="#FFF6BA"/>
<path fill-rule="evenodd" clip-rule="evenodd" d="M14.9818 23.6008C17.16 23.6008 18.9298 21.9346 18.9298 19.8839C18.9298 17.8331 17.16 16.1669 14.9818 16.1669C12.8036 16.1669 11.0338 17.8331 11.0338 19.8839C11.0338 21.9346 12.8036 23.6008 14.9818 23.6008Z" fill="#D00209"/>
<path fill-rule="evenodd" clip-rule="evenodd" d="M15.3918 22.02C17.0255 22.02 18.3868 20.7383 18.3868 19.2003C18.3868 17.6622 17.0255 16.3805 15.3918 16.3805C13.7581 16.3805 12.3968 17.6622 12.3968 19.2003C12.3968 20.7811 13.7581 22.02 15.3918 22.02Z" fill="#EE6305"/>
<path d="M16.8598 17.1198C16.4049 16.7866 15.8614 16.7277 15.646 16.9884C15.4305 17.2491 15.6246 17.7306 16.0795 18.0639C16.5345 18.3972 17.0779 18.456 17.2934 18.1953C17.5089 17.9346 17.3148 17.4531 16.8598 17.1198Z" fill="#FDF1DE"/>
<path fill-rule="evenodd" clip-rule="evenodd" d="M44.7954 33.2564C46.9736 33.2564 48.7434 31.5901 48.7434 29.5394C48.7434 27.4887 46.9736 25.8224 44.7954 25.8224C42.6172 25.8224 40.8474 27.4887 40.8474 29.5394C40.8474 31.5901 42.6172 33.2564 44.7954 33.2564Z" fill="#D00209"/>
<path fill-rule="evenodd" clip-rule="evenodd" d="M45.2046 31.6756C46.8383 31.6756 48.1997 30.3939 48.1997 28.8558C48.1997 27.3178 46.8383 26.0361 45.2046 26.0361C43.571 26.0361 42.2096 27.3178 42.2096 28.8558C42.2096 30.3939 43.5256 31.6756 45.2046 31.6756Z" fill="#EE6305"/>
<path d="M46.6688 26.7573C46.2139 26.4241 45.6705 26.3652 45.455 26.6259C45.2395 26.8866 45.4336 27.3682 45.8885 27.7014C46.3435 28.0347 46.8869 28.0935 47.1024 27.8328C47.3179 27.5721 47.1237 27.0906 46.6688 26.7573Z" fill="#FDF1DE"/>
<path fill-rule="evenodd" clip-rule="evenodd" d="M53.918 10.0147C46.7935 16.765 45.8405 18.004 44.8875 20.3111C45.2959 19.4566 47.1111 19.7984 48.9717 20.1829C50.6053 17.3204 53.3735 14.6288 58.819 9.92922C56.7316 9.41654 55.1433 9.50199 53.918 10.0147Z" fill="#B35542"/>
<path fill-rule="evenodd" clip-rule="evenodd" d="M53.9181 10.0147C53.1921 9.16024 52.466 8.30577 51.7853 7.45129C44.6153 14.5861 44.3431 15.9106 42.7548 18.3031C43.4809 18.9867 44.1616 19.6275 44.8876 20.3111C45.9767 17.6622 47.1566 16.5087 53.9181 10.0147Z" fill="#CC7C6C"/>
<path fill-rule="evenodd" clip-rule="evenodd" d="M51.7399 7.40855C52.9651 6.85314 54.508 6.7677 56.6408 7.40855C56.9131 7.494 58.456 8.81843 58.7736 9.88652C57.2307 9.58745 55.6425 9.41656 53.8727 9.97197C53.192 9.1175 52.4659 8.26302 51.7399 7.40855Z" fill="#FAC5BD"/>
<path d="M53.2341 17.7698C52.7322 16.6119 50.7264 16.2875 48.754 17.0452C46.7815 17.803 45.5894 19.3559 46.0912 20.5138C46.593 21.6717 48.5988 21.9961 50.5713 21.2384C52.5437 20.4806 53.7359 18.9277 53.2341 17.7698Z" fill="#ED4E28"/>
<path d="M53.0153 17.2603C52.5135 16.1024 50.5077 15.778 48.5352 16.5357C46.5628 17.2935 45.3706 18.8464 45.8725 20.0043C46.3743 21.1622 48.3801 21.4866 50.3525 20.7289C52.325 19.9712 53.5171 18.4182 53.0153 17.2603Z" fill="#F58220"/>
<path fill-rule="evenodd" clip-rule="evenodd" d="M44.3435 20.7383C46.5217 20.7383 48.2915 19.0721 48.2915 17.0214C48.2915 14.9706 46.5217 13.3044 44.3435 13.3044C42.1653 13.3044 40.3955 14.9706 40.3955 17.0214C40.3955 19.0294 42.1653 20.7383 44.3435 20.7383Z" fill="#D00209"/>
<path fill-rule="evenodd" clip-rule="evenodd" d="M44.753 19.1576C46.3867 19.1576 47.748 17.8758 47.748 16.3378C47.748 14.7997 46.3867 13.518 44.753 13.518C43.1193 13.518 41.758 14.7997 41.758 16.3378C41.758 17.8758 43.074 19.1576 44.753 19.1576Z" fill="#EE6305"/>
<path d="M46.221 14.2264C45.7661 13.8931 45.2226 13.8343 45.0072 14.095C44.7917 14.3557 44.9858 14.8372 45.4407 15.1705C45.8957 15.5038 46.4391 15.5626 46.6546 15.3019C46.8701 15.0412 46.6759 14.5597 46.221 14.2264Z" fill="#FDF1DE"/>
<path fill-rule="evenodd" clip-rule="evenodd" d="M42.7087 20.2683C41.1658 21.3792 43.6617 22.9172 44.5693 23.1308C45.3407 23.3017 45.9761 23.1308 45.9761 22.3191C46.1122 19.6702 44.5693 18.9439 42.7087 20.2683Z" fill="#FDB913"/>
<path fill-rule="evenodd" clip-rule="evenodd" d="M42.8914 20.781C42.3015 21.2083 43.2545 21.7637 43.5721 21.8491C43.8444 21.9346 44.0713 21.8491 44.1167 21.5501C44.1621 20.5247 43.5721 20.2683 42.8914 20.781Z" fill="#FFF6BA"/>
<path fill-rule="evenodd" clip-rule="evenodd" d="M49.9246 20.9947C50.1969 22.7891 52.8289 21.5074 53.5096 20.8665C54.0541 20.3111 54.1903 19.713 53.4642 19.2857C51.0591 17.9186 49.6523 18.8158 49.9246 20.9947Z" fill="#FDB913"/>
<path fill-rule="evenodd" clip-rule="evenodd" d="M51.104 19.7984C51.1947 20.482 52.1931 20.012 52.42 19.7557C52.6469 19.5421 52.6922 19.3285 52.42 19.1576C51.5124 18.6449 50.9678 18.9867 51.104 19.7984Z" fill="#FFF6BA"/>
<path fill-rule="evenodd" clip-rule="evenodd" d="M14.1205 13.9453C15.6634 15.0561 13.1675 16.5941 12.2599 16.8077C11.4885 16.9786 10.8531 16.8077 10.8531 15.996C10.717 13.3471 12.2599 12.6208 14.1205 13.9453Z" fill="#FDB913"/>
<path fill-rule="evenodd" clip-rule="evenodd" d="M13.9396 14.4579C14.5295 14.8852 13.5766 15.4406 13.2589 15.526C12.9866 15.6115 12.7597 15.526 12.7144 15.227C12.669 14.2016 13.2589 13.9453 13.9396 14.4579Z" fill="#FFFAC0"/>
<path fill-rule="evenodd" clip-rule="evenodd" d="M27.4147 17.534C27.3693 15.6542 27.5055 14.4152 28.05 12.6635C28.413 11.5955 26.6432 11.5527 26.6432 10.8692C26.6432 10.741 26.1441 10.8692 26.0987 10.8692C25.6449 10.6983 26.4164 10.4419 25.4634 10.3565C24.9188 10.3137 24.5558 9.33111 24.3743 9.67289C24.1474 10.1429 24.3743 10.5701 23.8297 10.6555C23.4667 10.6983 23.8751 11.3818 23.6482 11.5527C23.3759 11.7664 23.6028 11.98 23.7843 12.1509C24.0566 12.4927 23.0583 12.279 23.6936 13.0481C23.8751 13.3044 23.3306 13.1762 23.5121 13.3899L24.0112 13.988C24.6012 14.6716 24.6466 14.4152 25.3272 14.6716C25.6449 14.7997 25.5995 15.1415 25.8264 15.3551C26.0079 15.526 26.734 15.7824 26.6886 16.1242C26.6433 16.3805 26.8248 16.8077 26.9155 17.0641C26.3256 16.0387 26.7794 17.1923 26.371 16.7223C25.8718 16.1242 25.8264 15.8251 25.5088 15.3124C25.3726 15.1415 24.465 14.3298 24.102 14.6288C23.739 14.9279 24.102 14.7143 23.4213 14.4152C23.149 14.287 23.6028 14.8425 22.786 14.4152C22.4683 14.287 22.0146 15.1842 22.5591 15.3124C22.6952 15.3551 23.5121 15.4406 23.0583 15.526C22.6045 15.5688 22.0146 16.0814 22.786 16.2951C23.1944 16.4232 23.5121 16.2951 23.9205 16.3805C24.6466 16.5087 23.6936 16.8077 23.3759 16.8077C23.1037 16.8077 22.6499 16.8505 23.149 17.1068C23.6936 17.4059 23.0129 17.3204 23.2852 17.6622C23.3759 17.7904 23.6482 17.8758 23.7843 18.004C24.3289 18.4312 23.4213 18.773 24.1474 18.8585C25.0096 18.9439 26.1895 17.235 27.1878 17.8331C27.687 18.9439 28.413 20.012 29.729 20.9947C29.8198 20.9947 29.9559 20.9947 30.0467 20.9947C28.7761 20.012 27.9593 19.0294 27.4601 18.0894V18.1322C28.9122 17.7049 29.1845 18.474 30.2736 18.6021C30.4551 18.6449 30.9089 18.6876 31.0904 18.5594C31.7711 18.1749 30.5459 18.004 30.7274 17.9186C31.0451 17.7904 31.3627 17.9613 31.5896 17.7904C31.8619 17.5768 31.4535 17.3631 31.9073 17.235C32.2249 17.1495 32.1342 17.0641 31.8619 16.765C31.5442 16.466 32.7695 16.3378 32.4518 15.9533C32.3157 15.7824 32.6787 15.4406 32.7241 15.1415C32.7695 14.9279 32.4064 14.9279 32.4972 14.6288C32.7241 13.9025 32.4518 14.1162 31.8165 14.0734C31.4535 14.0307 31.4535 14.0307 31.0451 14.3298C30.7728 14.5434 30.7728 13.9453 30.5459 13.988C29.7744 14.1162 28.6399 14.0307 28.6399 15.3551C28.5946 15.9105 27.8231 17.2777 27.4147 17.534Z" fill="#A6CE39"/>
<path fill-rule="evenodd" clip-rule="evenodd" d="M24.5115 10.1428C24.7384 11.4673 26.4174 13.1335 26.6897 14.8424C26.7805 15.3551 27.0527 15.996 26.962 16.5514C26.8712 17.1495 27.1435 16.8505 26.8258 16.0814C26.5536 15.4833 26.1451 15.3124 25.8729 14.7143C25.7821 14.5007 25.1468 14.4579 24.9199 14.3725C24.4661 14.2016 25.6006 14.2443 25.7367 14.2443C25.9636 14.2443 24.6476 13.7316 24.4207 13.6462C23.6947 13.4326 24.8291 13.4753 24.9653 13.4753C25.3737 13.4326 24.4661 13.0481 24.2846 12.8344C24.2392 12.749 24.1485 12.279 24.1938 12.1936C24.4207 11.7236 23.8762 11.6382 24.1485 11.1255C24.2392 10.9546 24.5115 10.1001 24.5115 10.1428Z" fill="#82B941"/>
<path fill-rule="evenodd" clip-rule="evenodd" d="M23.0158 14.7997C23.6057 15.0133 23.7419 14.9706 24.3772 15.0561C25.1486 15.1415 25.5117 16.466 26.1016 16.9359C26.6915 17.4486 25.8747 16.9786 25.6478 16.765C25.5571 16.6796 24.6495 16.1242 24.6949 16.1669C25.0579 16.5087 24.831 16.466 24.468 16.2523C24.1957 16.0814 23.9234 16.0814 23.6057 16.0387C23.515 16.0387 22.9251 15.9533 23.1066 15.9533C23.8326 15.996 23.2427 15.3979 23.0158 15.1842C22.9251 15.0988 22.7435 14.9706 22.7889 14.8425C22.7889 14.757 23.1519 14.757 23.0158 14.7997Z" fill="#82B941"/>
<path fill-rule="evenodd" clip-rule="evenodd" d="M28.2771 17.5768C28.5947 16.8932 29.4569 16.9359 29.8653 16.4659C30.2284 16.0814 30.5914 15.6542 31.0906 15.4406C31.499 15.2697 31.8167 14.8852 32.0435 14.6715C32.3612 14.4152 31.7713 14.6288 31.6805 14.7143C31.0906 15.0561 31.6351 14.3725 31.5444 14.4152C31.1813 14.6288 30.8637 14.8424 30.5914 15.0561C30.5006 15.1415 29.9561 15.7824 30.0469 15.4406C30.0922 15.2269 30.2284 15.0561 30.2738 14.8424C30.4099 14.1161 30.0469 14.5861 29.82 14.9706C29.7746 15.0561 29.7292 14.6715 29.6838 14.6288C29.6838 14.6288 29.0939 16.5087 29.1393 15.6542C29.1393 15.5687 28.9124 15.0988 29.0031 15.4406C29.1393 16.2096 28.4132 16.6796 28.2771 17.1922C28.2317 17.3631 27.7779 17.7049 27.6417 17.7904C27.5056 17.8758 27.9594 17.7049 28.0048 17.6622C28.0955 17.534 28.3224 17.4913 28.2771 17.5768Z" fill="#82B941"/>
<path fill-rule="evenodd" clip-rule="evenodd" d="M17.7015 11.1255C21.9217 19.7557 22.3755 21.251 22.4209 23.729C22.3755 22.7891 20.515 22.5327 18.6544 22.2764C18.2006 19.0294 16.5216 15.6542 13.1635 9.45928C15.251 9.63017 16.7485 10.2283 17.7015 11.1255Z" fill="#B35542"/>
<path fill-rule="evenodd" clip-rule="evenodd" d="M17.7062 11.1255C18.7045 10.5274 19.7029 9.97197 20.6558 9.37384C24.74 18.4312 24.5131 19.7557 25.1484 22.5327C24.2408 22.9172 23.3332 23.3017 22.4256 23.729C22.3349 20.8665 21.6542 19.4139 17.7062 11.1255Z" fill="#CC7C6C"/>
<path fill-rule="evenodd" clip-rule="evenodd" d="M20.6535 9.37383C19.7006 8.47664 18.2938 7.87851 16.0248 7.75034C15.7526 7.75034 13.8013 8.47664 13.1206 9.41656C14.7088 9.6729 16.2517 10.0147 17.7039 11.0828C18.7022 10.5274 19.7006 9.97196 20.6535 9.37383Z" fill="#FAC5BD"/>
<path fill-rule="evenodd" clip-rule="evenodd" d="M33.5867 16.2951C31.8169 25.6515 31.7715 27.1896 32.4068 29.6248C32.2253 28.6849 33.9497 28.0013 35.6741 27.3178C35.2657 24.0708 35.9464 20.3965 37.5347 13.6035C35.538 14.2871 34.3128 15.227 33.5867 16.2951Z" fill="#CC7C6C"/>
<path fill-rule="evenodd" clip-rule="evenodd" d="M33.59 16.2951C32.5009 15.9533 31.3664 15.6542 30.2773 15.3124C28.7344 25.0534 29.3244 26.2497 29.4605 29.1122C30.4588 29.2831 31.4118 29.4539 32.4102 29.5821C31.7295 26.8478 31.9564 25.267 33.59 16.2951Z" fill="#B35542"/>
<path fill-rule="evenodd" clip-rule="evenodd" d="M30.2772 15.3552C30.9579 14.2444 32.1378 13.3472 34.316 12.7063C34.5883 12.6209 36.6303 12.8772 37.5833 13.6035C36.1312 14.2016 34.7244 14.9279 33.6353 16.2951C32.4554 15.996 31.3663 15.6542 30.2772 15.3552Z" fill="#FAC5BD"/>
<path fill-rule="evenodd" clip-rule="evenodd" d="M39.4867 18.0468C36.3101 27.1042 36.0832 28.5995 36.3101 31.0775C36.2647 30.1376 38.0799 29.6676 39.8951 29.2404C39.9859 25.9934 41.2111 22.4046 43.7977 15.9106C41.7557 16.3378 40.3489 17.1068 39.4867 18.0468Z" fill="#CC7C6C"/>
<path fill-rule="evenodd" clip-rule="evenodd" d="M39.4882 18.0467C38.4445 17.5768 37.4007 17.1068 36.357 16.6369C33.362 26.0788 33.7704 27.3605 33.4981 30.1803C34.4511 30.4793 35.404 30.7784 36.357 31.0775C36.0847 28.2577 36.5839 26.7196 39.4882 18.0467Z" fill="#B35542"/>
<path fill-rule="evenodd" clip-rule="evenodd" d="M36.3554 16.6796C37.1722 15.6969 38.4882 14.9279 40.7572 14.5861C41.0295 14.5434 43.0262 15.0561 43.843 15.9106C42.3001 16.3378 40.8026 16.8505 39.532 18.0895C38.4428 17.5768 37.3991 17.1495 36.3554 16.6796Z" fill="#FAC5BD"/>
<path d="M35.3259 30.9702C35.4953 29.611 33.7562 28.2998 31.4417 28.0414C29.1271 27.7831 27.1135 28.6756 26.9442 30.0348C26.7749 31.394 28.5139 32.7052 30.8285 32.9636C33.143 33.2219 35.1566 32.3294 35.3259 30.9702Z" fill="#ED4E28"/>
<path d="M35.4077 30.3546C35.5772 28.9954 33.8383 27.6839 31.5238 27.4254C29.2092 27.1669 27.1955 28.0592 27.026 29.4184C26.8565 30.7776 28.5955 32.089 30.91 32.3475C33.2246 32.6061 35.2383 31.7138 35.4077 30.3546Z" fill="#F58220"/>
<path fill-rule="evenodd" clip-rule="evenodd" d="M10.8992 22.2336C12.2152 23.8144 13.5766 25.0107 12.0791 23.5154C11.6707 23.0881 13.3951 20.6529 14.0758 20.9519C14.8926 21.2937 15.5279 22.1909 15.3918 22.6609C14.6203 25.1388 16.0725 22.1055 16.98 21.1656C17.4792 20.6529 17.3431 20.1829 17.5246 20.1829C17.9784 20.0975 18.6591 23.0027 18.296 23.6008C17.5246 24.8398 17.57 24.0708 18.2053 22.4045C18.4322 21.8491 18.6137 20.9092 18.9767 20.8665C19.2036 20.8238 20.8373 22.6182 20.8373 23.3445C20.8373 25.2243 20.9734 24.028 20.7011 22.0627C20.5196 20.9092 20.6104 20.1829 20.928 20.2256C21.4726 20.3538 23.1063 22.2764 21.7449 22.2764C21.4272 22.2764 26.782 20.5247 26.5551 20.9519C26.1921 21.5073 25.5567 22.2764 24.5584 23.3017C25.0576 23.6008 27.0543 21.721 27.0089 22.02C26.6458 24.9252 28.7787 21.8491 28.8241 22.5327C29.051 25.3097 29.5501 29.2403 29.7316 31.8465C29.777 32.4446 29.8224 33.5981 29.2325 33.9826C28.7787 34.2817 28.4156 34.6662 27.8257 35.008C27.5081 35.2216 25.9198 35.9907 26.0105 35.9907C20.4743 35.9052 19.5213 34.239 17.6607 31.3338C16.1178 28.8985 14.2119 27.5314 11.5345 25.6515C9.8101 24.498 8.40334 23.0027 10.8992 22.2336Z" fill="#699B42"/>
<path fill-rule="evenodd" clip-rule="evenodd" d="M10.8954 22.2336C8.89873 23.6435 10.9862 24.2844 11.5307 23.2163C11.7576 22.7463 12.3022 20.9519 13.4367 20.9092C14.1174 20.8665 14.3443 21.0374 14.2081 21.5073C13.4367 23.9853 15.4787 21.8064 16.4317 20.8665C18.2923 18.9866 17.2485 20.9946 16.7494 21.7637C15.9779 23.0026 16.9763 23.7289 17.6116 22.0627C17.9746 21.1655 19.1091 19.8411 19.1091 21.6782C19.1091 23.5581 20.3797 23.6435 20.1074 21.7209C19.7444 19.1148 21.8319 20.0547 21.1512 21.9773C21.1058 22.1482 28.6841 19.7984 25.8252 21.3791C25.0538 21.8064 22.6487 21.9773 23.6016 22.5327C24.1008 22.8317 28.3665 21.1228 26.4152 22.3191C23.1479 24.3698 29.0018 21.7637 28.7295 22.4472C27.6404 24.8398 28.911 28.8131 29.0926 31.4619C29.1379 32.0601 29.1833 33.2136 28.5934 33.5981C28.1396 33.8972 27.7766 34.2817 27.1866 34.6235C26.8236 34.8371 25.2807 35.6061 25.3714 35.6061C19.7898 35.5634 18.8368 33.8972 16.9763 30.992C15.4334 28.5567 13.5274 27.1896 10.85 25.3097C9.30714 24.1989 8.39955 23.0026 10.8954 22.2336Z" fill="#99CC33"/>
<path fill-rule="evenodd" clip-rule="evenodd" d="M10.3089 24.028C11.7611 25.8224 13.5763 26.4633 14.983 27.4887C15.5276 27.8732 15.8452 28.3858 16.299 28.7704C16.6621 29.0267 16.889 29.4967 16.5259 28.8558C15.4822 27.0614 13.3947 25.9933 12.2603 24.3698C11.8065 23.6862 12.5779 22.49 12.0334 23.0881C11.7157 23.3872 10.8535 24.1989 10.3089 24.028Z" fill="#D1DB39"/>
<path fill-rule="evenodd" clip-rule="evenodd" d="M14.2081 22.789C14.2989 23.7289 15.0249 24.498 15.3426 25.0534C16.0233 26.1642 16.6586 27.3177 17.2032 28.4713C17.8385 29.7957 16.8401 27.3177 16.704 26.9759C16.2956 25.7797 15.9779 25.1388 15.7056 23.9426C15.6603 23.7289 15.5695 22.49 15.4787 22.3191C15.0249 22.3618 14.6619 22.8745 14.2081 22.789Z" fill="#D1DB39"/>
<path fill-rule="evenodd" clip-rule="evenodd" d="M16.7075 23.1735C16.889 24.1135 17.4789 24.8825 17.7512 25.4806C17.8873 25.737 17.8873 26.036 18.0235 26.2924C18.1142 26.5487 18.205 26.805 18.1596 26.3351C18.0688 25.5661 18.0688 24.7543 18.0235 23.9853L17.8873 22.5327C17.8419 22.3618 17.252 23.259 16.7075 23.1735Z" fill="#D1DB39"/>
<path fill-rule="evenodd" clip-rule="evenodd" d="M23.2853 22.4472C23.1946 22.9172 23.2853 23.3872 23.1946 23.8998L22.5593 27.4032L22.3777 28.514L22.6046 27.7877L24.0568 23.1308C24.3744 22.1909 23.7845 23.1308 23.2853 22.4472Z" fill="#D1DB39"/>
<path fill-rule="evenodd" clip-rule="evenodd" d="M25.3274 23.3017C25.3274 23.6862 25.5089 24.2843 25.3728 24.6261C25.1459 25.3524 25.1005 25.9933 25.0551 26.7623C25.0098 27.9159 25.5997 25.267 25.7812 24.8398C25.9627 24.4552 26.4165 23.9853 26.7342 23.6008C27.188 23.1308 27.1426 23.0881 26.3258 23.259C26.0535 23.3872 25.1913 23.2163 25.3274 23.3017Z" fill="#D1DB39"/>
<path fill-rule="evenodd" clip-rule="evenodd" d="M21.2422 22.0627C20.9699 22.9172 21.6506 23.7717 21.1968 24.5834C20.9245 25.0961 21.3329 25.6942 21.4237 26.1642C21.5145 26.6341 21.6052 25.6942 21.6052 25.6088C21.696 24.6689 22.1952 23.4299 22.6036 22.49C22.7397 22.1909 23.012 21.9773 22.1498 22.1909C21.8775 22.2336 21.1968 22.0627 21.2422 22.0627Z" fill="#D1DB39"/>
<path fill-rule="evenodd" clip-rule="evenodd" d="M59.1821 18.5167V21.7637C59.2275 22.1909 59.2729 22.5754 59.2729 23.0027C59.2729 31.8465 47.0205 39.024 31.8638 39.024C16.7524 38.9813 4.5 31.8037 4.5 22.9599V18.5167H6.76897C8.03959 25.9933 18.7945 31.8037 31.9091 31.8037C45.0238 31.8037 55.7787 25.9933 57.0493 18.5167H59.1821Z" fill="#CAD5DD"/>
<path fill-rule="evenodd" clip-rule="evenodd" d="M59.1369 18.5167C57.8663 26.6342 46.1584 33.0427 31.9093 33.0427C17.6601 33.0427 5.90686 26.6342 4.63624 18.5167H6.76907C8.03969 25.9933 18.7946 31.8037 31.9093 31.8037C45.0239 31.8037 55.7788 25.9933 57.0494 18.5167H59.1369Z" fill="#F7F8F9"/>
<path fill-rule="evenodd" clip-rule="evenodd" d="M59.1822 22.2336V22.7036C59.1822 22.7891 59.1822 22.8745 59.2275 22.9599C58.3653 31.3338 46.4305 37.9559 31.9091 37.9559C16.7524 37.9559 4.5 30.8211 4.5 21.9773C4.5 21.8064 4.5 21.6355 4.5 21.5073C4.95379 30.0948 17.0247 37.016 31.9091 37.016C46.2944 37.016 58.1384 30.4793 59.1822 22.2336Z" fill="#A2B3BC"/>
<path fill-rule="evenodd" clip-rule="evenodd" d="M48.8375 23.7717C50.6527 24.5834 51.7872 25.2243 53.1939 26.4633C54.0562 27.2323 54.873 25.737 55.5083 26.0788C55.6444 26.1215 55.7352 25.6515 55.7352 25.6515C56.0982 25.3525 56.0075 26.1215 56.5066 25.3525C56.7789 24.9252 57.9134 25.0534 57.6411 24.7116C57.2781 24.3271 56.7789 24.3271 56.9151 23.8144C57.0058 23.5154 56.189 23.5153 56.1436 23.259C56.0528 22.9599 55.7806 23.0454 55.5083 23.0881C55.0545 23.1736 55.6898 22.4045 54.6915 22.6182C54.3738 22.7036 54.7368 22.2336 54.4192 22.3191L53.6477 22.49C52.7402 22.6609 52.967 22.8318 52.4225 23.3017C52.1956 23.5154 51.8326 23.3017 51.5603 23.3872C51.3334 23.4726 50.7435 23.9853 50.4712 23.7717C50.2443 23.6008 49.7451 23.5581 49.5182 23.5581C50.7435 23.5153 49.4275 23.3872 50.1082 23.259C50.925 23.0881 51.1973 23.2163 51.7872 23.1736C52.0141 23.1736 53.1939 22.7463 53.0578 22.3191C52.967 21.8919 52.967 22.2764 53.557 21.8491C53.8293 21.6782 53.0578 21.8491 53.8293 21.3364C54.1015 21.1655 53.4208 20.3538 53.0578 20.7383C52.967 20.8665 52.5133 21.4646 52.6494 21.0801C52.7855 20.6529 52.5586 19.9693 52.0595 20.5247C51.7872 20.8238 51.7418 21.1228 51.5149 21.4219C51.1065 21.9773 51.1973 21.0374 51.3788 20.781C51.5149 20.5674 51.651 20.1829 51.1973 20.4392C50.6527 20.7383 51.0611 20.2256 50.6073 20.3111C50.4258 20.3538 50.2443 20.5247 50.0628 20.6101C49.4275 20.9092 49.4728 19.9693 49.0644 20.5247C48.5653 21.2083 49.7451 22.9599 48.7014 23.5581C47.4308 23.4726 46.0694 23.6008 44.5719 24.3271C44.5265 24.4125 44.4811 24.498 44.4357 24.5834C45.9786 23.9426 47.2039 23.6862 48.3384 23.6862H48.293C48.0661 25.1388 47.2039 25.0107 46.6139 25.8224C46.5232 25.9933 46.2509 26.3351 46.2963 26.5487C46.387 27.275 47.0677 26.3351 47.0677 26.5487C47.0224 26.8478 46.7501 27.0614 46.7955 27.3178C46.8862 27.6595 47.2493 27.4032 47.1585 27.8304C47.1131 28.1295 47.2493 28.1295 47.6123 28.0013C48.0207 27.8732 47.6123 28.984 48.1115 28.8558C48.3384 28.8131 48.5199 29.283 48.7468 29.4539C48.9283 29.5821 49.1098 29.283 49.3367 29.4967C49.9266 30.0093 49.8359 29.7103 50.1989 29.1976C50.3804 28.8985 50.4258 28.9413 50.2897 28.4713C50.1989 28.1722 50.7435 28.3858 50.8342 28.1722C51.0611 27.4886 51.6057 26.5487 50.3804 25.9506C49.8813 25.4806 48.9283 24.2417 48.8375 23.7717Z" fill="#A6CE39"/>
<path fill-rule="evenodd" clip-rule="evenodd" d="M57.1848 24.6262C55.8234 24.1989 53.5091 24.8825 51.7393 24.4125C51.1947 24.2416 50.514 24.1989 50.0149 23.8998C49.4703 23.5581 49.6518 23.9426 50.514 23.9853C51.1947 24.028 51.5578 23.7717 52.2384 23.7717C52.5107 23.7717 52.8284 23.259 53.0099 23.0881C53.3729 22.7463 52.8284 23.729 52.7376 23.8571C52.6469 24.028 53.736 23.1735 53.8721 23.0027C54.3713 22.49 53.8267 23.4299 53.7813 23.5153C53.6452 23.8999 54.4167 23.259 54.6889 23.259C54.7797 23.259 55.2335 23.3872 55.3242 23.4726C55.6419 23.8998 56.0049 23.4299 56.368 23.8998C56.5041 24.028 57.2302 24.6262 57.1848 24.6262Z" fill="#82B941"/>
<path fill-rule="evenodd" clip-rule="evenodd" d="M53.4199 21.251C52.9207 21.6782 52.9207 21.8064 52.5577 22.2764C52.1039 22.8745 50.7425 22.6182 50.0165 22.8745C49.245 23.1736 50.0618 22.6609 50.3795 22.5754C50.5156 22.5327 51.4232 22.02 51.3778 22.02C50.8787 22.1909 51.0602 21.9773 51.4232 21.8064C51.6955 21.6782 51.8316 21.4219 52.0132 21.1656C52.0585 21.0801 52.3762 20.6101 52.2854 20.781C51.9224 21.3792 52.7846 21.1656 53.0569 21.0374C53.193 20.9947 53.3745 20.9092 53.5107 21.0374C53.556 21.0801 53.3745 21.4219 53.4199 21.251Z" fill="#82B941"/>
<path fill-rule="evenodd" clip-rule="evenodd" d="M48.4301 24.498C48.9292 25.0534 48.5208 25.7797 48.7931 26.3351C49.02 26.805 49.2469 27.3177 49.2469 27.8304C49.2469 28.2576 49.4738 28.6849 49.5645 28.984C49.7007 29.3685 49.7007 28.7703 49.7007 28.6422C49.6553 28.0013 50.0183 28.7703 50.0183 28.6849C49.973 28.3004 49.9276 27.9159 49.8368 27.5741C49.7914 27.4459 49.4284 26.7196 49.7007 26.9332C49.8822 27.0614 49.973 27.2323 50.1999 27.4032C50.8352 27.8304 50.5629 27.3177 50.2452 26.9759C50.1999 26.8905 50.5629 27.0187 50.6536 27.0187C50.6536 27.0187 49.1561 25.6942 49.9276 26.1215C50.0183 26.1642 50.5629 26.1642 50.1999 26.0787C49.4284 25.8651 49.2923 25.0534 48.8385 24.6689C48.7023 24.5407 48.5662 24.028 48.5662 23.8998C48.5662 23.7717 48.5208 24.1989 48.5662 24.2844C48.5208 24.3698 48.4754 24.5834 48.4301 24.498Z" fill="#82B941"/>
<path fill-rule="evenodd" clip-rule="evenodd" d="M11.1709 56.2417C12.9861 57.0534 14.1205 57.6943 15.5273 58.9333C16.3895 59.7023 17.2063 58.207 17.8416 58.5487C17.9778 58.5915 18.0685 58.1215 18.0685 58.1215C18.4316 57.8224 18.3408 58.5915 18.84 57.8224C19.1123 57.3952 20.2468 57.5234 19.9745 57.1816C19.6114 56.7971 19.1123 56.7971 19.2484 56.2844C19.3392 55.9853 18.5223 55.9853 18.477 55.729C18.3862 55.4299 18.1139 55.5154 17.8416 55.5581C17.3879 55.6435 18.0232 54.8745 17.0248 55.0881C16.7072 55.1736 17.0702 54.7036 16.7525 54.7891L15.9811 54.96C15.0735 55.1309 15.3004 55.3017 14.7558 55.7717C14.529 55.9853 14.1659 55.7717 13.8936 55.8571C13.6667 55.9426 13.0768 56.4553 12.8045 56.2417C12.5776 56.0708 12.0785 56.028 11.8516 56.028C13.0768 55.9853 11.7608 55.8572 12.4415 55.729C13.2583 55.5581 13.5306 55.6863 14.1205 55.6435C14.3474 55.6435 15.5273 55.2163 15.3912 54.7891C15.3004 54.3618 15.3004 54.7463 15.8903 54.3191C16.1626 54.1482 15.3912 54.3191 16.1626 53.8064C16.4349 53.6355 15.7542 52.8238 15.3912 53.2083C15.3004 53.2937 14.8466 53.9346 14.9827 53.5501C15.1189 53.1228 14.892 52.4393 14.3928 52.9947C14.1205 53.2937 14.0752 53.5928 13.8483 53.8919C13.4398 54.4473 13.5306 53.5074 13.7121 53.251C13.8483 53.0374 13.9844 52.6529 13.5306 52.9092C12.9861 53.2083 13.3945 52.6956 12.9407 52.781C12.7592 52.8238 12.5776 52.9947 12.3961 53.0801C11.7608 53.3792 11.8062 52.4393 11.3978 52.9947C10.8986 53.6782 12.0785 55.4299 11.0347 56.028C9.76411 55.9426 8.40273 56.0708 6.90521 56.7971C6.85983 56.8825 6.81445 56.968 6.76908 57.0534C8.31197 56.4126 9.53722 56.1562 10.6717 56.1562H10.6263C10.3994 57.6088 9.49184 57.4807 8.94729 58.2924C8.85653 58.4633 8.58425 58.8051 8.62963 59.0187C8.72039 59.745 9.40108 58.8051 9.40108 59.0187C9.3557 59.3178 9.08342 59.5314 9.1288 59.7877C9.21956 60.1295 9.5826 59.8732 9.49184 60.3004C9.44646 60.5995 9.5826 60.5995 9.94563 60.4713C10.354 60.3431 9.94563 61.4539 10.4448 61.3258C10.6717 61.2831 10.8532 61.753 11.0801 61.9239C11.2616 62.0521 11.4432 61.753 11.67 61.9666C12.26 62.4793 12.1692 62.1803 12.5323 61.6676C12.7138 61.3685 12.7592 61.4112 12.623 60.9413C12.5323 60.6422 13.0768 60.8558 13.1676 60.6422C13.3945 59.9586 13.939 59.0187 12.7138 58.4206C12.2146 57.9506 11.2163 56.7543 11.1709 56.2417Z" fill="#A6CE39"/>
<path fill-rule="evenodd" clip-rule="evenodd" d="M19.4753 57.0961C18.1139 56.6689 15.7996 57.3525 14.0298 56.8825C13.4852 56.7116 12.8045 56.6689 12.3054 56.3698C11.7608 56.028 11.9423 56.4125 12.8045 56.4553C13.4852 56.498 13.8483 56.2417 14.5289 56.2417C14.8012 56.2417 15.1189 55.729 15.3004 55.6008C15.6634 55.259 15.1189 56.2417 15.0281 56.3698C14.9374 56.5407 16.0265 55.6862 16.1626 55.5154C16.6618 55.0027 16.1172 55.9426 16.0718 56.028C15.9357 56.4125 16.7072 55.7717 16.9794 55.7717C17.0702 55.7717 17.524 55.8999 17.6147 55.9853C17.9324 56.4125 18.2954 55.9426 18.6585 56.3698C18.84 56.498 19.5207 57.0961 19.4753 57.0961Z" fill="#82B941"/>
<path fill-rule="evenodd" clip-rule="evenodd" d="M15.7066 53.7637C15.2074 54.1909 15.2074 54.3191 14.8444 54.7891C14.3906 55.3872 13.0292 55.1309 12.3031 55.3872C11.5317 55.6863 12.3485 55.1736 12.6662 55.0881C12.8023 55.0454 13.7099 54.5327 13.6645 54.5327C13.1653 54.7036 13.3468 54.49 13.7099 54.3191C13.9822 54.1909 14.1183 53.9346 14.2998 53.6782C14.3452 53.5928 14.6628 53.1228 14.5721 53.2937C14.2091 53.8919 15.0713 53.6782 15.3435 53.5501C15.4797 53.5074 15.6612 53.4219 15.7973 53.5501C15.8427 53.5501 15.7066 53.8919 15.7066 53.7637Z" fill="#82B941"/>
<path fill-rule="evenodd" clip-rule="evenodd" d="M10.7138 57.0107C11.213 57.5661 10.8046 58.2924 11.0769 58.8478C11.3038 59.3178 11.5307 59.8305 11.5307 60.3431C11.5307 60.7704 11.7576 61.1976 11.8483 61.4967C11.9845 61.8812 11.9845 61.2831 11.9845 61.1549C11.9391 60.514 12.3021 61.2831 12.3021 61.1976C12.2567 60.8131 12.2114 60.4286 12.1206 60.0868C12.0752 59.9586 11.7122 59.2323 11.9845 59.4459C12.166 59.5741 12.2567 59.745 12.4836 59.9159C13.1189 60.3431 12.8467 59.8305 12.529 59.4887C12.4836 59.4032 12.8467 59.5314 12.9374 59.5314C12.9374 59.5314 11.4399 58.207 12.2114 58.6342C12.3021 58.6769 12.8467 58.6769 12.4836 58.5915C11.7122 58.3779 11.576 57.5661 11.1223 57.1816C10.9861 57.0534 10.85 56.5407 10.85 56.4126C10.85 56.2844 10.8046 56.7116 10.85 56.7971C10.85 56.8825 10.7592 57.0534 10.7138 57.0107Z" fill="#82B941"/>
<path fill-rule="evenodd" clip-rule="evenodd" d="M42.3464 12.279C42.6186 12.279 42.8455 11.9373 42.8455 11.51C42.8455 11.0828 42.6186 10.741 42.3464 10.741C42.0741 10.741 41.8472 11.0828 41.8472 11.51C41.8018 11.9373 42.0287 12.279 42.3464 12.279Z" fill="#EABB36"/>
<path d="M29.5942 12.4352C29.3435 12.0821 28.9544 11.9128 28.7252 12.057C28.496 12.2012 28.5135 12.6044 28.7641 12.9575C29.0148 13.3106 29.4039 13.48 29.6331 13.3357C29.8623 13.1915 29.8449 12.7883 29.5942 12.4352Z" fill="#EABB36"/>
<path d="M41.1262 12.5424C40.85 12.2066 40.4494 12.0631 40.2314 12.222C40.0135 12.3809 40.0606 12.782 40.3368 13.1178C40.613 13.4536 41.0136 13.5971 41.2316 13.4382C41.4496 13.2793 41.4024 12.8782 41.1262 12.5424Z" fill="#EABB36"/>
<path d="M26.617 19.1966C26.3663 18.8435 25.9773 18.6741 25.7481 18.8184C25.5189 18.9626 25.5363 19.3658 25.787 19.7189C26.0377 20.072 26.4267 20.2414 26.6559 20.0971C26.8851 19.9529 26.8677 19.5497 26.617 19.1966Z" fill="#EABB36"/>
<path d="M42.6272 24.1548C42.2621 23.9054 41.8348 23.8735 41.6729 24.0836C41.511 24.2936 41.6757 24.6662 42.0409 24.9156C42.406 25.165 42.8333 25.1969 42.9952 24.9869C43.1571 24.7768 42.9923 24.4043 42.6272 24.1548Z" fill="#EABB36"/>
<path d="M42.0307 25.3503C41.928 24.9368 41.6271 24.6494 41.3587 24.7085C41.0903 24.7676 40.9559 25.1508 41.0586 25.5643C41.1614 25.9779 41.4622 26.2652 41.7307 26.2061C41.9991 26.147 42.1335 25.7639 42.0307 25.3503Z" fill="#EABB36"/>
<path d="M29.7 9.38538C29.5973 8.97183 29.2964 8.68449 29.028 8.74359C28.7595 8.80269 28.6252 9.18585 28.7279 9.5994C28.8306 10.013 29.1315 10.3003 29.4 10.2412C29.6684 10.1821 29.8027 9.79894 29.7 9.38538Z" fill="#EABB36"/>
<path d="M36.7104 9.45593C37.1587 9.50329 37.5471 9.33258 37.5778 9.07464C37.6085 8.81669 37.27 8.5692 36.8217 8.52184C36.3734 8.47449 35.985 8.6452 35.9543 8.90314C35.9235 9.16109 36.262 9.40858 36.7104 9.45593Z" fill="#EABB36"/>
<path d="M45.0134 12.103C45.4617 12.1503 45.8501 11.9796 45.8808 11.7217C45.9115 11.4637 45.573 11.2162 45.1247 11.1689C44.6764 11.1215 44.288 11.2922 44.2573 11.5502C44.2265 11.8081 44.565 12.0556 45.0134 12.103Z" fill="#EABB36"/>
<path fill-rule="evenodd" clip-rule="evenodd" d="M43.3468 40.6903C43.1199 40.733 42.893 40.8184 42.6661 40.8612C42.7115 40.6903 42.7115 40.5194 42.7568 40.3485C42.7568 40.1349 42.8022 39.964 42.8022 39.8785C42.8022 39.7076 42.8022 39.6222 42.7568 39.5794C42.7115 39.5367 42.7115 39.5367 42.6207 39.5794C42.5299 39.6222 42.4392 39.7503 42.3938 39.8785C42.303 40.0494 42.2577 40.2203 42.2123 40.4339L42.0761 41.0321C41.8039 41.1175 41.5316 41.1602 41.2139 41.2029C41.2593 40.9893 41.3501 40.7757 41.3955 40.6048C41.5316 40.263 41.6677 39.964 41.8039 39.7076C41.94 39.4513 42.1215 39.1949 42.2577 38.9813C42.4392 38.7677 42.5753 38.6395 42.7568 38.5114C42.893 38.4259 42.9837 38.4259 43.0745 38.4259C43.1653 38.4259 43.256 38.4686 43.3014 38.5541C43.3468 38.6395 43.3922 38.725 43.4375 38.8959C43.4829 39.024 43.4829 39.1949 43.4829 39.3231C43.4829 39.4085 43.4829 39.5367 43.4829 39.6222C43.4375 40.0067 43.3922 40.3485 43.3468 40.6903Z" fill="#FFCB05"/>
<path fill-rule="evenodd" clip-rule="evenodd" d="M43.3468 40.6903C43.1199 40.733 42.893 40.8184 42.6661 40.8612C42.7115 40.6903 42.7115 40.5194 42.7568 40.3485C42.7568 40.1349 42.8022 39.964 42.8022 39.8785C42.8022 39.7076 42.8022 39.6222 42.7568 39.5794C42.7115 39.5367 42.7115 39.5367 42.6207 39.5794C42.5299 39.6222 42.4392 39.7503 42.3938 39.8785C42.303 40.0494 42.2577 40.2203 42.2123 40.4339L42.0761 41.0321C41.8039 41.1175 41.5316 41.1602 41.2139 41.2029C41.2593 40.9893 41.3501 40.7757 41.3955 40.6048C41.5316 40.263 41.6677 39.964 41.8039 39.7076C41.94 39.4513 42.1215 39.1949 42.2577 38.9813C42.4392 38.7677 42.5753 38.6395 42.7568 38.5114C42.893 38.4259 42.9837 38.4259 43.0745 38.4259C43.1653 38.4259 43.256 38.4686 43.3014 38.5541C43.3468 38.6395 43.3922 38.725 43.4375 38.8959C43.4829 39.024 43.4829 39.1949 43.4829 39.3231C43.4829 39.4085 43.4829 39.5367 43.4829 39.6222C43.4375 40.0067 43.3922 40.3485 43.3468 40.6903Z" fill="#EAB129"/>
<path fill-rule="evenodd" clip-rule="evenodd" d="M30.4119 42.9119L30.911 44.4072H32.5447L31.2287 45.3044L31.7279 46.7998L30.4119 45.8598L29.0505 46.7998L29.595 45.3044L28.2337 44.4072H29.8673L30.4119 42.9119Z" fill="#B2D33C"/>
<path fill-rule="evenodd" clip-rule="evenodd" d="M43.4819 44.4072C43.3004 44.6636 43.1642 44.8772 43.0281 45.0908C42.9827 45.1762 42.8919 45.2617 42.8012 45.3471C42.7104 45.4326 42.665 45.518 42.5743 45.6035C42.4835 45.6889 42.4382 45.7316 42.3928 45.8171C42.3474 45.8598 42.3474 45.8598 42.302 45.8598C42.2566 45.9025 42.2566 45.9025 42.2113 45.9453H42.1659C42.1205 45.9453 42.1205 45.9453 42.0751 45.9453C42.0751 45.9453 42.0751 45.9453 42.0297 45.9453C42.0297 45.9453 41.9844 45.9025 41.9844 45.8598C41.9844 45.8171 41.939 45.7744 41.939 45.6889C41.939 45.6462 41.939 45.5608 41.939 45.4753C41.939 45.3899 41.939 45.3471 41.939 45.2617C41.939 45.1762 41.939 45.1335 41.9844 45.0481C41.9844 44.9626 42.0297 44.9199 42.0297 44.8344C42.0297 44.749 42.0751 44.7063 42.0751 44.6636C42.1205 44.5781 42.1659 44.4072 42.2113 44.1936C42.302 43.98 42.3928 43.6809 42.5289 43.3818C42.665 42.9546 42.8012 42.5274 42.9373 42.1429C43.0281 41.7584 43.1642 41.3311 43.255 40.9039C43.3911 40.4766 43.4365 40.0921 43.4365 39.6649C43.4365 39.5794 43.4365 39.4513 43.4365 39.3658C43.4365 39.1949 43.4365 39.0668 43.3911 38.9386C43.3911 38.8531 43.3457 38.8104 43.3457 38.725C43.3457 38.6822 43.3004 38.6395 43.3004 38.5968C43.255 38.5114 43.1642 38.4686 43.0735 38.4686C43.0281 38.4686 43.0281 38.4686 42.9827 38.4686C42.8919 38.4686 42.8466 38.5114 42.7558 38.5541C42.5743 38.6395 42.3928 38.8104 42.2566 39.024C42.0751 39.2377 41.939 39.4513 41.8028 39.7503C41.7121 39.9212 41.6213 40.1349 41.5306 40.3485C41.4852 40.4339 41.4398 40.5621 41.3944 40.6475C41.2583 40.9893 41.1675 41.3311 41.0768 41.6729C40.986 42.0147 40.9406 42.3565 40.8499 42.6983C40.8045 42.9973 40.7591 43.2964 40.7591 43.6382C40.7591 43.6809 40.7591 43.6809 40.7591 43.7236C40.5776 43.8518 40.3961 43.98 40.2599 44.1081L40.2146 44.1509C40.2146 44.1509 40.2146 44.1509 40.1692 44.1936C39.9877 44.3645 39.8061 44.5781 39.6246 44.7917C39.4431 45.0481 39.307 45.2617 39.2162 45.518C39.1255 45.7316 39.0347 45.9025 38.9893 46.0734L38.9439 46.2016C38.9439 46.2443 38.8986 46.2871 38.8986 46.3298C38.8532 46.5007 38.7624 46.6716 38.7624 46.8425C38.7624 46.9279 38.717 47.0134 38.717 47.0988C38.717 47.1843 38.717 47.2697 38.717 47.3124C38.6717 47.3979 38.6263 47.4833 38.5809 47.526C38.5809 47.5688 38.5355 47.5688 38.5355 47.6115C38.4901 47.6542 38.4448 47.7397 38.3994 47.7824C38.354 47.8678 38.2633 47.9106 38.2179 47.996C38.1725 48.0387 38.0817 48.0814 38.0364 48.1242C37.9456 48.1669 37.9002 48.1242 37.9002 48.0814C37.9002 48.0387 37.8548 47.9533 37.8548 47.8251V47.7824C37.8548 47.6115 37.9002 47.4406 37.9456 47.1842C37.991 46.9279 38.0364 46.7143 38.0817 46.5434C38.1271 46.3725 38.1271 46.1589 38.1725 45.988C38.1725 45.9025 38.1725 45.8598 38.2179 45.7744C38.2179 45.6889 38.2179 45.6035 38.2179 45.518C38.2179 45.4326 38.2179 45.3471 38.2179 45.3044C38.2179 45.2617 38.1725 45.219 38.1725 45.219C38.1725 45.219 38.1271 45.219 38.0817 45.219C38.0817 45.219 38.0817 45.219 38.0364 45.219C37.991 45.219 37.991 45.219 37.9456 45.2617C37.9002 45.2617 37.9002 45.3044 37.8548 45.3044H37.8095C37.8095 45.3044 37.7641 45.3044 37.7641 45.3471C37.7187 45.3471 37.6733 45.3899 37.6733 45.3899C37.6279 45.3899 37.5826 45.3899 37.5826 45.3899C37.5372 45.3899 37.5372 45.3899 37.4918 45.3471C37.4918 45.3044 37.4464 45.3044 37.401 45.2617C37.401 45.2617 37.3557 45.219 37.3103 45.219C37.3103 45.219 37.3103 45.219 37.2649 45.219C37.2195 45.219 37.1741 45.219 37.1288 45.2617C37.0834 45.2617 37.038 45.3044 36.9926 45.3471C36.8565 45.4326 36.7204 45.518 36.5388 45.6462C36.3573 45.8171 36.1758 45.988 35.9943 46.2016C35.9489 46.2443 35.9489 46.2871 35.9035 46.3298C35.7674 46.5007 35.6312 46.6716 35.5405 46.8852C35.4951 46.9706 35.4497 47.0988 35.359 47.1842C35.3136 47.2697 35.2682 47.3979 35.2228 47.4833C35.1775 47.5688 35.1775 47.6115 35.1321 47.6969C35.0413 47.9533 34.9506 48.1669 34.9052 48.3805C34.9052 48.4232 34.9052 48.466 34.8598 48.5087V48.5514V48.5941C34.8144 48.765 34.8144 48.9359 34.8144 49.1068C34.769 49.1495 34.7237 49.1923 34.6783 49.235C34.6329 49.2777 34.5875 49.3204 34.5421 49.3632C34.4968 49.4059 34.4968 49.4059 34.4514 49.4486L34.406 49.4913C34.3606 49.534 34.2699 49.5768 34.2245 49.6195C34.1337 49.6622 34.0883 49.7049 34.043 49.7049C34.043 49.7049 33.9976 49.7049 33.9522 49.6622C33.9522 49.6622 33.9068 49.6195 33.9068 49.5768C33.9068 49.5768 33.9068 49.5768 33.9068 49.534C33.9068 49.4913 33.8615 49.4486 33.8615 49.3632C33.8615 49.2777 33.8615 49.235 33.8615 49.1495V49.1068C33.8615 49.1068 33.8615 49.1068 33.8615 49.0641C33.8615 49.0214 33.8615 48.9786 33.9068 48.8932C33.9068 48.8077 33.9522 48.765 33.9522 48.7223C33.9522 48.6796 33.9976 48.5941 33.9976 48.5514C33.9976 48.5087 34.043 48.466 34.043 48.4232C34.1791 48.1242 34.3152 47.8251 34.4514 47.4833V47.4406C34.5421 47.2697 34.6329 47.0988 34.6783 46.8852C34.7237 46.757 34.8144 46.6288 34.8598 46.4579L34.9052 46.3725L34.9506 46.2443C34.9959 46.1162 35.0867 45.9453 35.1321 45.8171C35.1775 45.6889 35.2228 45.5608 35.2682 45.4753C35.3136 45.3899 35.359 45.2617 35.4043 45.1762C35.4951 44.9626 35.5859 44.749 35.6312 44.4927C35.6766 44.4072 35.6766 44.279 35.722 44.1936C35.7674 43.98 35.8581 43.7664 35.9035 43.5527C35.9035 43.51 35.9489 43.4246 35.9489 43.3818C35.9943 43.1682 35.9943 42.9119 35.9943 42.6983C35.9943 42.5701 35.9943 42.4847 35.9489 42.3992C35.9489 42.3565 35.9489 42.3138 35.9035 42.271C35.9035 42.2283 35.8581 42.1856 35.8128 42.1429C35.8128 42.1001 35.7674 42.1001 35.722 42.0574C35.722 42.0574 35.6766 42.0147 35.6312 42.0147C35.6312 42.0147 35.5859 42.0147 35.5859 41.972C35.5405 41.972 35.4497 41.972 35.359 41.972H35.3136H35.2682C35.1321 42.0147 34.9959 42.1001 34.8598 42.2283C34.8144 42.271 34.769 42.271 34.769 42.3138C34.6329 42.4419 34.4968 42.6128 34.3606 42.7837C34.3152 42.8264 34.3152 42.8692 34.2699 42.9119C34.1337 43.0828 34.043 43.2964 33.9068 43.5527C33.8615 43.5955 33.8615 43.6382 33.8161 43.7236C33.7707 43.8091 33.7253 43.8945 33.7253 43.9373C33.6346 44.1509 33.5438 44.3645 33.453 44.6208C33.4077 44.7063 33.4077 44.749 33.3623 44.8344C33.2715 45.1335 33.1808 45.4326 33.09 45.8171C32.9539 46.3298 32.9085 46.5861 32.9085 46.5861V46.6288L32.8177 47.3124C32.727 47.7824 32.6816 48.1669 32.6816 48.466C32.6816 48.5941 32.6816 48.7223 32.6816 48.8505C32.6816 48.9786 32.727 49.0641 32.727 49.1923C32.6816 49.2777 32.5908 49.4059 32.5455 49.4913C32.5001 49.534 32.4547 49.5768 32.4547 49.6195C32.4093 49.6622 32.4093 49.7049 32.3639 49.7049C32.3186 49.7904 32.2278 49.8758 32.1824 49.9186C32.137 50.004 32.0463 50.0467 32.0009 50.0895C31.9555 50.1322 31.8648 50.1749 31.8194 50.1749C31.774 50.1749 31.7286 50.1749 31.7286 50.1749C31.6832 50.1749 31.6832 50.1322 31.6832 50.0895C31.6832 50.0467 31.6379 49.9186 31.6379 49.7904C31.6379 49.6195 31.6832 49.4486 31.7286 49.1923C31.7286 49.1068 31.774 49.0214 31.774 48.9359C31.774 48.8932 31.774 48.8505 31.8194 48.8077C31.8194 48.7223 31.8648 48.6369 31.8648 48.5941C31.9101 48.4232 31.9101 48.2523 31.9555 48.0814V48.0387C32.0009 47.8678 32.0009 47.7397 32.0009 47.6115C32.0009 47.5688 32.0009 47.4833 32.0009 47.4833V47.4406C32.0009 47.3979 31.9555 47.3551 31.9555 47.3551C31.9101 47.3551 31.9101 47.3124 31.8648 47.3124C31.8194 47.3124 31.774 47.3124 31.7286 47.3124C31.6832 47.3124 31.6832 47.3124 31.6379 47.3551C31.5925 47.3551 31.5925 47.3551 31.5471 47.3979C31.5017 47.3979 31.4563 47.3979 31.4563 47.4406C31.411 47.4406 31.3656 47.4406 31.3656 47.4406C31.3202 47.4406 31.3202 47.4406 31.2748 47.3979L31.2294 47.3551C31.2294 47.3551 31.2294 47.3551 31.2294 47.3124C31.1841 47.2697 31.1841 47.2697 31.1387 47.2697H31.0933C31.0479 47.2697 31.0479 47.2697 31.0026 47.2697C30.9572 47.2697 30.9118 47.3124 30.8664 47.3124C30.821 47.3551 30.7303 47.3551 30.6849 47.3979C30.5941 47.4406 30.5488 47.4833 30.458 47.526C30.2765 47.6542 30.095 47.8251 29.9588 47.996C29.8681 48.0814 29.8227 48.1669 29.7319 48.2523C29.6412 48.3805 29.5504 48.466 29.505 48.5941C29.4597 48.6796 29.4143 48.765 29.3235 48.8932C29.2781 48.9359 29.2781 49.0214 29.2328 49.0641C29.1874 49.1495 29.142 49.2777 29.0966 49.3632C29.0512 49.4913 29.0059 49.6195 28.9605 49.7049C28.9151 49.8331 28.8697 50.004 28.8243 50.1322C28.779 50.3458 28.7336 50.6021 28.7336 50.8158C28.7336 50.9867 28.779 51.1575 28.8243 51.2857C28.8697 51.4139 28.9605 51.5421 29.0512 51.6275C29.0966 51.6702 29.142 51.713 29.2328 51.713C29.2781 51.7557 29.3235 51.7557 29.4143 51.7557C29.4597 51.7557 29.505 51.7557 29.5504 51.7557C29.5958 51.7557 29.6412 51.7557 29.6866 51.7557C29.7319 51.7557 29.7773 51.7557 29.8227 51.7557C29.8681 51.7557 29.9134 51.713 29.9588 51.713C30.0496 51.6702 30.095 51.6702 30.1857 51.5848C30.2765 51.5421 30.4126 51.4566 30.5034 51.3712L30.5488 51.3284C30.6849 51.243 30.7757 51.1148 30.8664 51.0294C30.9572 50.9439 31.0479 50.8158 31.0933 50.7303C31.1841 50.9012 31.2294 50.9867 31.3202 51.0721C31.3656 51.1148 31.3656 51.1148 31.411 51.1575C31.411 51.1575 31.4563 51.2003 31.5017 51.2003C31.5017 51.2003 31.5017 51.2003 31.5471 51.2003C31.6379 51.243 31.6832 51.243 31.774 51.243C31.8194 51.243 31.8648 51.243 31.9101 51.2003C32.0009 51.1575 32.137 51.1148 32.2278 51.0294C32.2732 50.9867 32.3186 50.9867 32.3639 50.9439C32.4093 50.9439 32.4093 50.9012 32.4547 50.8585C32.5908 50.773 32.6816 50.6449 32.8177 50.5167C32.8631 50.474 32.9085 50.3885 32.9539 50.3458C33.0446 50.2604 33.09 50.1749 33.1808 50.0895V50.0467C33.1808 50.004 33.2261 50.004 33.2261 49.9613C33.2261 49.9613 33.2261 50.004 33.2715 50.0467C33.3623 50.2604 33.4984 50.3885 33.5892 50.474C33.6799 50.5594 33.8161 50.5594 33.9068 50.5594C33.9522 50.5594 33.9522 50.5594 33.9976 50.5594C34.043 50.5594 34.0884 50.5167 34.1337 50.5167C34.1791 50.474 34.2699 50.474 34.3152 50.4312C34.406 50.3885 34.5421 50.3031 34.6329 50.2176C34.6329 50.2176 34.6329 50.2176 34.6783 50.2176C34.8144 50.1322 34.9052 50.0467 35.0413 49.9613C35.0867 49.9186 35.0867 49.9186 35.1321 49.8758L35.2228 49.7904C35.2682 49.7477 35.2682 49.7477 35.3136 49.7049C35.3136 49.7049 35.3136 49.7049 35.359 49.6622L35.4043 49.7049C35.4043 49.7049 35.4043 49.7049 35.4497 49.7477C35.5405 49.7904 35.6312 49.8331 35.722 49.8758H35.7674C35.8581 49.8758 35.9489 49.8758 35.9943 49.8331C36.0397 49.8331 36.085 49.8331 36.1304 49.7904C36.1758 49.7904 36.1758 49.7904 36.2212 49.7477C36.3119 49.7049 36.4027 49.6622 36.4935 49.5768C36.6296 49.4913 36.7204 49.4059 36.8565 49.2777C36.9473 49.1495 37.0834 49.0641 37.1741 48.9359C37.2649 48.8077 37.3557 48.7223 37.401 48.5941C37.4918 48.765 37.5826 48.9359 37.7187 48.9786C37.7641 49.0214 37.8548 49.0214 37.9456 49.0214C38.0364 49.0214 38.1271 48.9786 38.2179 48.9786C38.3086 48.9359 38.4448 48.8505 38.5355 48.765C38.5809 48.7223 38.6263 48.7223 38.6717 48.6796C38.717 48.6369 38.717 48.6369 38.717 48.5941C38.8532 48.466 38.9439 48.3378 39.0801 48.2096C39.1255 48.1242 39.1708 48.0387 39.2616 47.996C39.2616 48.0387 39.307 48.0387 39.307 48.0814L39.3524 48.1242C39.3977 48.1669 39.4431 48.1669 39.4885 48.2096C39.5339 48.2096 39.5793 48.2523 39.6246 48.2523C39.7608 48.2523 39.8969 48.2523 40.0784 48.1242C40.2146 48.0814 40.3507 47.996 40.4415 47.8678C40.4868 47.8251 40.5322 47.7824 40.623 47.7397C40.6684 47.6969 40.6684 47.6542 40.7137 47.6542C40.7591 47.6115 40.8045 47.5688 40.8045 47.526C40.9406 47.3979 41.0314 47.2697 41.1675 47.0988C41.3037 46.9279 41.3944 46.7997 41.4852 46.6288C41.5306 46.6716 41.5306 46.757 41.5759 46.7997C41.6213 46.8425 41.6667 46.8852 41.7121 46.8852C41.7575 46.8852 41.7575 46.9279 41.8028 46.9279C41.8482 46.9706 41.939 46.9706 41.9844 46.9706C42.0751 46.9706 42.1205 46.9706 42.2113 46.9279H42.2566C42.3474 46.8852 42.3928 46.8852 42.4382 46.8425C42.4835 46.7997 42.5743 46.757 42.6197 46.7143L42.665 46.6716C42.7558 46.5861 42.8466 46.5007 42.8919 46.4152C42.9373 46.3298 43.0281 46.2871 43.0735 46.2016C43.1188 46.1589 43.1188 46.1589 43.1188 46.1162C43.2096 46.0307 43.3004 45.9025 43.3457 45.8171C43.5273 45.5608 43.7088 45.3044 43.9357 45.0481C43.5726 44.9199 43.5273 44.6636 43.4819 44.4072ZM41.7575 44.0227C41.7575 43.98 41.7575 44.0227 41.7575 44.0227C41.7575 43.9373 41.7575 43.8945 41.7575 43.8091C41.7575 43.7664 41.7575 43.7236 41.7575 43.6809C41.7575 43.6382 41.7575 43.5955 41.7575 43.51C41.7575 43.3818 41.7575 43.2964 41.7575 43.1255C41.7575 42.9973 41.7575 42.8692 41.8028 42.6983C41.8028 42.6128 41.8028 42.5274 41.8482 42.3565C41.8482 42.1856 41.8936 42.0147 41.8936 41.7583C41.939 41.5447 41.939 41.3311 42.0297 41.0748C42.0751 40.8184 42.1205 40.6048 42.1659 40.3912C42.2113 40.263 42.2113 40.1776 42.2566 40.0494C42.302 39.964 42.302 39.9212 42.3474 39.8358C42.3928 39.7931 42.3928 39.7503 42.4382 39.7076C42.4382 39.7076 42.4381 39.6649 42.4835 39.6649C42.5289 39.6222 42.5743 39.5794 42.5743 39.5794C42.6197 39.5794 42.6197 39.5794 42.6197 39.5794C42.6197 39.5794 42.665 39.5794 42.665 39.6222C42.7104 39.6649 42.7104 39.7503 42.7104 39.9212C42.7104 40.0494 42.7104 40.1776 42.665 40.3912C42.665 40.5194 42.6197 40.6475 42.6197 40.7757C42.6197 40.8184 42.6197 40.8612 42.5743 40.9039C42.5743 40.9893 42.5289 41.1175 42.4835 41.2029C42.4835 41.2884 42.4382 41.3738 42.4382 41.4593C42.3928 41.6729 42.3474 41.8438 42.302 42.0574C42.2566 42.1856 42.2566 42.3138 42.2113 42.3992C42.2113 42.4847 42.1659 42.5701 42.1659 42.6128C42.0297 43.1255 41.8936 43.5527 41.7575 44.0227ZM40.623 46.4579C40.5776 46.5007 40.5776 46.5861 40.5322 46.6716C40.4868 46.757 40.4415 46.7997 40.3961 46.8425C40.3961 46.8852 40.3507 46.8852 40.3507 46.9279C40.3053 46.9706 40.3053 46.9706 40.2599 47.0134C40.2146 47.0561 40.1692 47.0561 40.1692 47.0988C40.1692 47.0988 40.1692 47.0988 40.1238 47.0988C40.0784 47.0988 40.0784 47.1415 40.033 47.1415C39.9877 47.1415 39.9423 47.1842 39.8969 47.1842C39.8515 47.1842 39.8061 47.1842 39.7608 47.1842C39.7154 47.1842 39.7154 47.1415 39.67 47.0988C39.67 47.0561 39.67 47.0134 39.67 46.9706C39.67 46.8425 39.7154 46.6716 39.7154 46.5007C39.7154 46.5007 39.7154 46.5007 39.7154 46.4579C39.7608 46.2443 39.8515 46.0307 39.9423 45.7316C39.9877 45.6035 40.033 45.518 40.0784 45.3899C40.0784 45.3471 40.1238 45.3471 40.1238 45.3044C40.1692 45.219 40.2146 45.1335 40.2599 45.0481C40.2599 45.0053 40.3053 45.0053 40.3053 44.9626C40.4415 44.749 40.623 44.5354 40.8045 44.3645C40.8045 44.3645 40.8045 44.4072 40.8045 44.4499C40.8045 44.4927 40.8045 44.5354 40.8045 44.5781C40.8045 44.6208 40.8045 44.6208 40.8045 44.6636C40.8045 44.749 40.8045 44.8345 40.8045 44.9626C40.8045 45.0908 40.8045 45.219 40.8045 45.3899C40.8045 45.5608 40.8045 45.6889 40.8045 45.7744C40.8045 45.8598 40.8045 45.9025 40.8045 45.9453C40.7591 46.0734 40.7137 46.2016 40.623 46.3298C40.623 46.3725 40.623 46.4152 40.623 46.4579ZM33.6799 47.227C33.6799 47.2697 33.6799 47.2697 33.6346 47.3124C33.6346 47.227 33.6346 47.1415 33.6346 47.0561C33.6346 46.8425 33.6799 46.5861 33.7253 46.3298C33.7253 46.2871 33.7253 46.2871 33.7253 46.2443C33.7253 46.2016 33.7253 46.1589 33.7253 46.1589C33.7707 45.8171 33.8161 45.6462 33.8161 45.6462C33.8161 45.6462 33.8161 45.6035 33.8161 45.5608C33.8615 45.4753 33.9068 45.2617 33.9976 44.9626C34.043 44.8345 34.043 44.7063 34.0883 44.6208C34.0883 44.5354 34.1337 44.4927 34.1337 44.4072C34.1337 44.3645 34.1791 44.279 34.1791 44.2363C34.2245 44.1509 34.2245 44.0654 34.2699 43.98C34.3152 43.8945 34.3152 43.8518 34.3606 43.7664C34.406 43.7236 34.406 43.6382 34.4514 43.5955C34.4968 43.5527 34.4968 43.51 34.5421 43.4673C34.5875 43.3818 34.6329 43.2964 34.7237 43.2537C34.769 43.211 34.769 43.211 34.8144 43.211C34.8144 43.211 34.8598 43.211 34.8598 43.2964C34.8598 43.3391 34.8598 43.4246 34.8598 43.51C34.8598 43.5527 34.8598 43.5955 34.8598 43.5955C34.8598 43.7664 34.8144 43.98 34.769 44.1936C34.769 44.2363 34.7237 44.3218 34.7237 44.3645C34.6329 44.7063 34.5421 45.0481 34.406 45.3899C34.3606 45.518 34.3152 45.6462 34.2699 45.7744C34.1791 45.988 34.0883 46.2016 34.043 46.4152C33.9976 46.5007 33.9522 46.5861 33.9522 46.6716C33.8615 46.8852 33.7707 47.0561 33.6799 47.227ZM30.821 48.5087C30.7303 48.8505 30.6849 49.235 30.5941 49.5768C30.5941 49.6622 30.5488 49.7904 30.5034 49.9186C30.458 50.0467 30.4126 50.2176 30.3672 50.3458C30.3219 50.4312 30.2765 50.5594 30.2311 50.6449C30.2311 50.6876 30.1857 50.7303 30.1403 50.7303C30.095 50.773 30.0496 50.8158 30.0042 50.8585C29.9588 50.9012 29.9134 50.9012 29.8681 50.9439C29.8227 50.9439 29.7319 50.9439 29.7319 50.9439C29.6866 50.9012 29.6412 50.9012 29.6412 50.8585V50.8158C29.6412 50.773 29.5958 50.7303 29.5958 50.6876C29.5958 50.6449 29.5958 50.5594 29.5958 50.474C29.5958 50.3458 29.5958 50.2176 29.6412 50.0467C29.6412 49.9613 29.6866 49.8331 29.7319 49.7049C29.7319 49.6622 29.7773 49.5768 29.7773 49.534C29.8681 49.3204 29.9134 49.1495 30.0042 49.0214C30.0496 48.9359 30.095 48.8932 30.1403 48.8077C30.1857 48.765 30.1857 48.7223 30.2311 48.6796V48.6369V48.5941C30.2765 48.5514 30.3219 48.466 30.3672 48.4232C30.4126 48.3805 30.458 48.2951 30.5488 48.2523C30.6395 48.1669 30.7757 48.1242 30.8664 48.0814C30.8664 48.2523 30.821 48.3805 30.821 48.5087ZM36.1758 48.9359C36.1304 48.9786 36.1304 48.9786 36.085 48.9786C36.0397 48.9786 35.9943 49.0214 35.9489 48.9786C35.9035 48.9786 35.8581 48.9359 35.8581 48.8932C35.8581 48.8505 35.8128 48.8077 35.8128 48.7223C35.8128 48.6796 35.8128 48.5941 35.8128 48.5087C35.8128 48.3805 35.8128 48.2523 35.8581 48.0814V48.0387C35.9035 47.9106 35.9489 47.7397 35.9943 47.526C36.085 47.3124 36.1304 47.1415 36.2212 46.9706C36.3119 46.7997 36.4027 46.6716 36.4935 46.5434C36.5842 46.4152 36.675 46.2871 36.8111 46.2016C36.9019 46.1162 36.9472 46.0734 37.038 46.0307C37.0834 46.0307 37.0834 45.988 37.1288 45.988C37.038 46.4152 36.9473 46.7997 36.8565 47.227C36.8565 47.3124 36.8111 47.3979 36.8111 47.4833C36.8111 47.5688 36.7657 47.6115 36.7657 47.7397C36.7657 47.7824 36.7657 47.8251 36.7204 47.8678C36.7204 47.9533 36.675 48.0387 36.6296 48.1242C36.6296 48.1669 36.5842 48.2523 36.5842 48.2951C36.5388 48.4232 36.4481 48.5941 36.3573 48.7223C36.3119 48.8505 36.2212 48.8932 36.1758 48.9359Z" fill="#FFCB05"/>
<path fill-rule="evenodd" clip-rule="evenodd" d="M27.8711 45.8598C27.735 45.6462 27.5535 45.518 27.3719 45.3899C27.2812 45.3471 27.1904 45.3044 27.0543 45.2617C26.9635 45.219 26.9181 45.219 26.8274 45.219C26.782 45.219 26.6912 45.1762 26.6459 45.1762H26.6005C26.3282 45.1335 26.0559 45.1335 25.7837 45.1762C25.6929 45.1762 25.6475 45.219 25.6021 45.219C25.4206 45.2617 25.1937 45.3044 25.0122 45.3471C24.8761 45.3899 24.7399 45.4326 24.6038 45.4753C24.4677 45.518 24.3315 45.6035 24.2408 45.6889C24.0592 45.7744 23.9231 45.9025 23.787 46.0307C23.5601 46.2443 23.3786 46.458 23.2878 46.6716C23.197 46.8852 23.1063 47.1415 23.1063 47.3552C23.1063 47.5688 23.1517 47.7397 23.2424 47.9106C23.2424 47.9533 23.2424 47.996 23.2878 47.996C23.3332 48.0815 23.3786 48.1242 23.4239 48.2096C23.5147 48.3378 23.6054 48.4232 23.6962 48.5087C23.8777 48.6369 24.0592 48.8078 24.2861 48.8932C24.513 49.0214 24.7399 49.1068 24.9668 49.1923C25.0122 49.1923 25.0576 49.235 25.103 49.235C25.2845 49.3204 25.466 49.4059 25.6475 49.4486C25.8744 49.5341 26.0559 49.6195 26.2375 49.7477C26.3282 49.8331 26.4643 49.8758 26.5097 49.9613C26.5551 50.004 26.6005 50.0467 26.6459 50.0895C26.6459 50.1322 26.6912 50.1749 26.6912 50.1749C26.7366 50.3031 26.782 50.4313 26.782 50.6021C26.782 50.773 26.7366 50.9439 26.6459 51.0721C26.6459 51.1148 26.6005 51.1576 26.6005 51.2003C26.5551 51.243 26.5551 51.2857 26.5097 51.3285C26.419 51.4566 26.2828 51.5848 26.1467 51.713C26.0106 51.8411 25.829 51.9266 25.6475 52.012C25.6021 52.0548 25.5568 52.0548 25.5114 52.0975C25.2845 52.1829 25.0576 52.2256 24.7853 52.2684C24.6038 52.3111 24.3769 52.2684 24.1954 52.2684C24.15 52.2684 24.1046 52.2256 24.0592 52.2256C23.9231 52.1829 23.8323 52.1402 23.6962 52.0975C23.6508 52.0548 23.6054 52.0548 23.5601 52.012C23.4693 51.9266 23.3786 51.8839 23.3332 51.7557C23.2424 51.6275 23.197 51.4566 23.197 51.243C23.197 51.1576 23.197 51.0721 23.197 50.9867C23.197 50.9439 23.197 50.9012 23.197 50.8585C23.197 50.8158 23.197 50.8158 23.197 50.773C23.197 50.7303 23.2424 50.6449 23.2424 50.6021C23.2424 50.5594 23.2424 50.5167 23.2424 50.5167V50.474C23.2424 50.3885 23.197 50.3031 23.1517 50.2604C23.1063 50.2176 23.0155 50.1749 22.9248 50.1749C22.8794 50.1749 22.8794 50.1749 22.834 50.1749C22.7886 50.1749 22.6979 50.2176 22.6525 50.2604C22.5617 50.3031 22.471 50.3885 22.3802 50.474C22.2894 50.5594 22.2441 50.6876 22.1533 50.8158C22.1079 50.9439 22.0625 51.1148 22.0625 51.2857C22.0625 51.6275 22.1533 51.9266 22.2894 52.1829C22.4256 52.4393 22.6071 52.6102 22.8794 52.7811L22.9248 52.8238C23.197 52.9947 23.4693 53.1228 23.787 53.1656C24.1046 53.2083 24.4677 53.251 24.7853 53.2083C24.8307 53.2083 24.8307 53.2083 24.8761 53.2083C25.0576 53.1656 25.2391 53.1656 25.4206 53.0801C25.466 53.0801 25.5114 53.0801 25.5568 53.0374C25.7837 52.952 26.0106 52.8665 26.2375 52.7383C26.2828 52.6956 26.3282 52.6956 26.3736 52.6529C26.5551 52.5674 26.6912 52.4393 26.8728 52.3111C27.0543 52.1402 27.2358 51.9693 27.3719 51.7557C27.4173 51.713 27.4627 51.6275 27.5081 51.5848C27.5988 51.4566 27.6442 51.2857 27.735 51.1576C27.7803 51.0294 27.8257 50.9439 27.8257 50.8158C27.8257 50.6876 27.8711 50.5594 27.8711 50.4313C27.8711 50.4313 27.8711 50.4313 27.8711 50.3885C27.8711 50.1749 27.8257 50.0467 27.7803 49.8758C27.7803 49.8331 27.735 49.7477 27.735 49.705C27.6896 49.6195 27.6442 49.5341 27.5535 49.4486C27.4627 49.3632 27.4173 49.2777 27.2812 49.1923C27.0997 49.0641 26.9181 48.9359 26.6912 48.8505C26.6005 48.8078 26.4643 48.765 26.3736 48.7223C26.2375 48.6796 26.1467 48.6369 26.0106 48.5514C25.829 48.466 25.6475 48.4232 25.466 48.3378C25.4206 48.3378 25.3752 48.2951 25.3299 48.2951C25.103 48.2096 24.9214 48.1242 24.7399 47.996C24.5584 47.9106 24.4223 47.7824 24.3315 47.6115C24.2408 47.4833 24.1954 47.3124 24.1954 47.1415C24.1954 47.0988 24.1954 47.0561 24.1954 47.0134V46.9706C24.1954 46.9279 24.2408 46.8852 24.2408 46.8425C24.2861 46.7997 24.2861 46.757 24.3315 46.7143C24.3769 46.6716 24.4223 46.6288 24.4677 46.5861L24.513 46.5434C24.5584 46.5007 24.6038 46.458 24.6492 46.458L24.6946 46.4152C24.7853 46.3725 24.8307 46.3298 24.9214 46.2871C25.0576 46.2443 25.1937 46.2016 25.3752 46.1589C25.4206 46.1589 25.5114 46.1162 25.5568 46.1162C25.7837 46.0734 25.9652 46.0734 26.1921 46.0734C26.3282 46.0734 26.4643 46.1162 26.5551 46.1162C26.6005 46.1162 26.6459 46.1162 26.6912 46.1589C26.782 46.2016 26.8274 46.2443 26.8728 46.2871C26.9181 46.3298 26.9635 46.3725 27.0089 46.4152C27.0089 46.458 27.0543 46.458 27.0543 46.5007C27.0997 46.5861 27.145 46.6716 27.145 46.757C27.145 46.8425 27.145 46.9706 27.0997 47.0561C27.0997 47.0988 27.0543 47.1415 27.0543 47.1843C27.0543 47.227 27.0089 47.3124 26.9635 47.3552C26.9635 47.3979 26.9181 47.3979 26.9181 47.4406C26.9181 47.4833 26.8728 47.4833 26.8728 47.526C26.8274 47.6115 26.782 47.6969 26.7366 47.7824V47.8251C26.7366 47.8678 26.6912 47.9106 26.6912 47.9533V47.996C26.6912 48.0387 26.6912 48.0815 26.6912 48.1242V48.1669C26.6912 48.2523 26.7366 48.2951 26.782 48.3378C26.8274 48.3378 26.8274 48.3805 26.8728 48.3805C26.9181 48.3805 26.9181 48.3805 26.9635 48.3805C27.0543 48.3805 27.1904 48.2951 27.3266 48.1669C27.3719 48.1242 27.4173 48.0815 27.4173 48.0387C27.5081 47.9533 27.5988 47.8251 27.6896 47.6969C27.8257 47.4833 27.8711 47.3124 27.9619 47.0988C27.9619 47.0561 27.9619 47.0134 28.0072 46.9706C28.0526 46.8425 28.0526 46.7143 28.0526 46.5861C28.0526 46.2871 28.0072 46.0307 27.8711 45.8598Z" fill="#FFCB05"/>
<defs>
<linearGradient id="paint0_linear_2_1876" x1="31.8873" y1="1" x2="31.8873" y2="33.0239" gradientUnits="userSpaceOnUse">
<stop stop-color="#F4F4F7"/>
<stop offset="1" stop-color="white"/>
</linearGradient>
</defs>
</svg>
